<svg id="Layer_1" data-name="Layer 1" xmlns="http://www.w3.org/2000/svg" viewBox="0 0 963 957"><defs><style>.cls-1{fill:#f2f1f1;stroke-width:50px;}.cls-1,.cls-2,.cls-4,.cls-7{stroke:#231f20;}.cls-1,.cls-2,.cls-3,.cls-4,.cls-7{stroke-miterlimit:10;}.cls-2{fill:#4db29d;}.cls-2,.cls-3,.cls-4,.cls-7{stroke-width:10px;}.cls-3,.cls-4{fill:none;}.cls-3{stroke:#fff;}.cls-5{fill:#ababab;}.cls-6{fill:#231f20;}.cls-7,.cls-9{fill:#fff;}.cls-8{fill:#cccccb;}</style></defs><title>Quarterly Update Graphic</title><rect class="cls-1" x="112" y="251" width="739" height="440.59" rx="12" ry="12"/><rect class="cls-2" x="300" y="101" width="356" height="497.7" rx="25" ry="25"/><path class="cls-2" d="M368,64h0a7,7,0,0,1,7,7v67a7,7,0,0,1-7,7h-1a7,7,0,0,1-7-7V72a8,8,0,0,1,8-8Z"/><path class="cls-2" d="M423,64h0a7,7,0,0,1,7,7v67a7,7,0,0,1-7,7h-1a7,7,0,0,1-7-7V72A8,8,0,0,1,423,64Z"/><path class="cls-2" d="M478,64h0a7,7,0,0,1,7,7v67a7,7,0,0,1-7,7h-1a7,7,0,0,1-7-7V72a8,8,0,0,1,8-8Z"/><path class="cls-2" d="M533,64h0a7,7,0,0,1,7,7v67a7,7,0,0,1-7,7h-1a7,7,0,0,1-7-7V72a8,8,0,0,1,8-8Z"/><path class="cls-2" d="M588,64h0a7,7,0,0,1,7,7v67a7,7,0,0,1-7,7h-1a7,7,0,0,1-7-7V72a8,8,0,0,1,8-8Z"/><line class="cls-3" x1="348" y1="297" x2="608" y2="297"/><line class="cls-3" x1="348" y1="338" x2="608" y2="338"/><line class="cls-3" x1="348" y1="379" x2="608" y2="379"/><line class="cls-3" x1="348" y1="461" x2="608" y2="461"/><line class="cls-3" x1="348" y1="420" x2="608" y2="420"/><line class="cls-3" x1="348" y1="543" x2="608" y2="543"/><line class="cls-3" x1="348" y1="502" x2="608" y2="502"/><line class="cls-4" x1="348" y1="292" x2="608" y2="292"/><line class="cls-4" x1="348" y1="333" x2="608" y2="333"/><line class="cls-4" x1="348" y1="374" x2="608" y2="374"/><line class="cls-4" x1="348" y1="456" x2="608" y2="456"/><line class="cls-4" x1="348" y1="415" x2="608" y2="415"/><line class="cls-4" x1="348" y1="538" x2="608" y2="538"/><polygon class="cls-5" points="396 875 434 712 536 712 574 875 396 875"/><path class="cls-6" d="M532,717l35,153H403l35-153h94m8-10H430L390,880H580L540,707Z"/><line class="cls-4" x1="348" y1="497" x2="608" y2="497"/><circle class="cls-7" cx="558" cy="224" r="42"/><rect class="cls-6" x="88" y="623" width="788" height="61.52"/><path class="cls-8" d="M122,755a30,30,0,0,1-30-30V659H871v66a30,30,0,0,1-30,30Z"/><path class="cls-6" d="M866,664v61a25,25,0,0,1-25,25H122a25,25,0,0,1-25-25V664H866m10-10H87v71a35,35,0,0,0,35,35H841a35,35,0,0,0,35-35V654Z"/><path class="cls-8" d="M308,907V881a30,30,0,0,1,30-30H631a30,30,0,0,1,30,30v26Z"/><path class="cls-6" d="M631,856a25,25,0,0,1,25,25v21H313V881a25,25,0,0,1,25-25H631m0-10H338a35,35,0,0,0-35,35v31H666V881a35,35,0,0,0-35-35Z"/><circle class="cls-9" cx="482" cy="707" r="24"/><path class="cls-9" d="M410,266h-3l-8-6-6,2H383c-11,0-20-4-27-11h0c-6-7-8-16-8-27s2-18,7-25,16-14,28-14,22,4,29,13,7,15,7,25a51,51,0,0,1-2,13,38,38,0,0,1-6,12l5,4,2,3a4,4,0,0,1-1,3l-4,5Zm-26-63c-6,0-10,2-13,5s-5,9-5,17,2,12,5,16,7,5,12,5v-2a5,5,0,0,1,1-3l4-5,3-2h3l5,4,2-5a40,40,0,0,0,1-10c0-7-2-12-5-15S390,203,384,203Z"/><path class="cls-6" d="M384,190q17,0,25,11t6,22a46,46,0,0,1-2,12,31,31,0,0,1-8,14l9,7-4,5-10-8-8,3h-9q-15,0-23-10t-7-24q0-13,6-22t25-12m1,60h9l-7-5,4-5,8,7a24,24,0,0,0,5-10,44,44,0,0,0,1-11q0-11-6-18t-16-7-16,7-6,20q0,12,6,18t17,7m-1-69c-14,0-25,5-32,16s-8,17-8,27,3,21,9,29h0c7,9,18,13,30,13l12-2h4l6,4,5,2a9,9,0,0,0,7-3l4-5a9,9,0,0,0-1-13h-2a44,44,0,0,0,4-10,55,55,0,0,0,2-14c0-11-3-20-8-27s-18-15-32-15Zm-6,59-4-3c-2-3-4-7-4-13s1-12,4-14,4-4,10-4,8,2,9,4,4,7,4,12a34,34,0,0,1-1,7l-5-2a9,9,0,0,0-7,3l-4,5-2,3Z"/><path class="cls-9" d="M460,263c-13,0-21-5-26-14s-4-12-4-20V192a4,4,0,0,1,5-4h9a4,4,0,0,1,5,5v40a19,19,0,0,0,2,9c1,2,3,5,9,5s10-3,11-5,2-5,2-9V192a4,4,0,0,1,5-4h9a4,4,0,0,1,5,5v36c0,9-1,15-4,20a24,24,0,0,1-10,11A34,34,0,0,1,460,263Z"/><path class="cls-6" d="M485,192v36q0,12-3,18t-22,12q-16,0-22-12t-3-18V192h9v40a23,23,0,0,0,3,12q4,7,13,7t15-8,2-11V192h9m0-9h-9a9,9,0,0,0-9,9v40c0,4-1,6-1,7s-1,3-7,3-5-1-5-2h0a15,15,0,0,1-1-7V192a9,9,0,0,0-9-9h-9a9,9,0,0,0-9,9v36c0,9,1,17,4,22s12,17,30,17,26-9,30-17,4-13,4-22V192a9,9,0,0,0-9-9Z"/></svg>