<svg id="Layer_1" data-name="Layer 1" xmlns="http://www.w3.org/2000/svg" xmlns:xlink="http://www.w3.org/1999/xlink" viewBox="0 0 1124 400"><defs><style>.cls-1,.cls-10,.cls-12,.cls-4,.cls-7{fill:#fff;}.cls-1{clip-rule:evenodd;}.cls-2{fill:none;}.cls-3{fill:#39b39d;stroke:#37b39d;}.cls-3,.cls-5,.cls-8{stroke-miterlimit:10;stroke-width:5px;}.cls-11,.cls-4{font-size:14px;}.cls-10,.cls-4{font-family:HelveticaNeue-Bold, Helvetica Neue;font-weight:700;}.cls-5{fill:#3486b0;stroke:#3586b0;}.cls-6{letter-spacing:-0.06em;}.cls-8{fill:#f89823;stroke:#f89824;}.cls-9{letter-spacing:-0.02em;}.cls-10{font-size:12px;}.cls-12{fill-rule:evenodd;}.cls-13{clip-path:url(#clip-path);}.cls-14{opacity:0.25;}.cls-15{clip-path:url(#clip-path-2);}.cls-16{fill:#f8c990;}</style><clipPath id="clip-path"><path class="cls-1" d="M526,326l-8-8a16,16,0,1,0-4,4l8,8Zm-21-5a12,12,0,1,1,12-12A12,12,0,0,1,505,321Z"/></clipPath><clipPath id="clip-path-2"><polygon class="cls-2" points="421 261 400 262 395 230 425 230 421 261"/></clipPath></defs><title>Honeycomb Icons</title><polygon class="cls-3" points="774 285 748 338 681 338 655 285 681 232 748 232 774 285"/><text class="cls-4" transform="translate(673 269)">Notifications</text><polygon class="cls-5" points="369 171 344 224 276 224 251 171 276 118 344 118 369 171"/><text class="cls-4" transform="translate(272 151)"><tspan class="cls-6">W</tspan><tspan x="12" y="0">orkbooks</tspan></text><path class="cls-7" d="M325,165H291v2h0v2h0v2h0v2h0v2h0v3h0v2h0v2h34l2-2V166Zm-1,42H294V168h29Z"/><rect class="cls-7" x="300" y="179" width="19" height="2.9"/><rect class="cls-7" x="300" y="185" width="19" height="2.9"/><polygon class="cls-8" points="672 229 646 282 579 282 553 229 579 176 646 176 672 229"/><text class="cls-4" transform="translate(576 211)">Scheduling</text><path class="cls-7" d="M629,222v3h0a2,2,0,1,1-4,0h0v-3Z"/><path class="cls-7" d="M601,222v3h0a2,2,0,1,1-4,0v-3Z"/><path class="cls-7" d="M630,225h0a3,3,0,1,1-6,0H602a3,3,0,1,1-6,0h0a3,3,0,0,0-3,3v32a3,3,0,0,0,3,3h35a3,3,0,0,0,3-3V228A3,3,0,0,0,630,225Zm-1,34H597V232h33Z"/><rect class="cls-7" x="609" y="237" width="8" height="7.83"/><rect class="cls-7" x="619" y="237" width="8" height="7.83"/><rect class="cls-7" x="609" y="247" width="8" height="7.83"/><rect class="cls-7" x="599" y="247" width="8" height="7.83"/><rect class="cls-7" x="619" y="247" width="8" height="7.83"/><polygon class="cls-5" points="471 113 445 166 378 166 352 113 378 61 445 61 471 113"/><text class="cls-4" transform="translate(389 80)">Health<tspan x="-17" y="17">Documents</tspan></text><path class="cls-7" d="M428,119l-9-9H395v47h33V120Zm-30,34V112h16c4,0,2,10,2,10s10-2,10,2v29Z"/><polygon class="cls-7" points="422 135 414 135 414 128 410 128 410 135 402 135 402 140 410 140 410 147 414 147 414 140 422 140 422 135"/><path class="cls-7" d="M736,300h-3c-3,0-8-1-11-7s-8-8-12-8h-7v44h4V309h2l9,3h5c6,0,11-6,14-10a9,9,0,0,0,1-4Zm-6,7-3,2h-6l-11-3h-2V289h7l4,5a17,17,0,0,0,7,7l7,2Z"/><polygon class="cls-8" points="672 113 647 166 579 166 554 113 579 61 647 61 672 113"/><text class="cls-4" transform="translate(567 100)">Questionai<tspan class="cls-9" x="72" y="0">r</tspan><tspan x="77" y="0">es</tspan></text><path class="cls-7" d="M628,123l-9-9H597v45h32V123Zm-29,33V115h15c4,0,2,10,2,10s9-2,9,2v28Z"/><polygon class="cls-7" points="604 135 604 129 622 129 622 135 604 135 604 135"/><polygon class="cls-7" points="604 143 604 138 622 138 622 143 604 143 604 143"/><polygon class="cls-7" points="604 152 604 146 622 146 622 152 604 152 604 152"/><polygon class="cls-3" points="874 228 848 281 781 281 755 228 781 175 848 175 874 228"/><text class="cls-4" transform="translate(782 200)">Reporting<tspan x="-8" y="17">&amp; Analystics</tspan></text><path class="cls-7" d="M814,229v22h0l-8,20a22,22,0,0,1-12-29A22,22,0,0,1,814,229Z"/><polygon class="cls-7" points="813 258 814 254 814 254 813 258"/><path class="cls-7" d="M830,267a21,21,0,0,1-15,6h-8l6-14v-5Z"/><path class="cls-7" d="M837,251a22,22,0,0,1-2,8l-4,7-15-15,8-20A22,22,0,0,1,837,251Z"/><path class="cls-7" d="M815,248V229h7Z"/><polygon class="cls-7" points="814 254 815 252 814 254 814 254"/><polygon class="cls-8" points="572 287 546 339 478 339 453 287 478 234 546 234 572 287"/><text class="cls-10" transform="translate(467 267)">Communication<tspan class="cls-11"><tspan x="18" y="17">Analysis</tspan></tspan></text><path class="cls-12" d="M520,320l-4,4,6,6,4-4Z"/><path class="cls-12" d="M526,326l-8-8a16,16,0,1,0-4,4l8,8Zm-21-5a12,12,0,1,1,12-12A12,12,0,0,1,505,321Z"/><g class="cls-13"><g class="cls-14"><rect class="cls-7" x="505" y="291" width="17" height="37.35"/></g></g><path class="cls-12" d="M531,331a4,4,0,0,1-4,4h-3l-9-9h1l4-4h1l9,9h0A4,4,0,0,1,531,331Z"/><path class="cls-12" d="M501,311v8a11,11,0,0,1-6-5v-2Z"/><path class="cls-12" d="M508,307v13h-6V307Z"/><path class="cls-12" d="M514,303v11a10,10,0,0,1-6,5V303Z"/><polygon class="cls-5" points="470 229 444 282 377 282 351 229 377 176 444 176 470 229"/><text class="cls-4" transform="translate(390 210)">P<tspan class="cls-9" x="9" y="0">r</tspan><tspan x="15" y="0">ofile</tspan></text><g class="cls-15"><path class="cls-16" d="M414,250h-8S416,247,414,250Z"/><path class="cls-16" d="M413,251h0Z"/><path class="cls-7" d="M425,277s0-3,0-3v-9h0a12,12,0,0,0-1-4c-1-3-4-5-8-5h-1a4,4,0,0,1-2-4h-7a4,4,0,0,1-2,3h0c-3,0-6,2-7,4a9,9,0,0,0-1,5h0v3s0,5,0,7v2c0,1,0,5,1,8h0v3l2,3c1,1,1-1,1-1v-2s0-3,0-3,0,1,0,1,0,1,0,2,1-1,1-1h0s0,0,0-1v-3h0l2-18h0v-2h0v4h0c0,2,0,5,0,9v3c0,5-1,14,1,22a43,43,0,0,1-1,6c-1,5,1,15,2,18h3l2-18v-5h0V291h1v11h0v5l2,17h3s2-12,2-19-1-5,0-7a48,48,0,0,1,1-5c1-4,0-10,0-16v-2a55,55,0,0,1,0-9h0v-3h0a45,45,0,0,0,1,6c0,1,0,7,1,8v4h0v3a7,7,0,0,0,0,3s0,2,1,1,0-2,0-2-1-2,0-1,0,3,0,3v2s0,1,1,1l2-3v-4h0V277Z"/><path class="cls-7" d="M417,243v2h0v2h0l-2,3-3,2h-2l-3-2-2-4h0v-2h0v-2h1v-3h0a6,6,0,0,1,6-4,6,6,0,0,1,6,4h1Z"/><path class="cls-7" d="M416,236h0l-2-2h-3a7,7,0,0,0-6,0h1a5,5,0,0,0-3,3h1c-2,2-1,6-1,6s0,0,1,3h0v-2h3l3-2h0l4-3c1,3,2,4,3,4v3h0c0-2,1-3,1-3h0A11,11,0,0,0,416,236Z"/><path class="cls-7" d="M432,319a21,21,0,1,1,21-21A21,21,0,0,1,432,319Zm0-40a19,19,0,1,0,19,19A19,19,0,0,0,432,279Z"/></g><path class="cls-7" d="M410,266a20,20,0,1,1,20-20A20,20,0,0,1,410,266Zm0-35a15,15,0,1,0,15,15A15,15,0,0,0,410,230Z"/><polygon class="cls-8" points="571 171 546 224 478 224 453 171 478 118 546 118 571 171"/><text class="cls-4" transform="translate(497 141)">Ca<tspan class="cls-9" x="18" y="0">r</tspan><tspan x="24" y="0">e </tspan><tspan x="1" y="17">Plan</tspan></text><path class="cls-7" d="M535,178l-12-8h-2l-11,7-11-7h-2l-12,8v34h2l11-7,11,7h2l11-7,11,7h2V178Zm-37,24-8,5V181l8-5Zm4,0V188h0V175l8,5v12h-2v2h3v14Zm12,5V195h1v-2h-1V180l8-5v13h0v12Zm19,0-8-5V187h1v-2h-1V175l8,5v27Z"/><path class="cls-7" d="M494,191v-2h-1v2h2Z"/><path class="cls-7" d="M497,187h0v-2h0Z"/><path class="cls-7" d="M516,192v2h-1Z"/><path class="cls-7" d="M505,189h0Z"/><polygon class="cls-7" points="528 188 529 187 530 188 531 187 530 186 531 185 530 183 529 184 528 183 527 185 528 186 527 187 528 188"/><polygon class="cls-3" points="773 171 748 224 680 224 654 171 680 118 748 118 773 171"/><text class="cls-4" transform="translate(678 147)">Population<tspan x="-1" y="17">Dashboa</tspan><tspan class="cls-9" x="59" y="17">r</tspan><tspan x="64" y="17">d</tspan></text><path class="cls-7" d="M724,208h0Z"/><path class="cls-7" d="M727,195h-1a4,4,0,0,1,0-2h0a7,7,0,0,1,1-3h0Z"/><path class="cls-7" d="M734,208h-9l-2-2h0l3-2h2c3,0,6,2,7,4Z"/><path class="cls-7" d="M740,208h-5c-1-3-4-5-7-5h1v-2h0v-2h0v-2h0a9,9,0,0,0,0-2h7a6,6,0,0,1,0,4h-1v2h0a2,2,0,0,0,1,2h0c2,0,4,1,5,3Z"/><path class="cls-2" d="M727,195h0Zm0,0h0Zm6,13h0c-1-2-4-4-7-4h-2l-3,2h1l2,2h9Zm6-2c0-2-2-3-5-3h0a2,2,0,0,1-1-2h0v-2h1a6,6,0,0,0,0-4h-7a9,9,0,0,1,0,2h0v2h0v2h0v2h-1c4,0,6,2,7,5h5Zm-12-11a8,8,0,0,1,0-2h-1a8,8,0,0,0-1,3h0a5,5,0,0,0,0,2h1Zm0,0h0Zm-4,13h0Zm4-13h0Zm0,0h0Zm12,11c0-2-2-3-5-3h0a2,2,0,0,1-1-2h0v-2h1a6,6,0,0,0,0-4h-7a9,9,0,0,1,0,2h0v2h0v2h0v2h-1c4,0,6,2,7,5h5Zm-13-3h-1l-3,2h0l2,2h9C733,206,730,204,726,204Zm-4,3h0Zm3,1h15v-2c0-2-2-3-5-3h0a2,2,0,0,1-1-2h0v-2h1a6,6,0,0,0,0-4h-7m-1,8h0v2h0v2m-5,3h0l3-2"/><path class="cls-7" d="M716,190v3h0c0,2-1,2-1,2h-1a6,6,0,0,1,0-2h0a10,10,0,0,1,1-5h0v-2h0a10,10,0,0,1,0,3h0Z"/><path class="cls-7" d="M725,212H707a8,8,0,0,1,1-4,7,7,0,0,1,5-4h11v2h0Z"/><path class="cls-7" d="M734,211h-8v-2h-1l-2-2h-6a3,3,0,0,0,2-3h0l-2-3h0c1-1,1-2,1-3h0v-3h0a12,12,0,0,0,0-3h8l2,2h0v3h0v2h-1v3h2c3,0,6,2,7,4h0Z"/><path class="cls-2" d="M716,188h1l-2,3h0a11,11,0,0,0-1,5h0a7,7,0,0,0,0,2h1v-2h0s0-4,1-6Zm9,13h0Zm-8-11h0a10,10,0,0,0,0-3h0l-2,3h0a11,11,0,0,0-1,5h0a7,7,0,0,0,0,2h1s1-1,1-2h0v-3Zm8,11h0Zm1,11h0v-2H713a8,8,0,0,0-5,4,8,8,0,0,0-1,4h19Zm2-16h0Zm-1,16h0Zm-1,0h0v-2H713a8,8,0,0,0-5,4,8,8,0,0,0-1,4h19Zm-9-22h0a10,10,0,0,0,0-3h0l-2,3h0a11,11,0,0,0-1,5h0a7,7,0,0,0,0,2h1s1-1,1-2h0v-3Zm8,11h0Zm0,0h0Zm-9-4h0v-2h0s0-4,1-6h2m-2,12h0l2,3h0a3,3,0,0,1-2,3m9,7H708a7,7,0,0,1,1-3,7,7,0,0,1,5-3h1m3-19h7l2,2h0v3h0v2h-1v3h2c3,0,6,2,7,4h0v2h-8"/><path class="cls-7" d="M726,215H689a10,10,0,0,1,1-5c1-3,5-5,9-5h0c3-1,3-3,3-4h0l-3-5h-1v-2h0a9,9,0,0,1,0-3h0s0-5,2-8h-1s1-3,4-4h10l3,3h-1v3h0a10,10,0,0,1,0,3h0v3h0c0,2-1,2-1,2h-1l-2,3h0a4,4,0,0,0,1,3h11v2h0Z"/><path class="cls-2" d="M726,212h0Zm-14-11h0Zm0,0h0Zm0,0h0Zm2-3-2,3h0a4,4,0,0,0,1,3h11v2h0v3H689a10,10,0,0,1,1-5c1-3,5-5,9-5h0c3-1,3-3,3-4h0l-3-5h-1v-2h0a9,9,0,0,1,0-3h0s0-5,2-8h-1s1-3,4-4h10l3,3h-1v3h0a10,10,0,0,1,0,3h0v3h0c0,2-1,2-1,2h-1"/></svg>