<svg id="Layer_1" data-name="Layer 1" xmlns="http://www.w3.org/2000/svg" viewBox="0 0 1124 400"><defs><style>.cls-1{fill:#39b39d;stroke:#37b39d;}.cls-1,.cls-4,.cls-8{stroke-miterlimit:10;stroke-width:5px;}.cls-2{font-size:14px;font-family:HelveticaNeue-Bold, Helvetica Neue;font-weight:700;}.cls-2,.cls-3,.cls-5{fill:#fff;}.cls-4{fill:#3486b0;stroke:#3586b0;}.cls-5{fill-rule:evenodd;}.cls-6{letter-spacing:-0.06em;}.cls-7{letter-spacing:-0.09em;}.cls-8{fill:#f89823;stroke:#f89824;}.cls-9{letter-spacing:-0.02em;}.cls-10{fill:none;}</style></defs><title>Honeycomb Icons</title><polygon class="cls-1" points="622 199 596 252 529 252 503 199 529 147 596 147 622 199"/><text class="cls-2" transform="translate(521 183)">Notifications</text><path class="cls-3" d="M584,214h-3c-3,0-8-1-11-7s-8-8-12-8h-7v44h4V223h2l9,3h5c6,0,11-6,14-10a9,9,0,0,0,1-4Zm-6,7-3,2h-6l-11-3h-2V203h7l4,5a17,17,0,0,0,7,7l7,2Z"/><polygon class="cls-4" points="419 203 393 256 326 256 300 203 326 151 393 151 419 203"/><text class="cls-2" transform="translate(324 173)">Interactive <tspan x="2" y="17">Education</tspan></text><path class="cls-5" d="M356,249h3l14-4h0l2-6h3a3,3,0,0,0,0-2h-1l2-7h-1l-20,4h-3l-19-4h-1a1,1,0,0,0,0,1l2,7h-1a3,3,0,0,0,0,2h3l2,6h0l14,4Z"/><path class="cls-3" d="M374,224h0l-2-3h-9a2,2,0,0,1,0-1l6-2a11,11,0,0,1-2-6,40,40,0,0,0,0-6c0-3-2-5-3-4s-1-3-8-1-5,3-6,6a51,51,0,0,0,0,6h0a11,11,0,0,1-2,6l5,2a2,2,0,0,1,0,1h-7l-3,2h-1l13,2h6l14-2Zm-21-1v-3h2a4,4,0,0,0,0-3c-2-3-2-4-3-6a23,23,0,0,0,7-6,5,5,0,0,1,5-1v4s1-1,1,1,0,3-1,4a5,5,0,0,1,0,2l-2,3a4,4,0,0,0,0,3h2v3Z"/><polygon class="cls-1" points="824 200 798 252 731 252 705 200 731 147 798 147 824 200"/><text class="cls-2" transform="translate(731 172)">Reporting<tspan x="-8" y="17">&amp; Analystics</tspan></text><path class="cls-3" d="M764,201v22h0l-8,20a22,22,0,0,1-12-29A22,22,0,0,1,764,201Z"/><polygon class="cls-3" points="763 229 764 226 764 226 763 229"/><path class="cls-3" d="M780,239a21,21,0,0,1-15,6h-8l6-14v-5Z"/><path class="cls-3" d="M787,223a22,22,0,0,1-2,8l-4,7-15-15,8-20A22,22,0,0,1,787,223Z"/><path class="cls-3" d="M765,219V201h7Z"/><polygon class="cls-3" points="764 226 765 224 764 226 764 226"/><polygon class="cls-1" points="723 142 697 195 630 195 604 142 630 89 697 89 723 142"/><text class="cls-2" transform="translate(634 114)"><tspan class="cls-6">W</tspan><tspan x="12" y="0">ellness </tspan><tspan class="cls-7" x="4" y="17">T</tspan><tspan x="12" y="17">racker</tspan></text><path class="cls-3" d="M684,149l5-6-6,5h0a14,14,0,0,0-10-5,12,12,0,0,0-9,4,12,12,0,0,0-9-4h-6l-5,4a11,11,0,0,0-2,10,32,32,0,0,0,4,9l7,9,9,10,3,3,2-3,9-11,6-9c2-4,4-6,4-8a11,11,0,0,0,0-5Zm-2,7c-2,7-18,27-18,27s-17-17-19-27,4-11,10-11,8,3,9,8,5-8,9-8a10,10,0,0,1,8,5l-15,12-3-5-6,4,6,7,2,3,2-2,15-17A8,8,0,0,1,682,157Z"/><polygon class="cls-8" points="522 258 496 311 429 311 403 258 429 205 496 205 522 258"/><text class="cls-2" transform="translate(443 230)">Ci<tspan class="cls-9" x="14" y="0">r</tspan><tspan x="19" y="0">cle </tspan><tspan x="-5" y="17">of Ca</tspan><tspan class="cls-9" x="31" y="17">r</tspan><tspan x="36" y="17">e</tspan></text><ellipse class="cls-3" cx="462" cy="282" rx="4" ry="8" transform="translate(114 697) rotate(-81)"/><ellipse class="cls-3" cx="457" cy="265" rx="4" ry="8" transform="translate(128 678) rotate(-81)"/><ellipse class="cls-3" cx="483" cy="275" rx="4" ry="8" transform="translate(140 712) rotate(-81)"/><ellipse class="cls-3" cx="483" cy="294" rx="4" ry="8" transform="translate(121 728) rotate(-81)"/><ellipse class="cls-3" cx="451" cy="298" rx="4" ry="8" transform="translate(90 700) rotate(-81)"/><ellipse class="cls-3" cx="439" cy="278" rx="4" ry="8" transform="translate(98 671) rotate(-81)"/><rect class="cls-3" x="459" y="265" width="1" height="17.27" transform="matrix(0.97, -0.26, 0.26, 0.97, -55.65, 129.93)"/><rect class="cls-3" x="465" y="278" width="15" height="1.14" transform="translate(-66 175) rotate(-20)"/><rect class="cls-3" x="473" y="281" width="1" height="14.66" transform="translate(-8 562) rotate(-61)"/><rect class="cls-3" x="449" y="269" width="1" height="21.4" transform="translate(109 685) rotate(-82)"/><rect class="cls-3" x="447" y="290" width="17" height="1.14" transform="translate(-41 503) rotate(-56)"/><polygon class="cls-8" points="519 143 493 196 426 196 400 143 426 90 493 90 519 143"/><text class="cls-2" transform="translate(445 113)">Ca<tspan class="cls-9" x="18" y="0">r</tspan><tspan x="24" y="0">e </tspan><tspan x="1" y="17">Plan</tspan></text><path class="cls-3" d="M483,149l-12-8h-2l-11,7-11-7h-2l-12,8v34h2l11-7,11,7h2l11-7,11,7h2V149Zm-37,24-8,5V152l8-5Zm4,0V160h0V147l8,5v12h-2v2h3v14Zm12,5V166h1v-2h-1V152l8-5v13h0v12Zm19,0-8-5V158h1v-2h-1V147l8,5v27Z"/><path class="cls-3" d="M441,163v-2h-1v2h2Z"/><path class="cls-3" d="M445,159h0v-2h0Z"/><path class="cls-3" d="M463,164v2h-1Z"/><path class="cls-3" d="M452,161h0Z"/><polygon class="cls-3" points="476 160 477 159 478 160 479 159 478 157 479 156 478 155 477 156 476 155 474 156 475 157 474 159 476 160"/><polygon class="cls-1" points="723 257 698 310 630 310 604 257 630 204 698 204 723 257"/><text class="cls-2" transform="translate(628 233)">Population<tspan x="-1" y="17">Dashboa</tspan><tspan class="cls-9" x="59" y="17">r</tspan><tspan x="64" y="17">d</tspan></text><path class="cls-3" d="M674,294h0Z"/><path class="cls-3" d="M677,281h-1a4,4,0,0,1,0-2h0a7,7,0,0,1,1-3h0Z"/><path class="cls-3" d="M684,294h-9l-2-2h0l3-2h2c3,0,6,2,7,4Z"/><path class="cls-3" d="M690,294h-5c-1-3-4-5-7-5h1v-2h0v-2h0v-2h0a9,9,0,0,0,0-2h7a6,6,0,0,1,0,4h-1v2h0a2,2,0,0,0,1,2h0c2,0,4,1,5,3Z"/><path class="cls-10" d="M677,281h0Zm0,0h0Zm6,13h0c-1-2-4-4-7-4h-2l-3,2h1l2,2h9Zm6-2c0-2-2-3-5-3h0a2,2,0,0,1-1-2h0v-2h1a6,6,0,0,0,0-4h-7a9,9,0,0,1,0,2h0v2h0v2h0v2h-1c4,0,6,2,7,5h5Zm-12-11a8,8,0,0,1,0-2h-1a8,8,0,0,0-1,3h0a5,5,0,0,0,0,2h1Zm0,0h0Zm-4,13h0Zm4-13h0Zm0,0h0Zm12,11c0-2-2-3-5-3h0a2,2,0,0,1-1-2h0v-2h1a6,6,0,0,0,0-4h-7a9,9,0,0,1,0,2h0v2h0v2h0v2h-1c4,0,6,2,7,5h5Zm-13-3h-1l-3,2h0l2,2h9C683,292,680,290,676,290Zm-4,3h0Zm3,1h15v-2c0-2-2-3-5-3h0a2,2,0,0,1-1-2h0v-2h1a6,6,0,0,0,0-4h-7m-1,8h0v2h0v2m-5,3h0l3-2"/><path class="cls-3" d="M666,276v3h0c0,2-1,2-1,2h-1a6,6,0,0,1,0-2h0a10,10,0,0,1,1-5h0v-2h0a10,10,0,0,1,0,3h0Z"/><path class="cls-3" d="M675,298H657a8,8,0,0,1,1-4,7,7,0,0,1,5-4h11v2h0Z"/><path class="cls-3" d="M684,297h-8v-2h-1l-2-2h-6a3,3,0,0,0,2-3h0l-2-3h0c1-1,1-2,1-3h0v-3h0a12,12,0,0,0,0-3h8l2,2h0v3h0v2h-1v3h2c3,0,6,2,7,4h0Z"/><path class="cls-10" d="M665,274h1l-2,3h0a11,11,0,0,0-1,5h0a7,7,0,0,0,0,2h1v-2h0s0-4,1-6Zm9,13h0Zm-8-11h0a10,10,0,0,0,0-3h0l-2,3h0a11,11,0,0,0-1,5h0a7,7,0,0,0,0,2h1s1-1,1-2h0v-3Zm8,11h0Zm1,11h0v-2H663a8,8,0,0,0-5,4,8,8,0,0,0-1,4h19Zm2-16h0Zm-1,16h0Zm-1,0h0v-2H663a8,8,0,0,0-5,4,8,8,0,0,0-1,4h19Zm-9-22h0a10,10,0,0,0,0-3h0l-2,3h0a11,11,0,0,0-1,5h0a7,7,0,0,0,0,2h1s1-1,1-2h0v-3Zm8,11h0Zm0,0h0Zm-9-4h0v-2h0s0-4,1-6h2m-2,12h0l2,3h0a3,3,0,0,1-2,3m9,7H658a7,7,0,0,1,1-3,7,7,0,0,1,5-3h1m3-19h7l2,2h0v3h0v2h-1v3h2c3,0,6,2,7,4h0v2h-8"/><path class="cls-3" d="M676,301H639a10,10,0,0,1,1-5c1-3,5-5,9-5h0c3-1,3-3,3-4h0l-3-5h-1v-2h0a9,9,0,0,1,0-3h0s0-5,2-8h-1s1-3,4-4h10l3,3h-1v3h0a10,10,0,0,1,0,3h0v3h0c0,2-1,2-1,2h-1l-2,3h0a4,4,0,0,0,1,3h11v2h0Z"/><path class="cls-10" d="M676,298h0Zm-14-11h0Zm0,0h0Zm0,0h0Zm2-3-2,3h0a4,4,0,0,0,1,3h11v2h0v3H639a10,10,0,0,1,1-5c1-3,5-5,9-5h0c3-1,3-3,3-4h0l-3-5h-1v-2h0a9,9,0,0,1,0-3h0s0-5,2-8h-1s1-3,4-4h10l3,3h-1v3h0a10,10,0,0,1,0,3h0v3h0c0,2-1,2-1,2h-1"/></svg>