<svg id="Layer_1" data-name="Layer 1" xmlns="http://www.w3.org/2000/svg" viewBox="0 0 762 572"><defs><style>.cls-1{fill:#ebebeb;}.cls-2{fill:#fff;}.cls-3{fill:#4295c0;}.cls-4{fill:#46b39d;}.cls-10,.cls-13,.cls-5,.cls-6,.cls-7,.cls-8{fill:none;}.cls-10,.cls-5{stroke:#ebebeb;}.cls-10,.cls-12,.cls-13,.cls-5,.cls-6,.cls-7,.cls-8{stroke-miterlimit:10;}.cls-5,.cls-6,.cls-7{stroke-width:2px;}.cls-6{stroke:#b5b5b6;}.cls-7{stroke:#eee;}.cls-8{stroke:#d1d3d4;}.cls-10,.cls-13,.cls-8{stroke-linecap:round;}.cls-10,.cls-8{stroke-width:5px;}.cls-12,.cls-13,.cls-8,.cls-9{opacity:0.5;}.cls-11,.cls-12,.cls-13,.cls-8,.cls-9{isolation:isolate;}.cls-9{fill:#d1d3d4;}.cls-11{opacity:0.3;}.cls-12{fill:#606161;}.cls-12,.cls-13{stroke:#606161;}.cls-13{stroke-width:4px;}</style></defs><title>CW Graphic</title><g id="Screen"><rect class="cls-1" width="762" height="572"/><rect class="cls-2" width="189.73" height="572"/><rect class="cls-2" x="203.47" y="78.5" width="537.53" height="433.6" rx="5" ry="5"/><rect class="cls-2" x="221.44" y="228.12" width="502.56" height="269.08" rx="4" ry="4"/><path class="cls-1" d="M720,229.12a3,3,0,0,1,3,3V493.21a3,3,0,0,1-3,3H225.44a3,3,0,0,1-3-3V232.12a3,3,0,0,1,3-3H720m0-2H225.44a5,5,0,0,0-5,5V493.21a5,5,0,0,0,5,5H720a5,5,0,0,0,5-5V232.12A5,5,0,0,0,720,227.12Z"/><path class="cls-1" d="M225.44,227.12H720a5,5,0,0,1,5,5v24H220.44v-24A5,5,0,0,1,225.44,227.12Z"/><rect class="cls-2" x="1" y="46.56" width="189.73" height="46.28"/><rect class="cls-2" x="1" y="92.84" width="189.73" height="46.28"/><rect class="cls-3" y="139.13" width="189.73" height="46.28"/><rect class="cls-4" width="762" height="46.55"/><line class="cls-5" x1="1" y1="92.84" x2="190.73" y2="92.84"/><line class="cls-6" x1="220.44" y1="212.88" x2="725" y2="212.88"/><line class="cls-6" x1="220.44" y1="171.07" x2="725" y2="171.07"/><line class="cls-7" x1="203.47" y1="122.13" x2="741" y2="122.13"/><line class="cls-8" x1="27" y1="162.27" x2="158" y2="162.27"/><rect class="cls-3" y="139.13" width="189.73" height="46.28"/><line class="cls-8" x1="27" y1="162.27" x2="158" y2="162.27"/><line class="cls-8" x1="55.3" y1="23.27" x2="238.67" y2="23.27"/><line class="cls-8" x1="656.23" y1="23.27" x2="698.08" y2="23.27"/><path class="cls-9" d="M24.25,23.27l4.92-4.92a1,1,0,0,0-1.41-1.41l-4.92,4.92-4.92-4.92a1,1,0,0,0-1.41,1.41l4.92,4.92L16.5,28.2a1,1,0,0,0,1.3,1.52l.11-.11,4.92-4.92,4.92,4.92a1,1,0,0,0,1.41-1.41Z"/><line class="cls-10" x1="27" y1="115.99" x2="158" y2="115.99"/><line class="cls-10" x1="27" y1="69.7" x2="158" y2="69.7"/><line class="cls-8" x1="716.46" y1="23.27" x2="741" y2="23.27"/></g><g id="Overlay"><rect class="cls-11" width="762" height="572"/></g><g id="Html"><rect class="cls-2" x="142.5" y="50.87" width="476.58" height="469.21" rx="4" ry="4"/><path class="cls-1" d="M615.08,51.87a3,3,0,0,1,3,3h0V516.08a3,3,0,0,1-3,3H146.5a3,3,0,0,1-3-3V54.87a3,3,0,0,1,3-3H615.08m0-2H146.5a5,5,0,0,0-5,5V516.08a5,5,0,0,0,5,5H615.08a5,5,0,0,0,5-5V54.87A5,5,0,0,0,615.08,49.87Z"/><rect class="cls-2" x="155.94" y="93.84" width="449.7" height="372.67" rx="4" ry="4"/><path class="cls-1" d="M601.64,94.84a3,3,0,0,1,3,3V462.51a3,3,0,0,1-3,3H159.94a3,3,0,0,1-3-3V97.84a3,3,0,0,1,3-3h441.7m0-2H159.94a5,5,0,0,0-5,5V462.51a5,5,0,0,0,5,5h441.7a5,5,0,0,0,5-5V97.84A5,5,0,0,0,601.64,92.84Z"/><rect class="cls-3" x="454.92" y="490.65" width="67.41" height="23.14" rx="5" ry="5"/><line class="cls-8" x1="464.52" y1="502.22" x2="511.06" y2="502.22"/><rect class="cls-12" x="527.55" y="490.65" width="79.09" height="23.14" rx="5" ry="5"/><line class="cls-8" x1="538.8" y1="502.22" x2="593.41" y2="502.22"/><line class="cls-13" x1="154.94" y1="65.57" x2="285.94" y2="65.57"/><line class="cls-13" x1="173.17" y1="142.45" x2="368.33" y2="142.45"/><line class="cls-13" x1="173.17" y1="117.9" x2="368.33" y2="117.9"/><line class="cls-13" x1="385.84" y1="117.9" x2="450.85" y2="117.9"/><line class="cls-13" x1="218.32" y1="167.45" x2="413.48" y2="167.45"/><line class="cls-13" x1="270.75" y1="192.45" x2="465.91" y2="192.45"/><line class="cls-13" x1="270.75" y1="217.45" x2="465.91" y2="217.45"/><line class="cls-13" x1="270.75" y1="242.45" x2="465.91" y2="242.45"/><line class="cls-13" x1="270.75" y1="267.45" x2="465.91" y2="267.45"/><line class="cls-13" x1="315.9" y1="292.45" x2="511.06" y2="292.45"/><line class="cls-13" x1="315.9" y1="317.45" x2="511.06" y2="317.45"/><line class="cls-13" x1="270.75" y1="342.45" x2="465.91" y2="342.45"/><line class="cls-13" x1="218.32" y1="367.45" x2="413.48" y2="367.45"/><line class="cls-13" x1="173.17" y1="392.45" x2="368.33" y2="392.45"/><path class="cls-12" d="M606.53,65.57l3.3-3.3a.67.67,0,1,0-1-1h0l-3.3,3.3-3.3-3.3a.67.67,0,1,0-1,1h0l3.3,3.3-3.3,3.3a.67.67,0,1,0,1,.95h0l3.3-3.3,3.3,3.3a.67.67,0,1,0,1-.95h0Z"/><line class="cls-5" x1="141.5" y1="79.5" x2="620.08" y2="79.5"/><line class="cls-5" x1="141.5" y1="483.45" x2="620.08" y2="483.45"/></g></svg>