<svg xmlns="http://www.w3.org/2000/svg" xmlns:xlink="http://www.w3.org/1999/xlink" viewBox="0 0 762 843"><defs><style>.cls-1,.cls-4,.cls-5,.cls-6,.cls-7{fill:none;}.cls-2{fill:#fff;}.cls-3{clip-path:url(#clip-path);}.cls-4{stroke:#606161;stroke-width:10px;}.cls-4,.cls-5,.cls-7{stroke-linecap:round;}.cls-4,.cls-5,.cls-6,.cls-7{stroke-miterlimit:10;}.cls-15,.cls-4,.cls-5{opacity:0.5;}.cls-5{stroke:#d1d3d4;stroke-width:5px;}.cls-6,.cls-7{stroke:#46b39d;stroke-width:4px;}.cls-8{fill:#4295c0;}.cls-9{fill:#333;}.cls-10{clip-path:url(#clip-path-2);}.cls-11{fill:#ebebeb;}.cls-12{fill:#46b39d;}.cls-13{fill:#b5b5b6;}.cls-14{fill:#eee;}.cls-16{fill:#d1d3d4;}</style><clipPath id="clip-path"><rect class="cls-1" width="762" height="843"/></clipPath><clipPath id="clip-path-2"><path class="cls-1" d="M139.15,588.31H649.26a12,12,0,0,1,12,12V843a0,0,0,0,1,0,0H127.15a0,0,0,0,1,0,0V600.31A12,12,0,0,1,139.15,588.31Z"/></clipPath></defs><title>QU Graphic</title><g id="Html"><rect class="cls-2" width="762" height="843"/></g><g id="Quarterly_Update" data-name="Quarterly Update"><rect class="cls-2" width="762" height="843"/><g class="cls-3"><line class="cls-4" x1="71.94" y1="88.93" x2="202.94" y2="88.93"/><line class="cls-4" x1="71.94" y1="367.45" x2="202.94" y2="367.45"/><line class="cls-5" x1="259.94" y1="160.49" x2="716.46" y2="160.49"/><line class="cls-5" x1="71.94" y1="29.9" x2="283.08" y2="29.9"/><line class="cls-6" y1="49.87" x2="762" y2="49.87"/><line class="cls-5" x1="259.94" y1="190.49" x2="716.46" y2="190.49"/><line class="cls-5" x1="283.08" y1="392.45" x2="716.46" y2="392.45"/><line class="cls-7" x1="71.94" y1="392.45" x2="259.94" y2="392.45"/><line class="cls-5" x1="71.94" y1="422.45" x2="366.55" y2="422.45"/><line class="cls-4" x1="71.94" y1="463.15" x2="202.94" y2="463.15"/><line class="cls-5" x1="283.08" y1="488.15" x2="716.46" y2="488.15"/><line class="cls-7" x1="71.94" y1="488.15" x2="259.94" y2="488.15"/><line class="cls-5" x1="71.94" y1="518.15" x2="366.55" y2="518.15"/><line class="cls-5" x1="259.94" y1="220.49" x2="716.46" y2="220.49"/><line class="cls-5" x1="259.94" y1="250.49" x2="716.46" y2="250.49"/><line class="cls-5" x1="259.94" y1="280.49" x2="604.25" y2="280.49"/><polygon class="cls-8" points="179.66 135.65 95.22 135.65 53.01 208.77 95.22 281.89 179.66 281.89 221.87 208.77 179.66 135.65"/><path class="cls-9" d="M91.94,551H704.46a12,12,0,0,1,12,12V843a0,0,0,0,1,0,0H71.94a0,0,0,0,1,0,0V571A20,20,0,0,1,91.94,551Z"/><g class="cls-10"><rect class="cls-11" x="127.15" y="588.31" width="534.11" height="400.93"/><rect class="cls-2" x="127.15" y="588.31" width="132.99" height="400.93"/><rect class="cls-2" x="269.77" y="643.34" width="376.77" height="303.92" rx="5" ry="5"/><rect class="cls-2" x="282.66" y="748.51" width="351.66" height="188.01" rx="4" ry="4"/><path class="cls-11" d="M630.32,749.51a3,3,0,0,1,3,3v180a3,3,0,0,1-3,3H286.66a3,3,0,0,1-3-3v-180a3,3,0,0,1,3-3H630.32m0-2H286.66a5,5,0,0,0-5,5v180a5,5,0,0,0,5,5H630.32a5,5,0,0,0,5-5v-180a5,5,0,0,0-5-5Z"/><path class="cls-11" d="M286.66,747.51H630.32a5,5,0,0,1,5,5V767.8a0,0,0,0,1,0,0H281.66a0,0,0,0,1,0,0V752.51A5,5,0,0,1,286.66,747.51Z"/><rect class="cls-2" x="127.85" y="620.95" width="132.99" height="32.44"/><rect class="cls-2" x="127.85" y="653.39" width="132.99" height="32.44"/><rect class="cls-8" x="127.15" y="685.83" width="132.99" height="32.44"/><rect class="cls-12" x="127.15" y="588.31" width="534.11" height="32.63"/><rect class="cls-11" x="127.85" y="652.39" width="132.99" height="2"/><rect class="cls-13" x="281.66" y="736.53" width="353.66" height="2"/><rect class="cls-13" x="281.66" y="707.22" width="353.66" height="2"/><rect class="cls-14" x="269.77" y="672.92" width="376.77" height="2"/><g class="cls-15"><path class="cls-16" d="M237.89,704.55H146.07a2.5,2.5,0,0,1,0-5h91.82a2.5,2.5,0,0,1,0,5Z"/></g><rect class="cls-8" x="127.15" y="685.83" width="132.99" height="32.44"/><g class="cls-15"><path class="cls-16" d="M237.89,704.55H146.07a2.5,2.5,0,0,1,0-5h91.82a2.5,2.5,0,0,1,0,5Z"/></g><g class="cls-15"><path class="cls-16" d="M294.44,607.13H165.91a2.5,2.5,0,1,1,0-5H294.44a2.5,2.5,0,1,1,0,5Z"/></g><g class="cls-15"><path class="cls-16" d="M616.46,607.13H587.12a2.5,2.5,0,0,1,0-5h29.34a2.5,2.5,0,0,1,0,5Z"/></g><g class="cls-15"><path class="cls-16" d="M144.14,604.63l3.45-3.45a.7.7,0,0,0-1-1l-3.45,3.45-3.45-3.45a.7.7,0,0,0-1,1l3.45,3.45-3.45,3.45a.7.7,0,1,0,1,1l3.45-3.45,3.45,3.45a.7.7,0,1,0,1-1Z"/></g><path class="cls-11" d="M237.89,672.11H146.07a2.5,2.5,0,0,1,0-5h91.82a2.5,2.5,0,0,1,0,5Z"/><path class="cls-11" d="M237.89,639.67H146.07a2.5,2.5,0,1,1,0-5h91.82a2.5,2.5,0,0,1,0,5Z"/><g class="cls-15"><path class="cls-16" d="M646.54,607.13h-17.2a2.5,2.5,0,0,1,0-5h17.2a2.5,2.5,0,0,1,0,5Z"/></g></g></g></g></svg>