<?xml version="1.0" encoding="UTF-8"?> <svg xmlns="http://www.w3.org/2000/svg" xmlns:xlink="http://www.w3.org/1999/xlink" id="Layer_1" data-name="Layer 1" viewBox="0 0 1124.18 712.8"> <defs> <style>.cls-1,.cls-15,.cls-16,.cls-21,.cls-4{fill:#fff;}.cls-1{clip-rule:evenodd;}.cls-2,.cls-28{fill:none;}.cls-10,.cls-3,.cls-7{fill:#39b39d;}.cls-3{stroke:#37b39d;}.cls-13,.cls-17,.cls-28,.cls-3{stroke-miterlimit:10;}.cls-13,.cls-17,.cls-3{stroke-width:5px;}.cls-22,.cls-4{font-size:14px;}.cls-10,.cls-21,.cls-4,.cls-8,.cls-9{font-family:HelveticaNeue-Bold, Helvetica Neue;font-weight:700;}.cls-13,.cls-5,.cls-8{fill:#3486b0;}.cls-17,.cls-6,.cls-9{fill:#f89823;}.cls-10,.cls-8,.cls-9{font-size:25px;}.cls-11{font-size:20px;fill:#a5a4a4;font-family:HelveticaNeue-Medium, Helvetica Neue;}.cls-12{letter-spacing:-0.02em;}.cls-13{stroke:#3586b0;}.cls-14{letter-spacing:-0.06em;}.cls-16{fill-rule:evenodd;}.cls-17{stroke:#f89824;}.cls-18{letter-spacing:-0.02em;}.cls-19{fill:#676868;}.cls-20{letter-spacing:-0.09em;}.cls-21{font-size:12px;}.cls-23{clip-path:url(#clip-path);}.cls-24{opacity:0.25;}.cls-25{clip-path:url(#clip-path-2);}.cls-26{fill:#f8c990;}.cls-27{clip-path:url(#clip-path-3);}.cls-28{stroke:#fff;stroke-width:9px;}.cls-29{fill:#e5e5e5;}</style> <clipPath id="clip-path"> <path class="cls-1" d="M434.06,618.64l-7.54-7.54a16.16,16.16,0,1,0-3.69,3.69l7.54,7.54Zm-20.62-5.29a11.64,11.64,0,1,1,11.64-11.64A11.64,11.64,0,0,1,413.44,613.35Z"></path> </clipPath> <clipPath id="clip-path-2"> <polygon class="cls-2" points="531.58 439.42 510.42 439.62 505.96 408.34 535.85 408.34 531.58 439.42"></polygon> </clipPath> <clipPath id="clip-path-3"> <polygon class="cls-2" points="315.4 430.44 302.22 430.51 302.9 418.23 314.64 418.23 315.4 430.44"></polygon> </clipPath> </defs> <title>Honeycomb Icons</title> <polygon class="cls-3" points="680.92 579.45 655.18 632.28 587.85 632.28 562.11 579.45 587.85 526.62 655.18 526.62 680.92 579.45"></polygon> <text class="cls-4" transform="translate(580.35 563.36)">Notifications</text> <polygon class="cls-5" points="157.86 60.47 148.23 80.24 123.03 80.24 113.4 60.47 123.03 40.69 148.23 40.69 157.86 60.47"></polygon> <polygon class="cls-6" points="500.57 60.47 490.93 80.24 465.74 80.24 456.1 60.47 465.74 40.69 490.93 40.69 500.57 60.47"></polygon> <polygon class="cls-7" points="826.44 60.47 816.8 80.24 791.61 80.24 781.98 60.47 791.61 40.69 816.8 40.69 826.44 60.47"></polygon> <text class="cls-8" transform="translate(172.6 70.89)">Educate</text> <text class="cls-9" transform="translate(515.99 70.89)">Collaborate</text> <text class="cls-10" transform="translate(843.52 70.89)">Motivate</text> <text class="cls-11" transform="translate(172.6 100.18)">Imp<tspan class="cls-12" x="35.18" y="0">r</tspan><tspan x="41.86" y="0">oved Understanding</tspan><tspan x="0" y="24">&amp; Retention</tspan></text> <text class="cls-11" transform="translate(519.39 100.18)">Integrated.<tspan x="0" y="24">Coo</tspan><tspan class="cls-12" x="38.16" y="24">r</tspan><tspan x="44.84" y="24">donated Ca</tspan><tspan class="cls-12" x="152.64" y="24">r</tspan><tspan x="159.32" y="24">e</tspan></text> <text class="cls-11" transform="translate(843.52 100.18)">Sustainable <tspan x="0" y="24">Behavior Change</tspan></text> <polygon class="cls-13" points="480.09 349.17 454.35 402 387.02 402 361.28 349.17 387.02 296.34 454.35 296.34 480.09 349.17"></polygon> <text class="cls-4" transform="translate(382.48 328.76)"> <tspan class="cls-14">W</tspan> <tspan x="12.42" y="0">orkbooks</tspan> </text> <path class="cls-15" d="M435.69,342.88h-32a1.59,1.59,0,0,0-1.58,1.58V345H400a1,1,0,0,0-1,.92v.65a1,1,0,0,0,1,.92h2.14v2.38H400a1,1,0,0,0-1,.92v.65a1,1,0,0,0,1,.92h2.14v2.28H400a1,1,0,0,0-1,.92v.65a1,1,0,0,0,1,.92h2.14v2.42H400a1,1,0,0,0-1,.92v.65a1,1,0,0,0,1,.92h2.14v2.38H400a1,1,0,0,0-1,.92v.65a1,1,0,0,0,1,.92h2.14v2.28H400a1,1,0,0,0-1,.92v.65a1,1,0,0,0,1,.92h2.14v2.59H400a1,1,0,0,0-1,.92v.65a1,1,0,0,0,1,.92h2.14v2.38H400a1,1,0,0,0-1,.92v.65a1,1,0,0,0,1,.92h2.14v2.28H400a1,1,0,0,0-1,.92v.65a1,1,0,0,0,1,.92h2.24a1.59,1.59,0,0,0,1.48,1h32a1.59,1.59,0,0,0,1.58-1.58V344.46A1.59,1.59,0,0,0,435.69,342.88Zm-1.32,41.58H405.05V345.78h29.32Z"></path> <rect class="cls-15" x="410.39" y="356.99" width="18.71" height="2.9"></rect> <rect class="cls-15" x="410.39" y="363.21" width="18.71" height="2.9"></rect> <polygon class="cls-3" points="781.87 292.43 756.13 345.26 688.8 345.26 663.06 292.43 688.8 239.6 756.13 239.6 781.87 292.43"></polygon> <text class="cls-4" transform="translate(687.99 254.39)">Consumer<tspan class="cls-14" x="3.52" y="16.8">W</tspan><tspan x="15.94" y="16.8">earable</tspan><tspan x="-1.81" y="33.6">Integration</tspan></text> <g id="Icon"> <path class="cls-15" d="M738.08,317.57a15.33,15.33,0,0,0-5.91-12.1l-1.84-11.13H714.85L713,305.47a15.35,15.35,0,0,0,0,24.2l1.84,11.13h15.49l1.84-11.13A15.33,15.33,0,0,0,738.08,317.57Zm-27.11,0a11.62,11.62,0,1,1,11.62,11.62A11.65,11.65,0,0,1,711,317.57Z"></path> </g> <polygon class="cls-3" points="782 521.04 756.26 573.88 688.93 573.88 663.19 521.04 688.93 468.21 756.26 468.21 782 521.04"></polygon> <text class="cls-4" transform="translate(679.88 500.85)">Gamification</text> <path class="cls-16" d="M721.31,553.61l-1.13,11.76-6.24-6.25-7.09,1.94,3.09-11-.7-2-4.42-1.12.13-4.56-3.72-2.64,1.77-4.2-2.51-3.8,3.17-3.28-1-4.45,4.14-1.91.71-4.5,4.55-.29,2.29-3.94,4.35,1.38,3.56-2.85,3.56,2.85,4.35-1.38,2.29,3.94,4.55.29.71,4.5,4.14,1.91-1,4.45,3.17,3.28-2.51,3.8,1.77,4.2-3.72,2.64.13,4.56L735.3,548l-.7,2,3.09,11-7.09-1.94-6.24,6.25-1.13-11.76-1-.51-1,.51Zm1-35.92a16.06,16.06,0,1,1-16.06,16.06,16.06,16.06,0,0,1,16.06-16.06Zm0,3a13,13,0,1,1-13,13,13,13,0,0,1,13-13Z"></path> <polygon class="cls-17" points="682.12 349.17 656.38 402 589.05 402 563.31 349.17 589.05 296.34 656.38 296.34 682.12 349.17"></polygon> <text class="cls-4" transform="translate(585.52 330.76)">Scheduling</text> <path class="cls-15" d="M639.38,342v3.23h0a2.2,2.2,0,1,1-4.39,0h0V342Z"></path> <path class="cls-15" d="M611,342v3.23h0a2.2,2.2,0,1,1-4.39,0V342Z"></path> <path class="cls-15" d="M640.29,345.33H640a2.84,2.84,0,1,1-5.68,0H611.62a2.84,2.84,0,1,1-5.68,0h-.22a2.91,2.91,0,0,0-2.76,3v32.43a2.91,2.91,0,0,0,2.76,3h34.58a2.91,2.91,0,0,0,2.76-3V348.35A2.91,2.91,0,0,0,640.29,345.33Zm-.64,33.84H606.43V351.86h33.22Z"></path> <rect class="cls-15" x="619.17" y="356.73" width="7.83" height="7.83"></rect> <rect class="cls-15" x="628.67" y="356.73" width="7.83" height="7.83"></rect> <rect class="cls-15" x="619.01" y="366.75" width="7.83" height="7.83"></rect> <rect class="cls-15" x="609.35" y="366.75" width="7.83" height="7.83"></rect> <rect class="cls-15" x="628.67" y="366.75" width="7.83" height="7.83"></rect> <polygon class="cls-3" points="881.99 349.17 856.25 402 788.92 402 763.18 349.17 788.92 296.34 856.25 296.34 881.99 349.17"></polygon> <text class="cls-4" transform="translate(786.18 324.76)">Participant <tspan x="-0.15" y="16.8">Dashboa</tspan><tspan class="cls-18" x="59.23" y="16.8">r</tspan><tspan x="64.42" y="16.8">d</tspan></text> <rect class="cls-15" x="808.64" y="370.48" width="7.36" height="16.14"></rect> <path class="cls-15" d="M815.32,371.17v14.77h-6V371.17h6m1.36-1.37H808v17.5h8.72V369.8Z"></path> <rect class="cls-15" x="818.85" y="364.17" width="7.36" height="22.46"></rect> <path class="cls-15" d="M825.53,364.85v21.09h-6V364.85h6m1.36-1.37h-8.72V387.3h8.72V363.48Z"></path> <path class="cls-15" d="M831.54,371l-1.67,3.47,5.42,5.86-1-9.33,1.49-14.9m1.37-1.36h-8.72V387.3h8.72V354.77Z"></path> <polygon class="cls-15" points="804.88 389.12 804.88 354.77 802.16 354.77 802.16 391.84 804.16 391.84 804.16 391.85 841.23 391.85 841.23 389.12 804.88 389.12"></polygon> <polygon class="cls-13" points="379.57 521.04 353.83 573.88 286.5 573.88 260.76 521.04 286.5 468.21 353.83 468.21 379.57 521.04"></polygon> <text class="cls-4" transform="translate(298.16 487.85)">Health<tspan x="-16.72" y="16.8">Documents</tspan></text> <path class="cls-15" d="M336.84,527.12l-9.42-9.42-.82-.82H304.25V563.6h33.41V527.95Zm-29.78,33.67v-41.1h15.87c4.17,0,2.16,9.88,2.16,9.88s9.64-2.34,9.76,2.08v29.13Z"></path> <polygon class="cls-15" points="330.59 542.71 323.37 542.71 323.37 535.49 318.55 535.49 318.55 542.71 311.33 542.71 311.33 547.53 318.55 547.53 318.55 554.75 323.37 554.75 323.37 547.53 330.59 547.53 330.59 542.71"></polygon> <polygon class="cls-17" points="682.12 464.31 656.38 517.14 589.05 517.14 563.31 464.31 589.05 411.48 656.38 411.48 682.12 464.31"></polygon> <text class="cls-4" transform="translate(586.31 441.7)">Messaging</text> <path class="cls-15" d="M648.25,482.65l-3.25-6.5a13.29,13.29,0,0,0-12.77-17H620.86a13.3,13.3,0,0,0-13.29,13.29c0,.27,0,.54,0,.81a13.29,13.29,0,0,0-7.46,15.88l-3.25,6.49a1,1,0,0,0,.86,1.4l.21,0,6.37-1.42a13.23,13.23,0,0,0,8.57,3.14h11.38a13.3,13.3,0,0,0,13.29-13.29c0-.27,0-.54,0-.81a13.31,13.31,0,0,0,3.26-2l6.37,1.42.21,0a1,1,0,0,0,.87-1.4ZM603.59,490l.56-1.11a9.42,9.42,0,0,1,4.29-11.76,13.31,13.31,0,0,0,12.43,8.59h11.37a13.3,13.3,0,0,0,1.47-.08,9.43,9.43,0,0,1-9.42,9.21H612.91a9.4,9.4,0,0,1-6.87-3l-1.19.27-.93.21h-.06l-1,.22-.65.14.34-.67.5-1m39.21-11.47-1-.22h-.06l-.93-.21-1.19-.27a9.49,9.49,0,0,1-2.39,1.84,9.34,9.34,0,0,1-3.72,1.1q-.37,0-.76,0H620.86a9.42,9.42,0,0,1-9.43-9.42h0v-.22a9.43,9.43,0,0,1,9.42-9.21h11.38A9.42,9.42,0,0,1,641,475.93l.56,1.11.52,1h0l.52,1,.34.67Z"></path> <path class="cls-15" d="M643.16,594.06a17.9,17.9,0,0,1-2.89.26c-3.44,0-7.64-1.25-10.67-7-3.33-6.34-8.27-7.84-12.18-7.84h0a16.35,16.35,0,0,0-2.92.27l-.15,0v-.93a1,1,0,0,0-1.06-.82h-2.13a1,1,0,0,0-1.06.82v44a1,1,0,0,0,1.06.82h2.13a1,1,0,0,0,1.06-.82V603.15a11.94,11.94,0,0,1,2.47-.28c2,0,4.71.6,9.12,2.72a11.18,11.18,0,0,0,4.86,1.15c6.24,0,11.38-5.55,13.65-9.66a9.3,9.3,0,0,0,.89-3.69A16.69,16.69,0,0,1,643.16,594.06Zm-6.28,6.62a12.41,12.41,0,0,1-3,1.83,7.86,7.86,0,0,1-3.07.65,7.44,7.44,0,0,1-3.31-.8c-4.43-2.12-7.72-3.06-10.68-3.06a14.09,14.09,0,0,0-2.15.17V583.53a.82.82,0,0,1,.48-.26,12.64,12.64,0,0,1,2.27-.21,9.51,9.51,0,0,1,4.59,1.11,11.23,11.23,0,0,1,4.42,4.82A16.81,16.81,0,0,0,633,596.1a14.59,14.59,0,0,0,6.58,1.78A18.89,18.89,0,0,1,636.88,600.68Z"></path> <polygon class="cls-13" points="278.52 579.75 252.78 632.59 185.45 632.59 159.71 579.75 185.45 526.92 252.78 526.92 278.52 579.75"></polygon> <text class="cls-4" transform="translate(180.4 554.79)">Community<tspan x="12.95" y="16.8">Forums</tspan></text> <path class="cls-15" d="M228.87,580.46H215.3a9,9,0,0,0-9,8.89,5,5,0,0,0-3,9.07,7.92,7.92,0,0,0-4.86,7.3V613a7.92,7.92,0,0,0,6.6,7.8,7.91,7.91,0,0,0,15.82-.28v-1.74h8a9,9,0,0,0,9-9V589.47A9,9,0,0,0,228.87,580.46ZM203.21,594.4a3.14,3.14,0,0,1,3.08-3.14h.06a3.1,3.1,0,0,1,1.43.35,3.14,3.14,0,0,1,1.49,1.65,3.13,3.13,0,0,1,0,2.29,3.14,3.14,0,0,1-1.49,1.65,3.1,3.1,0,0,1-1.43.35h-.06A3.14,3.14,0,0,1,203.21,594.4ZM206.29,609a7.87,7.87,0,0,0-1.25,4.26v4.91a5.29,5.29,0,0,1-4-5.12v-7.31a5.29,5.29,0,0,1,5.22-5.28h.06a5.28,5.28,0,0,1,1.43.2l.26.08a5.1,5.1,0,0,0-.14,1.2,5.06,5.06,0,0,0,2,4q-.32.13-.63.3a7.94,7.94,0,0,0-3,2.74Zm3.52-7.06c0-.06,0-.12,0-.18a3.14,3.14,0,1,1,3.14,3.32h0a3.1,3.1,0,0,1-1.37-.33A3.14,3.14,0,0,1,209.81,601.92Zm8.42,18.63a5.28,5.28,0,0,1-10.56.28c0-.09,0-.19,0-.28v-7.31a5.3,5.3,0,0,1,4-5.12,5.28,5.28,0,0,1,6.6,5.12ZM234.9,609.8a6,6,0,0,1-6,6h-8v-2.58a7.92,7.92,0,0,0-4.86-7.3,5,5,0,0,0-5.83-8.24,5,5,0,0,0-.9-7.42v-.81a6,6,0,0,1,6-6h13.56a6,6,0,0,1,6,6Z"></path> <rect class="cls-15" x="216.01" y="592.11" width="16.29" height="2.95"></rect> <rect class="cls-15" x="219.96" y="597.55" width="12.34" height="2.95"></rect> <rect class="cls-15" x="219.96" y="602.49" width="12.34" height="2.68"></rect> <rect class="cls-15" x="216.01" y="587.36" width="16.29" height="2.69"></rect> <path class="cls-19" d="M209.13,598.61l.14-.1v-.06Zm.14-.24v.08l.06-.06Z"></path> <path class="cls-19" d="M209.13,598.61l.14-.1v-.06Z"></path> <polygon class="cls-13" points="379.45 292.43 353.71 345.26 286.38 345.26 260.64 292.43 286.38 239.6 353.71 239.6 379.45 292.43"></polygon> <text class="cls-4" transform="translate(298.53 266.39)">Health <tspan x="-1.69" y="16.8">Library</tspan></text> <path class="cls-15" d="M340.81,301.19H325.91a3.86,3.86,0,0,1-2.28-.9l-3.72-3.49a3.83,3.83,0,0,0-2.28-.91H298.88a1.33,1.33,0,0,0-1.32,1.32v31.37a1.33,1.33,0,0,0,1.32,1.32h41.92a1.33,1.33,0,0,0,1.32-1.32V302.51A1.33,1.33,0,0,0,340.81,301.19Zm-30.44,25.56H306V304.58h4.4Zm7.19.06h-5.67V307.16h5.67Zm6.08-.15h-4.4V305.47h4.4Zm8.3.11L324.14,306l4.12-1.54L336,325.22Z"></path> <rect class="cls-15" x="306.76" y="307.07" width="2.49" height="1.5"></rect> <rect class="cls-15" x="306.76" y="322.76" width="2.49" height="1.5"></rect> <rect class="cls-15" x="312.67" y="309.45" width="4.09" height="2.36"></rect> <rect class="cls-15" x="320.19" y="310.49" width="2.49" height="2.36"></rect> <rect class="cls-15" x="320.22" y="322.76" width="2.48" height="1.5"></rect> <rect class="cls-15" x="325.95" y="307.57" width="2.49" height="1.5" transform="translate(-87.59 134.91) rotate(-20.61)"></rect> <rect class="cls-15" x="331.46" y="322.26" width="2.49" height="1.5" transform="translate(-92.1 137.09) rotate(-20.52)"></rect> <polygon class="cls-13" points="278.15 235.08 252.41 287.91 185.08 287.91 159.34 235.08 185.08 182.25 252.41 182.25 278.15 235.08"></polygon> <text class="cls-4" transform="translate(183.36 205.23)">Interactive <tspan x="1.69" y="16.8">Education</tspan></text> <path class="cls-16" d="M215.1,281.05l.49.36a.25.25,0,0,0,.15,0h1.79a.64.64,0,0,0,.52-.31.28.28,0,0,1,.15-.13l14.14-4.16a.25.25,0,0,0,.17-.16l1.89-5.62a.24.24,0,0,1,.2-.17,4.21,4.21,0,0,0,1.63-1,2.65,2.65,0,0,0,.92-1.4,2.85,2.85,0,0,0,.35-2,1.77,1.77,0,0,0-1.08-1.22l-.09-.09,2.44-7.28a1.06,1.06,0,0,0-.19-.94.74.74,0,0,0-.85-.23l-19.58,4h0c-.09.23-.06.69-.3.69l-2.12-.06c-.4.05-.45-.22-.47-.44a.25.25,0,0,0-.2-.22l-19.45-4a.81.81,0,0,0-.89.23.84.84,0,0,0-.14.94l2.44,7.28-.19.09a1.65,1.65,0,0,0-1,1.22,3.91,3.91,0,0,0,1.22,3.38,4.89,4.89,0,0,0,1.65.93.25.25,0,0,1,.2.17l1.86,5.67a.25.25,0,0,0,.17.16l14.19,4.19Z"></path> <path class="cls-15" d="M232.73,255.73h0a11.72,11.72,0,0,0-1.85-2.73,5.2,5.2,0,0,0-1.77-.84l-.09,0-.08,0c-1-.29-2.2-.51-3.32-.71s-1.91-.36-2.66-.56a3.79,3.79,0,0,1-1.19-.46,1.52,1.52,0,0,1-.06-.17,2,2,0,0,1,0-1.16,14.22,14.22,0,0,0,5.82-1.85,11.18,11.18,0,0,1-2.29-6.33,40,40,0,0,0,.06-5.72c-.4-3.37-1.78-4.52-3-4.23,0,0-1.39-2.94-7.87-1.47-4.13.93-5.27,2.81-5.87,5.86a50.84,50.84,0,0,0,.08,5.57h0a11.16,11.16,0,0,1-2.26,6.29A14,14,0,0,0,211.8,249a1.79,1.79,0,0,1-.09,1.21,4.77,4.77,0,0,1-1.65.63c-1,.26-1.8.49-3.11.72-.89.16-1.81.33-2.68.51s-1.86.76-2.73,2.39l-.2.38-.79,1.15.16,0h0l13.17,1.72q2.68.56,2.82,1.41c0-.56.94-1,2.72-1.41L232.94,256Zm-20.93-.85-1-3,.82-.17c.62-.24,1.06-.35,1.22-.69a4.18,4.18,0,0,0,.08-2.74c-2.41-2.54-2.35-4.21-2.68-5.79a23.47,23.47,0,0,0,6.82-6.41,4.7,4.7,0,0,1,5.16-1s.3,1.46.55,4c0,0,1.39-.61,1.27.72s-.37,3.38-1.43,3.94a4.67,4.67,0,0,1-.25,1.8,11.73,11.73,0,0,1-1.74,2.76,3.8,3.8,0,0,0,0,2.71,2,2,0,0,0,1.11.79l.92.25-.93,2.85Z"></path> <polygon class="cls-17" points="581.01 292.43 555.27 345.26 487.94 345.26 462.2 292.43 487.94 239.6 555.27 239.6 581.01 292.43"></polygon> <text class="cls-4" transform="translate(475.52 279.39)">Questionai<tspan class="cls-18" x="71.79" y="0">r</tspan><tspan x="76.99" y="0">es</tspan></text> <path class="cls-15" d="M537,301.61l-9.13-9.13-.8-.8H505.42V337h32.38V302.4Zm-28.87,32.63V294.41h15.39c4,0,2.09,9.58,2.09,9.58s9.34-2.27,9.46,2v28.24Z"></path> <polygon class="cls-15" points="512.94 313.74 512.94 308.36 530.29 308.36 530.29 313.74 512.94 313.74 512.94 313.74"></polygon> <polygon class="cls-15" points="512.94 322.21 512.94 316.83 530.29 316.83 530.29 322.21 512.94 322.21 512.94 322.21"></polygon> <polygon class="cls-15" points="512.94 330.69 512.94 325.31 530.29 325.31 530.29 330.69 512.94 330.69 512.94 330.69"></polygon> <polygon class="cls-17" points="581.19 521.04 555.45 573.88 488.12 573.88 462.38 521.04 488.12 468.21 555.45 468.21 581.19 521.04"></polygon> <text class="cls-4" transform="translate(503.13 494.85)"> <tspan class="cls-18">V</tspan> <tspan x="8.57" y="0">ideo</tspan> <tspan x="2.84" y="16.8">Chat</tspan> </text> <path class="cls-15" d="M542.54,523.66H500.08a3.44,3.44,0,0,0-3.43,3.43v29a3.44,3.44,0,0,0,3.43,3.43h11v3.24h20.05v-3.24h11.43a3.44,3.44,0,0,0,3.43-3.43v-29A3.44,3.44,0,0,0,542.54,523.66ZM542,555.59H500.6v-28H542Z"></path> <path class="cls-15" d="M533.67,554.09H508.3c0-4.53,5.68-8.2,12.69-8.2S533.67,549.56,533.67,554.09Z"></path> <circle class="cls-15" cx="521.32" cy="537.99" r="6.37"></circle> <polygon class="cls-13" points="480.5 464.31 454.76 517.14 387.43 517.14 361.69 464.31 387.43 411.48 454.76 411.48 480.5 464.31"></polygon> <text class="cls-4" transform="translate(383.77 440.48)">Personality<tspan x="12.18" y="16.8">Portrait</tspan></text> <path class="cls-15" d="M438.25,484.18a3.72,3.72,0,0,0-1.84-3.36,3.72,3.72,0,0,0,1.84-3.36,4,4,0,0,0-1.16-2.87,4.94,4.94,0,0,0-7.59-6.33,4,4,0,0,0-6.77-.1,4,4,0,0,0-6.72,0,3.71,3.71,0,0,0-3.36-1.86,3.91,3.91,0,0,0-3,1.25,4.94,4.94,0,0,0-6.17,7.72,3.76,3.76,0,0,0-1.71,3.29,3.72,3.72,0,0,0,1.84,3.36,3.72,3.72,0,0,0-1.84,3.36,3.68,3.68,0,0,0,2,3.42,4,4,0,0,0,0,6.83,3.69,3.69,0,0,0-1.95,3.41,4,4,0,0,0,1.14,2.86,4.94,4.94,0,1,0,7.63,6.29,4,4,0,0,0,6.72,0,4,4,0,0,0,6.72,0,3.72,3.72,0,0,0,3.36,1.85,4,4,0,0,0,2.78-1.06,4.94,4.94,0,0,0,6.25-7.66,4,4,0,0,0-.1-6.77,4,4,0,0,0,0-6.83A3.68,3.68,0,0,0,438.25,484.18Zm-4.88,20.66H406.68V471.39h26.68Z"></path> <path class="cls-15" d="M429.3,498.24H410.61a7.71,7.71,0,0,1,.51-2.75l.11-.28c0-.09.08-.19.13-.28a9.08,9.08,0,0,1,5.78-4.75l.29-.08.31-.07a10.1,10.1,0,0,1,1.76-.23h.84C425.32,490,429.3,493.68,429.3,498.24Z"></path> <path class="cls-15" d="M424.82,483.66a4.93,4.93,0,0,1-4.52,4.92l-.41,0h-.38a4.94,4.94,0,1,1,5.31-4.92Z"></path> <polygon class="cls-3" points="982.68 406.96 956.94 459.79 889.61 459.79 863.87 406.96 889.61 354.12 956.94 354.12 982.68 406.96"></polygon> <text class="cls-4" transform="translate(890.23 379.12)">Reporting<tspan x="-7.9" y="16.8">&amp; Analystics</tspan></text> <path class="cls-15" d="M922.62,408v21.94l-.12.3-8.11,20.08a22.06,22.06,0,0,1-11.61-28.51A21.74,21.74,0,0,1,922.62,408Z"></path> <polygon class="cls-15" points="921.36 436.55 922.62 433.42 922.62 433.44 921.36 436.55"></polygon> <path class="cls-15" d="M938.43,446.14a21.49,21.49,0,0,1-14.9,6.12,22.27,22.27,0,0,1-7.92-1.48l5.75-14.23,1.26-3.13.89-2.2Z"></path> <path class="cls-15" d="M945.39,430.06a22,22,0,0,1-1.62,8.28,21.62,21.62,0,0,1-4.41,6.87L924,429.89l8.12-20.07A22.12,22.12,0,0,1,945.39,430.06Z"></path> <path class="cls-15" d="M923.93,426.67V408a19.78,19.78,0,0,1,7,1.37Z"></path> <polygon class="cls-15" points="922.62 433.42 923.51 431.22 922.62 433.44 922.62 433.42"></polygon> <polygon class="cls-3" points="682.12 234.03 656.38 286.86 589.05 286.86 563.31 234.03 589.05 181.2 656.38 181.2 682.12 234.03"></polygon> <text class="cls-4" transform="translate(593.19 206.23)"> <tspan class="cls-14">W</tspan> <tspan x="12.42" y="0">ellness </tspan> <tspan class="cls-20" x="4.38" y="16.8">T</tspan> <tspan x="11.64" y="16.8">racker</tspan> </text> <path class="cls-15" d="M643.61,241.53l5.5-6-6.23,4.81c-.15-.21-.31-.42-.47-.63A13.78,13.78,0,0,0,632,234.4a12.35,12.35,0,0,0-9.23,4.31,12.35,12.35,0,0,0-9.23-4.31,13.5,13.5,0,0,0-6,1.46,14,14,0,0,0-4.83,4,11.39,11.39,0,0,0-2.08,10A31.81,31.81,0,0,0,605,259a102.9,102.9,0,0,0,6.7,9c4.54,5.55,8.72,9.86,8.9,10l2.64,2.72,2.45-2.9c.17-.21,4.33-5.15,8.75-11,2.62-3.46,4.78-6.52,6.43-9.08,2.27-3.53,3.54-6.09,4-8a10.93,10.93,0,0,0-.11-5.47A12.34,12.34,0,0,0,643.61,241.53ZM641.52,249c-1.57,6.64-18.47,26.68-18.47,26.68S606.23,258.37,603.92,249c-1.65-6.21,4.28-11.15,9.57-11.15,4.41,0,8.13,3.48,9.23,8.22,1.1-4.74,4.82-8.22,9.23-8.22a10.45,10.45,0,0,1,8.2,4.64l-15.41,11.91-3.2-5.31-5.83,4.14,5.87,7.09,2.24,2.7,2.06-2.24,15.21-16.51A7.72,7.72,0,0,1,641.52,249Z"></path> <polygon class="cls-17" points="781.63 406.96 755.89 459.79 688.56 459.79 662.82 406.96 688.56 354.12 755.89 354.12 781.63 406.96"></polygon> <text class="cls-4" transform="translate(702.79 379.12)">Ci<tspan class="cls-18" x="13.99" y="0">r</tspan><tspan x="19.18" y="0">cle </tspan><tspan x="-4.94" y="16.8">of Ca</tspan><tspan class="cls-18" x="30.58" y="16.8">r</tspan><tspan x="35.77" y="16.8">e</tspan></text> <ellipse class="cls-15" cx="721.68" cy="430.92" rx="3.78" ry="7.67" transform="translate(188.7 1080.87) rotate(-81.49)"></ellipse> <ellipse class="cls-15" cx="717.16" cy="413.78" rx="3.78" ry="7.67" transform="translate(201.79 1061.8) rotate(-81.49)"></ellipse> <ellipse class="cls-15" cx="743.27" cy="423.48" rx="3.78" ry="7.67" transform="translate(214.44 1095.89) rotate(-81.49)"></ellipse> <ellipse class="cls-15" cx="743.27" cy="442.63" rx="3.78" ry="7.67" transform="translate(195.51 1112.2) rotate(-81.49)"></ellipse> <ellipse class="cls-15" cx="711.1" cy="446.54" rx="3.78" ry="7.67" transform="translate(164.23 1083.72) rotate(-81.49)"></ellipse> <ellipse class="cls-15" cx="698.47" cy="427.28" rx="3.78" ry="7.67" transform="translate(172.51 1054.82) rotate(-81.49)"></ellipse> <rect class="cls-15" x="719.08" y="413.95" width="1.14" height="17.27" transform="matrix(0.97, -0.26, 0.26, 0.97, -85.54, 203.16)"></rect> <rect class="cls-15" x="725.14" y="426.3" width="15.06" height="1.14" transform="translate(-100.69 270.24) rotate(-19.58)"></rect> <rect class="cls-15" x="732.36" y="429.54" width="1.14" height="14.66" transform="translate(-4.5 866.11) rotate(-61)"></rect> <rect class="cls-15" x="708.49" y="418.09" width="1.14" height="21.4" transform="translate(184.46 1070.22) rotate(-81.88)"></rect> <rect class="cls-15" x="707.32" y="438.82" width="17.33" height="1.14" transform="translate(-50.68 782.78) rotate(-55.66)"></rect> <polygon class="cls-17" points="479.85 579.45 454.11 632.28 386.78 632.28 361.04 579.45 386.78 526.62 454.11 526.62 479.85 579.45"></polygon> <text class="cls-21" transform="translate(375.68 560.24)">Communication<tspan class="cls-22"><tspan x="17.69" y="16.8">Analysis</tspan></tspan></text> <path class="cls-16" d="M428.22,612.8l-3.69,3.69,5.84,5.83,3.68-3.68Z"></path> <path class="cls-16" d="M434.06,618.64l-7.54-7.54a16.16,16.16,0,1,0-3.69,3.69l7.54,7.54Zm-20.62-5.29a11.64,11.64,0,1,1,11.64-11.64A11.64,11.64,0,0,1,413.44,613.35Z"></path> <g class="cls-23"> <g class="cls-24"> <rect class="cls-15" x="413.36" y="583.64" width="17.1" height="37.35"></rect> </g> </g> <path class="cls-16" d="M439.31,623.65a3.94,3.94,0,0,1-6.72,2.78l0,0-9-9,1-1,3.69-3.69,1-1,9,9,0,0A3.92,3.92,0,0,1,439.31,623.65Z"></path> <path class="cls-16" d="M409.21,604.11v7.59a11.34,11.34,0,0,1-5.66-5.23v-2.36Z"></path> <path class="cls-16" d="M415.91,599.61v12.73a11.29,11.29,0,0,1-5.67-.27V599.61Z"></path> <path class="cls-16" d="M422.6,596.09v11.4a9.59,9.59,0,0,1-5.66,4.6v-16Z"></path> <polygon class="cls-13" points="580.83 406.96 555.09 459.79 487.76 459.79 462.02 406.96 487.76 354.12 555.09 354.12 580.83 406.96"></polygon> <text class="cls-4" transform="translate(500.29 388.12)">P<tspan class="cls-18" x="9.34" y="0">r</tspan><tspan x="14.53" y="0">ofile</tspan></text> <g class="cls-25"> <path class="cls-26" d="M525,428a1.83,1.83,0,0,0-.26.74h0l0,0c-.17.13-.34.25-.52.36a6.29,6.29,0,0,1-1.69.76L522,430l-.26,0-.27,0-.57,0-.5,0-.63-.08-.16,0-.15,0a6.12,6.12,0,0,1-2-.91,2,2,0,0,0,0-.44S526.42,425,525,428Z"></path> <path class="cls-26" d="M524.18,429.08c.18-.11.35-.23.52-.36v0A6,6,0,0,1,524.18,429.08Z"></path> <path class="cls-15" d="M535.84,454.61c0-.47-.12-2.7-.25-3.49.12-2.35.21-5.34.21-5.72a32.23,32.23,0,0,0-.42-3.39c0-.38,0-.77,0-1.18a11.52,11.52,0,0,0-.54-3.62c-.59-2.86-3.89-5-7.89-5h-.11l-.56-.09a3.7,3.7,0,0,1-1.61-3.52c-.17.13-.34.25-.52.36a5.89,5.89,0,0,1-1.7.76l-.51.11-.27,0-.27,0-.57,0-.5,0-.63-.08-.16,0-.15,0a6,6,0,0,1-2-.91,3.61,3.61,0,0,1-2.41,3.25l-.22.12c-3.44.06-6.34,1.74-7.38,4.06a8.56,8.56,0,0,0-1,4.56c0,.41,0,.8.05,1.18a32.23,32.23,0,0,0-.42,3.39c0,.38.09,4.82.21,7.18a17.59,17.59,0,0,0-.25,2c0,.87.46,5.3.77,8,0,.45.06.85.1,1.18l-.17,1.47v1.49l.07.34.34,2.68a13.26,13.26,0,0,0,2.3,3c1,.7.81-.67.81-.67l-1.41-1.91s-.42-2.75.28-2.87.2,1.38.2,1.38-.09,1.06.46,1.5.84-1.31.84-1.31a6.07,6.07,0,0,0,0-.61c0-.16,0-.34,0-.55a5.86,5.86,0,0,0-.33-1.83c-.21-.56-.38-1.1-.51-1.55l0-.34,1.55-17.5,0-.42V446s.06,0,.06,0,.07,0,.07-.06h0s.18-1.46.21-1.85l.07-.9v0h0l.94,4.23s0,.39,0,.79c0,2-.15,4.94-.46,9.06-.05.67-.12,1.59-.18,2.7-.29,5-.54,14,1,21.88a42.64,42.64,0,0,1-.56,6.29c-.5,5.07,1.48,15.5,2,18.34l.11-.34,2.63-.8h0l.28,1.07L519.16,488l.31-5.42h0l.81-13.19a3.15,3.15,0,0,0,.43.05,3.07,3.07,0,0,0,.59,0l.52,8.17.2,2.8,0,1.13.07,1.22.31,5.35,1.79,17.32,0-.13,2.62.84.34,1.11h.15s2-12.36,1.71-19.11c-.1-2.12-.65-4.56-.46-6.81a47.86,47.86,0,0,1,.76-4.94c.55-4.25.4-9.89.17-16.46q0-1.14-.08-2.33a54.69,54.69,0,0,1-.32-9.34c0-.39,0-.76,0-1.11s.17-.43.19-.63l.94-2.79h0l-.12,0a45.21,45.21,0,0,0,.82,6.08c.05.65.46,7.28.9,8.3l.44,3.72,0,1.45a23.86,23.86,0,0,1-.8,2.61,7,7,0,0,0-.29,3s.28,1.75.84,1.31.46-1.5.46-1.5-.5-1.5.19-1.38.28,2.87.28,2.87l-1.42,1.91s-.16,1.37.8.67a13.48,13.48,0,0,0,2.31-3l.45-3.62v0l.09-4.74C535.58,458.73,535.86,455.36,535.84,454.61Z"></path> <path class="cls-15" d="M528.11,420.72a12.24,12.24,0,0,1-.31,2.24l0,.22c-.3,1.44-.51,1.92-.91,1.89h-.06v0a8.64,8.64,0,0,1-1.79,3.44c-.17.2-1.82,2.13-2.92,2.13-.91,0-1.36,0-2.16,0-1,0-2.49-1.83-2.6-2a18.57,18.57,0,0,1-2.15-3.61h0a.61.61,0,0,1-.22,0h0c-.3,0-.53-.39-.79-1.59l0-.09,0-.12-.17-.67a7.26,7.26,0,0,1-.28-2.14h0a.38.38,0,0,1,.26-.34.39.39,0,0,1,.36.13,20.56,20.56,0,0,1,.62-3.32l0-.1a6.14,6.14,0,0,1,6.07-4.47,6.05,6.05,0,0,1,5.83,3.84c.09.21.17.42.25.65a7.19,7.19,0,0,1,.26,1.25c0,.22.06.44.08.66.05.5.1,1,.14,1.37a.37.37,0,0,1,.33-.11c.11,0,.18.15.22.34h0A1.77,1.77,0,0,1,528.11,420.72Z"></path> <path class="cls-15" d="M527.16,414.19a2.62,2.62,0,0,1,.41.08c-1-1.72-2-2-2-2s.44-.08.44-.08a11.39,11.39,0,0,0-3-1,7.44,7.44,0,0,0-5.62.15,1.3,1.3,0,0,1,.65,0,4.6,4.6,0,0,0-3.18,3.05,2.1,2.1,0,0,1,.59-.61c-1.83,2.1-1.48,6.12-1.48,6.12s.48.38.62,2.59l.26,0-.05-2.49a32.36,32.36,0,0,0,3.7-.76,7.42,7.42,0,0,1-.44.69,18.71,18.71,0,0,0,3.36-1.72c-.15.19-.47.65-.47.65a17.43,17.43,0,0,0,3.57-3c.84,2.56,1.85,3.62,2.52,4.06l-.06,2.57.26,0c.15-2.21.62-2.59.62-2.59h0A10.56,10.56,0,0,0,527.16,414.19Z"></path> <path class="cls-15" d="M542.44,497a20.79,20.79,0,1,1,20.79-20.79A20.81,20.81,0,0,1,542.44,497Zm0-39.83a19,19,0,1,0,19,19A19.06,19.06,0,0,0,542.44,457.21Z"></path> </g> <path class="cls-15" d="M520.9,443.76a20.17,20.17,0,1,1,20.17-20.17A20.2,20.2,0,0,1,520.9,443.76Zm0-35.5a15.32,15.32,0,1,0,15.32,15.32A15.34,15.34,0,0,0,520.9,408.27Z"></path> <polygon class="cls-13" points="379.21 406.96 353.47 459.79 286.14 459.79 260.4 406.96 286.14 354.12 353.47 354.12 379.21 406.96"></polygon> <text class="cls-4" transform="translate(293.51 379.12)">Medical<tspan x="-5.46" y="16.8">Summary</tspan></text> <path class="cls-15" d="M297.71,412.2v29.9h46.59V412.2Zm16.84,17H303V417.59h11.56Zm26.28,7.39H319.61v-2.79h21.21Zm0-5.39H319.61v-2.77h21.21Zm0-5.39H319.61V423h21.21Zm0-5.38H319.61v-2.79h21.21Z"></path> <g class="cls-27"> <path class="cls-26" d="M310.37,425.94a.72.72,0,0,0-.1.29h0l-.2.14a2.47,2.47,0,0,1-.66.3l-.2,0-.1,0h-.53l-.25,0h-.12a2.4,2.4,0,0,1-.8-.36.8.8,0,0,0,0-.17S310.94,424.77,310.37,425.94Z"></path> <path class="cls-26" d="M310.06,426.37l.2-.14h0Z"></path> <path class="cls-15" d="M314.64,436.4c0-.18,0-1.06-.1-1.37,0-.92.08-2.1.08-2.24a12.65,12.65,0,0,0-.17-1.33c0-.15,0-.3,0-.46a4.52,4.52,0,0,0-.21-1.42,3,3,0,0,0-3.1-2h0l-.22,0a1.45,1.45,0,0,1-.63-1.38l-.2.14a2.31,2.31,0,0,1-.67.3l-.2,0-.1,0h-.53l-.25,0h-.12a2.36,2.36,0,0,1-.8-.36,1.42,1.42,0,0,1-.95,1.28l-.09,0a3.17,3.17,0,0,0-2.9,1.59,3.36,3.36,0,0,0-.4,1.79c0,.16,0,.31,0,.46a12.65,12.65,0,0,0-.17,1.33c0,.15,0,1.89.08,2.82a6.91,6.91,0,0,0-.1.8c0,.34.18,2.08.3,3.14,0,.18,0,.33,0,.46l-.06.58v.58l0,.14.13,1.05a5.21,5.21,0,0,0,.9,1.18c.38.27.32-.26.32-.26l-.55-.75s-.16-1.08.11-1.13.08.54.08.54,0,.42.18.59.33-.51.33-.51a2.38,2.38,0,0,0,0-.24c0-.06,0-.14,0-.21a2.3,2.3,0,0,0-.13-.72c-.08-.22-.15-.43-.2-.61v-.14l.61-6.87V433h0l0,0h0s.07-.57.08-.73l0-.35h0l.37,1.66s0,.15,0,.31c0,.8-.06,1.94-.18,3.56,0,.26,0,.62-.07,1.06a37.46,37.46,0,0,0,.38,8.59,16.74,16.74,0,0,1-.22,2.47,33.84,33.84,0,0,0,.8,7.2l0-.13,1-.32h0l.11.42.62-7.2.12-2.13h0l.32-5.18.17,0,.23,0,.2,3.21.08,1.1V447l0,.48.12,2.1.7,6.8v0l1,.33.14.44h.06a48.62,48.62,0,0,0,.67-7.5,20.62,20.62,0,0,1-.18-2.67,18.79,18.79,0,0,1,.3-1.94,44,44,0,0,0,.07-6.46l0-.91a21.47,21.47,0,0,1-.12-3.67c0-.15,0-.3,0-.44s.07-.17.08-.25l.37-1.1h0a17.75,17.75,0,0,0,.32,2.39,26.81,26.81,0,0,0,.35,3.26l.17,1.46v.57a9.37,9.37,0,0,1-.32,1,2.73,2.73,0,0,0-.11,1.17s.11.69.33.51.18-.59.18-.59-.2-.59.08-.54.11,1.13.11,1.13l-.56.75s-.06.54.31.26a5.29,5.29,0,0,0,.91-1.18l.18-1.42h0l0-1.86C314.53,438,314.64,436.69,314.64,436.4Z"></path> <path class="cls-15" d="M311.6,423.09a4.81,4.81,0,0,1-.12.88l0,.09c-.12.56-.2.75-.36.74h0a3.39,3.39,0,0,1-.7,1.35c-.07.08-.72.84-1.14.84s-.54,0-.85,0-1-.72-1-.78a7.29,7.29,0,0,1-.84-1.42h-.09c-.12,0-.21-.15-.31-.62v-.08l-.07-.26a2.85,2.85,0,0,1-.11-.84h0a.15.15,0,0,1,.1-.13.15.15,0,0,1,.14.05,8.07,8.07,0,0,1,.24-1.3v0a2.41,2.41,0,0,1,2.38-1.76,2.38,2.38,0,0,1,2.29,1.51c0,.08.07.17.1.25a2.82,2.82,0,0,1,.1.49c0,.09,0,.17,0,.26s0,.39.05.54a.15.15,0,0,1,.13,0s.07.06.09.13h0A.69.69,0,0,1,311.6,423.09Z"></path> <path class="cls-15" d="M311.23,420.53l.16,0c-.39-.67-.77-.78-.77-.78s.17,0,.17,0a4.47,4.47,0,0,0-1.18-.4,2.92,2.92,0,0,0-2.21.06.51.51,0,0,1,.25,0,1.81,1.81,0,0,0-1.25,1.2.83.83,0,0,1,.23-.24,3.8,3.8,0,0,0-.58,2.4s.19.15.25,1h.1l0-1a12.7,12.7,0,0,0,1.45-.3,2.91,2.91,0,0,1-.17.27,7.35,7.35,0,0,0,1.32-.67l-.18.25a6.84,6.84,0,0,0,1.4-1.18,2.89,2.89,0,0,0,1,1.59l0,1h.1c.06-.87.25-1,.25-1h0A4.15,4.15,0,0,0,311.23,420.53Z"></path> <circle class="cls-28" cx="317.23" cy="444.89" r="7.82"></circle> </g> <polygon class="cls-17" points="479.72 235.08 453.98 287.91 386.65 287.91 360.91 235.08 386.65 182.25 453.98 182.25 479.72 235.08"></polygon> <text class="cls-4" transform="translate(405.28 205.23)">Ca<tspan class="cls-18" x="18.41" y="0">r</tspan><tspan x="23.6" y="0">e </tspan><tspan x="1.18" y="16.8">Plan</tspan></text> <path class="cls-15" d="M443.33,241.72l-11.59-7.78a1.49,1.49,0,0,0-1.67,0l-10.75,7.22-10.75-7.22a1.49,1.49,0,0,0-1.67,0l-11.59,7.78a1.86,1.86,0,0,0-.79,1.55v31.1a1.88,1.88,0,0,0,.82,1.58,1.49,1.49,0,0,0,1.64,0l10.75-7.22,10.75,7.22a1.49,1.49,0,0,0,1.67,0l10.76-7.22,10.75,7.22a1.54,1.54,0,0,0,.83.27,1.48,1.48,0,0,0,.8-.23,1.86,1.86,0,0,0,.82-1.58v-31.1A1.83,1.83,0,0,0,443.33,241.72Zm-37.39,24-7.86,5.47V244.41l7.86-5.47Zm3.54,0V252.1l.32.22,1-1.44a11.92,11.92,0,0,0-1.35-.83V238.88l8.08,5.42v12a8.5,8.5,0,0,1-1.81-.87L414.8,257a10,10,0,0,0,2.29,1.08l.46-1.42v14.42Zm11.62,5.41V258.5h.06c.32,0,.64-.06.94-.1l-.28-1.75c-.23,0-.48.07-.73.08V244.31l8.08-5.42v13.19l-.59-.53-1,1.07-.59.68,1.33,1.17.6-.69.21-.23v12.08Zm19.48,0-7.86-5.36V250.51a6.36,6.36,0,0,1,1.23-.4l-.35-1.74a8.7,8.7,0,0,0-.89.23v-9.68l7.86,5.37v26.76Z"></path> <path class="cls-15" d="M401.94,254.93a6.52,6.52,0,0,1,.79-1.8l-1.46-1a8.09,8.09,0,0,0-1,2.27l0,.09,1.68.54Z"></path> <path class="cls-15" d="M405.25,251.07c.24-.13-.15-.12.11-.2l-.54-1.68a6.39,6.39,0,0,0-1.06.45,6.24,6.24,0,0,0-1.25.92l1.21,1.29A8.78,8.78,0,0,1,405.25,251.07Z"></path> <path class="cls-15" d="M423.79,256l.77,1.59a9.18,9.18,0,0,0,2.11-1.44l-1.17-1.33A7.29,7.29,0,0,1,423.79,256Z"></path> <path class="cls-15" d="M412.89,252.92l-.33-.4-1.35,1.15c.11.13.22.25.32.39a16.87,16.87,0,0,0,1.28,1.42l1.22-1.28C413.63,253.8,413.27,253.37,412.89,252.92Z"></path> <polygon class="cls-15" points="436.12 252.02 437.26 250.87 438.4 252.02 439.66 250.76 438.51 249.62 439.66 248.48 438.4 247.22 437.26 248.37 436.12 247.22 434.85 248.48 436 249.62 434.85 250.76 436.12 252.02"></polygon> <polygon class="cls-3" points="881.99 464.62 856.25 517.45 788.92 517.45 763.18 464.62 788.92 411.78 856.25 411.78 881.99 464.62"></polygon> <text class="cls-4" transform="translate(786.69 440.7)">Population<tspan x="-0.67" y="16.8">Dashboa</tspan><tspan class="cls-18" x="58.71" y="16.8">r</tspan><tspan x="63.9" y="16.8">d</tspan></text> <path class="cls-15" d="M832.32,501.59l-1.63-.06a.59.59,0,0,1-.41-.2.6.6,0,0,1-.15-.44,8.38,8.38,0,0,1,.16-1c.18.1.35.22.52.34h0a8.49,8.49,0,0,1,.94.76A7,7,0,0,1,832.32,501.59Z"></path> <path class="cls-15" d="M835.88,488.85l0,.08,0,0v0l0,.2c-.06.31-.13.57-.19.79-.13.5-.26.77-.42.87h0l0-.12,0-.2A4.4,4.4,0,0,1,835,489v0a.9.9,0,0,1,.22-.43,7.17,7.17,0,0,1,.67-3.12.5.5,0,0,1,0-.13,1.82,1.82,0,0,1,.13-.34,6.34,6.34,0,0,1-.15,1.27h0l-.06.08h0a.3.3,0,0,1,.17.22s0,.06,0,.09a1.76,1.76,0,0,1,0,.32A10.23,10.23,0,0,1,835.88,488.85Z"></path> <path class="cls-15" d="M842.26,501.81a1.07,1.07,0,0,1,0,.15l-8.46-.31c-.14-.2-.29-.41-.45-.6a9.83,9.83,0,0,0-2.23-2l-.49-.31a2.69,2.69,0,0,1,.24-.41,4.73,4.73,0,0,1,2.64-2.19,4.54,4.54,0,0,0,.38.49,6.12,6.12,0,0,0,.61.58l.51.08h.1c3.39,0,6.23,1.73,7,4.08A3.8,3.8,0,0,1,842.26,501.81Z"></path> <path class="cls-15" d="M848.5,501.6l-5.14-.19c-.66-2.78-3.51-4.86-7-5.23a11,11,0,0,0-1.16-.06h-.1a3.23,3.23,0,0,1-.28-.29,7,7,0,0,1,1.12-.09l0,0a1.73,1.73,0,0,0,1.19-1.28,12.61,12.61,0,0,1-1.1-2,.84.84,0,0,1-.32-.22c.06-.17.12-.33.17-.48l.14-.11a4.22,4.22,0,0,0,.95-2.28l0-.09s0-.09,0-.13a11.5,11.5,0,0,0,.3-2.24,3.12,3.12,0,0,0,0-.48.3.3,0,0,0,0-.06,1.82,1.82,0,0,0-.12-.4,8.79,8.79,0,0,0,.08-1.65h0a3.52,3.52,0,0,1,1.3-.72.85.85,0,0,0-.27,0h-.12a4.68,4.68,0,0,1,1.73-.33,4.23,4.23,0,0,1,1.72.35,7,7,0,0,1,1.82.7h-.1c-.06,0-.14,0-.17,0s.59.19,1.17,1.26a1.44,1.44,0,0,0-.26-.05,6.44,6.44,0,0,1,.3,3.52h0l0,.05h0c.07,0,.11.1.13.22h0a1.2,1.2,0,0,1,0,.22,7.69,7.69,0,0,1-.24,1.37s0,.09,0,.13c-.21.84-.34,1.14-.57,1.14h-.08a5.23,5.23,0,0,1-1.17,2.07l-.2.2a2.33,2.33,0,0,0,.95,2l.34.07h.07c2.45.09,4.43,1.49,4.72,3.26A6.47,6.47,0,0,1,848.5,501.6Z"></path> <path class="cls-2" d="M835.88,488.85a.17.17,0,0,0,0,.05l0,0Zm0,0a.17.17,0,0,0,0,.05l0,0ZM842.31,502a1.07,1.07,0,0,0,0-.15,3.8,3.8,0,0,0-.12-.44c-.76-2.35-3.61-4.08-7-4.08H835l-.51-.08a6.12,6.12,0,0,1-.61-.58,4.54,4.54,0,0,1-.38-.49,3,3,0,0,1-.29-.52,5.37,5.37,0,0,0-2.85,2.4,3,3,0,0,0-.26.44l.51.28.49.31a9.83,9.83,0,0,1,2.23,2c.16.19.31.4.45.6s.25.39.36.59l8.27.3A5,5,0,0,0,842.31,502Zm5.95-2.11c-.3-1.77-2.27-3.17-4.72-3.26h-.07l-.34-.07a2.33,2.33,0,0,1-.95-2l.2-.2a5.23,5.23,0,0,0,1.17-2.07h.08c.23,0,.36-.3.57-1.14,0,0,0-.09,0-.13a7.69,7.69,0,0,0,.24-1.37,1.2,1.2,0,0,0,0-.22h0c0-.12-.06-.19-.13-.22h0l0-.05h0a6.44,6.44,0,0,0-.3-3.52,1.44,1.44,0,0,1,.26.05c-.58-1.08-1.17-1.26-1.17-1.26s.1,0,.17,0h.1a7,7,0,0,0-1.82-.7,4.23,4.23,0,0,0-1.72-.35,4.68,4.68,0,0,0-1.73.33h.12a.85.85,0,0,1,.27,0,3.52,3.52,0,0,0-1.3.72h0a8.79,8.79,0,0,1-.08,1.65,1.82,1.82,0,0,1,.12.4.3.3,0,0,1,0,.06,3.12,3.12,0,0,1,0,.48,11.5,11.5,0,0,1-.3,2.24s0,.09,0,.13l0,.09a4.22,4.22,0,0,1-.95,2.28l-.14.11c-.05.16-.11.31-.17.48a.84.84,0,0,0,.32.22,12.61,12.61,0,0,0,1.1,2,1.73,1.73,0,0,1-1.19,1.28l0,0a7,7,0,0,0-1.12.09,3.23,3.23,0,0,0,.28.29h.1a11,11,0,0,1,1.16.06c3.53.37,6.39,2.45,7,5.23l5.14.19A6.47,6.47,0,0,0,848.25,499.84Zm-12.43-11.08a7.59,7.59,0,0,1,.27-2.25.3.3,0,0,0-.17-.22h0l.06-.08h0a6.34,6.34,0,0,0,.15-1.27h0a8.26,8.26,0,0,0,0-1,3.33,3.33,0,0,0-.65,1.22.66.66,0,0,0,0,.1,7.54,7.54,0,0,0-.69,3.09,1.53,1.53,0,0,0-.21.51v0a4.78,4.78,0,0,0,.12,1.73s0,.12,0,.2l.06.26a.26.26,0,0,0,0,.06v0c0,.12,0,.22.06.32.08-.21.13-.41.19-.6l0,0H835a.3.3,0,0,0,.17,0h0c.16-.1.29-.37.42-.87a2.65,2.65,0,0,1,0-.84.23.23,0,0,1,.16-.2h0l.09,0,0,0,0-.08A.22.22,0,0,0,835.82,488.76Zm.06.08a.17.17,0,0,0,0,.05l0,0Zm-3.57,12.74a7,7,0,0,0-.58-.6,8.49,8.49,0,0,0-.94-.76h0c-.17-.12-.34-.23-.52-.34s-.34-.21-.52-.31a8.17,8.17,0,0,0-.22,1.26,1.17,1.17,0,0,0,1.12,1.27l2.13.08A6.53,6.53,0,0,0,832.32,501.59Zm3.57-12.74a.17.17,0,0,0,0,.05l0,0Zm0,0a.17.17,0,0,0,0,.05l0,0Zm12.37,11c-.3-1.77-2.27-3.17-4.72-3.26h-.07l-.34-.07a2.33,2.33,0,0,1-.95-2l.2-.2a5.23,5.23,0,0,0,1.17-2.07h.08c.23,0,.36-.3.57-1.14,0,0,0-.09,0-.13a7.69,7.69,0,0,0,.24-1.37,1.2,1.2,0,0,0,0-.22h0c0-.12-.06-.19-.13-.22h0l0-.05h0a6.44,6.44,0,0,0-.3-3.52,1.44,1.44,0,0,1,.26.05c-.58-1.08-1.17-1.26-1.17-1.26s.1,0,.17,0h.1a7,7,0,0,0-1.82-.7,4.23,4.23,0,0,0-1.72-.35,4.68,4.68,0,0,0-1.73.33h.12a.85.85,0,0,1,.27,0,3.52,3.52,0,0,0-1.3.72h0a8.79,8.79,0,0,1-.08,1.65,1.82,1.82,0,0,1,.12.4.3.3,0,0,1,0,.06,3.12,3.12,0,0,1,0,.48,11.5,11.5,0,0,1-.3,2.24s0,.09,0,.13l0,.09a4.22,4.22,0,0,1-.95,2.28l-.14.11c-.05.16-.11.31-.17.48a.84.84,0,0,0,.32.22,12.61,12.61,0,0,0,1.1,2,1.73,1.73,0,0,1-1.19,1.28l0,0a7,7,0,0,0-1.12.09,3.23,3.23,0,0,0,.28.29h.1a11,11,0,0,1,1.16.06c3.53.37,6.39,2.45,7,5.23l5.14.19A6.47,6.47,0,0,0,848.25,499.84Zm-13.1-2.56H835l-.51-.08a6.12,6.12,0,0,1-.61-.58,4.2,4.2,0,0,0-2.52,2,2,2,0,0,0-.24.41,9.83,9.83,0,0,1,2.23,2l8.75.32C841.38,499,838.54,497.28,835.15,497.28Zm-4.35,2.94c0,.23-.08.47-.1.72l1,0A8.49,8.49,0,0,0,830.8,500.22Zm2.59.82,8.75.32.62,0,.6,0,5.14.19a6.47,6.47,0,0,0-.25-1.76c-.3-1.77-2.27-3.17-4.72-3.26h-.07l-.34-.07a2.33,2.33,0,0,1-.95-2l.2-.2a5.23,5.23,0,0,0,1.17-2.07h.08c.23,0,.36-.3.57-1.14,0,0,0-.09,0-.13a7.69,7.69,0,0,0,.24-1.37,1.2,1.2,0,0,0,0-.22h0c0-.12-.06-.19-.13-.22h0l0-.05h0a6.44,6.44,0,0,0-.3-3.52,1.44,1.44,0,0,1,.26.05c-.58-1.08-1.17-1.26-1.17-1.26s.1,0,.17,0h.1a7,7,0,0,0-1.82-.7,4.23,4.23,0,0,0-1.72-.35,4.68,4.68,0,0,0-1.73.33h.12a.85.85,0,0,1,.27,0,3.52,3.52,0,0,0-1.3.72h0m-.79,7.6h0a11.49,11.49,0,0,0,1.24,2.26l0,.06a1.08,1.08,0,0,1,0,.13h0a2.2,2.2,0,0,1-1.4,1.79M831,499.61a3.63,3.63,0,0,1,.21-.56,2,2,0,0,1,.24-.41,4.2,4.2,0,0,1,2.52-2"></path> <path class="cls-15" d="M825.15,483.43a15.56,15.56,0,0,1-.4,2.86l-.06.28c-.38,1.79-.64,2.42-1.12,2.42h-.12l0,0h0c-.09.33-.2.69-.34,1.06,0-.16-.09-.33-.13-.53l-.15-.56c0-.13-.06-.24-.06-.26a6.49,6.49,0,0,1-.26-2.11v0a1,1,0,0,1,.3-.58,10.31,10.31,0,0,1,.82-4.69.71.71,0,0,1,0-.19,4.16,4.16,0,0,1,1.31-2.07c0,.25,0,.51.06.77a9.67,9.67,0,0,1-.2,2.57h.05a.59.59,0,0,0-.09.12h.06c.15,0,.23.2.28.44h0A2.57,2.57,0,0,1,825.15,483.43Z"></path> <path class="cls-15" d="M834,505H816.55a.59.59,0,0,1-.42-.19.55.55,0,0,1-.16-.43,7.6,7.6,0,0,1,1-3.68,7.21,7.21,0,0,1,4.9-3.66c.15.17.3.34.45.49s.38.36.57.51l.72.12h.15a12.64,12.64,0,0,1,6,1.45c.17.1.35.2.52.31s.35.22.52.34h0a8.49,8.49,0,0,1,.94.76,7,7,0,0,1,.58.6,6.53,6.53,0,0,1,.48.6,6.27,6.27,0,0,1,1,2.2,1.64,1.64,0,0,1,0,.16C833.88,504.68,833.93,504.82,834,505Z"></path> <path class="cls-15" d="M842.72,504.38H835a1.15,1.15,0,0,0,0-.15,7.21,7.21,0,0,0-.76-2c-.11-.2-.23-.4-.36-.59s-.29-.41-.45-.6a9.83,9.83,0,0,0-2.23-2l-.49-.31-.51-.28A13.71,13.71,0,0,0,824.7,497a3.14,3.14,0,0,0,1.79-2.61h0a1.75,1.75,0,0,0,0-.19l-.07-.09a16.77,16.77,0,0,1-1.94-3.26h0l-.17,0h0a.37.37,0,0,1-.18-.07c.12-.28.21-.56.3-.83.91-.5,1.2-1.9,1.47-3.16l0-.13,0-.17a15.67,15.67,0,0,0,.42-3.09,3.93,3.93,0,0,0,0-.61v-.06a2.08,2.08,0,0,0-.2-.59,11.71,11.71,0,0,0,.06-3.21,5.52,5.52,0,0,1,1-.45,1.21,1.21,0,0,0-.37-.06l-.2,0a6.85,6.85,0,0,1,2.76-.58,6.1,6.1,0,0,1,2.3.44,10,10,0,0,1,2.71.93h-.11c-.1,0-.24,0-.29.08s.87.24,1.77,1.79a2.43,2.43,0,0,0-.37-.06,10.57,10.57,0,0,1,.73,2.87,8.26,8.26,0,0,1,0,1h0a6.34,6.34,0,0,1-.15,1.27h0l-.06.08h0a.3.3,0,0,1,.17.22s0,.06,0,.09a1.76,1.76,0,0,1,0,.32,10.23,10.23,0,0,1-.26,1.92l0,.08,0,0v0l0,.2c-.06.31-.13.57-.19.79-.13.5-.26.77-.42.87h0a.3.3,0,0,1-.17,0h-.09l0,0c-.05.19-.11.39-.19.6a7.45,7.45,0,0,1-1.43,2.5,3.78,3.78,0,0,1-.27.31,2.59,2.59,0,0,0,.22,1.34,3,3,0,0,0,.29.52,4.54,4.54,0,0,0,.38.49,6.12,6.12,0,0,0,.61.58l.51.08h.1c3.39,0,6.23,1.73,7,4.08a3.8,3.8,0,0,1,.12.44,1.07,1.07,0,0,1,0,.15,5,5,0,0,1,.16.59A10.6,10.6,0,0,1,842.72,504.38Z"></path> <path class="cls-2" d="M824.21,481.25a3.36,3.36,0,0,1,.81-1.42c0-.26,0-.52-.06-.77s-.06-.45-.09-.67a4.78,4.78,0,0,0-1.79,2.62c0,.06,0,.12,0,.18a10.67,10.67,0,0,0-.83,4.61,1.69,1.69,0,0,0-.29.69.07.07,0,0,1,0,0,6.91,6.91,0,0,0,.27,2.34c0,.05,0,.15.07.26l.1.39a.43.43,0,0,0,0,.08v.05a0,0,0,0,0,0,0,6.81,6.81,0,0,0,.35,1.23,8.53,8.53,0,0,0,.34-.83c.13-.37.24-.73.34-1.06h0l-.1-.38a6.42,6.42,0,0,1-.26-1.94h0a.35.35,0,0,1,.23-.31h.06a.33.33,0,0,1,.19.07.79.79,0,0,0-.16-.24s-.31-3.62,1.33-5.51A1.8,1.8,0,0,0,824.21,481.25Zm8.85,12.89h0ZM825.11,483h0c0-.24-.13-.39-.28-.44h-.06a.59.59,0,0,1,.09-.12h-.05a9.67,9.67,0,0,0,.2-2.57c0-.26,0-.52-.06-.77s-.06-.45-.09-.67a4.78,4.78,0,0,0-1.79,2.62c0,.06,0,.12,0,.18a10.67,10.67,0,0,0-.83,4.61,1.69,1.69,0,0,0-.29.69.07.07,0,0,1,0,0,6.91,6.91,0,0,0,.27,2.34c0,.05,0,.15.07.26l.1.39a.43.43,0,0,0,0,.08v.05a0,0,0,0,0,0,0,6.81,6.81,0,0,0,.35,1.23,8.53,8.53,0,0,0,.34-.83c.13-.37.24-.73.34-1.06h0l0,0h.12c.48,0,.74-.63,1.12-2.42l.06-.28a15.56,15.56,0,0,0,.4-2.86A2.57,2.57,0,0,0,825.11,483Zm7.95,11.16h0ZM834,505c0-.15-.09-.29-.13-.42a1.64,1.64,0,0,0,0-.16,6.27,6.27,0,0,0-1-2.2,6.53,6.53,0,0,0-.48-.6,7,7,0,0,0-.58-.6,8.49,8.49,0,0,0-.94-.76h0c-.17-.12-.34-.23-.52-.34s-.34-.21-.52-.31a12.64,12.64,0,0,0-6-1.45h-.15l-.72-.12c-.19-.15-.38-.33-.57-.51s-.31-.32-.45-.49a5.37,5.37,0,0,1-.38-.5,7.72,7.72,0,0,0-5,3.87,8.22,8.22,0,0,0-1.06,3.94,1.17,1.17,0,0,0,1.16,1.23h17.57C834.07,505.34,834,505.15,834,505Zm1.91-16.12a.17.17,0,0,0,0,.05l0,0Zm-.7,16.12h-.61c.06.19.1.38.15.58h.59C835.27,505.34,835.23,505.15,835.18,505ZM834,505c0-.15-.09-.29-.13-.42a1.64,1.64,0,0,0,0-.16,6.27,6.27,0,0,0-1-2.2,6.53,6.53,0,0,0-.48-.6,7,7,0,0,0-.58-.6,8.49,8.49,0,0,0-.94-.76h0c-.17-.12-.34-.23-.52-.34s-.34-.21-.52-.31a12.64,12.64,0,0,0-6-1.45h-.15l-.72-.12c-.19-.15-.38-.33-.57-.51s-.31-.32-.45-.49a5.37,5.37,0,0,1-.38-.5,7.72,7.72,0,0,0-5,3.87,8.22,8.22,0,0,0-1.06,3.94,1.17,1.17,0,0,0,1.16,1.23h17.57C834.07,505.34,834,505.15,834,505Zm-8.85-22h0c0-.24-.13-.39-.28-.44h-.06a.59.59,0,0,1,.09-.12h-.05a9.67,9.67,0,0,0,.2-2.57c0-.26,0-.52-.06-.77s-.06-.45-.09-.67a4.78,4.78,0,0,0-1.79,2.62c0,.06,0,.12,0,.18a10.67,10.67,0,0,0-.83,4.61,1.69,1.69,0,0,0-.29.69.07.07,0,0,1,0,0,6.91,6.91,0,0,0,.27,2.34c0,.05,0,.15.07.26l.1.39a.43.43,0,0,0,0,.08v.05a0,0,0,0,0,0,0,6.81,6.81,0,0,0,.35,1.23,8.53,8.53,0,0,0,.34-.83c.13-.37.24-.73.34-1.06h0l0,0h.12c.48,0,.74-.63,1.12-2.42l.06-.28a15.56,15.56,0,0,0,.4-2.86A2.57,2.57,0,0,0,825.11,483Zm7.95,11.16h0Zm0,0h0Zm-9.35-4c-.06-.18-.11-.4-.17-.66l0-.09s0-.07,0-.1,0-.14-.06-.22h0l-.1-.38a6.42,6.42,0,0,1-.26-1.94h0a.35.35,0,0,1,.23-.31h.06a.33.33,0,0,1,.19.07.79.79,0,0,0-.16-.24s-.31-3.62,1.33-5.51a1.8,1.8,0,0,0-.52.55,3.36,3.36,0,0,1,.81-1.42,3.62,3.62,0,0,1,.55-.52h0a5.24,5.24,0,0,1,.55-.36,5.53,5.53,0,0,1,1-.45,1.21,1.21,0,0,0-.37-.06l-.2,0h0m-2.43,12.33a.37.37,0,0,0,.18.07h0l.17,0h0a16.77,16.77,0,0,0,1.94,3.26l.07.09a1.75,1.75,0,0,1,0,.19h0A3.14,3.14,0,0,1,824.7,497m9.1,7.4H816.55a7,7,0,0,1,.91-3.43,6.7,6.7,0,0,1,4.85-3.46c.23-.05.47-.09.72-.13m3.48-18.92a6.85,6.85,0,0,1,2.76-.58,6.1,6.1,0,0,1,2.3.44,10,10,0,0,1,2.71.93h-.11c-.1,0-.24,0-.29.08s.87.24,1.77,1.79a2.43,2.43,0,0,0-.37-.06,10.57,10.57,0,0,1,.73,2.87,8.27,8.27,0,0,1,0,1h0a6.34,6.34,0,0,1-.15,1.27h0l-.06.08h0a.3.3,0,0,1,.17.22s0,.06,0,.09a1.75,1.75,0,0,1,0,.32,10.23,10.23,0,0,1-.26,1.92.17.17,0,0,0,0,.05v0l0,.2c-.06.31-.13.57-.19.79-.13.5-.26.77-.42.87h0a.3.3,0,0,1-.17,0h-.09l0,0c-.05.19-.11.39-.19.6a7.45,7.45,0,0,1-1.43,2.5,3.78,3.78,0,0,1-.27.31,2.59,2.59,0,0,0,.22,1.34,3,3,0,0,0,.29.52,4.54,4.54,0,0,0,.38.49,6.13,6.13,0,0,0,.61.58l.51.08h.1c3.39,0,6.23,1.73,7,4.08a3.8,3.8,0,0,1,.12.44,1.06,1.06,0,0,1,0,.15,5,5,0,0,1,.16.59,10.6,10.6,0,0,1,.26,1.84H835"></path> <path class="cls-15" d="M834.49,508.2H797.35a9.87,9.87,0,0,1,1.29-4.86c1.33-3,5-5.13,9.44-5.2l.28-.15c2.54-1.18,3-3,3.08-4h0c0-.1,0-.19,0-.27l-.1-.12a23.91,23.91,0,0,1-2.75-4.63h0a1,1,0,0,1-.24,0h0c-.19,0-.37-.14-.52-.45a6.65,6.65,0,0,1-.48-1.58s0-.05,0-.12,0-.1,0-.15c-.08-.33-.22-.82-.22-.86a9.11,9.11,0,0,1-.36-2.75h0a.48.48,0,0,1,.33-.44H807a.49.49,0,0,1,.27.1,1.07,1.07,0,0,0-.22-.34s-.44-5.14,1.88-7.82a2.53,2.53,0,0,0-.74.77s.53-2.64,4.07-3.91a1.76,1.76,0,0,0-.52-.08,1.42,1.42,0,0,0-.3,0,9.74,9.74,0,0,1,3.93-.82,8.62,8.62,0,0,1,3.26.62,14.51,14.51,0,0,1,3.85,1.32h-.16c-.14,0-.34,0-.4.1s1.24.34,2.52,2.54a3.52,3.52,0,0,0-.53-.09,15.09,15.09,0,0,1,.93,3.32c0,.22.06.44.09.67s0,.51.06.77a9.67,9.67,0,0,1-.2,2.57h.05a.59.59,0,0,0-.09.12h.06c.15,0,.23.2.28.44h0a2.57,2.57,0,0,1,0,.45,15.56,15.56,0,0,1-.4,2.86l-.06.28c-.38,1.79-.64,2.42-1.12,2.42h-.12l0,0h0c-.09.33-.2.69-.34,1.06a8.53,8.53,0,0,1-.34.83,10.78,10.78,0,0,1-1.61,2.52l-.39.44a3.87,3.87,0,0,0,.72,2.64,5.37,5.37,0,0,0,.38.5c.15.17.3.34.45.49s.38.36.57.51l.72.12h.15a12.64,12.64,0,0,1,6,1.45c.17.1.35.2.52.31s.35.22.52.34h0a8.49,8.49,0,0,1,.94.76,7,7,0,0,1,.58.6,6.53,6.53,0,0,1,.48.6,6.27,6.27,0,0,1,1,2.2,1.64,1.64,0,0,1,0,.16c0,.13.09.27.13.42s.1.38.15.58A14.57,14.57,0,0,1,834.49,508.2Z"></path> <path class="cls-2" d="M835.18,505h-.61c.06.19.1.38.15.58h.59C835.27,505.34,835.23,505.15,835.18,505Zm-14.4-11.3h0Zm0,0h0Zm0,0h0Zm2-2.76a10.78,10.78,0,0,1-1.61,2.52l-.39.44a3.87,3.87,0,0,0,.72,2.64,5.37,5.37,0,0,0,.38.5c.15.17.3.34.45.49s.38.36.57.51l.72.12h.15a12.64,12.64,0,0,1,6,1.45c.17.1.35.2.52.31s.35.22.52.34h0a8.49,8.49,0,0,1,.94.76,7,7,0,0,1,.58.6,6.52,6.52,0,0,1,.48.6,6.27,6.27,0,0,1,1,2.2,1.67,1.67,0,0,1,0,.16c0,.13.09.27.13.42s.1.38.15.58a14.57,14.57,0,0,1,.37,2.65H797.35a9.87,9.87,0,0,1,1.29-4.86c1.33-3,5-5.13,9.44-5.2l.28-.15c2.54-1.18,3-3,3.08-4h0c0-.1,0-.19,0-.27l-.1-.12a23.91,23.91,0,0,1-2.75-4.63h0a1,1,0,0,1-.24,0h0c-.19,0-.37-.14-.52-.45a6.65,6.65,0,0,1-.48-1.58s0-.05,0-.12,0-.1,0-.15c-.08-.33-.22-.82-.22-.86a9.11,9.11,0,0,1-.36-2.75h0a.48.48,0,0,1,.33-.44H807a.49.49,0,0,1,.27.1,1.07,1.07,0,0,0-.22-.34s-.44-5.14,1.88-7.82a2.53,2.53,0,0,0-.74.77s.53-2.64,4.07-3.91a1.76,1.76,0,0,0-.52-.08,1.42,1.42,0,0,0-.3,0,9.74,9.74,0,0,1,3.93-.82,8.62,8.62,0,0,1,3.26.62,14.51,14.51,0,0,1,3.85,1.32h-.16c-.14,0-.34,0-.4.1s1.24.34,2.52,2.54a3.52,3.52,0,0,0-.53-.09,15.09,15.09,0,0,1,.93,3.32c0,.22.06.44.09.67s0,.51.06.77a9.67,9.67,0,0,1-.2,2.57h.05a.59.59,0,0,0-.09.12h.06c.15,0,.23.2.28.44h0a2.57,2.57,0,0,1,0,.45,15.56,15.56,0,0,1-.4,2.86l-.06.28c-.38,1.79-.64,2.42-1.12,2.42h-.12l0,0h0c-.09.33-.2.69-.34,1.06a8.53,8.53,0,0,1-.34.83"></path> <path class="cls-29" d="M252.41,297.34l25.74,52.83L252.41,403H185.08l-25.74-52.83,25.74-52.83h67.33m1.25-2H183.83l-.55,1.12-25.74,52.83-.43.88.43.88,25.74,52.83.55,1.12h69.83l.55-1.12L280,351l.43-.88-.43-.88-25.74-52.83-.55-1.12Z"></path> <path class="cls-29" d="M252.41,411.48l25.74,52.83-25.74,52.83H185.08l-25.74-52.83,25.74-52.83h67.33m1.25-2H183.83l-.55,1.12-25.74,52.83-.43.88.43.88L183.28,518l.55,1.12h69.83l.55-1.12L280,465.18l.43-.88-.43-.88L254.21,410.6l-.55-1.12Z"></path> <path class="cls-29" d="M152.42,354.12,178.16,407l-25.74,52.83H85.09L59.35,407l25.74-52.83h67.33m1.25-2H83.84l-.55,1.12L57.55,406.08l-.43.88.43.88,25.74,52.83.55,1.12h69.83l.55-1.12L180,407.83l.43-.88-.43-.88-25.74-52.83-.55-1.12Z"></path> <path class="cls-29" d="M554.45,582.35l25.74,52.83L554.45,688H487.12l-25.74-52.83,25.74-52.83h67.33m1.25-2H485.87l-.55,1.12-25.74,52.83-.43.88.43.88,25.74,52.83.55,1.12H555.7l.55-1.12L582,636.06l.43-.88-.43-.88-25.74-52.83-.55-1.12Z"></path> <path class="cls-29" d="M152.42,469.55l25.74,52.83-25.74,52.83H85.09L59.35,522.38l25.74-52.83h67.33m1.25-2H83.84l-.55,1.12L57.55,521.5l-.43.88.43.88,25.74,52.83.55,1.12h69.83l.55-1.12L180,523.25l.43-.88-.43-.88-25.74-52.83-.55-1.12Z"></path> <path class="cls-29" d="M1057.93,296.34l25.74,52.83L1057.93,402H990.6l-25.74-52.83,25.74-52.83h67.33m1.25-2H989.35l-.55,1.12-25.74,52.83-.43.88.43.88,25.74,52.83.55,1.12h69.83l.55-1.12L1085.47,350l.43-.88-.43-.88-25.74-52.83-.55-1.12Z"></path> <path class="cls-29" d="M1057.93,410.48l25.74,52.83-25.74,52.83H990.6l-25.74-52.83,25.74-52.83h67.33m1.25-2H989.35l-.55,1.12-25.74,52.83-.43.88.43.88L988.81,517l.55,1.12h69.83l.55-1.12,25.74-52.83.43-.88-.43-.88-25.74-52.83-.55-1.12Z"></path> <path class="cls-29" d="M957.94,240.27l25.74,52.83-25.74,52.83H890.61L864.87,293.1l25.74-52.83h67.33m1.25-2H889.36l-.55,1.12-25.74,52.83-.43.88.43.88,25.74,52.83.55,1.12h69.83l.55-1.12L985.48,294l.43-.88-.43-.88-25.74-52.83-.55-1.12Z"></path> <path class="cls-29" d="M857.73,183.25l25.74,52.83-25.74,52.83H790.4l-25.74-52.83,25.74-52.83h67.33m1.25-2H789.15l-.55,1.12L762.86,235.2l-.43.88.43.88,25.74,52.83.55,1.12H859l.55-1.12L885.27,237l.43-.88-.43-.88-25.74-52.83-.55-1.12Z"></path> <path class="cls-29" d="M957.94,468.55l25.74,52.83-25.74,52.83H890.61l-25.74-52.83,25.74-52.83h67.33m1.25-2H889.36l-.55,1.12L863.07,520.5l-.43.88.43.88,25.74,52.83.55,1.12h69.83l.55-1.12,25.74-52.83.43-.88-.43-.88-25.74-52.83-.55-1.12Z"></path> </svg> 