<svg xmlns="http://www.w3.org/2000/svg" width="276.7" height="246.1">
  <style>
    .st1{enable-background:new}.st2{fill:#fff}.st3{fill:#676868}
  </style>
  <path fill="#3486b0" stroke="#3586b0" stroke-width="5" stroke-miterlimit="10" d="M273.9 123l-58.8 120.6H61.5L2.8 123 61.5 2.5h153.6z"/>
  <g class="st1">
    <path class="st2" d="M66.8 49.4c-.3-.5-.7-.9-1.1-1.3-.4-.4-1-.6-1.5-.8-.6-.2-1.2-.3-1.8-.3-1.1 0-2.1.2-2.9.7-.8.4-1.4 1-1.9 1.8-.5.7-.8 1.6-1.1 2.5-.2.9-.3 1.9-.3 2.9s.1 1.9.3 2.8c.2.9.6 1.7 1.1 2.4.5.7 1.1 1.3 1.9 1.7.8.4 1.7.7 2.9.7 1.5 0 2.7-.5 3.6-1.4.9-.9 1.4-2.2 1.6-3.7h4.9c-.1 1.4-.5 2.7-1 3.9-.5 1.1-1.2 2.1-2.1 2.9-.9.8-1.9 1.4-3.1 1.9-1.2.4-2.5.6-3.9.6-1.7 0-3.3-.3-4.7-.9-1.4-.6-2.6-1.4-3.5-2.5-1-1.1-1.7-2.3-2.2-3.8-.5-1.4-.8-3-.8-4.6 0-1.7.3-3.3.8-4.7.5-1.5 1.2-2.7 2.2-3.8 1-1.1 2.1-1.9 3.5-2.6 1.4-.6 3-.9 4.7-.9 1.3 0 2.4.2 3.6.5 1.1.4 2.1.9 3 1.6.9.7 1.6 1.5 2.2 2.6.6 1 .9 2.2 1.1 3.5h-4.9c-.1-.7-.3-1.3-.6-1.7zm8.7 4.9c.4-1.1 1-2 1.7-2.7.7-.8 1.6-1.3 2.7-1.8 1-.4 2.2-.6 3.5-.6s2.5.2 3.5.6c1.1.4 2 1 2.7 1.8.7.8 1.3 1.7 1.7 2.7.4 1.1.6 2.3.6 3.6 0 1.3-.2 2.5-.6 3.6s-1 2-1.7 2.7c-.7.8-1.6 1.3-2.7 1.7-1.1.4-2.2.6-3.5.6s-2.5-.2-3.5-.6c-1-.4-1.9-1-2.7-1.7-.7-.8-1.3-1.7-1.7-2.7-.4-1.1-.6-2.3-.6-3.6 0-1.4.2-2.6.6-3.6zm4.1 5.5c.1.6.3 1.2.7 1.7.3.5.7.9 1.2 1.2.5.3 1.1.4 1.9.4.8 0 1.4-.1 1.9-.4.5-.3.9-.7 1.2-1.2.3-.5.5-1.1.7-1.7.1-.6.2-1.3.2-1.9 0-.7-.1-1.3-.2-1.9-.1-.6-.3-1.2-.7-1.7s-.7-.9-1.2-1.2c-.5-.3-1.2-.5-1.9-.5-.8 0-1.4.2-1.9.5s-.9.7-1.2 1.2c-.3.5-.5 1.1-.7 1.7s-.2 1.3-.2 1.9c0 .6.1 1.3.2 1.9zm19.7-10.2v2.2h.1c.6-.9 1.3-1.5 2.2-2 .8-.5 1.8-.7 2.9-.7 1 0 2 .2 2.9.6.9.4 1.5 1.1 2 2.1.5-.7 1.2-1.4 2-1.9.8-.6 1.8-.8 3-.8.9 0 1.7.1 2.4.3.7.2 1.4.6 1.9 1s.9 1.1 1.2 1.8c.3.8.4 1.7.4 2.7V66h-4.5v-9.4c0-.6 0-1.1-.1-1.6 0-.5-.2-.9-.4-1.3s-.5-.7-.8-.9c-.4-.2-.9-.3-1.5-.3s-1.2.1-1.5.4c-.4.2-.7.6-.9 1-.2.4-.4.8-.4 1.3-.1.5-.1 1-.1 1.5v9.2h-4.5V55.1c0-.5-.1-.9-.3-1.3-.2-.4-.4-.7-.8-1-.4-.2-.9-.4-1.6-.4-.2 0-.5 0-.8.1-.4.1-.7.3-1 .5-.3.3-.6.7-.8 1.2-.2.5-.4 1.2-.4 2v9.6H95V49.6h4.3zm29 0v2.2h.1c.6-.9 1.3-1.5 2.2-2 .8-.5 1.8-.7 2.9-.7 1 0 2 .2 2.9.6.9.4 1.5 1.1 2 2.1.5-.7 1.2-1.4 2-1.9.8-.6 1.8-.8 3-.8.9 0 1.7.1 2.4.3.7.2 1.4.6 1.9 1s.9 1.1 1.2 1.8c.3.8.4 1.7.4 2.7V66h-4.5v-9.4c0-.6 0-1.1-.1-1.6 0-.5-.2-.9-.4-1.3s-.5-.7-.8-.9c-.4-.2-.9-.3-1.5-.3s-1.2.1-1.5.4c-.4.2-.7.6-.9 1-.2.4-.4.8-.4 1.3-.1.5-.1 1-.1 1.5v9.2h-4.5V55.1c0-.5-.1-.9-.3-1.3-.2-.4-.4-.7-.8-1-.4-.2-.9-.4-1.6-.4-.2 0-.5 0-.8.1s-.7.3-1 .5c-.3.3-.6.7-.8 1.2-.2.5-.4 1.2-.4 2v9.6H124V49.6h4.3zM164 66.1v-2.3h-.1c-.6 1-1.3 1.7-2.2 2.1-.9.4-1.9.6-2.8.6-1.2 0-2.2-.2-3-.5-.8-.3-1.4-.8-1.8-1.4-.4-.6-.8-1.3-.9-2.1-.2-.8-.3-1.8-.3-2.8V49.6h4.5v9.3c0 1.4.2 2.4.6 3.1.4.7 1.2 1 2.3 1 1.2 0 2.1-.4 2.7-1.1.6-.7.8-1.9.8-3.6v-8.7h4.5v16.5H164zm12-16.5v2.3h.1c.6-1 1.3-1.7 2.2-2.1.9-.4 1.9-.7 2.8-.7 1.2 0 2.2.2 3 .5.8.3 1.4.8 1.8 1.4.4.6.8 1.3.9 2.1.2.8.3 1.8.3 2.8v10.2h-4.5v-9.3c0-1.4-.2-2.4-.6-3.1-.4-.7-1.2-1-2.3-1-1.2 0-2.1.4-2.7 1.1-.6.7-.8 1.9-.8 3.6v8.7h-4.5V49.6h4.3zm14.8-2.6v-3.7h4.5V47h-4.5zm4.5 2.6v16.5h-4.5V49.6h4.5zm12.7 0v3h-3.3v8.2c0 .8.1 1.3.4 1.5.3.3.8.4 1.5.4h.7c.2 0 .5-.1.7-.1v3.5c-.4.1-.8.1-1.3.1h-1.4c-.7 0-1.4 0-2-.1-.6-.1-1.2-.3-1.7-.6s-.9-.7-1.1-1.2c-.3-.5-.4-1.2-.4-2v-9.7h-2.7v-3h2.7v-5h4.5v5h3.4zm8.3 21.4c-.9.6-2.1.9-3.6.9h-1.4c-.5 0-.9-.1-1.4-.1V68c.4 0 .9.1 1.3.1s.9.1 1.3 0c.6-.1 1-.3 1.3-.7s.4-.9.4-1.3-.1-.7-.2-1l-5.8-15.5h4.8l3.7 11.3h.1l3.6-11.3h4.7l-6.9 18.6c-.4 1.3-1.1 2.2-1.9 2.8z"/>
  </g>
  <g class="st1">
    <path class="st2" d="M97.8 81.6v4.2h-11v5.3h9.6V95h-9.6v9.4h-5V81.6h16zm2.5 11c.4-1.1 1-2 1.7-2.7.7-.8 1.6-1.3 2.7-1.8 1-.4 2.2-.6 3.5-.6s2.5.2 3.5.6c1.1.4 2 1 2.7 1.8.7.8 1.3 1.7 1.7 2.7.4 1.1.6 2.3.6 3.6 0 1.3-.2 2.5-.6 3.6-.4 1.1-1 2-1.7 2.7-.7.8-1.6 1.3-2.7 1.7-1.1.4-2.2.6-3.5.6s-2.5-.2-3.5-.6c-1-.4-1.9-1-2.7-1.7-.7-.8-1.3-1.7-1.7-2.7-.4-1.1-.6-2.3-.6-3.6 0-1.3.2-2.5.6-3.6zm4.1 5.5c.1.6.3 1.2.7 1.7.3.5.7.9 1.2 1.2.5.3 1.1.4 1.9.4.8 0 1.4-.1 1.9-.4.5-.3.9-.7 1.2-1.2.3-.5.5-1.1.7-1.7.1-.6.2-1.3.2-1.9 0-.7-.1-1.3-.2-1.9-.1-.6-.3-1.2-.7-1.7s-.7-.9-1.2-1.2c-.5-.3-1.2-.5-1.9-.5-.8 0-1.4.2-1.9.5s-.9.7-1.2 1.2c-.3.5-.5 1.1-.7 1.7-.1.6-.2 1.3-.2 1.9 0 .6.1 1.3.2 1.9zM124 87.9V91h.1c.2-.5.5-1 .9-1.4s.8-.8 1.2-1.1c.5-.3 1-.5 1.5-.7.5-.2 1.1-.3 1.7-.3.3 0 .6.1 1 .2v4.2c-.2 0-.5-.1-.8-.1h-.9c-.8 0-1.5.1-2.1.4-.6.3-1 .7-1.4 1.1-.4.5-.6 1-.8 1.7s-.2 1.3-.2 2.1v7.4h-4.5V87.9h4.3zm19.3 16.5v-2.3h-.1c-.6 1-1.3 1.7-2.2 2.1-.9.4-1.9.6-2.8.6-1.2 0-2.2-.2-3-.5-.8-.3-1.4-.8-1.8-1.4-.4-.6-.8-1.3-.9-2.1-.2-.8-.3-1.8-.3-2.8V87.9h4.5v9.3c0 1.4.2 2.4.6 3.1.4.7 1.2 1 2.3 1 1.2 0 2.1-.4 2.7-1.1.6-.7.8-1.9.8-3.6v-8.7h4.5v16.5h-4.3zm12.2-16.5v2.2h.1c.6-.9 1.3-1.5 2.2-2 .8-.5 1.8-.7 2.9-.7 1 0 2 .2 2.9.6.9.4 1.5 1.1 2 2.1.5-.7 1.2-1.4 2-1.9.8-.6 1.8-.8 3-.8.9 0 1.7.1 2.4.3.7.2 1.4.6 1.9 1 .5.5.9 1.1 1.2 1.8.3.8.4 1.7.4 2.7v11.1H172v-9.4c0-.6 0-1.1-.1-1.6 0-.5-.2-.9-.4-1.3s-.5-.7-.8-.9c-.4-.2-.9-.3-1.5-.3s-1.2.1-1.5.4c-.4.2-.7.6-.9 1-.2.4-.4.8-.4 1.3-.1.5-.1 1-.1 1.5v9.2h-4.5V93.4c0-.5-.1-.9-.3-1.3-.2-.4-.4-.7-.8-1-.4-.2-.9-.4-1.6-.4-.2 0-.5 0-.8.1-.4.1-.7.3-1 .5-.3.3-.6.7-.8 1.2-.2.5-.4 1.2-.4 2v9.6h-4.5V87.9h3.9zm28.3 12.4c.2.4.5.6.8.9s.7.4 1.1.5c.4.1.8.2 1.3.2.3 0 .7 0 1-.1.4-.1.7-.2 1-.4.3-.2.5-.4.7-.6.2-.3.3-.6.3-1 0-.7-.5-1.2-1.4-1.5-.9-.3-2.2-.7-3.8-1-.7-.1-1.3-.3-1.9-.5-.6-.2-1.2-.5-1.7-.8-.5-.3-.9-.7-1.2-1.2-.3-.5-.4-1.1-.4-1.8 0-1.1.2-1.9.6-2.6.4-.7 1-1.2 1.6-1.6.7-.4 1.4-.7 2.3-.8.9-.2 1.7-.2 2.6-.2s1.8.1 2.6.3c.8.2 1.6.5 2.3.9.7.4 1.2.9 1.6 1.6.4.7.7 1.5.8 2.5h-4.3c-.1-.9-.4-1.5-1-1.8-.6-.3-1.3-.5-2.1-.5h-.8c-.3 0-.6.1-.8.2s-.5.3-.6.5c-.2.2-.3.5-.3.8 0 .4.1.7.4 1s.7.5 1.2.6c.5.2 1 .3 1.6.4.6.1 1.2.3 1.9.4.7.1 1.3.3 1.9.5.6.2 1.2.5 1.7.8.5.4.9.8 1.2 1.3.3.5.4 1.2.4 1.9 0 1.1-.2 2-.7 2.7-.4.7-1 1.3-1.7 1.8-.7.4-1.5.8-2.4.9-.9.2-1.8.3-2.8.3-1 0-1.9-.1-2.8-.3-.9-.2-1.7-.5-2.4-1-.7-.4-1.3-1-1.8-1.8-.5-.7-.7-1.7-.8-2.8h4.3c.2.5.3 1 .5 1.3z"/>
  </g>
  <path class="st2" d="M160.6 124.7h-31c-11.2 0-20.4 9-20.5 20.3-6.3-.1-11.5 4.9-11.6 11.2-.1 3.8 1.7 7.3 4.8 9.5-6.7 2.8-11.1 9.4-11.1 16.7V199c0 8.8 6.4 16.3 15.1 17.8.2 10 8.4 17.9 18.4 17.7 10-.2 17.9-8.4 17.7-18.4v-4h18.3c11.3 0 20.5-9.2 20.5-20.5v-46.3c-.1-11.4-9.3-20.6-20.6-20.6zM102 156.5c0-3.9 3.1-7.1 7-7.2h.1c1.1 0 2.3.3 3.3.8 1.6.8 2.8 2.1 3.4 3.8.7 1.7.7 3.5 0 5.2-.6 1.6-1.8 3-3.4 3.8-1 .5-2.1.8-3.3.8h-.1c-3.8-.1-7-3.3-7-7.2zm7.1 33.3c-1.9 2.9-2.9 6.3-2.9 9.7v11.2c-5.4-1.3-9.1-6.2-9.1-11.7v-16.7c0-6.6 5.3-12 11.9-12h.1c1.1 0 2.2.2 3.3.5l.6.2c-.2.9-.3 1.8-.3 2.7 0 3.6 1.7 7 4.6 9.1-.5.2-1 .4-1.4.7-2.8 1.5-5.1 3.6-6.8 6.3zm8-16.1v-.4c.2-4 3.6-7 7.6-6.7s7 3.6 6.7 7.6c-.2 3.8-3.3 6.7-7.1 6.8-1.1 0-2.2-.3-3.1-.8-2.5-1.3-4.1-3.8-4.1-6.5zm19.2 42.5c.2 6.7-5.1 12.2-11.7 12.4-6.7.2-12.2-5.1-12.4-11.7v-17.3c0-5.5 3.8-10.3 9.1-11.7 6.4-1.7 13 2.2 14.7 8.7.3 1 .4 2 .4 3l-.1 16.6zm38-24.6c0 7.6-6.1 13.7-13.7 13.7h-18.3v-5.9c0-7.3-4.4-13.8-11.1-16.7 5.2-3.7 6.4-10.9 2.7-16.1-3.7-5.2-10.9-6.4-16.1-2.7 4.2-4.7 3.7-11.9-1-16.1-.3-.3-.7-.6-1.1-.8v-1.8c0-7.6 6.1-13.7 13.7-13.7h30.9c7.6 0 13.7 6.1 13.7 13.7l.3 46.4z"/>
  <path class="st2" d="M131.2 151.2h37.2v6.7h-37.2zm9.1 12.5h28.2v6.7h-28.2zm0 11.2h28.2v6.1h-28.2zm-9.1-34.5h37.2v6.1h-37.2z"/>
  <path class="st3" d="M115.5 166.1l.3-.2v-.1l-.3.3zm.4-.6v.2l.1-.1-.1-.1z"/>
  <path class="st3" d="M115.5 166.1l.3-.2v-.1l-.3.3z"/>
</svg>
