<svg xmlns="http://www.w3.org/2000/svg" width="276.7" height="246.1">
  <style>
    .st1{enable-background:new}.st2{fill:#fff}
  </style>
  <path fill="#3486b0" stroke="#3586b0" stroke-width="5" stroke-miterlimit="10" d="M273.9 123l-58.8 120.6H61.5L2.8 123 61.5 2.5h153.6z"/>
  <g class="st1">
    <path class="st2" d="M96.5 40.8v8.8h9.2v-8.8h5v22.8h-5v-9.8h-9.2v9.8h-5V40.8h5zm23 18.9c.7.7 1.7 1 2.9 1 .9 0 1.7-.2 2.4-.7.7-.5 1.1-.9 1.2-1.5h4c-.6 2-1.6 3.4-2.9 4.2-1.3.9-2.9 1.3-4.8 1.3-1.3 0-2.5-.2-3.5-.6-1-.4-1.9-1-2.7-1.8-.7-.8-1.3-1.7-1.7-2.7-.4-1.1-.6-2.2-.6-3.5 0-1.2.2-2.4.6-3.4.4-1.1 1-2 1.7-2.8.7-.8 1.6-1.4 2.7-1.8 1-.4 2.2-.7 3.4-.7 1.4 0 2.6.3 3.7.8 1 .5 1.9 1.3 2.6 2.2.7.9 1.2 2 1.5 3.1.3 1.2.4 2.4.3 3.7h-11.9c0 1.4.4 2.5 1.1 3.2zm5.1-8.7c-.5-.6-1.4-.9-2.5-.9-.7 0-1.3.1-1.8.4-.5.2-.9.6-1.1.9-.3.4-.5.7-.6 1.1-.1.4-.2.8-.2 1.1h7.4c-.3-1.2-.6-2-1.2-2.6zm8.2 1.2c.1-1.1.3-1.9.8-2.7.5-.7 1.1-1.3 1.8-1.7.7-.4 1.5-.7 2.4-.9.9-.2 1.8-.3 2.7-.3.8 0 1.7.1 2.5.2.9.1 1.6.3 2.3.7.7.3 1.3.8 1.7 1.4.4.6.7 1.4.7 2.4V60c0 .7 0 1.5.1 2.1.1.7.2 1.2.4 1.5h-4.6c-.1-.3-.2-.5-.2-.8-.1-.3-.1-.5-.1-.8-.7.7-1.6 1.3-2.6 1.6-1 .3-2 .4-3 .4-.8 0-1.5-.1-2.2-.3-.7-.2-1.3-.5-1.8-.9s-.9-.9-1.2-1.5c-.3-.6-.4-1.4-.4-2.2 0-.9.2-1.7.5-2.3.3-.6.8-1.1 1.3-1.5.5-.4 1.1-.6 1.8-.8.7-.2 1.3-.3 2-.4s1.4-.2 2-.3c.7-.1 1.2-.2 1.8-.3.5-.1.9-.3 1.2-.6.3-.2.4-.6.4-1.1 0-.5-.1-.9-.2-1.2-.2-.3-.4-.5-.6-.7-.3-.2-.6-.3-.9-.3-.4-.1-.7-.1-1.1-.1-.9 0-1.6.2-2.1.6-.5.4-.8 1-.9 1.9h-4.5zm10.5 3.3c-.2.2-.4.3-.7.4-.3.1-.6.2-.9.2-.3.1-.7.1-1 .2-.4 0-.7.1-1.1.2-.3.1-.7.1-1 .3s-.6.2-.9.4c-.2.2-.4.4-.6.7-.1.3-.2.6-.2 1.1 0 .4.1.7.2 1 .1.3.4.5.6.7.3.2.6.3.9.3.3.1.7.1 1.1.1.9 0 1.6-.1 2.1-.4.5-.3.9-.7 1.1-1.1.2-.4.4-.8.4-1.3.1-.4.1-.8.1-1v-1.8zM156 40.8v22.8h-4.5V40.8h4.5zm12.6 6.3v3h-3.3v8.2c0 .8.1 1.3.4 1.5.3.3.8.4 1.5.4h.7c.2 0 .5-.1.7-.1v3.5c-.4.1-.8.1-1.3.1h-1.4c-.7 0-1.4 0-2-.1-.6-.1-1.2-.3-1.7-.6s-.9-.7-1.1-1.2c-.3-.5-.4-1.2-.4-2v-9.7H158v-3h2.7v-5h4.5v5h3.4zm6.7-6.3v8.6h.1c.6-1 1.3-1.7 2.2-2.1.9-.4 1.8-.7 2.6-.7 1.2 0 2.2.2 3 .5.8.3 1.4.8 1.8 1.4.4.6.8 1.3.9 2.1.2.8.3 1.8.3 2.8v10.2h-4.5v-9.3c0-1.4-.2-2.4-.6-3.1s-1.2-1-2.3-1c-1.2 0-2.1.4-2.7 1.1-.6.7-.8 1.9-.8 3.6v8.7h-4.5V40.8h4.5z"/>
  </g>
  <g class="st1">
    <path class="st2" d="M92.6 79.2v18.6h11.1v4.2H87.6V79.2h5zm13.6 3.7v-3.7h4.5v3.7h-4.5zm4.5 2.5V102h-4.5V85.4h4.5zm8.1-6.2v8.3h.1c.6-.9 1.3-1.5 2.3-1.9.9-.4 1.9-.6 3-.6.8 0 1.7.2 2.5.5s1.5.9 2.2 1.6c.6.7 1.2 1.6 1.6 2.7.4 1.1.6 2.4.6 3.9s-.2 2.8-.6 3.9c-.4 1.1-.9 2-1.6 2.7-.6.7-1.4 1.2-2.2 1.6-.8.3-1.6.5-2.5.5-1.2 0-2.3-.2-3.3-.6-1-.4-1.7-1-2.2-1.9h-.1v2.1h-4.3V79.2h4.5zm7.4 12.5c-.1-.6-.4-1.2-.7-1.7-.3-.5-.7-.9-1.2-1.2-.5-.3-1.1-.4-1.7-.4-.7 0-1.2.1-1.7.4-.5.3-.9.7-1.2 1.2-.3.5-.6 1.1-.7 1.7s-.2 1.3-.2 2 .1 1.3.2 2 .4 1.2.7 1.7c.3.5.7.9 1.2 1.2.5.3 1.1.4 1.7.4.7 0 1.3-.1 1.7-.4.5-.3.9-.7 1.2-1.2.3-.5.6-1.1.7-1.7s.2-1.3.2-2-.1-1.4-.2-2zm11.9-6.3v3.1h.1c.2-.5.5-1 .9-1.4.4-.4.8-.8 1.2-1.1.5-.3 1-.5 1.5-.7.5-.2 1.1-.3 1.7-.3.3 0 .6.1 1 .2v4.2c-.2 0-.5-.1-.8-.1h-.9c-.8 0-1.5.1-2.1.4-.6.3-1 .7-1.4 1.1-.4.5-.6 1-.8 1.7s-.2 1.3-.2 2.1v7.4h-4.5V85.4h4.3zm7.9 5.1c.1-1.1.3-1.9.8-2.7.5-.7 1.1-1.3 1.8-1.7.7-.4 1.5-.7 2.4-.9.9-.2 1.8-.3 2.7-.3.8 0 1.7.1 2.5.2.9.1 1.6.3 2.3.7.7.3 1.3.8 1.7 1.4.4.6.7 1.4.7 2.4v8.6c0 .7 0 1.5.1 2.1.1.7.2 1.2.4 1.5H157c-.1-.3-.2-.5-.2-.8-.1-.3-.1-.5-.1-.8-.7.7-1.6 1.3-2.6 1.6-1 .3-2 .4-3 .4-.8 0-1.5-.1-2.2-.3s-1.3-.5-1.8-.9-.9-.9-1.2-1.5c-.3-.6-.4-1.4-.4-2.2 0-.9.2-1.7.5-2.3.3-.6.8-1.1 1.3-1.5.5-.4 1.1-.6 1.8-.8.7-.2 1.3-.3 2-.4s1.4-.2 2-.3c.7-.1 1.2-.2 1.8-.3.5-.1.9-.3 1.2-.6.3-.2.4-.6.4-1.1 0-.5-.1-.9-.2-1.2-.2-.3-.4-.5-.6-.7-.3-.2-.6-.3-.9-.3-.4-.1-.7-.1-1.1-.1-.9 0-1.6.2-2.1.6-.5.4-.8 1-.9 1.9H146zm10.5 3.4c-.2.2-.4.3-.7.4-.3.1-.6.2-.9.2-.3.1-.7.1-1 .2-.4 0-.7.1-1.1.2-.3.1-.7.1-1 .3-.3.1-.6.2-.9.4-.2.2-.4.4-.6.7-.1.3-.2.6-.2 1.1 0 .4.1.7.2 1 .1.3.4.5.6.7.3.2.6.3.9.3.3.1.7.1 1.1.1.9 0 1.6-.1 2.1-.4.5-.3.9-.7 1.1-1.1.2-.4.4-.8.4-1.3.1-.4.1-.8.1-1v-1.8zm12.4-8.5v3.1h.1c.2-.5.5-1 .9-1.4.4-.4.8-.8 1.2-1.1.5-.3 1-.5 1.5-.7.5-.2 1.1-.3 1.7-.3.3 0 .6.1 1 .2v4.2c-.2 0-.5-.1-.8-.1h-.9c-.8 0-1.5.1-2.1.4-.6.3-1 .7-1.4 1.1-.4.5-.6 1-.8 1.7s-.2 1.3-.2 2.1v7.4h-4.5V85.4h4.3z"/>
    <path class="st2" d="M183.1 106.9c-.9.6-2.1.9-3.6.9h-1.4c-.5 0-.9-.1-1.4-.1V104c.4 0 .9.1 1.3.1s.9.1 1.3 0c.6-.1 1-.3 1.3-.7s.4-.9.4-1.3-.1-.7-.2-1L175 85.6h4.8l3.7 11.3h.1l3.6-11.3h4.7l-6.9 18.6c-.4 1.1-1 2.1-1.9 2.7z"/>
  </g>
  <path class="st2" d="M185.7 143h-34c-1.9-.1-3.7-.8-5.2-2.1l-8.5-8c-1.5-1.2-3.3-2-5.2-2.1H90c-1.7 0-3 1.4-3 3v71.6c0 1.7 1.4 3 3 3h95.6c1.7 0 3-1.4 3-3V146c.1-1.6-1.2-2.9-2.9-3zm-69.4 58.4h-10v-50.6h10v50.6zm16.4.1h-12.9v-44.8h12.9v44.8zm13.8-.4h-10v-48.3h10v48.3zm19 .3L147.7 154l9.4-3.5 17.7 47.4-9.3 3.5z"/>
  <path class="st2" d="M108 156.4h5.7v3.4H108zm0 35.8h5.7v3.4H108zm13.5-30.3h9.3v5.4h-9.3zm17.2 2.4h5.7v5.4h-5.7zm0 27.9h5.7v3.4h-5.7zm12.6808-33.4906l5.3352-2.0064 1.1968 3.1824-5.3352 2.0064zm12.5716 33.3965l5.33805-1.99785 1.1917 3.1841-5.33805 1.99785z"/>
</svg>
