<svg xmlns="http://www.w3.org/2000/svg" width="276.7" height="246.1">
  <style>
    .st1{enable-background:new}.st2{fill:#fff}
  </style>
  <path fill="#3486b0" stroke="#3586b0" stroke-width="5" stroke-miterlimit="10" d="M273.9 123l-58.8 120.6H61.5L2.8 123 61.5 2.5h153.6z"/>
  <g class="st1">
    <path class="st2" d="M64.8 32.1v22.8h-5V32.1h5zm8.2 6.3v2.3h.1c.6-1 1.3-1.7 2.2-2.1.9-.4 1.9-.7 2.8-.7 1.2 0 2.2.2 3 .5s1.4.8 1.8 1.4c.4.6.8 1.3.9 2.1.2.8.3 1.8.3 2.8v10.2h-4.5v-9.3c0-1.4-.2-2.4-.6-3.1s-1.2-1-2.3-1c-1.2 0-2.1.4-2.7 1.1-.6.7-.8 1.9-.8 3.6v8.7h-4.5V38.4H73zm23.7 0v3h-3.3v8.2c0 .8.1 1.3.4 1.5.3.3.8.4 1.5.4h.7c.2 0 .5-.1.7-.1v3.5c-.4.1-.8.1-1.3.1H94c-.7 0-1.4 0-2-.1-.6-.1-1.2-.3-1.7-.6s-.9-.7-1.1-1.2c-.3-.5-.4-1.2-.4-2v-9.7h-2.7v-3h2.7v-5h4.5v5h3.4zm7.1 12.6c.7.7 1.7 1 2.9 1 .9 0 1.7-.2 2.4-.7.7-.5 1.1-.9 1.2-1.5h4c-.6 2-1.6 3.4-2.9 4.2-1.3.9-2.9 1.3-4.8 1.3-1.3 0-2.5-.2-3.5-.6-1-.4-1.9-1-2.7-1.8-.7-.8-1.3-1.7-1.7-2.7-.4-1.1-.6-2.2-.6-3.5 0-1.2.2-2.4.6-3.4s1-2 1.7-2.8c.7-.8 1.6-1.4 2.7-1.8 1-.4 2.2-.7 3.4-.7 1.4 0 2.6.3 3.7.8 1 .5 1.9 1.3 2.6 2.2.7.9 1.2 2 1.5 3.1.3 1.2.4 2.4.3 3.7h-11.9c0 1.4.4 2.5 1.1 3.2zm5.1-8.7c-.5-.6-1.4-.9-2.5-.9-.7 0-1.3.1-1.8.4-.5.2-.9.6-1.1.9-.3.4-.5.7-.6 1.1-.1.4-.2.8-.2 1.1h7.4c-.3-1.1-.7-2-1.2-2.6zm12.7-3.9v3.1h.1c.2-.5.5-1 .9-1.4.4-.4.8-.8 1.2-1.1.5-.3 1-.5 1.5-.7.5-.2 1.1-.3 1.7-.3.3 0 .6.1 1 .2v4.2c-.2 0-.5-.1-.8-.1h-.9c-.8 0-1.5.1-2.1.4-.6.3-1 .7-1.4 1.1-.4.5-.6 1-.8 1.7-.1.6-.2 1.3-.2 2.1V55h-4.5V38.4h4.3zm7.9 5.1c.1-1.1.3-1.9.8-2.7.5-.7 1.1-1.3 1.8-1.7.7-.4 1.5-.7 2.4-.9.9-.2 1.8-.3 2.7-.3.8 0 1.7.1 2.5.2.9.1 1.6.3 2.3.7.7.3 1.3.8 1.7 1.4.4.6.7 1.4.7 2.4v8.6c0 .7 0 1.5.1 2.1.1.7.2 1.2.4 1.5h-4.6c-.1-.3-.2-.5-.2-.8-.1-.3-.1-.5-.1-.8-.7.7-1.6 1.3-2.6 1.6-1 .3-2 .4-3 .4-.8 0-1.5-.1-2.2-.3-.7-.2-1.3-.5-1.8-.9s-.9-.9-1.2-1.5c-.3-.6-.4-1.4-.4-2.2 0-.9.2-1.7.5-2.3.3-.6.8-1.1 1.3-1.5.5-.4 1.1-.6 1.8-.8.7-.2 1.3-.3 2-.4.7-.1 1.4-.2 2-.3.7-.1 1.2-.2 1.8-.3.5-.1.9-.3 1.2-.6.3-.2.4-.6.4-1.1 0-.5-.1-.9-.2-1.2-.2-.3-.4-.5-.6-.7-.3-.2-.6-.3-.9-.3-.4-.1-.7-.1-1.1-.1-.9 0-1.6.2-2.1.6-.5.4-.8 1-.9 1.9h-4.5zm10.5 3.4c-.2.2-.4.3-.7.4-.3.1-.6.2-.9.2-.3.1-.7.1-1 .2-.4 0-.7.1-1.1.2-.3.1-.7.1-1 .3-.3.1-.6.2-.9.4-.2.2-.4.4-.6.7-.1.3-.2.6-.2 1.1 0 .4.1.7.2 1 .1.3.4.5.6.7.3.2.6.3.9.3.3.1.7.1 1.1.1.9 0 1.6-.1 2.1-.4.5-.3.9-.7 1.1-1.1.2-.4.4-.8.4-1.3.1-.4.1-.8.1-1v-1.8zm15.9-5.5c-.7 0-1.3.2-1.8.5s-.9.8-1.2 1.3c-.3.5-.5 1.1-.7 1.7-.1.6-.2 1.3-.2 1.9 0 .6.1 1.2.2 1.8.1.6.3 1.2.6 1.7s.7.9 1.2 1.2c.5.3 1.1.5 1.8.5 1.1 0 1.9-.3 2.5-.9.6-.6 1-1.4 1.1-2.4h4.4c-.3 2.2-1.1 3.9-2.6 5-1.4 1.1-3.2 1.7-5.4 1.7-1.2 0-2.4-.2-3.4-.6-1-.4-1.9-1-2.6-1.7-.7-.7-1.3-1.6-1.7-2.7-.4-1-.6-2.2-.6-3.4 0-1.3.2-2.5.6-3.6.4-1.1.9-2 1.6-2.8.7-.8 1.6-1.4 2.7-1.9 1-.4 2.2-.7 3.6-.7 1 0 1.9.1 2.8.4.9.3 1.7.6 2.4 1.2.7.5 1.3 1.2 1.7 1.9.4.8.7 1.7.8 2.8h-4.4c-.3-2-1.5-2.9-3.4-2.9zm19.5-3v3h-3.3v8.2c0 .8.1 1.3.4 1.5.3.3.8.4 1.5.4h.7c.2 0 .5-.1.7-.1v3.5c-.4.1-.8.1-1.3.1h-1.4c-.7 0-1.4 0-2-.1-.6-.1-1.2-.3-1.7-.6s-.9-.7-1.1-1.2c-.3-.5-.4-1.2-.4-2v-9.7h-2.7v-3h2.7v-5h4.5v5h3.4zm2.3-2.5v-3.7h4.5v3.7h-4.5zm4.6 2.5v16.5h-4.5V38.4h4.5zm7.6 16.5l-5.7-16.5h4.8l3.5 11.3h.1l3.5-11.3h4.5L195 54.9h-5.1zm17.4-3.9c.7.7 1.7 1 2.9 1 .9 0 1.7-.2 2.4-.7.7-.5 1.1-.9 1.2-1.5h4c-.6 2-1.6 3.4-2.9 4.2-1.3.9-2.9 1.3-4.8 1.3-1.3 0-2.5-.2-3.5-.6-1-.4-1.9-1-2.7-1.8-.7-.8-1.3-1.7-1.7-2.7-.4-1.1-.6-2.2-.6-3.5 0-1.2.2-2.4.6-3.4.4-1.1 1-2 1.7-2.8.7-.8 1.6-1.4 2.7-1.8 1-.4 2.2-.7 3.4-.7 1.4 0 2.6.3 3.7.8 1 .5 1.9 1.3 2.6 2.2.7.9 1.2 2 1.5 3.1.3 1.2.4 2.4.3 3.7h-11.9c.1 1.4.4 2.5 1.1 3.2zm5.1-8.7c-.5-.6-1.4-.9-2.5-.9-.7 0-1.3.1-1.8.4-.5.2-.9.6-1.1.9-.3.4-.5.7-.6 1.1-.1.4-.2.8-.2 1.1h7.4c-.2-1.1-.6-2-1.2-2.6z"/>
  </g>
  <g class="st1">
    <path class="st2" d="M80.7 70.5v4.2h-12v4.9h11.1v3.9H68.7v5.6H81v4.2H63.6V70.5h17.1zm14.9 20.7c-.5.9-1.2 1.5-2.1 1.9s-1.8.6-2.9.6c-1.2 0-2.3-.2-3.3-.7-.9-.5-1.7-1.1-2.3-1.9-.6-.8-1.1-1.8-1.4-2.8-.3-1.1-.5-2.2-.5-3.3 0-1.1.2-2.2.5-3.2s.8-1.9 1.4-2.7c.6-.8 1.4-1.4 2.3-1.9.9-.5 2-.7 3.2-.7 1 0 1.9.2 2.8.6.9.4 1.6 1 2.1 1.8h.1v-8.3h4.5v22.8h-4.3l-.1-2.2zm-.2-8.2c-.1-.6-.3-1.2-.7-1.7-.3-.5-.7-.9-1.2-1.2-.5-.3-1.1-.4-1.9-.4s-1.4.1-1.9.4c-.5.3-.9.7-1.2 1.2-.3.5-.5 1-.7 1.7-.1.6-.2 1.3-.2 2 0 .6.1 1.3.2 1.9.1.6.4 1.2.7 1.7.3.5.7.9 1.2 1.2.5.3 1.1.5 1.8.5s1.4-.1 1.9-.4c.5-.3.9-.7 1.2-1.2.3-.5.5-1.1.6-1.7.1-.6.2-1.3.2-2s.1-1.4 0-2zm19.2 10.3V91h-.1c-.6 1-1.3 1.7-2.2 2.1-.9.4-1.9.6-2.8.6-1.2 0-2.2-.2-3-.5-.8-.3-1.4-.8-1.8-1.4-.4-.6-.8-1.3-.9-2.1-.2-.8-.3-1.8-.3-2.8V76.8h4.5v9.3c0 1.4.2 2.4.6 3.1.4.7 1.2 1 2.3 1 1.2 0 2.1-.4 2.7-1.1.6-.7.8-1.9.8-3.6v-8.7h4.5v16.5h-4.3zm15.6-13.6c-.7 0-1.3.2-1.8.5s-.9.8-1.2 1.3c-.3.5-.5 1.1-.7 1.7-.1.6-.2 1.3-.2 1.9 0 .6.1 1.2.2 1.8.1.6.3 1.2.6 1.7s.7.9 1.2 1.2c.5.3 1.1.5 1.8.5 1.1 0 1.9-.3 2.5-.9.6-.6 1-1.4 1.1-2.4h4.4c-.3 2.2-1.1 3.9-2.6 5-1.4 1.1-3.2 1.7-5.4 1.7-1.2 0-2.4-.2-3.4-.6-1-.4-1.9-1-2.6-1.7-.7-.7-1.3-1.6-1.7-2.7-.4-1-.6-2.2-.6-3.4 0-1.3.2-2.5.6-3.6.4-1.1.9-2 1.6-2.8.7-.8 1.6-1.4 2.7-1.9 1-.4 2.2-.7 3.6-.7 1 0 1.9.1 2.8.4.9.3 1.7.6 2.4 1.2.7.5 1.3 1.2 1.7 1.9.4.8.7 1.7.8 2.8h-4.4c-.3-1.9-1.4-2.9-3.4-2.9zm10.3 2.1c.1-1.1.3-1.9.8-2.7.5-.7 1.1-1.3 1.8-1.7.7-.4 1.5-.7 2.4-.9.9-.2 1.8-.3 2.7-.3.8 0 1.7.1 2.5.2.9.1 1.6.3 2.3.7.7.3 1.3.8 1.7 1.4.4.6.7 1.4.7 2.4v8.6c0 .7 0 1.5.1 2.1.1.7.2 1.2.4 1.5h-4.6c-.1-.3-.2-.5-.2-.8-.1-.3-.1-.5-.1-.8-.7.7-1.6 1.3-2.6 1.6-1 .3-2 .4-3 .4-.8 0-1.5-.1-2.2-.3s-1.3-.5-1.8-.9-.9-.9-1.2-1.5c-.3-.6-.4-1.4-.4-2.2 0-.9.2-1.7.5-2.3.3-.6.8-1.1 1.3-1.5.5-.4 1.1-.6 1.8-.8.7-.2 1.3-.3 2-.4.7-.1 1.4-.2 2-.3.7-.1 1.2-.2 1.8-.3.5-.1.9-.3 1.2-.6.3-.2.4-.6.4-1.1 0-.5-.1-.9-.2-1.2-.2-.3-.4-.5-.6-.7-.3-.2-.6-.3-.9-.3-.4-.1-.7-.1-1.1-.1-.9 0-1.6.2-2.1.6-.5.4-.8 1-.9 1.9h-4.5zm10.4 3.4c-.2.2-.4.3-.7.4-.3.1-.6.2-.9.2-.3.1-.7.1-1 .2-.4 0-.7.1-1.1.2-.3.1-.7.1-1 .3-.3.1-.6.2-.9.4-.2.2-.4.4-.6.7-.1.3-.2.6-.2 1.1 0 .4.1.7.2 1 .1.3.4.5.6.7.3.2.6.3.9.3.3.1.7.1 1.1.1.9 0 1.6-.1 2.1-.4.5-.3.9-.7 1.1-1.1.2-.4.4-.8.4-1.3.1-.4.1-.8.1-1v-1.8zm17.2-8.4v3h-3.3V88c0 .8.1 1.3.4 1.5.3.3.8.4 1.5.4h.7c.2 0 .5-.1.7-.1v3.5c-.4.1-.8.1-1.3.1h-1.4c-.7 0-1.4 0-2-.1-.6-.1-1.2-.3-1.7-.6s-.9-.7-1.1-1.2c-.3-.5-.4-1.2-.4-2v-9.7h-2.7v-3h2.7v-5h4.5v5h3.4zm2.3-2.6v-3.7h4.5v3.7h-4.5zm4.5 2.6v16.5h-4.5V76.8h4.5zm3.7 4.6c.4-1.1 1-2 1.7-2.7.7-.8 1.6-1.3 2.7-1.8 1-.4 2.2-.6 3.5-.6 1.3 0 2.5.2 3.5.6 1.1.4 2 1 2.7 1.8.7.8 1.3 1.7 1.7 2.7.4 1.1.6 2.3.6 3.6 0 1.3-.2 2.5-.6 3.6-.4 1.1-1 2-1.7 2.7s-1.6 1.3-2.7 1.7c-1.1.4-2.2.6-3.5.6-1.3 0-2.5-.2-3.5-.6-1-.4-1.9-1-2.7-1.7-.7-.8-1.3-1.7-1.7-2.7-.4-1.1-.6-2.3-.6-3.6 0-1.3.2-2.5.6-3.6zm4.1 5.6c.1.6.3 1.2.7 1.7.3.5.7.9 1.2 1.2.5.3 1.1.4 1.9.4.8 0 1.4-.1 1.9-.4.5-.3.9-.7 1.2-1.2.3-.5.5-1.1.7-1.7.1-.6.2-1.3.2-1.9 0-.7-.1-1.3-.2-1.9-.1-.6-.3-1.2-.7-1.7s-.7-.9-1.2-1.2c-.5-.3-1.2-.5-1.9-.5-.8 0-1.4.2-1.9.5s-.9.7-1.2 1.2c-.3.5-.5 1.1-.7 1.7-.1.6-.2 1.3-.2 1.9 0 .6.1 1.2.2 1.9zm19.6-10.2v2.3h.1c.6-1 1.3-1.7 2.2-2.1.9-.4 1.9-.7 2.8-.7 1.2 0 2.2.2 3 .5.8.3 1.4.8 1.8 1.4.4.6.8 1.3.9 2.1.2.8.3 1.8.3 2.8v10.2H209V84c0-1.4-.2-2.4-.6-3.1-.4-.7-1.2-1-2.3-1-1.2 0-2.1.4-2.7 1.1-.6.7-.8 1.9-.8 3.6v8.7H198V76.8h4.3z"/>
  </g>
  <path class="st2" d="M130 227.9l1.1.8h4.4c.5 0 .9-.3 1.2-.7l.3-.3 32.3-9.5c.2-.1.3-.2.4-.4L174 205c.1-.2.2-.4.5-.4 1.4-.5 2.7-1.2 3.7-2.3 1-.8 1.8-1.9 2.1-3.2.8-1.4 1.1-3 .8-4.6-.3-1.3-1.2-2.3-2.5-2.8l-.2-.2L184 175c.2-.7 0-1.5-.4-2.1-.5-.6-1.2-.8-1.9-.5l-44.7 9.1c-.2.5-.1 1.6-.7 1.6l-4.8-.1c-.9.1-1-.5-1.1-1 0-.2-.2-.5-.5-.5l-44.4-9.1c-.7-.3-1.5-.1-2 .5s-.7 1.4-.3 2.1l5.6 16.6-.4.2c-1.2.5-2 1.5-2.3 2.8-.4 2.9.7 5.7 2.8 7.7 1.1.9 2.4 1.7 3.8 2.1.2 0 .4.2.5.4l4.2 12.9c.1.2.2.3.4.4l32.4 9.6-.2.2z"/>
  <path class="st2" d="M170.2 170.2c-1.1-2.3-2.5-4.4-4.2-6.2-1.2-.9-2.6-1.5-4-1.9h-.4c-2.3-.7-5-1.2-7.6-1.6-2.6-.5-4.4-.8-6.1-1.3-1-.2-1.9-.5-2.7-1-.1-.1-.1-.3-.1-.4-.3-.9-.3-1.8 0-2.6 4.7-.4 9.2-1.9 13.3-4.2-3.2-4.2-5-9.2-5.2-14.4.4-4.3.4-8.7.1-13.1-.9-7.7-4.1-10.3-6.8-9.7 0 0-3.2-6.7-18-3.4-9.4 2.1-12 6.4-13.4 13.4-.2 4.2-.1 8.5.2 12.7-.2 5.2-2 10.2-5.2 14.4 3.8 2.2 8 3.6 12.4 4.1.3.9.2 1.9-.2 2.8-1.2.7-2.4 1.2-3.8 1.4-2.3.6-4.1 1.1-7.1 1.6-2 .4-4.1.8-6.1 1.2s-4.2 1.7-6.2 5.5l-.5.9-1.8 2.6h.4l30.1 3.9c4.1.9 6.2 1.9 6.4 3.2 0-1.3 2.1-2.3 6.2-3.2l30.8-3.9-.5-.8zm-47.7-2l-2.3-6.8 1.9-.4c1.4-.5 2.4-.8 2.8-1.6.8-2 .8-4.2.2-6.3-5.5-5.8-5.4-9.6-6.1-13.2 6.1-3.8 11.4-8.8 15.6-14.6 3.1-3.1 7.8-4 11.8-2.3 0 0 .7 3.3 1.3 9.1 0 0 3.2-1.4 2.9 1.6-.3 3-.8 7.7-3.3 9 .1 1.4-.1 2.8-.6 4.1-1 2.3-2.4 4.4-4 6.3-.8 2-.8 4.2 0 6.2.6.9 1.5 1.5 2.5 1.8l2.1.6-2.1 6.5h-22.7z"/>
</svg>
