<svg xmlns="http://www.w3.org/2000/svg" xmlns:xlink="http://www.w3.org/1999/xlink" width="276.7" height="246.1">
  <style>
    .st1{enable-background:new}.st2{fill:#fff}
  </style>
  <path fill="#3486b0" stroke="#3586b0" stroke-width="5" stroke-miterlimit="10" d="M273.9 123.1l-58.8 120.5H61.5L2.8 123.1 61.5 2.5h153.6z"/>
  <g class="st1">
    <path class="st2" d="M87.6 36.7l5.3 15.7h.1l5-15.7h7.1v22.8h-4.7V43.4h-.1l-5.6 16.2h-3.9l-5.6-16h-.1v16h-4.7V36.7h7.2zm26.3 18.9c.7.7 1.7 1 2.9 1 .9 0 1.7-.2 2.4-.7.7-.5 1.1-.9 1.2-1.5h4c-.6 2-1.6 3.4-2.9 4.2-1.3.9-2.9 1.3-4.8 1.3-1.3 0-2.5-.2-3.5-.6-1-.4-1.9-1-2.7-1.8s-1.3-1.7-1.7-2.7c-.4-1.1-.6-2.2-.6-3.5 0-1.2.2-2.4.6-3.4.4-1.1 1-2 1.7-2.8.7-.8 1.6-1.4 2.7-1.8 1-.4 2.2-.7 3.4-.7 1.4 0 2.6.3 3.7.8 1 .5 1.9 1.3 2.6 2.2.7.9 1.2 2 1.5 3.1.3 1.2.4 2.4.3 3.7h-11.9c0 1.5.4 2.5 1.1 3.2zm5.1-8.7c-.5-.6-1.4-.9-2.5-.9-.7 0-1.3.1-1.8.4-.5.2-.9.6-1.1.9-.3.4-.5.7-.6 1.1-.1.4-.2.8-.2 1.1h7.4c-.3-1.1-.6-2-1.2-2.6zm20.1 10.5c-.5.9-1.2 1.5-2.1 1.9-.9.4-1.8.6-2.9.6-1.2 0-2.3-.2-3.3-.7-.9-.5-1.7-1.1-2.3-1.9-.6-.8-1.1-1.8-1.4-2.8-.3-1.1-.5-2.2-.5-3.3 0-1.1.2-2.2.5-3.2s.8-1.9 1.4-2.7c.6-.8 1.4-1.4 2.3-1.9.9-.5 2-.7 3.2-.7 1 0 1.9.2 2.8.6.9.4 1.6 1 2.1 1.8h.1v-8.3h4.5v22.8h-4.3l-.1-2.2zm-.2-8.1c-.1-.6-.3-1.2-.7-1.7-.3-.5-.7-.9-1.2-1.2-.5-.3-1.1-.4-1.9-.4-.7 0-1.4.1-1.9.4-.5.3-.9.7-1.2 1.2-.3.5-.5 1-.7 1.7-.1.6-.2 1.3-.2 2 0 .6.1 1.3.2 1.9.1.6.4 1.2.7 1.7.3.5.7.9 1.2 1.2.5.3 1.1.5 1.8.5s1.4-.1 1.9-.4c.5-.3.9-.7 1.2-1.2.3-.5.5-1.1.6-1.7.1-.6.2-1.3.2-2 .2-.7.1-1.4 0-2zm8.1-8.8v-3.7h4.5v3.7H147zm4.5 2.5v16.5H147V43h4.5zm11.5 3c-.7 0-1.3.2-1.8.5s-.9.8-1.2 1.3c-.3.5-.5 1.1-.7 1.7-.1.6-.2 1.3-.2 1.9 0 .6.1 1.2.2 1.8.1.6.3 1.2.6 1.7s.7.9 1.2 1.2c.5.3 1.1.5 1.8.5 1.1 0 1.9-.3 2.5-.9.6-.6 1-1.4 1.1-2.4h4.4c-.3 2.2-1.1 3.9-2.6 5-1.4 1.1-3.2 1.7-5.4 1.7-1.2 0-2.4-.2-3.4-.6-1-.4-1.9-1-2.6-1.7-.7-.7-1.3-1.6-1.7-2.7-.4-1-.6-2.2-.6-3.4 0-1.3.2-2.5.6-3.6.4-1.1.9-2 1.6-2.8.7-.8 1.6-1.4 2.7-1.9 1-.4 2.2-.7 3.6-.7 1 0 1.9.1 2.8.4.9.3 1.7.6 2.4 1.2.7.5 1.3 1.2 1.7 1.9.4.8.7 1.7.8 2.8h-4.4c-.3-2-1.5-2.9-3.4-2.9zm10.3 2.1c.1-1.1.3-1.9.8-2.7.5-.7 1.1-1.3 1.8-1.7.7-.4 1.5-.7 2.4-.9.9-.2 1.8-.3 2.7-.3.8 0 1.7.1 2.5.2.9.1 1.6.3 2.3.7.7.3 1.3.8 1.7 1.4.4.6.7 1.4.7 2.4v8.6c0 .7 0 1.5.1 2.1.1.7.2 1.2.4 1.5h-4.6c-.1-.3-.2-.5-.2-.8-.1-.3-.1-.5-.1-.8-.7.7-1.6 1.3-2.6 1.6-1 .3-2 .4-3 .4-.8 0-1.5-.1-2.2-.3s-1.3-.5-1.8-.9-.9-.9-1.2-1.5-.4-1.4-.4-2.2c0-.9.2-1.7.5-2.3.3-.6.8-1.1 1.3-1.5.5-.4 1.1-.6 1.8-.8.7-.2 1.3-.3 2-.4.7-.1 1.4-.2 2-.3.7-.1 1.2-.2 1.8-.3.5-.1.9-.3 1.2-.6.3-.2.4-.6.4-1.1 0-.5-.1-.9-.2-1.2-.2-.3-.4-.5-.6-.7-.3-.2-.6-.3-.9-.3-.4-.1-.7-.1-1.1-.1-.9 0-1.6.2-2.1.6-.5.4-.8 1-.9 1.9h-4.5zm10.4 3.4c-.2.2-.4.3-.7.4-.3.1-.6.2-.9.2-.3.1-.7.1-1 .2-.4 0-.7.1-1.1.2-.3.1-.7.1-1 .3-.3.1-.6.2-.9.4-.2.2-.4.4-.6.7-.1.3-.2.6-.2 1.1 0 .4.1.7.2 1 .1.3.4.5.6.7.3.2.6.3.9.3.3.1.7.1 1.1.1.9 0 1.6-.1 2.1-.4.5-.3.9-.7 1.1-1.1.2-.4.4-.8.4-1.3.1-.4.1-.8.1-1v-1.8zm12.8-14.8v22.8H192V36.7h4.5z"/>
  </g>
  <g class="st1">
    <path class="st2" d="M71.9 92.3c.3.5.6 1 1.1 1.3.5.3 1 .6 1.6.7.6.2 1.3.2 1.9.2.4 0 .9 0 1.4-.1.5-.1 1-.2 1.4-.4.4-.2.8-.5 1.1-.9.3-.4.4-.8.4-1.4 0-.6-.2-1.1-.6-1.5-.4-.4-.9-.7-1.5-1-.6-.3-1.4-.5-2.2-.7-.8-.2-1.6-.4-2.5-.6-.9-.2-1.7-.5-2.5-.8-.8-.3-1.5-.7-2.2-1.2-.6-.5-1.2-1.1-1.5-1.8-.4-.7-.6-1.6-.6-2.7 0-1.2.3-2.2.8-3.1.5-.9 1.2-1.6 2-2.2.8-.6 1.7-1 2.7-1.3 1-.3 2-.4 3.1-.4 1.2 0 2.3.1 3.4.4 1.1.3 2.1.7 2.9 1.3.9.6 1.5 1.4 2 2.3.5.9.8 2 .8 3.4H80c0-.7-.2-1.2-.4-1.7-.2-.4-.6-.8-1-1.1-.4-.3-.9-.4-1.4-.5-.5-.1-1.1-.2-1.7-.2-.4 0-.8 0-1.2.1-.4.1-.8.2-1.1.4-.3.2-.6.5-.8.8-.2.3-.3.7-.3 1.2 0 .4.1.8.3 1.1.2.3.5.5 1 .8.5.2 1.2.5 2.1.7.9.2 2 .5 3.5.9.4.1 1 .2 1.8.5.8.2 1.5.6 2.3 1.1s1.4 1.1 1.9 2c.5.8.8 1.9.8 3.1 0 1-.2 2-.6 2.9-.4.9-1 1.7-1.8 2.3-.8.6-1.8 1.2-3 1.5-1.2.4-2.6.5-4.1.5-1.3 0-2.5-.2-3.7-.5-1.2-.3-2.2-.8-3.1-1.5-.9-.7-1.6-1.5-2.2-2.5-.5-1-.8-2.2-.8-3.6h4.9c.1 1 .2 1.6.5 2.2zm27.6 5.6v-2.3h-.1c-.6 1-1.3 1.7-2.2 2.1-.9.4-1.9.6-2.8.6-1.2 0-2.2-.2-3-.5-.8-.3-1.4-.8-1.8-1.4-.4-.6-.8-1.3-.9-2.1-.2-.8-.3-1.8-.3-2.8V81.4h4.5v9.3c0 1.4.2 2.4.6 3.1.4.7 1.2 1 2.3 1 1.2 0 2.1-.4 2.7-1.1.6-.7.8-1.9.8-3.6v-8.7h4.5v16.5h-4.3zm12.2-16.5v2.2h.1c.6-.9 1.3-1.5 2.2-2 .8-.5 1.8-.7 2.9-.7 1 0 2 .2 2.9.6.9.4 1.5 1.1 2 2.1.5-.7 1.2-1.4 2-1.9.8-.6 1.8-.8 3-.8.9 0 1.7.1 2.4.3.7.2 1.4.6 1.9 1 .5.5.9 1.1 1.2 1.8.3.8.4 1.7.4 2.7v11.1h-4.5v-9.4c0-.6 0-1.1-.1-1.6 0-.5-.2-.9-.4-1.3s-.5-.7-.8-.9c-.4-.2-.9-.3-1.5-.3s-1.2.1-1.5.4c-.4.2-.7.6-.9 1-.2.4-.4.8-.4 1.3-.1.5-.1 1-.1 1.5v9.2H118V86.9c0-.5-.1-.9-.3-1.3-.2-.4-.4-.7-.8-1-.4-.2-.9-.4-1.6-.4-.2 0-.5 0-.8.1-.4.1-.7.3-1 .5-.3.3-.6.7-.8 1.2-.2.5-.4 1.2-.4 2v9.6h-4.5V81.4h3.9zm28.9 0v2.2h.1c.6-.9 1.3-1.5 2.2-2 .8-.5 1.8-.7 2.9-.7 1 0 2 .2 2.9.6.9.4 1.5 1.1 2 2.1.5-.7 1.2-1.4 2-1.9.8-.6 1.8-.8 3-.8.9 0 1.7.1 2.4.3.7.2 1.4.6 1.9 1 .5.5.9 1.1 1.2 1.8.3.8.4 1.7.4 2.7v11.1H157v-9.4c0-.6 0-1.1-.1-1.6 0-.5-.2-.9-.4-1.3s-.5-.7-.8-.9c-.4-.2-.9-.3-1.5-.3s-1.2.1-1.5.4c-.4.2-.7.6-.9 1-.2.4-.4.8-.4 1.3-.1.5-.1 1-.1 1.5v9.2h-4.5V86.9c0-.5-.1-.9-.3-1.3-.2-.4-.4-.7-.8-1-.4-.2-.9-.4-1.6-.4-.2 0-.5 0-.8.1-.4.1-.7.3-1 .5-.3.3-.6.7-.8 1.2-.2.5-.4 1.2-.4 2v9.6h-4.5V81.4h4zm24.4 5c.1-1.1.3-1.9.8-2.7.5-.7 1.1-1.3 1.8-1.7.7-.4 1.5-.7 2.4-.9.9-.2 1.8-.3 2.7-.3.8 0 1.7.1 2.5.2.9.1 1.6.3 2.3.7.7.3 1.3.8 1.7 1.4.4.6.7 1.4.7 2.4v8.6c0 .7 0 1.5.1 2.1.1.7.2 1.2.4 1.5h-4.6c-.1-.3-.2-.5-.2-.8-.1-.3-.1-.5-.1-.8-.7.7-1.6 1.3-2.6 1.6-1 .3-2 .4-3 .4-.8 0-1.5-.1-2.2-.3-.7-.2-1.3-.5-1.8-.9s-.9-.9-1.2-1.5c-.3-.6-.4-1.4-.4-2.2 0-.9.2-1.7.5-2.3.3-.6.8-1.1 1.3-1.5.5-.4 1.1-.6 1.8-.8.7-.2 1.3-.3 2-.4.7-.1 1.4-.2 2-.3.7-.1 1.2-.2 1.8-.3.5-.1.9-.3 1.2-.6.3-.2.4-.6.4-1.1 0-.5-.1-.9-.2-1.2-.2-.3-.4-.5-.6-.7-.3-.2-.6-.3-.9-.3-.4-.1-.7-.1-1.1-.1-.9 0-1.6.2-2.1.6-.5.4-.8 1-.9 1.9H165zm10.4 3.4c-.2.2-.4.3-.7.4-.3.1-.6.2-.9.2-.3.1-.7.1-1 .2-.4 0-.7.1-1.1.2-.3.1-.7.1-1 .3s-.6.2-.9.4c-.2.2-.4.4-.6.7-.1.3-.2.6-.2 1.1 0 .4.1.7.2 1 .1.3.4.5.6.7.3.2.6.3.9.3.3.1.7.1 1.1.1.9 0 1.6-.1 2.1-.4.5-.3.9-.7 1.1-1.1.2-.4.4-.8.4-1.3.1-.4.1-.8.1-1v-1.8zm12.4-8.4v3.1h.1c.2-.5.5-1 .9-1.4.4-.4.8-.8 1.2-1.1.5-.3 1-.5 1.5-.7.5-.2 1.1-.3 1.7-.3.3 0 .6.1 1 .2v4.2c-.2 0-.5-.1-.8-.1h-.9c-.8 0-1.5.1-2.1.4-.6.3-1 .7-1.4 1.1-.4.5-.6 1-.8 1.7-.1.6-.2 1.3-.2 2.1V98h-4.5V81.4h4.3z"/>
    <path class="st2" d="M202 102.8c-.9.6-2.1.9-3.6.9H197c-.5 0-.9-.1-1.4-.1v-3.7c.4 0 .9.1 1.3.1s.9.1 1.3 0c.6-.1 1-.3 1.3-.7.3-.4.4-.9.4-1.3s-.1-.7-.2-1L194 81.4h4.8l3.7 11.3h.1l3.6-11.3h4.7L204 100c-.4 1.3-1.1 2.2-2 2.8z"/>
  </g>
  <path class="st2" d="M87.9 135v68.2h106.3V135H87.9zm38.4 38.8H100v-26.5h26.4l-.1 26.5zm60 16.9h-48.4v-6.4h48.4v6.4zm0-12.3h-48.4v-6.3h48.4v6.3zm0-12.3h-48.4v-6.4h48.4v6.4zm0-12.3h-48.4v-6.4h48.4v6.4z"/>
  <defs>
    <path id="SVGID_1_" d="M128.3 176.6l-30.1.2 1.6-28h26.7z"/>
  </defs>
  <clipPath id="SVGID_2_">
    <use xlink:href="#SVGID_1_" overflow="visible"/>
  </clipPath>
  <g clip-path="url(#SVGID_2_)">
    <path d="M116.8 166.4c-.1.2-.2.4-.2.7l-.5.3c-.5.3-1 .5-1.5.7h-2.8c-.7-.2-1.3-.4-1.8-.8v-.4c0-.1 8.1-3.2 6.8-.5zm-.7 1l.5-.3-.5.3z" fill="#f8c990"/>
    <path class="st2" d="M126.5 190.2c0-.4 0-2.4-.2-3.1 0-2.1.2-4.8.2-5.1-.1-1-.2-2-.4-3v-1c0-1.1-.1-2.2-.5-3.2-1-3-3.9-4.8-7.1-4.6h-.5c-1-.7-1.6-1.9-1.4-3.1l-.5.3c-.5.3-1 .5-1.5.7h-2.8c-.7-.2-1.3-.4-1.8-.8-.1 1.3-.9 2.5-2.2 2.9h-.2c-2.7-.1-5.3 1.3-6.6 3.6-.7 1.3-1 2.7-.9 4.1v1c-.2 1-.3 2-.4 3 0 .3 0 4.3.2 6.4-.1.6-.2 1.2-.2 1.8 0 .8.4 4.7.7 7.2v1l-.1 1.3v1.6l.3 2.4c.6 1 1.2 1.9 2.1 2.7.9.6.7-.6.7-.6l-1.3-1.7s-.4-2.5.3-2.6c.6-.1.2 1.2.2 1.2s0 1 .4 1.3.8-1.2.8-1.2v-1c0-.6-.1-1.1-.3-1.6-.2-.5-.3-1-.5-1.4v-.3l1.4-15.7v-.4s.2-1.3.2-1.7v-.6l.8 3.8v.7c0 1.8-.1 4.4-.4 8.1 0 .6 0 1.4-.2 2.4-.5 6.5-.2 13.1.9 19.6 0 1.9-.2 3.8-.5 5.6 0 5.5.6 11 1.8 16.4v-.3l2.3-.7.3 1 1.4-16.4.3-4.9.7-11.8h.9l.5 7.3.2 2.5v2.1l.3 4.8 1.6 15.5 2.3.8.3 1h.1c1-5.7 1.5-11.4 1.5-17.1-.3-2-.4-4.1-.4-6.1.2-1.5.4-3 .7-4.4.4-4.9.5-9.8.2-14.7v-2.1c-.3-2.8-.4-5.6-.3-8.4v-1c0-.3.2-.4.2-.6l.8-2.5c.1 1.8.4 3.7.7 5.5.1 2.5.4 5 .8 7.4l.4 3.3v1.3c-.2.8-.4 1.5-.7 2.3-.3.9-.4 1.8-.3 2.7 0 0 .3 1.6.8 1.2.5-.4.4-1.3.4-1.3s-.5-1.3.2-1.2.3 2.6.3 2.6l-1.3 1.7s-.1 1.2.7.6c.8-.8 1.5-1.7 2.1-2.7l.4-3.2v-4.2c.9-2.7 1.1-5.7 1.1-6.4z"/>
    <path class="st2" d="M119.6 159.9c0 .7-.1 1.3-.3 2v.2c-.3 1.3-.5 1.7-.8 1.7-.3 1.1-.8 2.2-1.6 3.1-.2.2-1.6 1.9-2.6 1.9h-1.9c-.7 0-2.3-1.6-2.3-1.8-.8-1-1.4-2.1-1.9-3.2h-.2c-.3 0-.5-.3-.7-1.4v-.2l-.2-.6c-.2-.6-.3-1.3-.3-1.9 0-.1.1-.3.2-.3s.2 0 .3.1c.1-1 .3-2 .5-3 .7-2.4 2.9-4.1 5.4-4 2.3-.1 4.4 1.3 5.2 3.4 0 .2.2.4.2.6.1.4.2.7.2 1.1v.6c0 .2 0 .9.1 1.2h.3s.2.1.2.3c.3.1.2.1.2.2z"/>
    <path class="st2" d="M118.8 154h.4c-.9-1.5-1.8-1.8-1.8-1.8h.4c-.9-.4-1.8-.7-2.7-.9-1.6-.6-3.4-.6-5 .1h.6c-1.4.4-2.4 1.4-2.9 2.7.1-.2.3-.4.5-.5-1 1.6-1.5 3.6-1.3 5.5 0 0 .4.3.6 2.3h.2v-2.3c1.1-.2 2.2-.4 3.3-.7-.1.2-.2.4-.4.6 1.1-.4 2.1-.9 3-1.5l-.4.6c1.2-.8 2.3-1.7 3.2-2.7.3 1.4 1.1 2.7 2.3 3.6v2.3h.2c.1-2 .6-2.3.6-2.3.1-1.7-.1-3.4-.8-5z"/>
    <circle cx="132.5" cy="209.6" r="17.8" fill="none" stroke="#fff" stroke-width="9" stroke-miterlimit="10"/>
  </g>
</svg>
