<svg xmlns="http://www.w3.org/2000/svg" width="276.7" height="246.1">
  <style>
    .st1{enable-background:new}.st2{fill:#fff}
  </style>
  <path fill="#3486b0" stroke="#3586b0" stroke-width="5" stroke-miterlimit="10" d="M273.9 123l-58.8 120.6H61.5L2.8 123 61.5 2.5h153.6z"/>
  <g class="st1">
    <path class="st2" d="M65.7 45.9c1.4 0 2.6.2 3.6.6 1 .4 1.8 1 2.4 1.6.6.7 1.1 1.5 1.4 2.3.3.9.4 1.8.4 2.7 0 .9-.1 1.8-.4 2.7-.3.9-.7 1.7-1.4 2.3-.6.7-1.4 1.2-2.4 1.6-1 .4-2.2.6-3.6.6h-5.3v8.2h-5V45.9h10.3zm-1.4 10.7c.6 0 1.1 0 1.7-.1.5-.1 1-.3 1.4-.5.4-.2.7-.6 1-1 .2-.4.4-1 .4-1.8s-.1-1.3-.4-1.8c-.2-.4-.6-.8-1-1-.4-.2-.9-.4-1.4-.5-.5-.1-1.1-.1-1.7-.1h-3.9v6.8h3.9zM81 64.7c.7.7 1.7 1 2.9 1 .9 0 1.7-.2 2.4-.7.7-.5 1.1-.9 1.2-1.5h4c-.6 2-1.6 3.4-2.9 4.2-1.3.9-2.9 1.3-4.8 1.3-1.3 0-2.5-.2-3.5-.6-1-.4-1.9-1-2.7-1.8-.7-.8-1.3-1.7-1.7-2.7-.4-1.1-.6-2.2-.6-3.5 0-1.2.2-2.4.6-3.4.4-1.1 1-2 1.7-2.8.7-.8 1.6-1.4 2.7-1.8 1-.4 2.2-.7 3.4-.7 1.4 0 2.6.3 3.7.8 1 .5 1.9 1.3 2.6 2.2s1.2 2 1.5 3.1c.3 1.2.4 2.4.3 3.7H79.9c.1 1.5.5 2.5 1.1 3.2zm5.2-8.7c-.5-.6-1.4-.9-2.5-.9-.7 0-1.3.1-1.8.4-.5.2-.9.6-1.1.9-.3.4-.5.7-.6 1.1-.2.5-.2.8-.3 1.1h7.4c-.2-1.1-.6-2-1.1-2.6zm12.6-3.8v3.1h.1c.2-.5.5-1 .9-1.4.4-.4.8-.8 1.2-1.1.5-.3 1-.5 1.5-.7.5-.2 1.1-.3 1.7-.3.3 0 .6.1 1 .2v4.2c-.2 0-.5-.1-.8-.1h-.9c-.8 0-1.5.1-2.1.4-.6.3-1 .7-1.4 1.1-.4.5-.6 1-.8 1.7s-.2 1.3-.2 2.1v7.4h-4.5V52.2h4.3zm12 12.4c.2.4.5.6.8.9s.7.4 1.1.5c.4.1.8.2 1.3.2.3 0 .7 0 1-.1.4-.1.7-.2 1-.4s.5-.4.7-.6c.2-.3.3-.6.3-1 0-.7-.5-1.2-1.4-1.5-.9-.3-2.2-.7-3.8-1-.7-.1-1.3-.3-1.9-.5-.6-.2-1.2-.5-1.7-.8-.5-.3-.9-.7-1.2-1.2-.3-.5-.4-1.1-.4-1.8 0-1.1.2-1.9.6-2.6.4-.7 1-1.2 1.6-1.6.7-.4 1.4-.7 2.3-.8.9-.2 1.7-.2 2.6-.2s1.8.1 2.6.3c.8.2 1.6.5 2.3.9.7.4 1.2.9 1.6 1.6.4.7.7 1.5.8 2.5h-4.3c-.1-.9-.4-1.5-1-1.8-.6-.3-1.3-.5-2.1-.5h-.8c-.3 0-.6.1-.8.2-.2.1-.5.3-.6.5-.2.2-.3.5-.3.8 0 .4.1.7.4 1s.7.5 1.2.6c.5.2 1 .3 1.6.4.6.1 1.2.3 1.9.4.7.1 1.3.3 1.9.5.6.2 1.2.5 1.7.8s.9.8 1.2 1.3c.3.5.4 1.2.4 1.9 0 1.1-.2 2-.7 2.7-.4.7-1 1.3-1.7 1.8-.7.4-1.5.8-2.4.9-.9.2-1.8.3-2.8.3-1 0-1.9-.1-2.8-.3-.9-.2-1.7-.5-2.4-1-.7-.4-1.3-1-1.8-1.8-.5-.7-.7-1.7-.8-2.8h4.3c.2.5.3.9.5 1.3zm13.4-7.8c.4-1.1 1-2 1.7-2.7.7-.8 1.6-1.3 2.7-1.8 1-.4 2.2-.6 3.5-.6 1.3 0 2.5.2 3.5.6 1.1.4 2 1 2.7 1.8.7.8 1.3 1.7 1.7 2.7.4 1.1.6 2.3.6 3.6 0 1.3-.2 2.5-.6 3.6-.4 1.1-1 2-1.7 2.7s-1.6 1.3-2.7 1.7c-1.1.4-2.2.6-3.5.6-1.3 0-2.5-.2-3.5-.6-1-.4-1.9-1-2.7-1.7-.7-.8-1.3-1.7-1.7-2.7-.4-1.1-.6-2.3-.6-3.6 0-1.3.2-2.5.6-3.6zm4.1 5.6c.1.6.3 1.2.7 1.7.3.5.7.9 1.2 1.2.5.3 1.1.4 1.9.4.8 0 1.4-.1 1.9-.4.5-.3.9-.7 1.2-1.2.3-.5.5-1.1.7-1.7.1-.6.2-1.3.2-1.9 0-.7-.1-1.3-.2-1.9-.1-.6-.3-1.2-.7-1.7-.3-.5-.7-.9-1.2-1.2-.5-.3-1.2-.5-1.9-.5-.8 0-1.4.2-1.9.5s-.9.7-1.2 1.2c-.3.5-.5 1.1-.7 1.7-.1.6-.2 1.3-.2 1.9 0 .6.1 1.2.2 1.9zm19.6-10.2v2.3h.1c.6-1 1.3-1.7 2.2-2.1.9-.4 1.9-.7 2.8-.7 1.2 0 2.2.2 3 .5.8.3 1.4.8 1.8 1.4.4.6.8 1.3.9 2.1.2.8.3 1.8.3 2.8v10.2h-4.5v-9.3c0-1.4-.2-2.4-.6-3.1s-1.2-1-2.3-1c-1.2 0-2.1.4-2.7 1.1-.6.7-.8 1.9-.8 3.6v8.7h-4.5V52.2h4.3zm14.5 5c.1-1.1.3-1.9.8-2.7.5-.7 1.1-1.3 1.8-1.7.7-.4 1.5-.7 2.4-.9.9-.2 1.8-.3 2.7-.3.8 0 1.7.1 2.5.2.9.1 1.6.3 2.3.7.7.3 1.3.8 1.7 1.4.4.6.7 1.4.7 2.4V65c0 .7 0 1.5.1 2.1.1.7.2 1.2.4 1.5h-4.6c-.1-.3-.2-.5-.2-.8-.1-.3-.1-.5-.1-.8-.7.7-1.6 1.3-2.6 1.6-1 .3-2 .4-3 .4-.8 0-1.5-.1-2.2-.3s-1.3-.5-1.8-.9-.9-.9-1.2-1.5-.4-1.4-.4-2.2c0-.9.2-1.7.5-2.3.3-.6.8-1.1 1.3-1.5.5-.4 1.1-.6 1.8-.8.7-.2 1.3-.3 2-.4s1.4-.2 2-.3c.7-.1 1.2-.2 1.8-.3.5-.1.9-.3 1.2-.6.3-.2.4-.6.4-1.1 0-.5-.1-.9-.2-1.2-.2-.3-.4-.5-.6-.7-.3-.2-.6-.3-.9-.3-.4-.1-.7-.1-1.1-.1-.9 0-1.6.2-2.1.6-.5.4-.8 1-.9 1.9h-4.5zm10.5 3.4c-.2.2-.4.3-.7.4-.3.1-.6.2-.9.2-.3.1-.7.1-1 .2-.4 0-.7.1-1.1.2-.3.1-.7.1-1 .3-.3.1-.6.2-.9.4-.2.2-.4.4-.6.7-.1.3-.2.6-.2 1.1 0 .4.1.7.2 1 .1.3.4.5.6.7.3.2.6.3.9.3.3.1.7.1 1.1.1.9 0 1.6-.1 2.1-.4.5-.3.9-.7 1.1-1.1.2-.4.4-.8.4-1.3.1-.4.1-.8.1-1v-1.8zm12.7-14.7v22.8H181V45.9h4.6zm3.7 3.7v-3.7h4.5v3.7h-4.5zm4.5 2.6v16.5h-4.5V52.2h4.5zm12.7 0v3h-3.3v8.2c0 .8.1 1.3.4 1.5.3.3.8.4 1.5.4h.7c.2 0 .5-.1.7-.1v3.5c-.4.1-.8.1-1.3.1h-1.4c-.7 0-1.4 0-2-.1s-1.2-.3-1.7-.6-.9-.7-1.1-1.2c-.3-.5-.4-1.2-.4-2v-9.7h-2.7v-3h2.7v-5h4.5v5h3.4zm8.2 21.4c-.9.6-2.1.9-3.6.9h-1.4c-.5 0-.9-.1-1.4-.1v-3.7c.4 0 .9.1 1.3.1s.9.1 1.3 0c.6-.1 1-.3 1.3-.7.3-.4.4-.9.4-1.3s-.1-.7-.2-1l-5.8-15.5h4.8l3.7 11.3h.1l3.6-11.3h4.7l-6.9 18.6c-.3 1.2-1 2.1-1.9 2.7z"/>
  </g>
  <g class="st1">
    <path class="st2" d="M93.4 84.2c1.4 0 2.6.2 3.6.6 1 .4 1.8 1 2.4 1.6.6.7 1.1 1.5 1.4 2.3.3.9.4 1.8.4 2.7 0 .9-.1 1.8-.4 2.7-.3.9-.7 1.7-1.4 2.3-.6.7-1.4 1.2-2.4 1.6-1 .4-2.2.6-3.6.6h-5.3v8.2h-5V84.2h10.3zm-1.3 10.7c.6 0 1.1 0 1.7-.1.5-.1 1-.3 1.4-.5.4-.2.7-.6 1-1 .2-.4.4-1 .4-1.8 0-.7-.1-1.3-.4-1.8-.2-.4-.6-.8-1-1-.4-.2-.9-.4-1.4-.5-.5-.1-1.1-.1-1.7-.1h-3.9v6.8h3.9zm12 .3c.4-1.1 1-2 1.7-2.7.7-.8 1.6-1.3 2.7-1.8 1-.4 2.2-.6 3.5-.6s2.5.2 3.5.6c1.1.4 2 1 2.7 1.8.7.8 1.3 1.7 1.7 2.7.4 1.1.6 2.3.6 3.6 0 1.3-.2 2.5-.6 3.6-.4 1.1-1 2-1.7 2.7s-1.6 1.3-2.7 1.7c-1.1.4-2.2.6-3.5.6s-2.5-.2-3.5-.6c-1-.4-1.9-1-2.7-1.7-.7-.8-1.3-1.7-1.7-2.7-.4-1.1-.6-2.3-.6-3.6 0-1.4.2-2.6.6-3.6zm4.1 5.5c.1.6.3 1.2.7 1.7.3.5.7.9 1.2 1.2.5.3 1.1.4 1.9.4.8 0 1.4-.1 1.9-.4.5-.3.9-.7 1.2-1.2.3-.5.5-1.1.7-1.7.1-.6.2-1.3.2-1.9 0-.7-.1-1.3-.2-1.9-.1-.6-.3-1.2-.7-1.7s-.7-.9-1.2-1.2c-.5-.3-1.2-.5-1.9-.5-.8 0-1.4.2-1.9.5s-.9.7-1.2 1.2c-.3.5-.5 1.1-.7 1.7-.1.6-.2 1.3-.2 1.9 0 .6.1 1.3.2 1.9zm19.6-10.2v3.1h.1c.2-.5.5-1 .9-1.4s.8-.8 1.2-1.1c.5-.3 1-.5 1.5-.7.5-.2 1.1-.3 1.7-.3.3 0 .6.1 1 .2v4.2c-.2 0-.5-.1-.8-.1h-.9c-.8 0-1.5.1-2.1.4-.6.3-1 .7-1.4 1.1-.4.5-.6 1-.8 1.7-.1.6-.2 1.3-.2 2.1v7.4h-4.5V90.5h4.3zm17.2 0v3h-3.3v8.2c0 .8.1 1.3.4 1.5.3.3.8.4 1.5.4h.7c.2 0 .5-.1.7-.1v3.5c-.4.1-.8.1-1.3.1h-1.4c-.7 0-1.4 0-2-.1-.6-.1-1.2-.3-1.7-.6s-.9-.7-1.1-1.2c-.3-.5-.4-1.2-.4-2v-9.7h-2.7v-3h2.7v-5h4.5v5h3.4zm6.5 0v3.1h.1c.2-.5.5-1 .9-1.4s.8-.8 1.2-1.1c.5-.3 1-.5 1.5-.7.5-.2 1.1-.3 1.7-.3.3 0 .6.1 1 .2v4.2c-.2 0-.5-.1-.8-.1h-.9c-.8 0-1.5.1-2.1.4-.6.3-1 .7-1.4 1.1-.4.5-.6 1-.8 1.7-.1.6-.2 1.3-.2 2.1v7.4h-4.5V90.5h4.3zm7.9 5.1c.1-1.1.3-1.9.8-2.7.5-.7 1.1-1.3 1.8-1.7.7-.4 1.5-.7 2.4-.9.9-.2 1.8-.3 2.7-.3.8 0 1.7.1 2.5.2.9.1 1.6.3 2.3.7.7.3 1.3.8 1.7 1.4.4.6.7 1.4.7 2.4v8.6c0 .7 0 1.5.1 2.1.1.7.2 1.2.4 1.5h-4.6c-.1-.3-.2-.5-.2-.8-.1-.3-.1-.5-.1-.8-.7.7-1.6 1.3-2.6 1.6-1 .3-2 .4-3 .4-.8 0-1.5-.1-2.2-.3s-1.3-.5-1.8-.9-.9-.9-1.2-1.5c-.3-.6-.4-1.4-.4-2.2 0-.9.2-1.7.5-2.3.3-.6.8-1.1 1.3-1.5.5-.4 1.1-.6 1.8-.8.7-.2 1.3-.3 2-.4.7-.1 1.4-.2 2-.3.7-.1 1.2-.2 1.8-.3.5-.1.9-.3 1.2-.6.3-.2.4-.6.4-1.1 0-.5-.1-.9-.2-1.2-.2-.3-.4-.5-.6-.7-.3-.2-.6-.3-.9-.3-.4-.1-.7-.1-1.1-.1-.9 0-1.6.2-2.1.6-.5.4-.8 1-.9 1.9h-4.5zm10.5 3.3c-.2.2-.4.3-.7.4-.3.1-.6.2-.9.2-.3.1-.7.1-1 .2-.4 0-.7.1-1.1.2-.3.1-.7.1-1 .3-.3.1-.6.2-.9.4-.2.2-.4.4-.6.7-.1.3-.2.6-.2 1.1 0 .4.1.7.2 1 .1.3.4.5.6.7.3.2.6.3.9.3.3.1.7.1 1.1.1.9 0 1.6-.1 2.1-.4s.9-.7 1.1-1.1c.2-.4.4-.8.4-1.3.1-.4.1-.8.1-1v-1.8zm8.2-11v-3.7h4.5v3.7h-4.5zm4.5 2.6V107h-4.5V90.5h4.5zm12.6 0v3h-3.3v8.2c0 .8.1 1.3.4 1.5.3.3.8.4 1.5.4h.7c.2 0 .5-.1.7-.1v3.5c-.4.1-.8.1-1.3.1h-1.4c-.7 0-1.4 0-2-.1-.6-.1-1.2-.3-1.7-.6s-.9-.7-1.1-1.2c-.3-.5-.4-1.2-.4-2v-9.7h-2.7v-3h2.7v-5h4.5v5h3.4z"/>
  </g>
  <path class="st2" d="M177.5 168.4c.1-3.1-1.5-6.1-4.2-7.7 2.7-1.6 4.3-4.5 4.2-7.7 0-2.4-.9-4.8-2.6-6.5 4-4.8 3.3-11.9-1.4-15.9-4.8-4-11.9-3.3-15.9 1.4-2.6-4.3-8.2-5.7-12.5-3-1.2.7-2.2 1.7-2.9 2.8-2.7-4.2-8.4-5.4-12.6-2.7-1.1.7-2 1.6-2.7 2.7-1.6-2.7-4.5-4.4-7.7-4.2-2.6-.1-5.1 1-6.8 2.9-4.9-3.9-12-3.1-15.8 1.8-3.9 4.9-3.1 12 1.8 15.8-2.5 1.6-4 4.5-3.9 7.5-.1 3.1 1.5 6.1 4.2 7.7-2.7 1.6-4.3 4.5-4.2 7.7-.1 3.3 1.7 6.3 4.6 7.8-4.3 2.6-5.7 8.2-3 12.5.8 1.2 1.8 2.3 3 3-2.9 1.5-4.6 4.5-4.4 7.8 0 2.4.9 4.8 2.6 6.5-4 4.8-3.3 11.9 1.5 15.9s11.9 3.3 15.9-1.5c2.7 4.2 8.4 5.4 12.6 2.7 1.1-.7 2-1.6 2.7-2.7 2.7 4.2 8.4 5.4 12.6 2.7 1.1-.7 2-1.6 2.7-2.7 1.6 2.7 4.5 4.3 7.7 4.2 2.3 0 4.6-.8 6.3-2.4 4.8 3.9 11.9 3.2 15.9-1.6 3.9-4.8 3.2-11.9-1.6-15.9 4.2-2.7 5.4-8.4 2.7-12.6-.7-1.1-1.7-2.1-2.9-2.8 4.3-2.6 5.7-8.2 3-12.5-.8-1.2-1.8-2.3-3-3 2.5-1.7 4.2-4.8 4.1-8zm-11.2 47.1h-60.9v-76.3h60.9v76.3z"/>
  <path class="st2" d="M157 200.5h-42.6c0-2.1.4-4.3 1.2-6.3l.3-.6c0-.2.2-.4.3-.6 2.6-5.3 7.4-9.3 13.2-10.8l.7-.2.7-.2c1.3-.3 2.7-.5 4-.5h1.9c11.3.4 20.3 8.8 20.3 19.2zm-10.2-33.3c0 5.9-4.5 10.7-10.3 11.2h-1.8c-6.2-.5-10.9-5.9-10.4-12.1.5-6.2 5.9-10.9 12.1-10.4 5.9.5 10.4 5.4 10.4 11.3z"/>
</svg>
