<?xml version="1.0" encoding="utf-8"?>
<!-- Generator: Adobe Illustrator 21.1.0, SVG Export Plug-In . SVG Version: 6.00 Build 0)  -->
<svg version="1.1" id="Layer_1" xmlns="http://www.w3.org/2000/svg" xmlns:xlink="http://www.w3.org/1999/xlink" x="0px" y="0px"
	 viewBox="0 0 277 246" style="enable-background:new 0 0 277 246;" xml:space="preserve">
<style type="text/css">
	.st0{fill:#39B39D;stroke:#37B39D;stroke-width:5;stroke-miterlimit:10;}
	.st1{fill:#FFFFFF;}
	.st2{fill:#3486B0;}
	.st3{fill:#F89823;}
	.st4{fill:#39B39D;}
	.st5{fill:#A5A4A4;}
	.st6{fill:#3486B0;stroke:#3586B0;stroke-width:5;stroke-miterlimit:10;}
	.st7{fill-rule:evenodd;clip-rule:evenodd;fill:#FFFFFF;}
	.st8{fill:#F89823;stroke:#F89824;stroke-width:5;stroke-miterlimit:10;}
	.st9{fill:#676868;}
	.st10{opacity:0.25;clip-path:url(#SVGID_2_);}
	.st11{clip-path:url(#SVGID_4_);}
	.st12{fill:#F8C990;}
	.st13{clip-path:url(#SVGID_6_);fill:#F8C990;}
	.st14{clip-path:url(#SVGID_6_);fill:#FFFFFF;}
	.st15{clip-path:url(#SVGID_6_);}
	.st16{clip-path:url(#SVGID_6_);fill:none;stroke:#FFFFFF;stroke-width:9;stroke-miterlimit:10;}
	.st17{fill:none;}
	.st18{clip-path:url(#SVGID_8_);}
	.st19{clip-path:url(#SVGID_10_);fill:#F8C990;}
	.st20{clip-path:url(#SVGID_10_);fill:#FFFFFF;}
	.st21{clip-path:url(#SVGID_10_);}
	.st22{clip-path:url(#SVGID_10_);fill:none;stroke:#FFFFFF;stroke-width:9;stroke-miterlimit:10;}
	.st23{opacity:0.25;clip-path:url(#SVGID_12_);}
	.st24{clip-path:url(#SVGID_14_);}
</style>
<g>
</g>
<polygon class="st6" points="271.7,123.1 213.3,243 60.6,243 2.2,123.1 60.6,3.3 213.3,3.3 "/>
<g>
	<g>
		<path class="st1" d="M100.2,48.7c1.4,0,2.6,0.2,3.6,0.6s1.8,1,2.4,1.6c0.6,0.7,1.1,1.5,1.4,2.3c0.3,0.9,0.4,1.8,0.4,2.7
			c0,0.9-0.1,1.8-0.4,2.7c-0.3,0.9-0.7,1.7-1.4,2.3c-0.6,0.7-1.4,1.2-2.4,1.6s-2.2,0.6-3.6,0.6h-5.2v8.1h-5V48.7H100.2z M98.8,59.3
			c0.6,0,1.1,0,1.7-0.1c0.5-0.1,1-0.2,1.4-0.5c0.4-0.2,0.7-0.6,1-1c0.2-0.4,0.4-1,0.4-1.7c0-0.7-0.1-1.3-0.4-1.7
			c-0.2-0.4-0.6-0.8-1-1c-0.4-0.2-0.9-0.4-1.4-0.5c-0.5-0.1-1.1-0.1-1.7-0.1h-3.9v6.8H98.8z"/>
		<path class="st1" d="M114.9,54.9v3h0.1c0.2-0.5,0.5-1,0.9-1.4c0.4-0.4,0.8-0.8,1.2-1.1c0.5-0.3,1-0.5,1.5-0.7
			c0.5-0.2,1.1-0.3,1.7-0.3c0.3,0,0.6,0.1,1,0.2v4.2c-0.2,0-0.5-0.1-0.8-0.1c-0.3,0-0.6,0-0.9,0c-0.8,0-1.5,0.1-2.1,0.4
			c-0.6,0.3-1,0.7-1.4,1.1c-0.3,0.5-0.6,1-0.7,1.7c-0.1,0.6-0.2,1.3-0.2,2.1v7.4h-4.5V54.9H114.9z"/>
		<path class="st1" d="M122.5,59.6c0.4-1.1,1-2,1.7-2.7c0.7-0.8,1.6-1.3,2.7-1.7c1-0.4,2.2-0.6,3.5-0.6c1.3,0,2.5,0.2,3.5,0.6
			c1,0.4,1.9,1,2.7,1.7c0.7,0.8,1.3,1.7,1.7,2.7s0.6,2.3,0.6,3.6c0,1.3-0.2,2.5-0.6,3.6c-0.4,1.1-1,2-1.7,2.7
			c-0.7,0.8-1.6,1.3-2.7,1.7c-1,0.4-2.2,0.6-3.5,0.6c-1.3,0-2.5-0.2-3.5-0.6c-1-0.4-1.9-1-2.7-1.7c-0.7-0.8-1.3-1.7-1.7-2.7
			c-0.4-1.1-0.6-2.2-0.6-3.6C121.9,61.8,122.1,60.6,122.5,59.6z M126.6,65.1c0.1,0.6,0.3,1.2,0.7,1.7c0.3,0.5,0.7,0.9,1.2,1.2
			c0.5,0.3,1.1,0.4,1.9,0.4s1.4-0.1,1.9-0.4c0.5-0.3,0.9-0.7,1.2-1.2c0.3-0.5,0.5-1.1,0.7-1.7s0.2-1.3,0.2-1.9s-0.1-1.3-0.2-1.9
			c-0.1-0.6-0.3-1.2-0.7-1.7s-0.7-0.9-1.2-1.2c-0.5-0.3-1.2-0.5-1.9-0.5s-1.4,0.2-1.9,0.5c-0.5,0.3-0.9,0.7-1.2,1.2
			c-0.3,0.5-0.5,1-0.7,1.7c-0.1,0.6-0.2,1.3-0.2,1.9S126.5,64.4,126.6,65.1z"/>
		<path class="st1" d="M140.1,57.9v-3h2.7v-1.3c0-1.5,0.5-2.7,1.4-3.6c0.9-0.9,2.3-1.4,4.1-1.4c0.4,0,0.8,0,1.2,0
			c0.4,0,0.8,0.1,1.2,0.1v3.4c-0.5-0.1-1.1-0.1-1.7-0.1c-0.6,0-1.1,0.1-1.3,0.4s-0.4,0.8-0.4,1.4v1h3.1v3h-3.1v13.4h-4.5V57.9H140.1
			z"/>
		<path class="st1" d="M152.5,52.4v-3.7h4.5v3.7H152.5z M157.1,54.9v16.4h-4.5V54.9H157.1z"/>
		<path class="st1" d="M165.2,48.7v22.7h-4.5V48.7H165.2z"/>
		<path class="st1" d="M173.6,67.4c0.7,0.7,1.7,1,2.9,1c0.9,0,1.7-0.2,2.4-0.7s1.1-0.9,1.2-1.4h4c-0.6,2-1.6,3.4-2.9,4.2
			c-1.3,0.8-2.9,1.3-4.8,1.3c-1.3,0-2.5-0.2-3.5-0.6c-1-0.4-1.9-1-2.6-1.8c-0.7-0.8-1.3-1.7-1.7-2.7c-0.4-1.1-0.6-2.2-0.6-3.5
			c0-1.2,0.2-2.4,0.6-3.4c0.4-1.1,1-2,1.7-2.7c0.7-0.8,1.6-1.4,2.7-1.8c1-0.4,2.2-0.7,3.4-0.7c1.4,0,2.6,0.3,3.7,0.8
			c1,0.5,1.9,1.3,2.6,2.2c0.7,0.9,1.1,1.9,1.4,3.1c0.3,1.2,0.4,2.4,0.3,3.7h-11.8C172.6,65.7,173,66.7,173.6,67.4z M178.7,58.8
			c-0.5-0.6-1.4-0.9-2.5-0.9c-0.7,0-1.3,0.1-1.8,0.4c-0.5,0.2-0.9,0.5-1.1,0.9c-0.3,0.4-0.5,0.7-0.6,1.1c-0.1,0.4-0.2,0.8-0.2,1.1
			h7.3C179.6,60.2,179.3,59.4,178.7,58.8z"/>
	</g>
	<g>
		<g>
			<defs>
				<polygon id="SVGID_13_" points="158.7,187.7 110.7,188.2 100.6,117.2 168.4,117.2 				"/>
			</defs>
			<clipPath id="SVGID_2_">
				<use xlink:href="#SVGID_13_"  style="overflow:visible;"/>
			</clipPath>
			<g style="clip-path:url(#SVGID_2_);">
				<path class="st12" d="M143.7,161.7c-0.3,0.6-0.6,1.1-0.6,1.7v0c0,0,0,0,0,0.1c-0.4,0.3-0.8,0.6-1.2,0.8
					c-1.2,0.8-2.5,1.3-3.8,1.7c-0.4,0.1-0.8,0.2-1.2,0.3c-0.2,0-0.4,0.1-0.6,0.1c-0.2,0-0.4,0-0.6,0.1c-0.4,0-0.9,0.1-1.3,0.1
					c-0.4,0-0.8,0-1.1,0c-0.5,0-1-0.1-1.4-0.2c-0.1,0-0.2,0-0.4-0.1c-0.1,0-0.2-0.1-0.3-0.1c-1.7-0.4-3.2-1.1-4.6-2.1
					c0-0.6-0.1-1-0.1-1S147,155,143.7,161.7z"/>
			</g>
			<g style="clip-path:url(#SVGID_2_);">
				<path class="st12" d="M142,164.3c0.4-0.2,0.8-0.5,1.2-0.8c0,0,0,0,0-0.1C142.8,163.7,142.4,164,142,164.3z"/>
			</g>
			<g style="clip-path:url(#SVGID_2_);">
				<path class="st1" d="M168.4,222.2c0-1.1-0.3-6.1-0.6-7.9c0.3-5.3,0.5-12.1,0.5-13c0-1.4-0.5-4.9-1-7.7c0.1-0.9,0.1-1.8,0.1-2.7
					c0-3.2-0.5-6.1-1.2-8.2c-1.3-6.5-8.8-11.4-17.9-11.4c-0.1,0-0.2,0-0.3,0c-0.4-0.1-0.8-0.1-1.3-0.2c-2-1.6-4.4-4.4-3.7-8
					c-0.4,0.3-0.8,0.6-1.2,0.8c-1.2,0.8-2.5,1.4-3.8,1.7c-0.4,0.1-0.8,0.2-1.2,0.3c-0.2,0-0.4,0.1-0.6,0.1c-0.2,0-0.4,0.1-0.6,0.1
					c-0.4,0-0.9,0.1-1.3,0.1c-0.4,0-0.8,0-1.1,0c-0.5,0-1-0.1-1.4-0.2c-0.1,0-0.2,0-0.4-0.1c-0.1,0-0.2-0.1-0.3-0.1
					c-1.7-0.4-3.2-1.1-4.6-2.1c0,1.7-0.7,5.2-5.5,7.4c-0.2,0.1-0.4,0.2-0.5,0.3c-7.8,0.1-14.4,4-16.7,9.2c-1.4,1.9-2.3,5.8-2.3,10.4
					c0,0.9,0,1.8,0.1,2.7c-0.4,2.7-1,6.3-1,7.7c0,0.9,0.2,10.9,0.5,16.3c-0.3,1.8-0.5,3.5-0.6,4.6c-0.1,2,1,12,1.7,18.1
					c0.1,1,0.1,1.9,0.2,2.7l-0.4,3.3v3.4l0.2,0.8l0.8,6.1c0,0,3,5.2,5.2,6.8c2.2,1.6,1.8-1.5,1.8-1.5l-3.2-4.3c0,0-1-6.2,0.6-6.5
					c1.6-0.3,0.4,3.1,0.4,3.1s-0.2,2.4,1,3.4c1.3,1,1.9-3,1.9-3s0.1-0.5,0.1-1.4c0-0.4,0-0.8,0-1.2c0-1.2-0.2-2.7-0.8-4.2
					c-0.5-1.3-0.9-2.5-1.2-3.5l0.1-0.8l3.5-39.7c0,0,0-0.5,0.1-0.9c0-0.1,0-0.1,0-0.1c0,0,0-0.1,0-0.1c0,0,0.1-0.1,0.1-0.1
					c0,0,0.2-0.1,0.2-0.1v0c0,0,0,0,0,0c0-0.1,0.4-3.3,0.5-4.2l0.2-2l0,0.1l0,0l0,0l2.1,9.6c0,0,0.1,0.9,0.1,1.8
					c0,4.6-0.3,11.2-1,20.6c-0.1,1.5-0.3,3.6-0.4,6.1c-0.7,11.4-1.2,31.8,2.2,49.7c0.2,4.8-0.8,9.8-1.3,14.3
					c-1.1,11.5,3.3,35.2,4.6,41.6l0.3-0.8l6-1.8l0,0l0,0l0.6,2.4l3.6-41.6l0.7-12.3h0.1l1.8-29.9c0.3,0,0.6,0.1,1,0.1
					c0.5,0,0.9,0,1.3-0.1l1.2,18.5l0.5,6.3l0.1,2.6l0.2,2.8l0.7,12.1l4.1,39.3l0.1-0.3l6,1.9l0.8,2.5h0.3c0,0,4.6-28,3.9-43.4
					c-0.2-4.8-1.5-10.4-1-15.4c0.4-5.1,1.7-11.1,1.7-11.2c1.2-9.6,0.9-22.4,0.4-37.3c-0.1-1.7-0.1-3.5-0.2-5.3
					c-1.3-11-0.7-16-0.7-21.2c0-0.9,0-1.7,0.1-2.5c0-0.5,0.4-1,0.4-1.4l2.1-6.3v0c0,0-0.3-0.1-0.3-0.1c0.3,3,0.7,9.6,1.9,13.8
					c0.1,1.5,1,16.5,2,18.8l1,8.5l0,3.3c0,0-0.7,2.8-1.8,5.9c-1.2,3.1-0.6,6.8-0.6,6.8s0.6,4,1.9,3c1.3-1,1-3.4,1-3.4
					s-1.1-3.4,0.4-3.1c1.6,0.3,0.6,6.5,0.6,6.5l-3.2,4.3c0,0-0.4,3.1,1.8,1.5c2.2-1.6,5.2-6.8,5.2-6.8l1-8.2v-0.1l0.2-10.8
					C167.8,231.6,168.5,223.9,168.4,222.2z"/>
			</g>
			<g style="clip-path:url(#SVGID_2_);">
				<g>
					<g>
						<path class="st1" d="M150.9,145.3c0,1.3-0.3,3.1-0.7,5.1c0,0.2-0.1,0.3-0.1,0.5c-0.7,3.3-1.2,4.4-2.1,4.3c0,0-0.1,0-0.1,0
							c0,0,0,0,0,0.1c-0.6,2.2-1.5,4.8-4.1,7.8c-0.4,0.5-4.1,4.8-6.6,4.8c-2.1,0-3.1,0.1-4.9,0c-2.3-0.1-5.6-4.1-5.9-4.5
							c-1.9-2.7-3.5-5-4.9-8.2c0,0,0,0,0,0c-0.2,0.1-0.3,0.1-0.5,0.1h0c-0.7-0.1-1.2-0.9-1.8-3.6c0,0,0-0.1-0.1-0.2
							c0-0.1,0-0.2-0.1-0.3c-0.2-0.6-0.4-1.5-0.4-1.5c-0.5-2.4-0.8-4-0.6-4.9v0c0.1-0.4,0.3-0.7,0.6-0.8c0.3-0.1,0.5,0,0.8,0.3
							c0.2-2,0.8-5.8,1.4-7.5c0-0.1,0.1-0.2,0.1-0.2c2.3-6.5,7.1-10.1,13.8-10.1c6.2,0,10.8,3.1,13.2,8.7c0.2,0.5,0.4,1,0.6,1.5
							c0.2,0.7,0.4,1.7,0.6,2.8c0.1,0.5,0.1,1,0.2,1.5c0.1,1.1,0.2,2.2,0.3,3.1c0.3-0.2,0.5-0.3,0.8-0.3c0.3,0.1,0.4,0.3,0.5,0.8
							c0,0,0,0,0,0C150.9,144.7,150.9,145,150.9,145.3z"/>
					</g>
				</g>
				<g>
					<g>
						<path class="st1" d="M148.7,130.5c0.3,0,0.9,0.2,0.9,0.2c-2.3-3.9-4.5-4.5-4.5-4.5c0.2-0.3,1-0.2,1-0.2
							c-1.5-1.2-6.8-2.3-6.8-2.3c-6.6-2.7-12.8,0.3-12.8,0.3c0.7-0.2,1.5,0.1,1.5,0.1c-6.3,2.3-7.2,6.9-7.2,6.9
							c0.3-0.7,1.3-1.4,1.3-1.4c-4.1,4.8-3.4,13.9-3.4,13.9s1.1,0.9,1.4,5.9l0.6-0.1l-0.1-5.7c3-0.3,8.4-1.7,8.4-1.7
							c-0.2,0.4-1,1.6-1,1.6c2.9-0.9,7.6-3.9,7.6-3.9c-0.3,0.4-1.1,1.5-1.1,1.5c2.6-1.2,6.7-5.4,8.1-6.8c1.9,5.8,4.2,8.2,5.7,9.2
							l-0.1,5.8l0.6,0.1c0.3-5,1.4-5.9,1.4-5.9l-0.1,0C151.7,137.2,148.7,130.5,148.7,130.5z"/>
					</g>
				</g>
			</g>
			<g style="clip-path:url(#SVGID_2_);">
				<path class="st1" d="M183.4,318.5c-26,0-47.2-21.2-47.2-47.2c0-26,21.2-47.2,47.2-47.2s47.2,21.2,47.2,47.2
					C230.6,297.3,209.4,318.5,183.4,318.5z M183.4,228.1c-23.8,0-43.2,19.4-43.2,43.2c0,23.8,19.4,43.2,43.2,43.2
					s43.2-19.4,43.2-43.2C226.6,247.5,207.2,228.1,183.4,228.1z"/>
			</g>
		</g>
		<g>
			<path class="st1" d="M134.5,197.6c-25.2,0-45.8-20.5-45.8-45.8s20.5-45.8,45.8-45.8s45.8,20.5,45.8,45.8S159.8,197.6,134.5,197.6
				z M134.5,117.1c-19.2,0-34.8,15.6-34.8,34.8s15.6,34.8,34.8,34.8s34.8-15.6,34.8-34.8S153.7,117.1,134.5,117.1z"/>
		</g>
	</g>
</g>
</svg>
