<svg xmlns="http://www.w3.org/2000/svg" width="276.7" height="246.1">
  <style>
    .st1{enable-background:new}.st2{fill:#fff}
  </style>
  <path fill="#3486b0" stroke="#3586b0" stroke-width="5" stroke-miterlimit="10" d="M273.9 123l-58.8 120.6H61.5L2.8 123 61.5 2.5h153.6z"/>
  <g class="st1">
    <path class="st2" d="M70.1 76.5L66.2 61h-.1l-3.8 15.5h-5.1l-6-22.8h5l3.6 15.5h.1l4-15.5h4.7l3.9 15.7h.1l3.7-15.7h4.9l-6.1 22.8h-5z"/>
  </g>
  <g class="st1">
    <path class="st2" d="M81.3 64.6c.4-1.1 1-2 1.7-2.7.7-.8 1.6-1.3 2.7-1.8 1-.4 2.2-.6 3.5-.6 1.3 0 2.5.2 3.5.6 1.1.4 2 1 2.7 1.8.7.8 1.3 1.7 1.7 2.7.4 1.1.6 2.3.6 3.6 0 1.3-.2 2.5-.6 3.6-.4 1.1-1 2-1.7 2.7-.7.8-1.6 1.3-2.7 1.7s-2.2.6-3.5.6c-1.3 0-2.5-.2-3.5-.6-1-.4-1.9-1-2.7-1.7-.7-.8-1.3-1.7-1.7-2.7-.4-1.1-.6-2.3-.6-3.6 0-1.3.2-2.5.6-3.6zm4.1 5.6c.1.6.3 1.2.7 1.7.3.5.7.9 1.2 1.2.5.3 1.1.4 1.9.4.8 0 1.4-.1 1.9-.4.5-.3.9-.7 1.2-1.2.3-.5.5-1.1.7-1.7.1-.6.2-1.3.2-1.9 0-.7-.1-1.3-.2-1.9-.1-.6-.3-1.2-.7-1.7-.3-.5-.7-.9-1.2-1.2-.5-.3-1.2-.5-1.9-.5-.8 0-1.4.2-1.9.5s-.9.7-1.2 1.2c-.3.5-.5 1.1-.7 1.7-.1.6-.2 1.3-.2 1.9 0 .6.1 1.2.2 1.9zM105 60v3h.1c.2-.5.5-1 .9-1.4.4-.4.8-.8 1.2-1.1.5-.3 1-.5 1.5-.7.5-.2 1.1-.3 1.7-.3.3 0 .6.1 1 .2v4.2c-.2 0-.5-.1-.8-.1h-.9c-.8 0-1.5.1-2.1.4-.6.3-1 .7-1.4 1.1-.4.5-.6 1-.8 1.7s-.2 1.3-.2 2.1v7.4h-4.5V60h4.3zm13.1-6.3v12.2l5.7-5.9h5.4l-6.2 6 6.9 10.4h-5.5l-4.5-7.4-1.8 1.7v5.7h-4.5V53.7h4.5zm17.9 0V62h.1c.6-.9 1.3-1.5 2.3-1.9.9-.4 1.9-.6 3-.6.8 0 1.7.2 2.5.5s1.5.9 2.2 1.6c.6.7 1.2 1.6 1.6 2.7.4 1.1.6 2.4.6 3.9s-.2 2.8-.6 3.9c-.4 1.1-.9 2-1.6 2.7-.6.7-1.4 1.2-2.2 1.6-.8.3-1.6.5-2.5.5-1.2 0-2.3-.2-3.3-.6s-1.7-1-2.2-1.9h-.1v2.1h-4.3V53.7h4.5zm7.4 12.5c-.1-.6-.4-1.2-.7-1.7-.3-.5-.7-.9-1.2-1.2-.5-.3-1.1-.4-1.7-.4-.7 0-1.2.1-1.7.4-.5.3-.9.7-1.2 1.2-.3.5-.6 1.1-.7 1.7-.1.6-.2 1.3-.2 2s.1 1.3.2 2c.1.6.4 1.2.7 1.7.3.5.7.9 1.2 1.2.5.3 1.1.4 1.7.4.7 0 1.3-.1 1.7-.4s.9-.7 1.2-1.2c.3-.5.6-1.1.7-1.7.1-.6.2-1.3.2-2s-.1-1.3-.2-2zm7.7-1.6c.4-1.1 1-2 1.7-2.7.7-.8 1.6-1.3 2.7-1.8 1-.4 2.2-.6 3.5-.6 1.3 0 2.5.2 3.5.6 1.1.4 2 1 2.7 1.8.7.8 1.3 1.7 1.7 2.7.4 1.1.6 2.3.6 3.6 0 1.3-.2 2.5-.6 3.6-.4 1.1-1 2-1.7 2.7-.7.8-1.6 1.3-2.7 1.7-1.1.4-2.2.6-3.5.6-1.3 0-2.5-.2-3.5-.6-1-.4-1.9-1-2.7-1.7-.7-.8-1.3-1.7-1.7-2.7-.4-1.1-.6-2.3-.6-3.6 0-1.3.2-2.5.6-3.6zm4.1 5.6c.1.6.3 1.2.7 1.7.3.5.7.9 1.2 1.2.5.3 1.1.4 1.9.4s1.4-.1 1.9-.4c.5-.3.9-.7 1.2-1.2.3-.5.5-1.1.7-1.7.1-.6.2-1.3.2-1.9 0-.7-.1-1.3-.2-1.9-.1-.6-.3-1.2-.7-1.7s-.7-.9-1.2-1.2c-.5-.3-1.2-.5-1.9-.5s-1.4.2-1.9.5-.9.7-1.2 1.2c-.3.5-.5 1.1-.7 1.7-.1.6-.2 1.3-.2 1.9 0 .6.1 1.2.2 1.9zm15.4-5.6c.4-1.1 1-2 1.7-2.7.7-.8 1.6-1.3 2.7-1.8 1-.4 2.2-.6 3.5-.6 1.3 0 2.5.2 3.5.6 1.1.4 2 1 2.7 1.8.7.8 1.3 1.7 1.7 2.7.4 1.1.6 2.3.6 3.6 0 1.3-.2 2.5-.6 3.6-.4 1.1-1 2-1.7 2.7-.7.8-1.6 1.3-2.7 1.7s-2.2.6-3.5.6c-1.3 0-2.5-.2-3.5-.6-1-.4-1.9-1-2.7-1.7-.7-.8-1.3-1.7-1.7-2.7-.4-1.1-.6-2.3-.6-3.6 0-1.3.2-2.5.6-3.6zm4.1 5.6c.1.6.3 1.2.7 1.7.3.5.7.9 1.2 1.2.5.3 1.1.4 1.9.4.8 0 1.4-.1 1.9-.4.5-.3.9-.7 1.2-1.2.3-.5.5-1.1.7-1.7.1-.6.2-1.3.2-1.9 0-.7-.1-1.3-.2-1.9-.1-.6-.3-1.2-.7-1.7s-.7-.9-1.2-1.2c-.5-.3-1.2-.5-1.9-.5-.8 0-1.4.2-1.9.5s-.9.7-1.2 1.2c-.3.5-.5 1.1-.7 1.7-.1.6-.2 1.3-.2 1.9.1.6.1 1.2.2 1.9zM195 53.7v12.2l5.7-5.9h5.4l-6.2 6.1 6.9 10.4h-5.5l-4.5-7.4-1.8 1.7v5.7h-4.5V53.7h4.5zm17.2 18.7c.2.4.5.6.8.9s.7.4 1.1.5c.4.1.8.2 1.3.2.3 0 .7 0 1-.1.4-.1.7-.2 1-.4.3-.2.5-.4.7-.6.2-.3.3-.6.3-1 0-.7-.5-1.2-1.4-1.5-.9-.3-2.2-.7-3.8-1-.7-.1-1.3-.3-1.9-.5-.6-.2-1.2-.5-1.7-.8-.5-.3-.9-.7-1.2-1.2-.3-.5-.4-1.1-.4-1.8 0-1.1.2-1.9.6-2.6.4-.7 1-1.2 1.6-1.6s1.4-.7 2.3-.8c.9-.2 1.7-.2 2.6-.2s1.8.1 2.6.3c.8.2 1.6.5 2.3.9.7.4 1.2.9 1.6 1.6.4.7.7 1.5.8 2.5h-4.3c-.1-.9-.4-1.5-1-1.8-.6-.3-1.3-.5-2.1-.5h-.8c-.3 0-.6.1-.8.2-.2.1-.5.3-.6.5-.2.2-.3.5-.3.8 0 .4.1.7.4 1 .3.3.7.5 1.2.6.5.2 1 .3 1.6.4.6.1 1.2.3 1.9.4.7.1 1.3.3 1.9.5.6.2 1.2.5 1.7.8.5.4.9.8 1.2 1.3.3.5.4 1.2.4 1.9 0 1.1-.2 2-.7 2.7-.4.7-1 1.3-1.7 1.8-.7.4-1.5.8-2.4.9-.9.2-1.8.3-2.8.3-1 0-1.9-.1-2.8-.3-.9-.2-1.7-.5-2.4-1-.7-.4-1.3-1-1.8-1.8-.5-.7-.7-1.7-.8-2.8h4.3c.2.5.3.9.5 1.3z"/>
  </g>
  <path class="st2" d="M172.6 108.7h-73c-2 0-3.6 1.6-3.6 3.6v1.2h-4.8c-1.2 0-2.2.9-2.3 2.1v1.5c.1 1.2 1.1 2.1 2.3 2.1H96v5.4h-4.9c-1.2 0-2.2.9-2.3 2.1v1.5c.1 1.2 1.1 2.1 2.3 2.1H96v5.2h-4.9c-1.2 0-2.2.9-2.3 2.1v1.5c.1 1.2 1.1 2.1 2.3 2.1H96v5.5h-4.9c-1.2 0-2.2.9-2.3 2.1v1.5c.1 1.2 1.1 2.1 2.3 2.1H96v5.4h-4.9c-1.2 0-2.2.9-2.3 2.1v1.5c.1 1.2 1.1 2.1 2.3 2.1H96v5.2h-4.9c-1.2 0-2.2.9-2.3 2.1v1.5c.1 1.2 1.1 2.1 2.3 2.1H96v5.9h-4.9c-1.2 0-2.2.9-2.3 2.1v1.5c.1 1.2 1.1 2.1 2.3 2.1H96v5.4h-4.9c-1.2 0-2.2.9-2.3 2.1v1.5c.1 1.2 1.1 2.1 2.3 2.1H96v5.2h-4.9c-1.2 0-2.2.9-2.3 2.1v1.5c.1 1.2 1.1 2.1 2.3 2.1h5.1c.6 1.4 1.9 2.3 3.4 2.3h73c2 0 3.6-1.6 3.6-3.6v-94.4c0-2-1.6-3.6-3.6-3.6zm-3 94.9h-66.9v-88.3h66.9v88.3z"/>
  <path class="st2" d="M114.8 140.9h42.7v6.6h-42.7zm0 14.2h42.7v6.6h-42.7z"/>
</svg>
