<svg xmlns="http://www.w3.org/2000/svg" xmlns:xlink="http://www.w3.org/1999/xlink" width="276.7" height="246.1">
  <style>
    .st1{enable-background:new}.st2{fill:#fff}
  </style>
  <path fill="#f89823" stroke="#f89824" stroke-width="5" stroke-miterlimit="10" d="M273.9 123l-58.8 120.6H61.5L2.8 123 61.5 2.5h153.6z"/>
  <g class="st1">
    <path class="st2" d="M50.6 64.9c-.3-.4-.6-.8-1-1.1-.4-.3-.8-.6-1.3-.7-.5-.2-1-.3-1.5-.3-1 0-1.8.2-2.5.6-.7.4-1.2.9-1.6 1.5-.4.6-.7 1.3-.9 2.2-.2.8-.3 1.6-.3 2.5 0 .8.1 1.6.3 2.4.2.8.5 1.5.9 2.1.4.6 1 1.1 1.6 1.5s1.5.6 2.5.6c1.3 0 2.3-.4 3.1-1.2.7-.8 1.2-1.9 1.4-3.2h4.2c-.2 1.1-.5 2.2-.9 3.2-.5 1-1.1 1.8-1.8 2.5s-1.6 1.2-2.6 1.6c-1 .4-2.1.5-3.3.5-1.5 0-2.8-.3-4-.8-1.2-.5-2.2-1.2-3-2.1-.8-.9-1.5-2-1.9-3.2-.4-1.2-.7-2.6-.7-4 0-1.5.2-2.8.7-4.1.4-1.3 1.1-2.3 1.9-3.3.8-.9 1.8-1.7 3-2.2 1.2-.5 2.5-.8 4-.8 1.1 0 2.1.2 3.1.5s1.8.8 2.6 1.4c.8.6 1.4 1.3 1.9 2.2.5.9.8 1.9.9 3h-4.2c-.2-.5-.3-.9-.6-1.3zm7.4 4.2c.3-.9.8-1.7 1.5-2.4.6-.6 1.4-1.2 2.3-1.5.9-.4 1.9-.5 3-.5s2.1.2 3 .5c.9.4 1.7.9 2.3 1.5.6.6 1.1 1.4 1.5 2.4.3.9.5 1.9.5 3.1 0 1.1-.2 2.2-.5 3.1-.3.9-.8 1.7-1.5 2.3-.6.6-1.4 1.1-2.3 1.5-.9.3-1.9.5-3 .5s-2.1-.2-3-.5c-.9-.3-1.7-.8-2.3-1.5-.6-.6-1.1-1.4-1.5-2.3-.3-.9-.5-1.9-.5-3.1 0-1.2.2-2.2.5-3.1zm3.6 4.7c.1.5.3 1 .6 1.5.3.4.6.8 1.1 1 .4.3 1 .4 1.6.4.7 0 1.2-.1 1.7-.4.4-.3.8-.6 1.1-1 .3-.4.5-.9.6-1.5.1-.5.2-1.1.2-1.7 0-.6-.1-1.1-.2-1.7-.1-.5-.3-1-.6-1.5-.3-.4-.6-.8-1.1-1-.4-.3-1-.4-1.7-.4s-1.2.1-1.6.4c-.4.3-.8.6-1.1 1-.3.4-.5.9-.6 1.5-.1.5-.2 1.1-.2 1.7 0 .6.1 1.2.2 1.7zm16.9-8.7V67h.1c.5-.7 1.1-1.3 1.8-1.7.7-.4 1.5-.6 2.5-.6.9 0 1.7.2 2.4.5s1.3 1 1.7 1.8c.4-.6 1-1.2 1.7-1.6.7-.5 1.6-.7 2.6-.7.7 0 1.4.1 2.1.3.6.2 1.2.5 1.6.9.5.4.8.9 1.1 1.6.3.6.4 1.4.4 2.3v9.5h-3.9v-8c0-.5 0-.9-.1-1.3 0-.4-.1-.8-.3-1.1-.2-.3-.4-.6-.7-.7-.3-.2-.8-.3-1.3-.3s-1 .1-1.3.3c-.3.2-.6.5-.8.8-.2.3-.3.7-.4 1.1-.1.4-.1.9-.1 1.3v7.9h-3.9v-9.1c0-.4-.1-.8-.2-1.1-.1-.3-.4-.6-.7-.8-.3-.2-.8-.3-1.4-.3-.2 0-.4 0-.7.1-.3.1-.6.2-.9.5-.3.2-.5.6-.7 1-.2.4-.3 1-.3 1.7v8.2h-3.9V65.1h3.6zm24.8 0V67h.1c.5-.7 1.1-1.3 1.8-1.7.7-.4 1.5-.6 2.5-.6.9 0 1.7.2 2.4.5s1.3 1 1.7 1.8c.4-.6 1-1.2 1.7-1.6.7-.5 1.6-.7 2.6-.7.7 0 1.4.1 2.1.3.6.2 1.2.5 1.6.9.5.4.8.9 1.1 1.6.3.6.4 1.4.4 2.3v9.5h-3.9v-8c0-.5 0-.9-.1-1.3 0-.4-.1-.8-.3-1.1-.2-.3-.4-.6-.7-.7-.3-.2-.8-.3-1.3-.3s-1 .1-1.3.3c-.3.2-.6.5-.8.8-.2.3-.3.7-.4 1.1-.1.4-.1.9-.1 1.3v7.9h-3.9v-9.1c0-.4-.1-.8-.2-1.1-.1-.3-.4-.6-.7-.8-.3-.2-.8-.3-1.4-.3-.2 0-.4 0-.7.1-.3.1-.6.2-.9.5-.3.2-.5.6-.7 1-.2.4-.3 1-.3 1.7v8.2h-3.9V65.1h3.6zm30.6 14.1v-2h-.1c-.5.8-1.1 1.4-1.9 1.8-.8.4-1.6.5-2.4.5-1 0-1.9-.1-2.6-.4-.7-.3-1.2-.7-1.6-1.2-.4-.5-.7-1.1-.8-1.8s-.2-1.5-.2-2.4V65h3.9v8c0 1.2.2 2 .5 2.6.4.6 1 .9 1.9.9 1.1 0 1.8-.3 2.3-.9.5-.6.7-1.7.7-3.1v-7.4h3.9v14.2h-3.6zm10.3-14.1v2h.1c.5-.8 1.1-1.4 1.9-1.8.8-.4 1.6-.6 2.4-.6 1 0 1.9.1 2.6.4.7.3 1.2.7 1.6 1.2s.7 1.1.8 1.8c.2.7.2 1.5.2 2.4v8.7h-3.9v-8c0-1.2-.2-2-.5-2.6-.4-.6-1-.9-1.9-.9-1.1 0-1.8.3-2.3.9-.5.6-.7 1.7-.7 3.1v7.4h-3.9v-14h3.6zm12.7-2.2v-3.2h3.9v3.2h-3.9zm3.9 2.2v14.2h-3.9V65.1h3.9zm9.8 2.5c-.6 0-1.1.1-1.6.4-.4.3-.8.6-1 1.1-.3.4-.5.9-.6 1.5-.1.5-.2 1.1-.2 1.6s.1 1 .2 1.6c.1.5.3 1 .5 1.4.2.4.6.8 1 1.1.4.3.9.4 1.5.4.9 0 1.6-.3 2.1-.8s.8-1.2.9-2.1h3.8c-.3 1.9-1 3.3-2.2 4.3-1.2 1-2.7 1.5-4.6 1.5-1.1 0-2-.2-2.9-.5-.9-.4-1.6-.9-2.3-1.5-.6-.6-1.1-1.4-1.5-2.3-.3-.9-.5-1.9-.5-2.9 0-1.1.2-2.1.5-3.1.3-.9.8-1.8 1.4-2.4.6-.7 1.4-1.2 2.3-1.6.9-.4 1.9-.6 3.1-.6.8 0 1.6.1 2.4.3.8.2 1.5.6 2.1 1 .6.4 1.1 1 1.5 1.7.4.7.6 1.5.7 2.4h-3.8c-.2-1.7-1.1-2.5-2.8-2.5zm8.8 1.8c.1-.9.3-1.7.7-2.3.4-.6.9-1.1 1.5-1.5s1.3-.6 2.1-.8c.8-.2 1.6-.2 2.3-.2.7 0 1.4.1 2.2.2.7.1 1.4.3 2 .6s1.1.7 1.5 1.2c.4.5.6 1.2.6 2.1v7.4c0 .6 0 1.3.1 1.8.1.6.2 1 .4 1.3h-3.9c-.1-.2-.1-.4-.2-.7s-.1-.5-.1-.7c-.6.6-1.4 1.1-2.2 1.3-.8.3-1.7.4-2.6.4-.7 0-1.3-.1-1.9-.2-.6-.2-1.1-.4-1.5-.8-.4-.3-.8-.8-1-1.3-.2-.5-.4-1.2-.4-1.9 0-.8.1-1.5.4-2 .3-.5.6-.9 1.1-1.2.4-.3 1-.5 1.5-.7.6-.2 1.2-.3 1.7-.4.6-.1 1.2-.2 1.7-.2.6-.1 1.1-.1 1.5-.2.4-.1.8-.3 1-.5.3-.2.4-.5.4-.9s-.1-.8-.2-1c-.1-.2-.3-.4-.5-.6-.2-.1-.5-.2-.8-.3-.3 0-.6-.1-1-.1-.8 0-1.4.2-1.8.5-.4.3-.7.9-.8 1.6h-3.8zm9 2.9c-.2.1-.4.3-.6.3-.2.1-.5.1-.8.2-.3.1-.6.1-.9.1-.3 0-.6.1-.9.1-.3.1-.6.1-.9.2-.3.1-.5.2-.7.4-.2.2-.4.4-.5.6-.1.2-.2.5-.2.9 0 .3.1.6.2.9.1.2.3.4.5.6.2.1.5.2.8.3.3.1.6.1.9.1.8 0 1.4-.1 1.8-.4.4-.3.7-.6.9-.9.2-.4.3-.7.4-1.1 0-.4.1-.7.1-.9v-1.4zm14.6-7.2v2.6h-2.8v7c0 .7.1 1.1.3 1.3.2.2.7.3 1.3.3h.6c.2 0 .4 0 .6-.1v3c-.3.1-.7.1-1.1.1h-1.2c-.6 0-1.2 0-1.7-.1s-1-.2-1.4-.5c-.4-.2-.7-.6-1-1-.2-.4-.4-1-.4-1.7v-8.4H194V65h2.4v-4.2h3.9V65h2.7zm2-2.2v-3.2h3.9v3.2H205zm3.9 2.2v14.2H205V65.1h3.9zm3.1 4c.3-.9.8-1.7 1.5-2.4.6-.6 1.4-1.2 2.3-1.5.9-.4 1.9-.5 3-.5s2.1.2 3 .5c.9.4 1.7.9 2.3 1.5.6.6 1.1 1.4 1.5 2.4.3.9.5 1.9.5 3.1 0 1.1-.2 2.2-.5 3.1-.3.9-.8 1.7-1.5 2.3-.6.6-1.4 1.1-2.3 1.5-.9.3-1.9.5-3 .5s-2.1-.2-3-.5c-.9-.3-1.7-.8-2.3-1.5-.6-.6-1.1-1.4-1.5-2.3-.3-.9-.5-1.9-.5-3.1 0-1.2.2-2.2.5-3.1zm3.6 4.7c.1.5.3 1 .6 1.5.3.4.6.8 1.1 1 .4.3 1 .4 1.6.4s1.2-.1 1.7-.4c.4-.3.8-.6 1.1-1 .3-.4.5-.9.6-1.5.1-.5.2-1.1.2-1.7 0-.6-.1-1.1-.2-1.7-.1-.5-.3-1-.6-1.5-.3-.4-.6-.8-1.1-1-.4-.3-1-.4-1.7-.4s-1.2.1-1.6.4-.8.6-1.1 1c-.3.4-.5.9-.6 1.5-.1.5-.2 1.1-.2 1.7 0 .6.1 1.2.2 1.7zm16.8-8.7v2h.1c.5-.8 1.1-1.4 1.9-1.8.8-.4 1.6-.6 2.4-.6 1 0 1.9.1 2.6.4.7.3 1.2.7 1.6 1.2s.7 1.1.8 1.8c.2.7.2 1.5.2 2.4v8.7h-3.9v-8c0-1.2-.2-2-.5-2.6-.4-.6-1-.9-1.9-.9-1.1 0-1.8.3-2.3.9-.5.6-.7 1.7-.7 3.1v7.4h-3.9v-14h3.6z"/>
  </g>
  <g class="st1">
    <path class="st2" d="M90.1 94.7l8.5 22.8h-5.2l-1.7-5.1h-8.5l-1.8 5.1h-5L85 94.7h5.1zm.3 14l-2.9-8.4h-.1l-3 8.4h6zm14.1-7.7v2.3h.1c.6-1 1.3-1.7 2.2-2.1.9-.4 1.9-.7 2.8-.7 1.2 0 2.2.2 3 .5.8.3 1.4.8 1.8 1.4.4.6.8 1.3.9 2.1.2.8.3 1.8.3 2.8v10.2h-4.5v-9.3c0-1.4-.2-2.4-.6-3.1-.4-.7-1.2-1-2.3-1-1.2 0-2.1.4-2.7 1.1-.6.7-.8 1.9-.8 3.6v8.7h-4.5V101h4.3zm14.4 5.1c.1-1.1.3-1.9.8-2.7.5-.7 1.1-1.3 1.8-1.7.7-.4 1.5-.7 2.4-.9.9-.2 1.8-.3 2.7-.3.8 0 1.7.1 2.5.2.9.1 1.6.3 2.3.7.7.3 1.3.8 1.7 1.4.4.6.7 1.4.7 2.4v8.6c0 .7 0 1.5.1 2.1.1.7.2 1.2.4 1.5h-4.6c-.1-.3-.2-.5-.2-.8-.1-.3-.1-.5-.1-.8-.7.7-1.6 1.3-2.6 1.6-1 .3-2 .4-3 .4-.8 0-1.5-.1-2.2-.3s-1.3-.5-1.8-.9-.9-.9-1.2-1.5c-.3-.6-.4-1.4-.4-2.2 0-.9.2-1.7.5-2.3.3-.6.8-1.1 1.3-1.5.5-.4 1.1-.6 1.8-.8.7-.2 1.3-.3 2-.4.7-.1 1.4-.2 2-.3.7-.1 1.2-.2 1.8-.3.5-.1.9-.3 1.2-.6.3-.2.4-.6.4-1.1 0-.5-.1-.9-.2-1.2-.2-.3-.4-.5-.6-.7-.3-.2-.6-.3-.9-.3-.4-.1-.7-.1-1.1-.1-.9 0-1.6.2-2.1.6-.5.4-.8 1-.9 1.9h-4.5zm10.5 3.4c-.2.2-.4.3-.7.4-.3.1-.6.2-.9.2-.3.1-.7.1-1 .2-.4 0-.7.1-1.1.2-.3.1-.7.1-1 .3-.3.1-.6.2-.9.4-.2.2-.4.4-.6.7-.1.3-.2.6-.2 1.1 0 .4.1.7.2 1 .1.3.4.5.6.7.3.2.6.3.9.3.3.1.7.1 1.1.1.9 0 1.6-.1 2.1-.4.5-.3.9-.7 1.1-1.1.2-.4.4-.8.4-1.3.1-.4.1-.8.1-1v-1.8zm12.7-14.8v22.8h-4.5V94.7h4.5zm9.7 27.8c-.9.6-2.1.9-3.6.9h-1.4c-.5 0-.9-.1-1.4-.1v-3.7c.4 0 .9.1 1.3.1s.9.1 1.3 0c.6-.1 1-.3 1.3-.7.3-.4.4-.9.4-1.3s-.1-.7-.2-1l-5.8-15.5h4.8l3.7 11.3h.1L156 101h4.7l-6.9 18.6c-.5 1.3-1.2 2.3-2 2.9zm14.3-9.1c.2.4.5.6.8.9.3.2.7.4 1.1.5.4.1.8.2 1.3.2.3 0 .7 0 1-.1.4-.1.7-.2 1-.4s.5-.4.7-.6c.2-.3.3-.6.3-1 0-.7-.5-1.2-1.4-1.5-.9-.3-2.2-.7-3.8-1-.7-.1-1.3-.3-1.9-.5-.6-.2-1.2-.5-1.7-.8-.5-.3-.9-.7-1.2-1.2-.3-.5-.4-1.1-.4-1.8 0-1.1.2-1.9.6-2.6.4-.7 1-1.2 1.6-1.6.7-.4 1.4-.7 2.3-.8.9-.2 1.7-.2 2.6-.2s1.8.1 2.6.3c.8.2 1.6.5 2.3.9.7.4 1.2.9 1.6 1.6.4.7.7 1.5.8 2.5H172c-.1-.9-.4-1.5-1-1.8-.6-.3-1.3-.5-2.1-.5h-.8c-.3 0-.6.1-.8.2s-.5.3-.6.5c-.2.2-.3.5-.3.8 0 .4.1.7.4 1s.7.5 1.2.6c.5.2 1 .3 1.6.4.6.1 1.2.3 1.9.4.7.1 1.3.3 1.9.5.6.2 1.2.5 1.7.8.5.4.9.8 1.2 1.3.3.5.4 1.2.4 1.9 0 1.1-.2 2-.7 2.7-.4.7-1 1.3-1.7 1.8-.7.4-1.5.8-2.4.9-.9.2-1.8.3-2.8.3-1 0-1.9-.1-2.8-.3-.9-.2-1.7-.5-2.4-1-.7-.4-1.3-1-1.8-1.8-.5-.7-.7-1.7-.8-2.8h4.3c.2.6.3 1 .5 1.3zm13.4-14.9v-3.7h4.5v3.7h-4.5zm4.6 2.5v16.5h-4.5V101h4.5zm7.4 12.4c.2.4.5.6.8.9.3.2.7.4 1.1.5.4.1.8.2 1.3.2.3 0 .7 0 1-.1.4-.1.7-.2 1-.4s.5-.4.7-.6c.2-.3.3-.6.3-1 0-.7-.5-1.2-1.4-1.5-.9-.3-2.2-.7-3.8-1-.7-.1-1.3-.3-1.9-.5-.6-.2-1.2-.5-1.7-.8-.5-.3-.9-.7-1.2-1.2-.3-.5-.4-1.1-.4-1.8 0-1.1.2-1.9.6-2.6.4-.7 1-1.2 1.6-1.6.7-.4 1.4-.7 2.3-.8.9-.2 1.7-.2 2.6-.2s1.8.1 2.6.3c.8.2 1.6.5 2.3.9.7.4 1.2.9 1.6 1.6.4.7.7 1.5.8 2.5h-4.3c-.1-.9-.4-1.5-1-1.8-.6-.3-1.3-.5-2.1-.5h-.8c-.3 0-.6.1-.8.2s-.5.3-.6.5c-.2.2-.3.5-.3.8 0 .4.1.7.4 1s.7.5 1.2.6c.5.2 1 .3 1.6.4.6.1 1.2.3 1.9.4.7.1 1.3.3 1.9.5.6.2 1.2.5 1.7.8.5.4.9.8 1.2 1.3.3.5.4 1.2.4 1.9 0 1.1-.2 2-.7 2.7-.4.7-1 1.3-1.7 1.8-.7.4-1.5.8-2.4.9-.9.2-1.8.3-2.8.3-1 0-1.9-.1-2.8-.3-.9-.2-1.7-.5-2.4-1-.7-.4-1.3-1-1.8-1.8-.5-.7-.7-1.7-.8-2.8h4.3c.2.6.3 1 .5 1.3z"/>
  </g>
  <path class="st2" d="M156.1 199.1l-8.4 8.4 13.3 13.3 8.4-8.4-13.3-13.3z"/>
  <path class="st2" d="M169.4 212.5l-17.2-17.2c11.9-16.5 8.1-39.6-8.4-51.5-16.5-11.9-39.6-8.1-51.5 8.4-11.9 16.5-8.1 39.6 8.4 51.5 12.9 9.2 30.2 9.2 43 0l17.2 17.2 8.5-8.4zm-47.1-12.1c-14.7 0-26.6-11.9-26.6-26.6 0-14.7 11.9-26.6 26.6-26.6 14.7 0 26.6 11.9 26.6 26.6 0 14.7-11.9 26.6-26.6 26.6z"/>
  <defs>
    <path id="SVGID_1_" d="M169.4 212.5l-17.2-17.2c11.9-16.5 8.1-39.6-8.4-51.5-16.5-11.9-39.6-8.1-51.5 8.4-11.9 16.5-8.1 39.6 8.4 51.5 12.9 9.2 30.2 9.2 43 0l17.2 17.2 8.5-8.4zm-47.1-12.1c-14.7 0-26.6-11.9-26.6-26.6 0-14.7 11.9-26.6 26.6-26.6 14.7 0 26.6 11.9 26.6 26.6 0 14.7-11.9 26.6-26.6 26.6z"/>
  </defs>
  <clipPath id="SVGID_2_">
    <use xlink:href="#SVGID_1_" overflow="visible"/>
  </clipPath>
  <g clip-path="url(#SVGID_2_)">
    <path class="st2" d="M122.2 132.6h39v85.2h-39z" opacity=".25"/>
  </g>
  <path class="st2" d="M181.4 223.9c0 5-4.1 9-9 9-2.4 0-4.6-.9-6.3-2.6l-20.5-20.5 2.3-2.3 8.4-8.4 2.3-2.3 20.5 20.5c1.6 1.8 2.4 4.2 2.3 6.6zm-68.7-44.6v17.3c-5.6-2.3-10.1-6.6-12.9-11.9v-5.4h12.9zM128 169v29c-4.3.9-8.7.7-12.9-.6V169H128zm15.2-8v26c-2.8 5.1-7.4 8.8-12.9 10.5V161h12.9z"/>
</svg>
