<svg xmlns="http://www.w3.org/2000/svg" width="276.7" height="246.1">
  <style>
    .st1{enable-background:new}.st2{fill:#fff}
  </style>
  <path fill="#f89823" stroke="#f89824" stroke-width="5" stroke-miterlimit="10" d="M273.9 123.1l-58.8 120.5H61.5L2.8 123.1 61.5 2.5h153.6z"/>
  <g class="st1">
    <path class="st2" d="M110.8 42.8c-.3-.5-.7-.9-1.1-1.3-.4-.4-1-.6-1.5-.8-.6-.2-1.2-.3-1.8-.3-1.1 0-2.1.2-2.9.7-.8.4-1.4 1-1.9 1.8-.5.7-.8 1.6-1.1 2.5-.2.9-.3 1.9-.3 2.9s.1 1.9.3 2.8c.2.9.6 1.7 1.1 2.4s1.1 1.3 1.9 1.7c.8.4 1.7.7 2.9.7 1.5 0 2.7-.5 3.6-1.4.9-.9 1.4-2.2 1.6-3.7h4.9c-.1 1.4-.5 2.7-1 3.9-.5 1.1-1.2 2.1-2.1 2.9-.9.8-1.9 1.4-3.1 1.9-1.2.4-2.5.6-3.9.6-1.7 0-3.3-.3-4.7-.9-1.4-.6-2.6-1.4-3.5-2.5-1-1.1-1.7-2.3-2.2-3.8-.5-1.4-.8-3-.8-4.6 0-1.7.3-3.3.8-4.7.5-1.5 1.2-2.7 2.2-3.8 1-1.1 2.1-1.9 3.5-2.6 1.4-.6 3-.9 4.7-.9 1.3 0 2.4.2 3.6.5 1.1.4 2.1.9 3 1.6.9.7 1.6 1.5 2.2 2.6.6 1 .9 2.2 1.1 3.5h-4.9c-.1-.7-.3-1.2-.6-1.7zm8.7-2.3v-3.7h4.5v3.7h-4.5zM124 43v16.5h-4.5V43h4.5z"/>
  </g>
  <g class="st1">
    <path class="st2" d="M131.9 43v3.1h.1c.2-.5.5-1 .9-1.4.4-.4.8-.8 1.2-1.1.5-.3 1-.5 1.5-.7.5-.2 1.1-.3 1.7-.3.3 0 .6.1 1 .2V47c-.2 0-.5-.1-.8-.1h-.9c-.8 0-1.5.1-2.1.4-.6.3-1 .7-1.4 1.1-.4.5-.6 1-.8 1.7-.1.6-.2 1.3-.2 2.1v7.4h-4.5V43h4.3z"/>
  </g>
  <g class="st1">
    <path class="st2" d="M147.4 46c-.7 0-1.3.2-1.8.5s-.9.8-1.2 1.3c-.3.5-.5 1.1-.7 1.7-.1.6-.2 1.3-.2 1.9 0 .6.1 1.2.2 1.8.1.6.3 1.2.6 1.7s.7.9 1.2 1.2c.5.3 1.1.5 1.8.5 1.1 0 1.9-.3 2.5-.9.6-.6 1-1.4 1.1-2.4h4.4c-.3 2.2-1.1 3.9-2.6 5-1.4 1.1-3.2 1.7-5.4 1.7-1.2 0-2.4-.2-3.4-.6-1-.4-1.9-1-2.6-1.7-.7-.7-1.3-1.6-1.7-2.7-.4-1-.6-2.2-.6-3.4 0-1.3.2-2.5.6-3.6.4-1.1.9-2 1.6-2.8.7-.8 1.6-1.4 2.7-1.9 1-.4 2.2-.7 3.6-.7 1 0 1.9.1 2.8.4.9.3 1.7.6 2.4 1.2.7.5 1.3 1.2 1.7 1.9.4.8.7 1.7.8 2.8h-4.4c-.4-2-1.5-2.9-3.4-2.9zm15.1-9.3v22.8H158V36.7h4.5zm8.4 18.9c.7.7 1.7 1 2.9 1 .9 0 1.7-.2 2.4-.7.7-.5 1.1-.9 1.2-1.5h4c-.6 2-1.6 3.4-2.9 4.2-1.3.9-2.9 1.3-4.8 1.3-1.3 0-2.5-.2-3.5-.6-1-.4-1.9-1-2.7-1.8s-1.3-1.7-1.7-2.7c-.4-1.1-.6-2.2-.6-3.5 0-1.2.2-2.4.6-3.4.4-1.1 1-2 1.7-2.8.7-.8 1.6-1.4 2.7-1.8 1-.4 2.2-.7 3.4-.7 1.4 0 2.6.3 3.7.8 1 .5 1.9 1.3 2.6 2.2s1.2 2 1.5 3.1c.3 1.2.4 2.4.3 3.7h-11.9c0 1.5.4 2.5 1.1 3.2zm5.1-8.7c-.5-.6-1.4-.9-2.5-.9-.7 0-1.3.1-1.8.4-.5.2-.9.6-1.1.9-.3.4-.5.7-.6 1.1-.1.4-.2.8-.2 1.1h7.4c-.3-1.1-.6-2-1.2-2.6z"/>
  </g>
  <g class="st1">
    <path class="st2" d="M84.5 86c.4-1.1 1-2 1.7-2.7.7-.8 1.6-1.3 2.7-1.8 1-.4 2.2-.6 3.5-.6s2.5.2 3.5.6c1.1.4 2 1 2.7 1.8.7.8 1.3 1.7 1.7 2.7.4 1.1.6 2.3.6 3.6 0 1.3-.2 2.5-.6 3.6-.4 1.1-1 2-1.7 2.7-.7.8-1.6 1.3-2.7 1.7-1.1.4-2.2.6-3.5.6s-2.5-.2-3.5-.6c-1-.4-1.9-1-2.7-1.7-.7-.8-1.3-1.7-1.7-2.7-.4-1.1-.6-2.3-.6-3.6 0-1.3.2-2.5.6-3.6zm4.2 5.6c.1.6.3 1.2.7 1.7.3.5.7.9 1.2 1.2.5.3 1.1.4 1.9.4.8 0 1.4-.1 1.9-.4s.9-.7 1.2-1.2c.3-.5.5-1.1.7-1.7.1-.6.2-1.3.2-1.9 0-.7-.1-1.3-.2-1.9-.1-.6-.3-1.2-.7-1.7-.3-.5-.7-.9-1.2-1.2-.5-.3-1.2-.5-1.9-.5-.8 0-1.4.2-1.9.5s-.9.7-1.2 1.2c-.3.5-.5 1.1-.7 1.7-.1.6-.2 1.3-.2 1.9 0 .6 0 1.2.2 1.9zm13.5-7.2v-3h2.7v-1.3c0-1.5.5-2.7 1.4-3.6.9-.9 2.3-1.4 4.2-1.4h1.2c.4 0 .8.1 1.2.1v3.4c-.5-.1-1.1-.1-1.7-.1-.6 0-1.1.1-1.3.4-.3.3-.4.8-.4 1.5v1h3.1v3h-3.1v13.5H105V84.4h-2.8zm36.4-3.2c-.3-.5-.7-.9-1.1-1.3-.4-.4-1-.6-1.5-.8-.6-.2-1.2-.3-1.8-.3-1.1 0-2.1.2-2.9.7-.8.4-1.4 1-1.9 1.8-.5.7-.8 1.6-1.1 2.5-.2.9-.3 1.9-.3 2.9s.1 1.9.3 2.8c.2.9.6 1.7 1.1 2.4.5.7 1.1 1.3 1.9 1.7.8.4 1.7.7 2.9.7 1.5 0 2.7-.5 3.6-1.4.9-.9 1.4-2.2 1.6-3.7h4.9c-.1 1.4-.5 2.7-1 3.9-.5 1.1-1.2 2.1-2.1 2.9-.9.8-1.9 1.4-3.1 1.9-1.2.4-2.5.6-3.9.6-1.7 0-3.3-.3-4.7-.9-1.4-.6-2.6-1.4-3.5-2.5-1-1.1-1.7-2.3-2.2-3.8-.5-1.4-.8-3-.8-4.6 0-1.7.3-3.3.8-4.7.5-1.5 1.2-2.7 2.2-3.8s2.1-1.9 3.5-2.6c1.4-.6 3-.9 4.7-.9 1.3 0 2.4.2 3.6.5 1.1.4 2.1.9 3 1.6.9.7 1.6 1.5 2.2 2.6.6 1 .9 2.2 1.1 3.5h-4.9c-.1-.7-.3-1.3-.6-1.7zm8.3 5.2c.1-1.1.3-1.9.8-2.7.5-.7 1.1-1.3 1.8-1.7.7-.4 1.5-.7 2.4-.9.9-.2 1.8-.3 2.7-.3.8 0 1.7.1 2.5.2.9.1 1.6.3 2.3.7.7.3 1.3.8 1.7 1.4.4.6.7 1.4.7 2.4v8.6c0 .7 0 1.5.1 2.1.1.7.2 1.2.4 1.5h-4.6c-.1-.3-.2-.5-.2-.8-.1-.3-.1-.5-.1-.8-.7.7-1.6 1.3-2.6 1.6-1 .3-2 .4-3 .4-.8 0-1.5-.1-2.2-.3-.7-.2-1.3-.5-1.8-.9s-.9-.9-1.2-1.5c-.3-.6-.4-1.4-.4-2.2 0-.9.2-1.7.5-2.3.3-.6.8-1.1 1.3-1.5.5-.4 1.1-.6 1.8-.8.7-.2 1.3-.3 2-.4.7-.1 1.4-.2 2-.3.7-.1 1.2-.2 1.8-.3.5-.1.9-.3 1.2-.6.3-.2.4-.6.4-1.1 0-.5-.1-.9-.2-1.2-.2-.3-.4-.5-.6-.7-.3-.2-.6-.3-.9-.3-.4-.1-.7-.1-1.1-.1-.9 0-1.6.2-2.1.6s-.8 1-.9 1.9h-4.5zm10.5 3.4c-.2.2-.4.3-.7.4-.3.1-.6.2-.9.2-.3.1-.7.1-1 .2-.4 0-.7.1-1.1.2-.3.1-.7.1-1 .3s-.6.2-.9.4c-.2.2-.4.4-.6.7-.1.3-.2.6-.2 1.1 0 .4.1.7.2 1 .1.3.3.5.6.7.3.2.6.3.9.3.3.1.7.1 1.1.1.9 0 1.6-.1 2.1-.4.5-.3.9-.7 1.1-1.1.2-.4.4-.8.4-1.3.1-.4.1-.8.1-1v-1.8z"/>
  </g>
  <g class="st1">
    <path class="st2" d="M169.8 81.4v3.1h.1c.2-.5.5-1 .9-1.4.4-.4.8-.8 1.2-1.1.5-.3 1-.5 1.5-.7.5-.2 1.1-.3 1.7-.3.3 0 .6.1 1 .2v4.2c-.2 0-.5-.1-.8-.1h-.9c-.8 0-1.5.1-2.1.4-.6.3-1 .7-1.4 1.1-.4.5-.6 1-.8 1.7-.1.6-.2 1.3-.2 2.1V98h-4.5V81.4h4.3z"/>
  </g>
  <g class="st1">
    <path class="st2" d="M182.2 93.9c.7.7 1.7 1 2.9 1 .9 0 1.7-.2 2.4-.7.7-.5 1.1-.9 1.2-1.5h4c-.6 2-1.6 3.4-2.9 4.2-1.3.9-2.9 1.3-4.8 1.3-1.3 0-2.5-.2-3.5-.6-1-.4-1.9-1-2.7-1.8-.7-.8-1.3-1.7-1.7-2.7-.4-1.1-.6-2.2-.6-3.5 0-1.2.2-2.4.6-3.4.4-1.1 1-2 1.7-2.8.7-.8 1.6-1.4 2.7-1.8 1-.4 2.2-.7 3.4-.7 1.4 0 2.6.3 3.7.8s1.9 1.3 2.6 2.2c.7.9 1.2 2 1.5 3.1.3 1.2.4 2.4.3 3.7h-11.9c0 1.5.4 2.6 1.1 3.2zm5.1-8.7c-.5-.6-1.4-.9-2.5-.9-.7 0-1.3.1-1.8.4-.5.2-.9.6-1.1.9-.3.4-.5.7-.6 1.1-.1.4-.2.8-.2 1.1h7.4c-.3-1.1-.7-2-1.2-2.6z"/>
  </g>
  <ellipse transform="rotate(-81.49 137.06606241 177.69796276)" class="st2" cx="137.1" cy="177.7" rx="8.6" ry="17.5"/>
  <ellipse transform="rotate(-81.49 126.72877035 138.59829357)" class="st2" cx="126.7" cy="138.6" rx="8.6" ry="17.5"/>
  <ellipse transform="rotate(-81.49 186.29820572 160.73647247)" class="st2" cx="186.3" cy="160.7" rx="8.6" ry="17.5"/>
  <ellipse transform="rotate(-81.49 186.3197574 204.41732387)" class="st2" cx="186.3" cy="204.4" rx="8.6" ry="17.5"/>
  <ellipse transform="rotate(-81.49 112.9085163 213.35020818)" class="st2" cx="112.9" cy="213.4" rx="8.6" ry="17.5"/>
  <ellipse transform="rotate(-81.49 84.07376024 169.4065154)" class="st2" cx="84.1" cy="169.4" rx="8.6" ry="17.5"/>
  <path class="st2" d="M132.3137 147.61418l2.51134-.67314 10.25244 38.24964-2.51134.67314zm13.22752 25.41896l32.41168-11.52744.87126 2.44972-32.41168 11.52744zm1.92226 11.3584l1.26048-2.27396 29.21164 16.19232-1.26048 2.27396zm-63.39126-13.59412l.36712-2.574 48.312 6.89056-.36712 2.574zm27.86855 41.98179l22.28195-32.61515 2.14682 1.46666-22.28195 32.61515z"/>
</svg>
