<?xml version="1.0" encoding="utf-8"?>
<!-- Generator: Adobe Illustrator 21.1.0, SVG Export Plug-In . SVG Version: 6.00 Build 0)  -->
<svg version="1.1" id="Layer_1" xmlns="http://www.w3.org/2000/svg" xmlns:xlink="http://www.w3.org/1999/xlink" x="0px" y="0px"
	 viewBox="0 0 277 246" style="enable-background:new 0 0 277 246;" xml:space="preserve">
<style type="text/css">
	.st0{fill:#39B39D;stroke:#37B39D;stroke-width:5;stroke-miterlimit:10;}
	.st1{fill:#FFFFFF;}
	.st2{fill:#3486B0;}
	.st3{fill:#F89823;}
	.st4{fill:#39B39D;}
	.st5{fill:#A5A4A4;}
	.st6{fill:#3486B0;stroke:#3586B0;stroke-width:5;stroke-miterlimit:10;}
	.st7{fill-rule:evenodd;clip-rule:evenodd;fill:#FFFFFF;}
	.st8{fill:#F89823;stroke:#F89824;stroke-width:5;stroke-miterlimit:10;}
	.st9{fill:#676868;}
	.st10{opacity:0.25;clip-path:url(#SVGID_2_);}
	.st11{clip-path:url(#SVGID_4_);}
	.st12{fill:#F8C990;}
	.st13{clip-path:url(#SVGID_6_);fill:#F8C990;}
	.st14{clip-path:url(#SVGID_6_);fill:#FFFFFF;}
	.st15{clip-path:url(#SVGID_6_);}
	.st16{clip-path:url(#SVGID_6_);fill:none;stroke:#FFFFFF;stroke-width:9;stroke-miterlimit:10;}
	.st17{fill:none;}
	.st18{clip-path:url(#SVGID_8_);}
	.st19{clip-path:url(#SVGID_10_);fill:#F8C990;}
	.st20{clip-path:url(#SVGID_10_);fill:#FFFFFF;}
	.st21{clip-path:url(#SVGID_10_);}
	.st22{clip-path:url(#SVGID_10_);fill:none;stroke:#FFFFFF;stroke-width:9;stroke-miterlimit:10;}
	.st23{opacity:0.25;clip-path:url(#SVGID_12_);}
	.st24{clip-path:url(#SVGID_14_);}
</style>
<g>
	<polygon class="st8" points="273.5,122.9 215,243 61.9,243 3.4,122.9 61.9,2.8 215,2.8 	"/>
	<g>
		<path class="st1" d="M83.3,56.3c-0.3-0.5-0.7-0.9-1.1-1.3c-0.4-0.4-0.9-0.6-1.5-0.8c-0.6-0.2-1.2-0.3-1.8-0.3
			c-1.1,0-2.1,0.2-2.9,0.7c-0.8,0.4-1.4,1-1.9,1.8c-0.5,0.7-0.8,1.6-1.1,2.5c-0.2,0.9-0.3,1.9-0.3,2.9c0,1,0.1,1.9,0.3,2.8
			c0.2,0.9,0.6,1.7,1.1,2.4c0.5,0.7,1.1,1.3,1.9,1.7c0.8,0.4,1.7,0.7,2.9,0.7c1.5,0,2.7-0.5,3.6-1.4c0.9-0.9,1.4-2.2,1.6-3.7h4.8
			c-0.1,1.4-0.5,2.7-1,3.9c-0.5,1.1-1.2,2.1-2.1,2.9c-0.9,0.8-1.9,1.4-3.1,1.8c-1.2,0.4-2.5,0.6-3.9,0.6c-1.7,0-3.3-0.3-4.7-0.9
			c-1.4-0.6-2.6-1.4-3.5-2.5c-1-1.1-1.7-2.3-2.2-3.7c-0.5-1.4-0.8-3-0.8-4.6c0-1.7,0.3-3.3,0.8-4.7s1.2-2.7,2.2-3.8
			c1-1.1,2.1-1.9,3.5-2.5c1.4-0.6,3-0.9,4.7-0.9c1.3,0,2.4,0.2,3.5,0.5c1.1,0.4,2.1,0.9,3,1.6c0.9,0.7,1.6,1.5,2.2,2.6
			s0.9,2.2,1.1,3.5h-4.8C83.8,57.3,83.6,56.8,83.3,56.3z"/>
		<path class="st1" d="M91.6,61.6c0.1-1.1,0.3-1.9,0.8-2.6c0.5-0.7,1.1-1.3,1.8-1.7c0.7-0.4,1.5-0.7,2.4-0.9
			c0.9-0.2,1.8-0.3,2.7-0.3c0.8,0,1.7,0.1,2.5,0.2c0.8,0.1,1.6,0.3,2.3,0.7c0.7,0.3,1.3,0.8,1.7,1.4c0.4,0.6,0.7,1.4,0.7,2.4v8.6
			c0,0.7,0,1.5,0.1,2.1s0.2,1.2,0.4,1.5h-4.6c-0.1-0.3-0.2-0.5-0.2-0.8c-0.1-0.3-0.1-0.5-0.1-0.8c-0.7,0.7-1.6,1.3-2.5,1.6
			c-1,0.3-2,0.4-3,0.4c-0.8,0-1.5-0.1-2.2-0.3c-0.7-0.2-1.3-0.5-1.8-0.9c-0.5-0.4-0.9-0.9-1.2-1.5c-0.3-0.6-0.4-1.3-0.4-2.2
			c0-0.9,0.2-1.7,0.5-2.3c0.3-0.6,0.8-1.1,1.3-1.4c0.5-0.4,1.1-0.6,1.8-0.8c0.7-0.2,1.3-0.3,2-0.4c0.7-0.1,1.3-0.2,2-0.3
			s1.2-0.2,1.8-0.3s0.9-0.3,1.2-0.6c0.3-0.2,0.4-0.6,0.4-1.1c0-0.5-0.1-0.9-0.2-1.2c-0.2-0.3-0.4-0.5-0.6-0.7
			c-0.3-0.2-0.6-0.3-0.9-0.3c-0.4-0.1-0.7-0.1-1.1-0.1c-0.9,0-1.6,0.2-2.1,0.6s-0.8,1-0.9,1.9H91.6z M102.1,64.9
			c-0.2,0.2-0.4,0.3-0.7,0.4c-0.3,0.1-0.6,0.2-0.9,0.2s-0.7,0.1-1,0.2c-0.4,0-0.7,0.1-1.1,0.2c-0.3,0.1-0.7,0.1-1,0.3
			c-0.3,0.1-0.6,0.2-0.9,0.4c-0.2,0.2-0.4,0.4-0.6,0.7c-0.1,0.3-0.2,0.6-0.2,1.1c0,0.4,0.1,0.7,0.2,1c0.1,0.3,0.4,0.5,0.6,0.7
			c0.3,0.2,0.6,0.3,0.9,0.3c0.3,0.1,0.7,0.1,1.1,0.1c0.9,0,1.6-0.1,2.1-0.4c0.5-0.3,0.8-0.7,1.1-1.1c0.2-0.4,0.4-0.8,0.4-1.3
			c0.1-0.4,0.1-0.8,0.1-1V64.9z"/>
		<path class="st1" d="M114.4,56.5v3.1h0.1c0.2-0.5,0.5-1,0.9-1.4c0.4-0.4,0.8-0.8,1.2-1.1c0.5-0.3,1-0.5,1.5-0.7s1.1-0.3,1.7-0.3
			c0.3,0,0.6,0.1,1,0.2v4.2c-0.2,0-0.5-0.1-0.8-0.1c-0.3,0-0.6,0-0.9,0c-0.8,0-1.5,0.1-2.1,0.4c-0.6,0.3-1,0.7-1.4,1.1
			s-0.6,1-0.7,1.7c-0.1,0.6-0.2,1.3-0.2,2.1V73h-4.5V56.5H114.4z"/>
		<path class="st1" d="M126.8,69c0.7,0.7,1.7,1,2.9,1c0.9,0,1.7-0.2,2.4-0.7c0.7-0.5,1.1-0.9,1.2-1.4h4c-0.6,2-1.6,3.4-2.9,4.2
			c-1.3,0.8-2.9,1.3-4.8,1.3c-1.3,0-2.5-0.2-3.5-0.6c-1-0.4-1.9-1-2.6-1.8c-0.7-0.8-1.3-1.7-1.7-2.7c-0.4-1.1-0.6-2.2-0.6-3.5
			c0-1.2,0.2-2.4,0.6-3.4c0.4-1.1,1-2,1.7-2.8c0.7-0.8,1.6-1.4,2.7-1.8c1-0.4,2.2-0.7,3.4-0.7c1.4,0,2.6,0.3,3.7,0.8
			c1,0.5,1.9,1.3,2.6,2.2c0.7,0.9,1.2,2,1.4,3.1c0.3,1.2,0.4,2.4,0.3,3.7h-11.9C125.7,67.3,126.1,68.4,126.8,69z M131.9,60.4
			c-0.5-0.6-1.4-0.9-2.5-0.9c-0.7,0-1.3,0.1-1.8,0.4c-0.5,0.2-0.9,0.5-1.1,0.9c-0.3,0.4-0.5,0.7-0.6,1.1c-0.1,0.4-0.2,0.8-0.2,1.1
			h7.4C132.8,61.8,132.4,61,131.9,60.4z"/>
		<path class="st1" d="M159.8,50.3c1.4,0,2.6,0.2,3.6,0.6c1,0.4,1.8,1,2.4,1.6c0.6,0.7,1.1,1.5,1.4,2.3s0.4,1.8,0.4,2.7
			c0,0.9-0.1,1.8-0.4,2.7c-0.3,0.9-0.7,1.7-1.4,2.3s-1.4,1.2-2.4,1.6c-1,0.4-2.2,0.6-3.6,0.6h-5.3V73h-5V50.3H159.8z M158.4,61
			c0.6,0,1.1,0,1.7-0.1s1-0.2,1.4-0.5c0.4-0.2,0.7-0.6,1-1c0.2-0.4,0.4-1,0.4-1.8c0-0.7-0.1-1.3-0.4-1.8c-0.2-0.4-0.6-0.8-1-1
			c-0.4-0.2-0.9-0.4-1.4-0.5c-0.5-0.1-1.1-0.1-1.7-0.1h-3.9V61H158.4z"/>
		<path class="st1" d="M174.9,50.3V73h-4.5V50.3H174.9z"/>
		<path class="st1" d="M178.3,61.6c0.1-1.1,0.3-1.9,0.8-2.6c0.5-0.7,1.1-1.3,1.8-1.7c0.7-0.4,1.5-0.7,2.4-0.9
			c0.9-0.2,1.8-0.3,2.7-0.3c0.8,0,1.7,0.1,2.5,0.2c0.8,0.1,1.6,0.3,2.3,0.7c0.7,0.3,1.3,0.8,1.7,1.4c0.4,0.6,0.7,1.4,0.7,2.4v8.6
			c0,0.7,0,1.5,0.1,2.1s0.2,1.2,0.4,1.5h-4.6c-0.1-0.3-0.2-0.5-0.2-0.8c-0.1-0.3-0.1-0.5-0.1-0.8c-0.7,0.7-1.6,1.3-2.5,1.6
			c-1,0.3-2,0.4-3,0.4c-0.8,0-1.5-0.1-2.2-0.3c-0.7-0.2-1.3-0.5-1.8-0.9c-0.5-0.4-0.9-0.9-1.2-1.5c-0.3-0.6-0.4-1.3-0.4-2.2
			c0-0.9,0.2-1.7,0.5-2.3c0.3-0.6,0.8-1.1,1.3-1.4c0.5-0.4,1.1-0.6,1.8-0.8c0.7-0.2,1.3-0.3,2-0.4c0.7-0.1,1.3-0.2,2-0.3
			s1.2-0.2,1.8-0.3s0.9-0.3,1.2-0.6c0.3-0.2,0.4-0.6,0.4-1.1c0-0.5-0.1-0.9-0.2-1.2c-0.2-0.3-0.4-0.5-0.6-0.7
			c-0.3-0.2-0.6-0.3-0.9-0.3c-0.4-0.1-0.7-0.1-1.1-0.1c-0.9,0-1.6,0.2-2.1,0.6s-0.8,1-0.9,1.9H178.3z M188.7,64.9
			c-0.2,0.2-0.4,0.3-0.7,0.4c-0.3,0.1-0.6,0.2-0.9,0.2s-0.7,0.1-1,0.2c-0.4,0-0.7,0.1-1.1,0.2c-0.3,0.1-0.7,0.1-1,0.3
			c-0.3,0.1-0.6,0.2-0.9,0.4c-0.2,0.2-0.4,0.4-0.6,0.7c-0.1,0.3-0.2,0.6-0.2,1.1c0,0.4,0.1,0.7,0.2,1c0.1,0.3,0.4,0.5,0.6,0.7
			c0.3,0.2,0.6,0.3,0.9,0.3c0.3,0.1,0.7,0.1,1.1,0.1c0.9,0,1.6-0.1,2.1-0.4c0.5-0.3,0.8-0.7,1.1-1.1c0.2-0.4,0.4-0.8,0.4-1.3
			c0.1-0.4,0.1-0.8,0.1-1V64.9z"/>
		<path class="st1" d="M201,56.5v2.3h0.1c0.6-1,1.3-1.6,2.2-2.1c0.9-0.4,1.8-0.7,2.8-0.7c1.2,0,2.2,0.2,3,0.5
			c0.8,0.3,1.4,0.8,1.8,1.4c0.4,0.6,0.8,1.3,0.9,2.1s0.3,1.8,0.3,2.8V73h-4.5v-9.3c0-1.4-0.2-2.4-0.6-3c-0.4-0.7-1.2-1-2.3-1
			c-1.2,0-2.1,0.4-2.7,1.1c-0.6,0.7-0.8,1.9-0.8,3.6V73h-4.5V56.5H201z"/>
	</g>
	<g>
		<path class="st1" d="M190.8,115.5l-26.3-17.7c-1.2-0.8-2.6-0.8-3.8,0l-24.4,16.4l-24.4-16.4c-1.2-0.8-2.6-0.8-3.8,0l-26.3,17.7
			c-1.1,0.7-1.8,2.1-1.8,3.5v70.7c0,1.5,0.7,2.8,1.9,3.6c1.2,0.7,2.6,0.7,3.7-0.1l24.4-16.4l24.4,16.4c1.2,0.8,2.6,0.8,3.8,0
			l24.5-16.4l24.4,16.4c0.6,0.4,1.2,0.6,1.9,0.6c0.6,0,1.3-0.2,1.8-0.5c1.2-0.7,1.9-2.1,1.9-3.6v-70.7
			C192.5,117.6,191.9,116.3,190.8,115.5z M105.7,170l-17.9,12.4v-60.8l17.9-12.4V170z M113.8,169.9v-30.8c0.3,0.2,0.5,0.3,0.7,0.5
			l2.3-3.3c-1-0.7-2-1.3-3.1-1.9v-25.4l18.4,12.3v27.3c-1.4-0.5-2.7-1.1-4.1-2l-2.1,3.4c1.7,1.1,3.4,1.9,5.2,2.5l1.1-3.2v32.8
			L113.8,169.9z M140.2,182.2v-28.5c0.1,0,0.1,0,0.1,0c0.7-0.1,1.5-0.1,2.1-0.2l-0.6-4c-0.5,0.1-1.1,0.2-1.7,0.2v-28.3l18.4-12.3v30
			l-1.3-1.2c-0.8,0.8-1.5,1.7-2.2,2.4c-0.5,0.5-0.9,1-1.3,1.5l3,2.7c0.5-0.5,0.9-1,1.4-1.6c0.2-0.2,0.3-0.4,0.5-0.5v27.5
			L140.2,182.2z M184.5,182.2L166.6,170v-34.5c0.9-0.4,1.9-0.7,2.8-0.9l-0.8-3.9c-0.7,0.1-1.3,0.3-2,0.5v-22l17.9,12.2L184.5,182.2
			L184.5,182.2z"/>
		<path class="st1" d="M96.7,145.6c0.5-1.5,0.9-2.8,1.8-4.1l-3.3-2.3c-1.2,1.8-1.8,3.5-2.3,5.2l-0.1,0.2l3.8,1.2L96.7,145.6z"/>
		<path class="st1" d="M104.2,136.8c0.6-0.3-0.4-0.3,0.3-0.5l-1.2-3.8c-0.8,0.3-1.6,0.6-2.4,1c-1,0.5-1.9,1.2-2.8,2.1l2.7,2.9
			C101.3,137.9,103.5,137.1,104.2,136.8z"/>
		<path class="st1" d="M146.3,148.1l1.8,3.6c1.7-0.8,3.2-1.9,4.8-3.3l-2.7-3C148.9,146.6,147.7,147.5,146.3,148.1z"/>
		<path class="st1" d="M121.5,141c-0.3-0.3-0.5-0.6-0.8-0.9l-3.1,2.6c0.3,0.3,0.5,0.6,0.7,0.9c0.9,1.1,1.8,2.2,2.9,3.2l2.8-2.9
			C123.2,143,122.4,142,121.5,141z"/>
		<polygon class="st1" points="174.4,138.9 176.9,136.3 179.5,138.9 182.4,136.1 179.8,133.5 182.4,130.9 179.5,128 176.9,130.6 
			174.4,128 171.5,130.9 174.1,133.5 171.5,136.1 		"/>
	</g>
</g>
</svg>
