<svg xmlns="http://www.w3.org/2000/svg" width="276.7" height="246.1">
  <path fill="#f89823" stroke="#f89824" stroke-width="5" stroke-miterlimit="10" d="M273.9 123l-58.8 120.6H61.5L2.8 123 61.5 2.5h153.6z"/>
  <path d="M64.5 48.6l5.3 15.7h.1l5-15.7H82v22.8h-4.7V55.3h-.1l-5.6 16.2h-3.9l-5.6-16H62v16h-4.7V48.6h7.2zm26.3 18.9c.7.7 1.7 1 2.9 1 .9 0 1.7-.2 2.4-.7.7-.5 1.1-.9 1.2-1.5h4c-.6 2-1.6 3.4-2.9 4.2-1.3.9-2.9 1.3-4.8 1.3-1.3 0-2.5-.2-3.5-.6-1-.4-1.9-1-2.7-1.8-.7-.8-1.3-1.7-1.7-2.7-.4-1.1-.6-2.2-.6-3.5 0-1.2.2-2.4.6-3.4.4-1.1 1-2 1.7-2.8.7-.8 1.6-1.4 2.7-1.8 1-.4 2.2-.7 3.4-.7 1.4 0 2.6.3 3.7.8 1 .5 1.9 1.3 2.6 2.2s1.2 2 1.5 3.1c.3 1.2.4 2.4.3 3.7H89.7c.1 1.5.4 2.5 1.1 3.2zm5.1-8.7c-.5-.6-1.4-.9-2.5-.9-.7 0-1.3.1-1.8.4-.5.2-.9.6-1.1.9-.3.4-.5.7-.6 1.1-.1.4-.2.8-.2 1.1h7.4c-.2-1.1-.6-2-1.2-2.6zm12.2 8.5c.2.4.5.6.8.9.3.2.7.4 1.1.5.4.1.8.2 1.3.2.3 0 .7 0 1-.1.4-.1.7-.2 1-.4.3-.2.5-.4.7-.6.2-.3.3-.6.3-1 0-.7-.5-1.2-1.4-1.5-.9-.3-2.2-.7-3.8-1-.7-.1-1.3-.3-1.9-.5-.6-.2-1.2-.5-1.7-.8-.5-.3-.9-.7-1.2-1.2-.3-.5-.4-1.1-.4-1.8 0-1.1.2-1.9.6-2.6.4-.7 1-1.2 1.6-1.6.7-.4 1.4-.7 2.3-.8.9-.2 1.7-.2 2.6-.2.9 0 1.8.1 2.6.3.8.2 1.6.5 2.3.9.7.4 1.2.9 1.6 1.6.4.7.7 1.5.8 2.5H114c-.1-.9-.4-1.5-1-1.8-.6-.3-1.3-.5-2.1-.5h-.8c-.3 0-.6.1-.8.2-.2.1-.5.3-.6.5-.2.2-.3.5-.3.8 0 .4.1.7.4 1 .3.3.7.5 1.2.6.5.2 1 .3 1.6.4.6.1 1.2.3 1.9.4.7.1 1.3.3 1.9.5.6.2 1.2.5 1.7.8.5.4.9.8 1.2 1.3.3.5.4 1.2.4 1.9 0 1.1-.2 2-.7 2.7-.4.7-1 1.3-1.7 1.8-.7.4-1.5.8-2.4.9-.9.2-1.8.3-2.8.3-1 0-1.9-.1-2.8-.3-.9-.2-1.7-.5-2.4-1-.7-.4-1.3-1-1.8-1.8-.5-.7-.7-1.7-.8-2.8h4.3c.2.6.3 1 .5 1.3zm17.2 0c.2.4.5.6.8.9.3.2.7.4 1.1.5.4.1.8.2 1.3.2.3 0 .7 0 1-.1.4-.1.7-.2 1-.4.3-.2.5-.4.7-.6.2-.3.3-.6.3-1 0-.7-.5-1.2-1.4-1.5-.9-.3-2.2-.7-3.8-1-.7-.1-1.3-.3-1.9-.5-.6-.2-1.2-.5-1.7-.8-.5-.3-.9-.7-1.2-1.2-.3-.5-.4-1.1-.4-1.8 0-1.1.2-1.9.6-2.6.4-.7 1-1.2 1.6-1.6s1.4-.7 2.3-.8c.9-.2 1.7-.2 2.6-.2.9 0 1.8.1 2.6.3.8.2 1.6.5 2.3.9.7.4 1.2.9 1.6 1.6.4.7.7 1.5.8 2.5h-4.3c-.1-.9-.4-1.5-1-1.8-.6-.3-1.3-.5-2.1-.5h-.8c-.3 0-.6.1-.8.2-.2.1-.5.3-.6.5-.2.2-.3.5-.3.8 0 .4.1.7.4 1 .3.3.7.5 1.2.6.5.2 1 .3 1.6.4.6.1 1.2.3 1.9.4.7.1 1.3.3 1.9.5.6.2 1.2.5 1.7.8.5.4.9.8 1.2 1.3.3.5.4 1.2.4 1.9 0 1.1-.2 2-.7 2.7-.4.7-1 1.3-1.7 1.8-.7.4-1.5.8-2.4.9-.9.2-1.8.3-2.8.3-1 0-1.9-.1-2.8-.3-.9-.2-1.7-.5-2.4-1-.7-.4-1.3-1-1.8-1.8-.5-.7-.7-1.7-.8-2.8h4.3c.2.6.3 1 .5 1.3zm13.1-7.3c.1-1.1.3-1.9.8-2.7.5-.7 1.1-1.3 1.8-1.7.7-.4 1.5-.7 2.4-.9.9-.2 1.8-.3 2.7-.3.8 0 1.7.1 2.5.2.9.1 1.6.3 2.3.7.7.3 1.3.8 1.7 1.4.4.6.7 1.4.7 2.4v8.6c0 .7 0 1.5.1 2.1.1.7.2 1.2.4 1.5h-4.6c-.1-.3-.2-.5-.2-.8-.1-.3-.1-.5-.1-.8-.7.7-1.6 1.3-2.6 1.6-1 .3-2 .4-3 .4-.8 0-1.5-.1-2.2-.3-.7-.2-1.3-.5-1.8-.9s-.9-.9-1.2-1.5c-.3-.6-.4-1.4-.4-2.2 0-.9.2-1.7.5-2.3.3-.6.8-1.1 1.3-1.5.5-.4 1.1-.6 1.8-.8.7-.2 1.3-.3 2-.4.7-.1 1.4-.2 2-.3.7-.1 1.2-.2 1.8-.3.5-.1.9-.3 1.2-.6.3-.2.4-.6.4-1.1 0-.5-.1-.9-.2-1.2-.2-.3-.4-.5-.6-.7-.3-.2-.6-.3-.9-.3-.4-.1-.7-.1-1.1-.1-.9 0-1.6.2-2.1.6-.5.4-.8 1-.9 1.9h-4.5zm10.5 3.4c-.2.2-.4.3-.7.4s-.6.2-.9.2c-.3.1-.7.1-1 .2-.4 0-.7.1-1.1.2-.3.1-.7.1-1 .3-.3.1-.6.2-.9.4-.2.2-.4.4-.6.7-.1.3-.2.6-.2 1.1 0 .4.1.7.2 1 .1.3.4.5.6.7.3.2.6.3.9.3.3.1.7.1 1.1.1.9 0 1.6-.1 2.1-.4s.9-.7 1.1-1.1c.2-.4.4-.8.4-1.3.1-.4.1-.8.1-1v-1.8zm23.6 9.3c-.2.9-.6 1.6-1.2 2.4-.6.7-1.5 1.4-2.6 1.9s-2.6.8-4.5.8c-.8 0-1.6-.1-2.5-.3-.8-.2-1.6-.5-2.3-.9-.7-.4-1.3-1-1.7-1.6-.5-.7-.7-1.5-.8-2.4h4.5c.2.9.6 1.4 1.2 1.8.6.3 1.3.5 2.1.5 1.3 0 2.2-.4 2.8-1.1.6-.8.9-1.7.8-2.9v-2.2h-.1c-.5.9-1.2 1.5-2.1 1.9-.9.4-1.9.6-2.9.6-1.2 0-2.3-.2-3.2-.7-.9-.4-1.6-1-2.2-1.8-.6-.8-1-1.6-1.3-2.7-.3-1-.4-2.1-.4-3.2s.2-2.1.5-3.1.8-1.9 1.4-2.6c.6-.8 1.3-1.4 2.2-1.8.9-.4 1.9-.7 3.1-.7 1.1 0 2 .2 2.9.6.8.4 1.5 1.1 2.1 2h.1V55h4.3v15.5c.1.6 0 1.3-.2 2.2zm-6.2-5.5c.5-.3.9-.6 1.2-1 .3-.4.6-.9.7-1.5.2-.5.2-1.1.2-1.7 0-.7-.1-1.3-.2-1.9-.1-.6-.3-1.1-.6-1.6s-.7-.8-1.2-1.1c-.5-.3-1.1-.4-1.9-.4-.6 0-1.2.1-1.6.4-.5.3-.8.6-1.2 1-.3.4-.5.9-.7 1.5-.1.6-.2 1.2-.2 1.8 0 .6.1 1.2.2 1.8.1.6.3 1.1.6 1.6s.7.9 1.1 1.1c.5.3 1.1.4 1.8.4.8 0 1.3-.2 1.8-.4zm10.3-14.8v-3.7h4.5v3.7h-4.5zm4.5 2.5v16.5h-4.5V54.9h4.5zm7.9 0v2.3h.1c.6-1 1.3-1.7 2.2-2.1.9-.4 1.9-.7 2.8-.7 1.2 0 2.2.2 3 .5.8.3 1.4.8 1.8 1.4.4.6.8 1.3.9 2.1.2.8.3 1.8.3 2.8v10.2h-4.5v-9.3c0-1.4-.2-2.4-.6-3.1-.4-.7-1.2-1-2.3-1-1.2 0-2.1.4-2.7 1.1-.6.7-.8 1.9-.8 3.6v8.7h-4.5V54.9h4.3zm30.2 17.8c-.2.9-.6 1.6-1.2 2.4-.6.7-1.5 1.4-2.6 1.9s-2.6.8-4.5.8c-.8 0-1.6-.1-2.5-.3-.8-.2-1.6-.5-2.3-.9-.7-.4-1.3-1-1.7-1.6-.5-.7-.7-1.5-.8-2.4h4.5c.2.9.6 1.4 1.2 1.8.6.3 1.3.5 2.1.5 1.3 0 2.2-.4 2.8-1.1.6-.8.9-1.7.8-2.9v-2.2h-.1c-.5.9-1.2 1.5-2.1 1.9-.9.4-1.9.6-2.9.6-1.2 0-2.3-.2-3.2-.7-.9-.4-1.6-1-2.2-1.8-.6-.8-1-1.6-1.3-2.7-.3-1-.4-2.1-.4-3.2s.2-2.1.5-3.1.8-1.9 1.4-2.6c.6-.8 1.3-1.4 2.2-1.8.9-.4 1.9-.7 3.1-.7 1.1 0 2 .2 2.9.6.8.4 1.5 1.1 2.1 2h.1V55h4.3v15.5c.1.6 0 1.3-.2 2.2zm-6.2-5.5c.5-.3.9-.6 1.2-1 .3-.4.6-.9.7-1.5.2-.5.2-1.1.2-1.7 0-.7-.1-1.3-.2-1.9-.1-.6-.3-1.1-.6-1.6s-.7-.8-1.2-1.1c-.5-.3-1.1-.4-1.9-.4-.6 0-1.2.1-1.6.4-.5.3-.8.6-1.2 1-.3.4-.5.9-.7 1.5-.1.6-.2 1.2-.2 1.8 0 .6.1 1.2.2 1.8.1.6.3 1.1.6 1.6s.7.9 1.1 1.1c.5.3 1.1.4 1.8.4.8 0 1.3-.2 1.8-.4zm-16.4 97.7l-7.4-14.8c4.7-16.1-4.6-32.9-20.7-37.6-2.8-.8-5.6-1.2-8.5-1.2h-25.9c-16.7 0-30.3 13.6-30.3 30.3v1.8c-14 6.1-21.3 21.6-17 36.2l-7.4 14.8c-.5 1.2 0 2.5 1.2 3 .2.1.5.2.8.2h.5l14.5-3.2c5.5 4.6 12.4 7.2 19.6 7.2h26c16.7 0 30.3-13.6 30.3-30.3v-1.8c2.7-1.2 5.2-2.7 7.4-4.6l14.5 3.2h.5c1.3-.1 2.2-1.1 2.2-2.4-.1-.3-.2-.5-.3-.8zM94.7 181.7l1.3-2.5c-4-10.1.2-21.7 9.8-26.8 4.5 11.8 15.8 19.6 28.4 19.6h25.9c1.1 0 2.2-.1 3.4-.2-.3 11.7-9.8 21-21.5 21h-26c-5.9 0-11.6-2.5-15.7-6.8l-2.7.6-2.1.5h-.1l-2.3.5-1.5.3.8-1.5 1.1-2.3m89.4-26.3l-2.3-.5h-.1l-2.1-.5-2.7-.6c-1.6 1.7-3.4 3.1-5.5 4.2-2.6 1.4-5.5 2.3-8.5 2.5h-27.6c-11.9 0-21.5-9.6-21.5-21.5v-.5c.3-11.7 9.8-21 21.5-21h26c11.9-.1 21.5 9.5 21.6 21.4 0 2.8-.5 5.6-1.6 8.3l1.3 2.5 1.2 2.3 1.2 2.3.8 1.5-1.7-.4z" fill="#fff"/>
</svg>
