<?xml version="1.0" encoding="utf-8"?>
<!-- Generator: Adobe Illustrator 21.1.0, SVG Export Plug-In . SVG Version: 6.00 Build 0)  -->
<svg version="1.1" id="Layer_1" xmlns="http://www.w3.org/2000/svg" xmlns:xlink="http://www.w3.org/1999/xlink" x="0px" y="0px"
	 viewBox="0 0 277 246" style="enable-background:new 0 0 277 246;" xml:space="preserve">
<style type="text/css">
	.st0{fill:#39B39D;stroke:#37B39D;stroke-width:5;stroke-miterlimit:10;}
	.st1{fill:#FFFFFF;}
	.st2{fill:#3486B0;}
	.st3{fill:#F89823;}
	.st4{fill:#39B39D;}
	.st5{fill:#A5A4A4;}
	.st6{fill:#3486B0;stroke:#3586B0;stroke-width:5;stroke-miterlimit:10;}
	.st7{fill-rule:evenodd;clip-rule:evenodd;fill:#FFFFFF;}
	.st8{fill:#F89823;stroke:#F89824;stroke-width:5;stroke-miterlimit:10;}
	.st9{fill:#676868;}
	.st10{opacity:0.25;clip-path:url(#SVGID_2_);}
	.st11{clip-path:url(#SVGID_4_);}
	.st12{fill:#F8C990;}
	.st13{clip-path:url(#SVGID_6_);fill:#F8C990;}
	.st14{clip-path:url(#SVGID_6_);fill:#FFFFFF;}
	.st15{clip-path:url(#SVGID_6_);}
	.st16{clip-path:url(#SVGID_6_);fill:none;stroke:#FFFFFF;stroke-width:9;stroke-miterlimit:10;}
	.st17{fill:none;}
	.st18{clip-path:url(#SVGID_8_);}
	.st19{clip-path:url(#SVGID_10_);fill:#F8C990;}
	.st20{clip-path:url(#SVGID_10_);fill:#FFFFFF;}
	.st21{clip-path:url(#SVGID_10_);}
	.st22{clip-path:url(#SVGID_10_);fill:none;stroke:#FFFFFF;stroke-width:9;stroke-miterlimit:10;}
	.st23{opacity:0.25;clip-path:url(#SVGID_12_);}
	.st24{clip-path:url(#SVGID_14_);}
</style>
<g>
	<polygon class="st8" points="272.6,122.9 214.1,243 61,243 2.5,122.9 61,2.8 214.1,2.8 	"/>
	<g>
		<path class="st1" d="M41.2,92.5c-1.5,0.9-3.3,1.3-5.5,1.3c-1.7,0-3.3-0.3-4.7-0.9c-1.4-0.6-2.6-1.4-3.5-2.5
			c-1-1.1-1.7-2.3-2.2-3.7c-0.5-1.4-0.8-3-0.8-4.6c0-1.7,0.3-3.3,0.8-4.7s1.2-2.7,2.2-3.8c1-1.1,2.1-1.9,3.5-2.5
			c1.4-0.6,3-0.9,4.7-0.9c1.8,0,3.3,0.3,4.7,0.9c1.4,0.6,2.5,1.5,3.5,2.5c1,1.1,1.7,2.4,2.2,3.8c0.5,1.5,0.8,3,0.8,4.7
			c0,1.7-0.3,3.2-0.8,4.6c-0.5,1.4-1.2,2.7-2.2,3.8l2.8,2.6l-2.3,2.4L41.2,92.5z M40.5,87.2c0.4-0.6,0.8-1.3,1-2.1s0.4-1.9,0.4-3.1
			c0-1-0.1-2-0.3-2.9s-0.6-1.8-1.1-2.5c-0.5-0.7-1.1-1.3-1.9-1.8c-0.8-0.4-1.7-0.7-2.9-0.7s-2.1,0.2-2.9,0.7c-0.8,0.4-1.4,1-1.9,1.7
			c-0.5,0.7-0.8,1.6-1.1,2.5C29.6,80,29.5,81,29.5,82c0,1,0.1,1.9,0.3,2.8c0.2,0.9,0.6,1.7,1.1,2.4c0.5,0.7,1.1,1.3,1.9,1.7
			c0.8,0.4,1.7,0.7,2.9,0.7c0.5,0,0.9,0,1.2-0.1c0.3,0,0.5-0.1,0.8-0.2l-2.1-1.9l2.3-2.5L40.5,87.2z"/>
		<path class="st1" d="M60.9,93.3V91h-0.1c-0.6,1-1.3,1.6-2.2,2.1c-0.9,0.4-1.8,0.6-2.8,0.6c-1.2,0-2.2-0.2-3-0.5
			c-0.8-0.3-1.4-0.8-1.8-1.4c-0.4-0.6-0.8-1.3-0.9-2.1c-0.2-0.8-0.3-1.8-0.3-2.8V76.8h4.5v9.3c0,1.4,0.2,2.4,0.6,3
			c0.4,0.7,1.2,1,2.3,1c1.2,0,2.1-0.4,2.7-1.1c0.6-0.7,0.8-1.9,0.8-3.6v-8.6h4.5v16.5H60.9z"/>
		<path class="st1" d="M73.5,89.3c0.7,0.7,1.7,1,2.9,1c0.9,0,1.7-0.2,2.4-0.7c0.7-0.5,1.1-0.9,1.2-1.4h4c-0.6,2-1.6,3.4-2.9,4.2
			c-1.3,0.8-2.9,1.3-4.8,1.3c-1.3,0-2.5-0.2-3.5-0.6c-1-0.4-1.9-1-2.6-1.8c-0.7-0.8-1.3-1.7-1.7-2.7c-0.4-1.1-0.6-2.2-0.6-3.5
			c0-1.2,0.2-2.4,0.6-3.4c0.4-1.1,1-2,1.7-2.8c0.7-0.8,1.6-1.4,2.7-1.8c1-0.4,2.2-0.7,3.4-0.7c1.4,0,2.6,0.3,3.7,0.8
			c1,0.5,1.9,1.3,2.6,2.2c0.7,0.9,1.2,2,1.4,3.1c0.3,1.2,0.4,2.4,0.3,3.7H72.4C72.5,87.6,72.8,88.7,73.5,89.3z M78.6,80.7
			c-0.5-0.6-1.4-0.9-2.5-0.9c-0.7,0-1.3,0.1-1.8,0.4c-0.5,0.2-0.9,0.5-1.1,0.9c-0.3,0.4-0.5,0.7-0.6,1.1c-0.1,0.4-0.2,0.8-0.2,1.1
			h7.4C79.5,82.1,79.2,81.3,78.6,80.7z"/>
		<path class="st1" d="M90.7,89.2c0.2,0.4,0.5,0.6,0.8,0.9c0.3,0.2,0.7,0.4,1.1,0.5c0.4,0.1,0.8,0.2,1.3,0.2c0.3,0,0.7,0,1-0.1
			c0.4-0.1,0.7-0.2,1-0.3c0.3-0.2,0.5-0.4,0.7-0.6c0.2-0.3,0.3-0.6,0.3-1c0-0.7-0.5-1.2-1.4-1.5c-0.9-0.3-2.2-0.7-3.8-1
			c-0.7-0.1-1.3-0.3-1.9-0.5c-0.6-0.2-1.2-0.5-1.7-0.8c-0.5-0.3-0.9-0.7-1.2-1.2c-0.3-0.5-0.4-1.1-0.4-1.8c0-1.1,0.2-1.9,0.6-2.6
			c0.4-0.7,1-1.2,1.6-1.6c0.7-0.4,1.4-0.7,2.3-0.8s1.7-0.2,2.6-0.2s1.8,0.1,2.6,0.3c0.8,0.2,1.6,0.5,2.2,0.9
			c0.7,0.4,1.2,0.9,1.6,1.6c0.4,0.7,0.7,1.5,0.8,2.5h-4.3c-0.1-0.9-0.4-1.5-1-1.8c-0.6-0.3-1.3-0.5-2.1-0.5c-0.3,0-0.5,0-0.8,0
			c-0.3,0-0.6,0.1-0.8,0.2c-0.2,0.1-0.5,0.3-0.6,0.5c-0.2,0.2-0.3,0.5-0.3,0.8c0,0.4,0.1,0.7,0.4,1c0.3,0.3,0.7,0.5,1.2,0.6
			c0.5,0.2,1,0.3,1.6,0.4c0.6,0.1,1.2,0.3,1.9,0.4c0.7,0.1,1.3,0.3,1.9,0.5c0.6,0.2,1.2,0.5,1.7,0.8c0.5,0.3,0.9,0.8,1.2,1.3
			c0.3,0.5,0.4,1.2,0.4,1.9c0,1.1-0.2,2-0.7,2.7c-0.4,0.7-1,1.3-1.7,1.8c-0.7,0.4-1.5,0.8-2.4,0.9c-0.9,0.2-1.8,0.3-2.8,0.3
			c-1,0-1.9-0.1-2.8-0.3c-0.9-0.2-1.7-0.5-2.4-1c-0.7-0.4-1.3-1-1.8-1.8c-0.5-0.7-0.7-1.6-0.7-2.8h4.3
			C90.4,88.4,90.5,88.8,90.7,89.2z"/>
		<path class="st1" d="M113.1,76.8v3h-3.3V88c0,0.8,0.1,1.3,0.4,1.5c0.3,0.3,0.8,0.4,1.5,0.4c0.3,0,0.5,0,0.7,0
			c0.2,0,0.5-0.1,0.7-0.1v3.5c-0.4,0.1-0.8,0.1-1.3,0.1c-0.5,0-0.9,0-1.4,0c-0.7,0-1.4,0-2-0.1c-0.6-0.1-1.2-0.3-1.7-0.6
			c-0.5-0.3-0.9-0.7-1.1-1.2c-0.3-0.5-0.4-1.2-0.4-2v-9.7h-2.7v-3h2.7v-4.9h4.5v4.9H113.1z"/>
		<path class="st1" d="M115.4,74.3v-3.7h4.5v3.7H115.4z M119.9,76.8v16.5h-4.5V76.8H119.9z"/>
		<path class="st1" d="M123.5,81.5c0.4-1.1,1-2,1.7-2.7s1.6-1.3,2.7-1.8c1-0.4,2.2-0.6,3.5-0.6s2.5,0.2,3.5,0.6
			c1.1,0.4,1.9,1,2.7,1.8c0.7,0.8,1.3,1.7,1.7,2.7c0.4,1.1,0.6,2.3,0.6,3.6c0,1.3-0.2,2.5-0.6,3.6c-0.4,1.1-1,2-1.7,2.7
			c-0.7,0.8-1.6,1.3-2.7,1.7c-1,0.4-2.2,0.6-3.5,0.6s-2.5-0.2-3.5-0.6c-1-0.4-1.9-1-2.7-1.7c-0.7-0.8-1.3-1.7-1.7-2.7
			c-0.4-1.1-0.6-2.2-0.6-3.6C122.9,83.7,123.1,82.6,123.5,81.5z M127.6,87c0.1,0.6,0.3,1.2,0.7,1.7c0.3,0.5,0.7,0.9,1.2,1.2
			c0.5,0.3,1.1,0.4,1.9,0.4c0.8,0,1.4-0.1,1.9-0.4c0.5-0.3,0.9-0.7,1.2-1.2c0.3-0.5,0.5-1.1,0.7-1.7c0.1-0.6,0.2-1.3,0.2-1.9
			c0-0.7-0.1-1.3-0.2-1.9c-0.1-0.6-0.3-1.2-0.7-1.7c-0.3-0.5-0.7-0.9-1.2-1.2c-0.5-0.3-1.2-0.5-1.9-0.5c-0.8,0-1.4,0.2-1.9,0.5
			c-0.5,0.3-0.9,0.7-1.2,1.2c-0.3,0.5-0.5,1.1-0.7,1.7c-0.1,0.6-0.2,1.3-0.2,1.9C127.5,85.7,127.5,86.4,127.6,87z"/>
		<path class="st1" d="M147.2,76.8v2.3h0.1c0.6-1,1.3-1.6,2.2-2.1c0.9-0.4,1.8-0.7,2.8-0.7c1.2,0,2.2,0.2,3,0.5
			c0.8,0.3,1.4,0.8,1.8,1.4c0.4,0.6,0.8,1.3,0.9,2.1s0.3,1.8,0.3,2.8v10.1h-4.5V84c0-1.4-0.2-2.4-0.6-3c-0.4-0.7-1.2-1-2.3-1
			c-1.2,0-2.1,0.4-2.7,1.1c-0.6,0.7-0.8,1.9-0.8,3.6v8.6h-4.5V76.8H147.2z"/>
		<path class="st1" d="M166.1,76.8v2.3h0.1c0.6-1,1.3-1.6,2.2-2.1c0.9-0.4,1.8-0.7,2.8-0.7c1.2,0,2.2,0.2,3,0.5
			c0.8,0.3,1.4,0.8,1.8,1.4c0.4,0.6,0.8,1.3,0.9,2.1s0.3,1.8,0.3,2.8v10.1h-4.5V84c0-1.4-0.2-2.4-0.6-3c-0.4-0.7-1.2-1-2.3-1
			c-1.2,0-2.1,0.4-2.7,1.1c-0.6,0.7-0.8,1.9-0.8,3.6v8.6h-4.5V76.8H166.1z"/>
		<path class="st1" d="M180.4,81.9c0.1-1.1,0.3-1.9,0.8-2.6c0.5-0.7,1.1-1.3,1.8-1.7c0.7-0.4,1.5-0.7,2.4-0.9
			c0.9-0.2,1.8-0.3,2.7-0.3c0.8,0,1.7,0.1,2.5,0.2c0.8,0.1,1.6,0.3,2.3,0.7c0.7,0.3,1.3,0.8,1.7,1.4c0.4,0.6,0.7,1.4,0.7,2.4v8.6
			c0,0.7,0,1.5,0.1,2.1s0.2,1.2,0.4,1.5h-4.6c-0.1-0.3-0.2-0.5-0.2-0.8c-0.1-0.3-0.1-0.5-0.1-0.8c-0.7,0.7-1.6,1.3-2.5,1.6
			c-1,0.3-2,0.4-3,0.4c-0.8,0-1.5-0.1-2.2-0.3c-0.7-0.2-1.3-0.5-1.8-0.9c-0.5-0.4-0.9-0.9-1.2-1.5c-0.3-0.6-0.4-1.3-0.4-2.2
			c0-0.9,0.2-1.7,0.5-2.3c0.3-0.6,0.8-1.1,1.3-1.4c0.5-0.4,1.1-0.6,1.8-0.8c0.7-0.2,1.3-0.3,2-0.4c0.7-0.1,1.3-0.2,2-0.3
			s1.2-0.2,1.8-0.3s0.9-0.3,1.2-0.6c0.3-0.2,0.4-0.6,0.4-1.1c0-0.5-0.1-0.9-0.2-1.2c-0.2-0.3-0.4-0.5-0.6-0.7
			c-0.3-0.2-0.6-0.3-0.9-0.3c-0.3-0.1-0.7-0.1-1.1-0.1c-0.9,0-1.6,0.2-2.1,0.6s-0.8,1-0.9,1.9H180.4z M190.9,85.2
			c-0.2,0.2-0.4,0.3-0.7,0.4c-0.3,0.1-0.6,0.2-0.9,0.2s-0.7,0.1-1,0.2c-0.4,0-0.7,0.1-1.1,0.2c-0.3,0.1-0.7,0.1-1,0.3
			c-0.3,0.1-0.6,0.2-0.9,0.4c-0.2,0.2-0.4,0.4-0.6,0.7c-0.1,0.3-0.2,0.6-0.2,1.1c0,0.4,0.1,0.7,0.2,1c0.1,0.3,0.4,0.5,0.6,0.7
			c0.3,0.2,0.6,0.3,0.9,0.3c0.3,0.1,0.7,0.1,1.1,0.1c0.9,0,1.6-0.1,2.1-0.4c0.5-0.3,0.8-0.7,1.1-1.1c0.2-0.4,0.4-0.8,0.4-1.3
			c0.1-0.4,0.1-0.8,0.1-1V85.2z"/>
		<path class="st1" d="M199,74.3v-3.7h4.5v3.7H199z M203.5,76.8v16.5H199V76.8H203.5z"/>
		<path class="st1" d="M211.4,76.8v3.1h0.1c0.2-0.5,0.5-1,0.9-1.4c0.4-0.4,0.8-0.8,1.2-1.1c0.5-0.3,1-0.5,1.5-0.7s1.1-0.3,1.7-0.3
			c0.3,0,0.6,0.1,1,0.2v4.2c-0.2,0-0.5-0.1-0.8-0.1c-0.3,0-0.6,0-0.9,0c-0.8,0-1.5,0.1-2.1,0.4c-0.6,0.3-1,0.7-1.4,1.1
			s-0.6,1-0.7,1.7c-0.1,0.6-0.2,1.3-0.2,2.1v7.4h-4.5V76.8H211.4z"/>
		<path class="st1" d="M223.8,89.3c0.7,0.7,1.7,1,2.9,1c0.9,0,1.7-0.2,2.4-0.7c0.7-0.5,1.1-0.9,1.2-1.4h4c-0.6,2-1.6,3.4-2.9,4.2
			c-1.3,0.8-2.9,1.3-4.8,1.3c-1.3,0-2.5-0.2-3.5-0.6c-1-0.4-1.9-1-2.6-1.8c-0.7-0.8-1.3-1.7-1.7-2.7c-0.4-1.1-0.6-2.2-0.6-3.5
			c0-1.2,0.2-2.4,0.6-3.4c0.4-1.1,1-2,1.7-2.8c0.7-0.8,1.6-1.4,2.7-1.8c1-0.4,2.2-0.7,3.4-0.7c1.4,0,2.6,0.3,3.7,0.8
			c1,0.5,1.9,1.3,2.6,2.2c0.7,0.9,1.2,2,1.4,3.1c0.3,1.2,0.4,2.4,0.3,3.7h-11.9C222.7,87.6,223.1,88.7,223.8,89.3z M228.9,80.7
			c-0.5-0.6-1.4-0.9-2.5-0.9c-0.7,0-1.3,0.1-1.8,0.4c-0.5,0.2-0.9,0.5-1.1,0.9c-0.3,0.4-0.5,0.7-0.6,1.1c-0.1,0.4-0.2,0.8-0.2,1.1
			h7.4C229.8,82.1,229.4,81.3,228.9,80.7z"/>
		<path class="st1" d="M241,89.2c0.2,0.4,0.5,0.6,0.8,0.9c0.3,0.2,0.7,0.4,1.1,0.5c0.4,0.1,0.8,0.2,1.3,0.2c0.3,0,0.7,0,1-0.1
			c0.4-0.1,0.7-0.2,1-0.3c0.3-0.2,0.5-0.4,0.7-0.6c0.2-0.3,0.3-0.6,0.3-1c0-0.7-0.5-1.2-1.4-1.5c-0.9-0.3-2.2-0.7-3.8-1
			c-0.7-0.1-1.3-0.3-1.9-0.5c-0.6-0.2-1.2-0.5-1.7-0.8c-0.5-0.3-0.9-0.7-1.2-1.2c-0.3-0.5-0.4-1.1-0.4-1.8c0-1.1,0.2-1.9,0.6-2.6
			c0.4-0.7,1-1.2,1.6-1.6c0.7-0.4,1.4-0.7,2.3-0.8s1.7-0.2,2.6-0.2s1.8,0.1,2.6,0.3c0.8,0.2,1.6,0.5,2.2,0.9
			c0.7,0.4,1.2,0.9,1.6,1.6c0.4,0.7,0.7,1.5,0.8,2.5h-4.3c-0.1-0.9-0.4-1.5-1-1.8c-0.6-0.3-1.3-0.5-2.1-0.5c-0.3,0-0.5,0-0.8,0
			c-0.3,0-0.6,0.1-0.8,0.2c-0.2,0.1-0.5,0.3-0.6,0.5c-0.2,0.2-0.3,0.5-0.3,0.8c0,0.4,0.1,0.7,0.4,1c0.3,0.3,0.7,0.5,1.2,0.6
			c0.5,0.2,1,0.3,1.6,0.4c0.6,0.1,1.2,0.3,1.9,0.4c0.7,0.1,1.3,0.3,1.9,0.5c0.6,0.2,1.2,0.5,1.7,0.8c0.5,0.3,0.9,0.8,1.2,1.3
			c0.3,0.5,0.4,1.2,0.4,1.9c0,1.1-0.2,2-0.7,2.7c-0.4,0.7-1,1.3-1.7,1.8c-0.7,0.4-1.5,0.8-2.4,0.9c-0.9,0.2-1.8,0.3-2.8,0.3
			c-1,0-1.9-0.1-2.8-0.3c-0.9-0.2-1.7-0.5-2.4-1c-0.7-0.4-1.3-1-1.8-1.8c-0.5-0.7-0.7-1.6-0.7-2.8h4.3
			C240.7,88.4,240.8,88.8,241,89.2z"/>
	</g>
	<g>
		<path class="st1" d="M172.5,143.8L151.8,123l-1.8-1.8h-49.2v102.9h73.6v-78.5L172.5,143.8z M106.9,217.9v-90.5h35
			c9.2,0,4.8,21.8,4.8,21.8s21.2-5.2,21.5,4.6c0,16.6,0,64.2,0,64.2H106.9z"/>
		<g>
			<polygon class="st1" points="117.8,171.3 117.8,159.1 157.3,159.1 157.3,171.3 117.8,171.3 			"/>
		</g>
		<g>
			<polygon class="st1" points="117.8,190.6 117.8,178.4 157.3,178.4 157.3,190.6 117.8,190.6 			"/>
		</g>
		<g>
			<polygon class="st1" points="117.8,209.9 117.8,197.6 157.3,197.6 157.3,209.9 117.8,209.9 			"/>
		</g>
	</g>
</g>
</svg>
