<svg xmlns="http://www.w3.org/2000/svg" width="276.7" height="246.1">
  <style>
    .st2{fill:#fff}
  </style>
  <path fill="#f89823" stroke="#f89824" stroke-width="5" stroke-miterlimit="10" d="M273.9 123l-58.8 120.6H61.5L2.8 123 61.5 2.5h153.6z"/>
  <path class="st2" d="M59.5 75.4c.3.5.6 1 1.1 1.3.5.3 1 .6 1.6.7.6.2 1.3.2 1.9.2.4 0 .9 0 1.4-.1.5-.1 1-.2 1.4-.4s.8-.5 1.1-.9.4-.8.4-1.4c0-.6-.2-1.1-.6-1.5-.4-.4-.9-.7-1.5-1-.6-.3-1.4-.5-2.2-.7-.8-.2-1.6-.4-2.5-.6-.9-.2-1.7-.5-2.5-.8s-1.5-.7-2.2-1.2c-.6-.5-1.2-1.1-1.5-1.8-.4-.7-.6-1.6-.6-2.7 0-1.2.2-2.2.8-3.1.5-.9 1.2-1.6 2-2.2.8-.6 1.7-1 2.7-1.3 1-.3 2-.4 3.1-.4 1.2 0 2.3.1 3.4.4 1.1.3 2.1.7 2.9 1.3.9.6 1.5 1.4 2 2.3.5.9.8 2 .8 3.4h-4.9c0-.7-.2-1.2-.4-1.7-.2-.4-.6-.8-1-1.1-.2-.1-.7-.2-1.2-.4-.5-.1-1.1-.2-1.7-.2-.4 0-.8 0-1.2.1-.4.1-.8.2-1.1.4-.3.2-.6.5-.8.8-.2.3-.3.7-.3 1.2 0 .4.1.8.3 1.1.2.3.5.5 1 .8.5.2 1.2.5 2.1.7.9.2 2 .5 3.5.9.4.1 1 .2 1.8.5s1.5.6 2.3 1.1c.7.5 1.4 1.1 1.9 2s.8 1.9.8 3.1c0 1-.2 2-.6 2.9-.4.9-1 1.7-1.8 2.3-.8.6-1.8 1.2-3 1.5-1.2.4-2.5.5-4.1.5-1.3 0-2.5-.2-3.7-.5-1.2-.3-2.2-.8-3.1-1.5-.9-.7-1.6-1.5-2.2-2.5-.5-1-.8-2.2-.8-3.6h4.9c-.1.9 0 1.6.3 2.1zm24.3-7.9c-.7 0-1.3.2-1.8.5s-.9.8-1.2 1.3c-.3.5-.5 1.1-.7 1.7-.1.6-.2 1.3-.2 1.9 0 .6.1 1.2.2 1.8.1.6.3 1.2.6 1.7s.7.9 1.2 1.2c.5.3 1.1.5 1.8.5 1.1 0 1.9-.3 2.5-.9.6-.6 1-1.4 1.1-2.4h4.4c-.3 2.2-1.1 3.9-2.6 5-1.4 1.1-3.2 1.7-5.4 1.7-1.2 0-2.4-.2-3.4-.6-1-.4-1.9-1-2.6-1.7-.7-.7-1.3-1.6-1.7-2.7-.4-1-.6-2.2-.6-3.4 0-1.3.2-2.5.6-3.6.4-1.1.9-2 1.6-2.8.7-.8 1.6-1.4 2.7-1.9 1-.4 2.2-.7 3.6-.7 1 0 1.9.1 2.8.4.9.3 1.7.6 2.4 1.2.7.5 1.3 1.2 1.7 1.9s.7 1.7.8 2.8h-4.4c-.3-2-1.5-2.9-3.4-2.9zm15-9.3v8.6h.1c.6-1 1.3-1.7 2.2-2.1.9-.4 1.8-.7 2.6-.7 1.2 0 2.2.2 3 .5.8.3 1.4.8 1.8 1.4.4.6.8 1.3.9 2.1.2.8.3 1.8.3 2.8V81h-4.5v-9.3c0-1.4-.2-2.4-.6-3.1-.4-.7-1.2-1-2.3-1-1.2 0-2.1.4-2.7 1.1-.6.7-.8 1.9-.8 3.6V81h-4.5V58.2h4.5zM118 77.1c.7.7 1.7 1 2.9 1 .9 0 1.7-.2 2.4-.7.7-.5 1.1-.9 1.2-1.5h4c-.6 2-1.6 3.4-2.9 4.2-1.3.9-2.9 1.3-4.8 1.3-1.3 0-2.5-.2-3.5-.6-1-.4-1.9-1-2.7-1.8-.7-.8-1.3-1.7-1.7-2.7-.4-1.1-.6-2.2-.6-3.5 0-1.2.2-2.4.6-3.4s1-2 1.7-2.8c.7-.8 1.6-1.4 2.7-1.8 1-.4 2.2-.7 3.4-.7 1.4 0 2.6.3 3.7.8 1 .5 1.9 1.3 2.6 2.2.7.9 1.2 2 1.5 3.1.3 1.2.4 2.4.3 3.7h-11.9c.1 1.5.5 2.5 1.1 3.2zm5.2-8.7c-.5-.6-1.4-.9-2.5-.9-.7 0-1.3.1-1.8.4-.5.2-.9.5-1.1.9-.3.4-.5.7-.6 1.1-.1.4-.2.8-.2 1.1h7.4c-.3-1.1-.7-2-1.2-2.6zm20.1 10.5c-.5.9-1.2 1.5-2.1 1.9-.9.4-1.8.6-2.9.6-1.2 0-2.3-.2-3.3-.7-.9-.5-1.7-1.1-2.3-1.9-.6-.8-1.1-1.8-1.4-2.8-.3-1.1-.5-2.2-.5-3.3 0-1.1.2-2.2.5-3.2s.8-1.9 1.4-2.7c.6-.8 1.4-1.4 2.3-1.9.9-.5 2-.7 3.2-.7 1 0 1.9.2 2.8.6.9.4 1.6 1 2.1 1.8h.1v-8.3h4.5V81h-4.3l-.1-2.1zm-.2-8.1c-.1-.6-.3-1.2-.7-1.7s-.7-.9-1.2-1.2c-.5-.3-1.1-.4-1.9-.4-.7 0-1.4.1-1.9.4-.5.3-.9.7-1.2 1.2-.3.5-.5 1-.7 1.7-.1.6-.2 1.3-.2 2 0 .6.1 1.3.2 1.9.1.6.4 1.2.7 1.7.3.5.7.9 1.2 1.2.5.3 1.1.5 1.8.5s1.4-.1 1.9-.4c.5-.3.9-.7 1.2-1.2.3-.5.5-1.1.6-1.7.1-.6.2-1.3.2-2 .2-.7.1-1.4 0-2zM162.2 81v-2.3h-.1c-.6 1-1.3 1.7-2.2 2.1s-1.9.6-2.8.6c-1.2 0-2.2-.2-3-.5s-1.4-.8-1.8-1.4c-.4-.6-.8-1.3-.9-2.1s-.3-1.8-.3-2.8V64.5h4.5v9.3c0 1.4.2 2.4.6 3.1.4.7 1.2 1 2.3 1 1.2 0 2.1-.4 2.7-1.1.6-.7.8-1.9.8-3.6v-8.7h4.5V81h-4.3zm12.5-22.8V81h-4.5V58.2h4.5zm3.7 3.8v-3.7h4.5V62h-4.5zm4.5 2.5V81h-4.5V64.5h4.5zm7.9 0v2.3h.1c.6-1 1.3-1.7 2.2-2.1.9-.4 1.9-.7 2.8-.7 1.2 0 2.2.2 3 .5.8.3 1.4.8 1.8 1.4.4.6.8 1.3.9 2.1.2.8.3 1.8.3 2.8V81h-4.5v-9.3c0-1.4-.2-2.4-.6-3.1-.4-.7-1.2-1-2.3-1-1.2 0-2.1.4-2.7 1.1-.6.7-.8 1.9-.8 3.6V81h-4.5V64.5h4.3zM221 82.3c-.2.9-.6 1.6-1.2 2.4-.6.7-1.5 1.4-2.6 1.9s-2.6.8-4.5.8c-.8 0-1.6-.1-2.5-.3-.8-.2-1.6-.5-2.3-.9-.7-.4-1.3-1-1.7-1.6-.5-.7-.7-1.5-.8-2.4h4.5c.2.9.6 1.4 1.2 1.8.6.3 1.3.5 2.1.5 1.3 0 2.2-.4 2.8-1.1.6-.8.9-1.7.8-2.9V78h-.1c-.5.9-1.2 1.5-2.1 1.9-.9.4-1.9.6-2.9.6-1.2 0-2.3-.2-3.2-.7s-1.6-1-2.2-1.8c-.6-.8-1-1.6-1.3-2.7-.3-1-.4-2.1-.4-3.2s.2-2.1.5-3.1.8-1.9 1.4-2.6c.6-.8 1.3-1.4 2.2-1.8s1.9-.7 3.1-.7c1.1 0 2 .2 2.9.6.8.4 1.5 1.1 2.1 2h.1v-2.2h4.3V80c.1.6 0 1.4-.2 2.3zm-6.2-5.5c.5-.3.9-.6 1.2-1 .3-.4.6-.9.7-1.5.2-.5.2-1.1.2-1.7 0-.7-.1-1.3-.2-1.9-.1-.6-.3-1.1-.6-1.6s-.7-.8-1.2-1.1c-.5-.3-1.1-.4-1.9-.4-.6 0-1.2.1-1.6.4-.5.3-.8.6-1.2 1s-.5.9-.7 1.5c-.1.6-.2 1.2-.2 1.8 0 .6.1 1.2.2 1.8.1.6.3 1.1.6 1.6s.7.9 1.1 1.1c.5.3 1.1.4 1.8.4.8-.1 1.3-.2 1.8-.4zm-38.4 29.9v7.4c.2 2.8-1.9 5.2-4.7 5.3s-5.2-1.9-5.3-4.7v-8.1h10zm-64.8 0v7.4c.2 2.8-1.9 5.2-4.7 5.3-2.8.2-5.2-1.9-5.3-4.7v-8.1h10z"/>
  <path class="st2" d="M178.4 114.3h-.7c0 3.6-2.9 6.5-6.5 6.5s-6.5-2.9-6.5-6.5H113c0 3.6-2.9 6.5-6.5 6.5s-6.5-2.9-6.5-6.5h-.5c-3.6.2-6.4 3.2-6.3 6.8v74c-.1 3.6 2.7 6.7 6.3 6.8h78.9c3.6-.2 6.4-3.2 6.3-6.8v-74c.2-3.6-2.6-6.6-6.3-6.8zm-1.4 77.2h-75.8v-62.3H177v62.3z"/>
  <path class="st2" d="M130.2 140.3h17.9v17.9h-17.9zm21.7 0h17.9v17.9h-17.9zm-22 22.9h17.9v17.9h-17.9zm-22.1 0h17.9v17.9h-17.9zm44.1 0h17.9v17.9h-17.9z"/>
</svg>
