<svg xmlns="http://www.w3.org/2000/svg" width="276.7" height="246.1">
  <style>
    .st1{enable-background:new}.st2{fill:#fff}
  </style>
  <path fill="#f89823" stroke="#f89824" stroke-width="5" stroke-miterlimit="10" d="M273.9 123l-58.8 120.6H61.5L2.8 123 61.5 2.5h153.6z"/>
  <g class="st1">
    <path class="st2" d="M102.9 63.3l-7.4-22.8h5.1l5.1 16h.1l5.1-16h5.2l-7.6 22.8h-5.6z"/>
  </g>
  <g class="st1">
    <path class="st2" d="M117.2 44.2v-3.7h4.5v3.7h-4.5zm4.5 2.6v16.5h-4.5V46.8h4.5zM137 61.2c-.5.9-1.2 1.5-2.1 1.9-.9.4-1.8.6-2.9.6-1.2 0-2.3-.2-3.3-.7-.9-.5-1.7-1.1-2.3-1.9-.6-.8-1.1-1.8-1.4-2.8-.3-1.1-.5-2.2-.5-3.3 0-1.1.2-2.2.5-3.2s.8-1.9 1.4-2.7c.6-.8 1.4-1.4 2.3-1.9.9-.5 2-.7 3.2-.7 1 0 1.9.2 2.8.6.9.4 1.6 1 2.1 1.8h.1v-8.3h4.5v22.8h-4.3l-.1-2.2zm-.2-8.2c-.1-.6-.3-1.2-.7-1.7-.3-.5-.7-.9-1.2-1.2-.5-.3-1.1-.4-1.9-.4s-1.4.1-1.9.4c-.5.3-.9.7-1.2 1.2-.3.5-.5 1-.7 1.7-.1.6-.2 1.3-.2 2 0 .6.1 1.3.2 1.9.1.6.4 1.2.7 1.7.3.5.7.9 1.2 1.2.5.3 1.1.5 1.8.5s1.4-.1 1.9-.4c.5-.3.9-.7 1.2-1.2.3-.5.5-1.1.6-1.7.1-.6.2-1.3.2-2 .2-.7.1-1.4 0-2zm12.9 6.3c.7.7 1.7 1 2.9 1 .9 0 1.7-.2 2.4-.7.7-.5 1.1-.9 1.2-1.5h4c-.6 2-1.6 3.4-2.9 4.2-1.3.9-2.9 1.3-4.8 1.3-1.3 0-2.5-.2-3.5-.6-1-.4-1.9-1-2.7-1.8-.7-.8-1.3-1.7-1.7-2.7-.4-1.1-.6-2.2-.6-3.5 0-1.2.2-2.4.6-3.4.4-1.1 1-2 1.7-2.8.7-.8 1.6-1.4 2.7-1.8 1-.4 2.2-.7 3.4-.7 1.4 0 2.6.3 3.7.8 1 .5 1.9 1.3 2.6 2.2s1.2 2 1.5 3.1c.3 1.2.4 2.4.3 3.7h-11.9c0 1.5.4 2.6 1.1 3.2zm5.1-8.7c-.5-.6-1.4-.9-2.5-.9-.7 0-1.3.1-1.8.4-.5.2-.9.6-1.1.9-.3.4-.5.7-.6 1.1-.1.4-.2.8-.2 1.1h7.4c-.3-1.1-.7-2-1.2-2.6zm8.4.8c.4-1.1 1-2 1.7-2.7.7-.8 1.6-1.3 2.7-1.8 1-.4 2.2-.6 3.5-.6s2.5.2 3.5.6c1.1.4 2 1 2.7 1.8.7.8 1.3 1.7 1.7 2.7.4 1.1.6 2.3.6 3.6 0 1.3-.2 2.5-.6 3.6-.4 1.1-1 2-1.7 2.7-.7.8-1.6 1.3-2.7 1.7-1.1.4-2.2.6-3.5.6s-2.5-.2-3.5-.6c-1-.4-1.9-1-2.7-1.7-.7-.8-1.3-1.7-1.7-2.7-.4-1.1-.6-2.3-.6-3.6 0-1.3.2-2.5.6-3.6zm4.2 5.6c.1.6.3 1.2.7 1.7.3.5.7.9 1.2 1.2.5.3 1.1.4 1.9.4s1.4-.1 1.9-.4c.5-.3.9-.7 1.2-1.2.3-.5.5-1.1.7-1.7.1-.6.2-1.3.2-1.9 0-.7-.1-1.3-.2-1.9-.1-.6-.3-1.2-.7-1.7-.3-.5-.7-.9-1.2-1.2-.5-.3-1.2-.5-1.9-.5s-1.4.2-1.9.5-.9.7-1.2 1.2c-.3.5-.5 1.1-.7 1.7-.1.6-.2 1.3-.2 1.9 0 .6 0 1.2.2 1.9z"/>
  </g>
  <g class="st1">
    <path class="st2" d="M119.1 84.9c-.3-.5-.7-.9-1.1-1.3-.4-.4-1-.6-1.5-.8-.6-.2-1.2-.3-1.8-.3-1.1 0-2.1.2-2.9.7-.8.4-1.4 1-1.9 1.8-.5.7-.8 1.6-1.1 2.5-.2.9-.3 1.9-.3 2.9s.1 1.9.3 2.8c.2.9.6 1.7 1.1 2.4.5.7 1.1 1.3 1.9 1.7.8.4 1.7.7 2.9.7 1.5 0 2.7-.5 3.6-1.4.9-.9 1.4-2.2 1.6-3.7h4.9c-.1 1.4-.5 2.7-1 3.9-.5 1.1-1.2 2.1-2.1 2.9-.9.8-1.9 1.4-3.1 1.9-1.2.4-2.5.6-3.9.6-1.7 0-3.3-.3-4.7-.9-1.4-.6-2.6-1.4-3.5-2.5-1-1.1-1.7-2.3-2.2-3.8-.5-1.4-.8-3-.8-4.6 0-1.7.3-3.3.8-4.7.5-1.5 1.2-2.7 2.2-3.8 1-1.1 2.1-1.9 3.5-2.6 1.4-.6 3-.9 4.7-.9 1.3 0 2.4.2 3.6.5 1.1.4 2.1.9 3 1.6.9.7 1.6 1.5 2.2 2.6.6 1 .9 2.2 1.1 3.5h-4.9c-.1-.7-.3-1.2-.6-1.7zm13.1-6.1v8.6h.1c.6-1 1.3-1.7 2.2-2.1.9-.4 1.8-.7 2.6-.7 1.2 0 2.2.2 3 .5.8.3 1.4.8 1.8 1.4.4.6.8 1.3.9 2.1.2.8.3 1.8.3 2.8v10.2h-4.5v-9.3c0-1.4-.2-2.4-.6-3.1-.4-.7-1.2-1-2.3-1-1.2 0-2.1.4-2.7 1.1-.6.7-.8 1.9-.8 3.6v8.7h-4.5V78.8h4.5zm14.2 11.4c.1-1.1.3-1.9.8-2.7.5-.7 1.1-1.3 1.8-1.7.7-.4 1.5-.7 2.4-.9.9-.2 1.8-.3 2.7-.3.8 0 1.7.1 2.5.2.9.1 1.6.3 2.3.7.7.3 1.3.8 1.7 1.4.4.6.7 1.4.7 2.4v8.6c0 .7 0 1.5.1 2.1.1.7.2 1.2.4 1.5h-4.6c-.1-.3-.2-.5-.2-.8-.1-.3-.1-.5-.1-.8-.7.7-1.6 1.3-2.6 1.6-1 .3-2 .4-3 .4-.8 0-1.5-.1-2.2-.3s-1.3-.5-1.8-.9-.9-.9-1.2-1.5c-.3-.6-.4-1.4-.4-2.2 0-.9.2-1.7.5-2.3.3-.6.8-1.1 1.3-1.5.5-.4 1.1-.6 1.8-.8.7-.2 1.3-.3 2-.4s1.4-.2 2-.3c.7-.1 1.2-.2 1.8-.3.5-.1.9-.3 1.2-.6.3-.2.4-.6.4-1.1 0-.5-.1-.9-.2-1.2-.2-.3-.4-.5-.6-.7-.3-.2-.6-.3-.9-.3-.4-.1-.7-.1-1.1-.1-.9 0-1.6.2-2.1.6-.5.4-.8 1-.9 1.9h-4.5zm10.5 3.3c-.2.2-.4.3-.7.4-.3.1-.6.2-.9.2-.3.1-.7.1-1 .2-.4 0-.7.1-1.1.2-.3.1-.7.1-1 .3-.3.1-.6.2-.9.4-.2.2-.4.4-.6.7-.1.3-.2.6-.2 1.1 0 .4.1.7.2 1 .1.3.4.5.6.7.3.2.6.3.9.3.3.1.7.1 1.1.1.9 0 1.6-.1 2.1-.4.5-.3.9-.7 1.1-1.1.2-.4.4-.8.4-1.3.1-.4.1-.8.1-1v-1.8zm17.1-8.4v3h-3.3v8.2c0 .8.1 1.3.4 1.5.3.3.8.4 1.5.4h.7c.2 0 .5-.1.7-.1v3.5c-.4.1-.8.1-1.3.1h-1.4c-.7 0-1.4 0-2-.1-.6-.1-1.2-.3-1.7-.6s-.9-.7-1.1-1.2c-.3-.5-.4-1.2-.4-2v-9.7h-2.7v-3h2.7v-5h4.5v5h3.4z"/>
  </g>
  <path class="st2" d="M185.7 129H88.8c-4.3 0-7.8 3.5-7.8 7.8V203c0 4.3 3.5 7.8 7.8 7.8h25.1v7.4h45.7v-7.4h26.1c4.3 0 7.8-3.5 7.8-7.8v-66.2c0-4.3-3.5-7.8-7.8-7.8zm-1.2 72.9H90V138h94.5v63.9z"/>
  <path class="st2" d="M165.4 198.5h-57.9c0-10.3 13-18.7 29-18.7s28.9 8.3 28.9 18.7z"/>
  <circle class="st2" cx="137.3" cy="161.7" r="14.5"/>
</svg>
