<svg xmlns="http://www.w3.org/2000/svg" width="276.7" height="246.1">
  <style>
    .st1{enable-background:new}.st2{fill:#fff}
  </style>
  <path fill="#39b39d" stroke="#37b39d" stroke-width="5" stroke-miterlimit="10" d="M273.9 123l-58.8 120.6H61.5L2.8 123 61.5 2.5h153.6z"/>
  <g class="st1">
    <path class="st2" d="M76.5 19.5c-.3-.5-.7-.9-1.1-1.3-.4-.4-1-.6-1.5-.8s-1.2-.3-1.8-.3c-1.1 0-2.1.2-2.9.7-.8.4-1.4 1-1.9 1.8s-.8 1.6-1.1 2.5c-.2.9-.3 1.9-.3 2.9s.1 1.9.3 2.8c.2.9.6 1.7 1.1 2.4.5.7 1.1 1.3 1.9 1.7.8.4 1.7.7 2.9.7 1.5 0 2.7-.5 3.6-1.4.9-.9 1.4-2.2 1.6-3.7h4.9c-.1 1.4-.5 2.7-1 3.9-.5 1.1-1.2 2.1-2.1 2.9-.9.8-1.9 1.4-3.1 1.9-1.2.4-2.5.6-3.9.6-1.7 0-3.3-.3-4.7-.9-1.4-.6-2.6-1.4-3.5-2.5-1-1.1-1.7-2.3-2.2-3.8-.5-1.4-.8-3-.8-4.6 0-1.7.3-3.3.8-4.7.5-1.5 1.2-2.7 2.2-3.8s2.1-1.9 3.5-2.6c1.4-.6 3-.9 4.7-.9 1.3 0 2.4.2 3.6.5 1.1.4 2.1.9 3 1.6.9.7 1.6 1.5 2.2 2.6.6 1 .9 2.2 1.1 3.5h-4.9c-.1-.7-.3-1.2-.6-1.7zm8.7 4.9c.4-1.1 1-2 1.7-2.7.7-.8 1.6-1.3 2.7-1.8 1-.4 2.2-.6 3.5-.6 1.3 0 2.5.2 3.5.6 1.1.4 2 1 2.7 1.8.7.8 1.3 1.7 1.7 2.7.4 1.1.6 2.3.6 3.6 0 1.3-.2 2.5-.6 3.6-.4 1.1-1 2-1.7 2.7-.7.8-1.6 1.3-2.7 1.7-1.1.4-2.2.6-3.5.6-1.3 0-2.5-.2-3.5-.6-1-.4-1.9-1-2.7-1.7-.7-.8-1.3-1.7-1.7-2.7-.4-1.1-.6-2.3-.6-3.6-.1-1.3.2-2.5.6-3.6zm4.1 5.5c.1.6.3 1.2.7 1.7.3.5.7.9 1.2 1.2.5.3 1.1.4 1.9.4.8 0 1.4-.1 1.9-.4.5-.3.9-.7 1.2-1.2.3-.5.5-1.1.7-1.7.1-.6.2-1.3.2-1.9 0-.7-.1-1.3-.2-1.9-.1-.6-.3-1.2-.7-1.7-.3-.5-.7-.9-1.2-1.2-.5-.3-1.2-.5-1.9-.5-.8 0-1.4.2-1.9.5s-.9.7-1.2 1.2c-.3.5-.5 1.1-.7 1.7-.1.6-.2 1.3-.2 1.9 0 .7 0 1.3.2 1.9zm19.6-10.2V22h.1c.6-1 1.3-1.7 2.2-2.1.9-.4 1.9-.7 2.8-.7 1.2 0 2.2.2 3 .5.8.3 1.4.8 1.8 1.4.4.6.8 1.3.9 2.1.2.8.3 1.8.3 2.8v10.2h-4.5v-9.3c0-1.4-.2-2.4-.6-3.1-.4-.7-1.2-1-2.3-1-1.2 0-2.1.4-2.7 1.1-.6.7-.8 1.9-.8 3.6v8.7h-4.5V19.7h4.3zm18.4 12.4c.2.4.5.6.8.9.3.2.7.4 1.1.5.4.1.8.2 1.3.2.3 0 .7 0 1-.1.4-.1.7-.2 1-.4.3-.2.5-.4.7-.6.2-.3.3-.6.3-1 0-.7-.5-1.2-1.4-1.5-.9-.3-2.2-.7-3.8-1-.7-.1-1.3-.3-1.9-.5-.6-.2-1.2-.5-1.7-.8-.5-.3-.9-.7-1.2-1.2-.3-.5-.4-1.1-.4-1.8 0-1.1.2-1.9.6-2.6s1-1.2 1.6-1.6c.7-.4 1.4-.7 2.3-.8.9-.2 1.7-.2 2.6-.2.9 0 1.8.1 2.6.3.8.2 1.6.5 2.3.9.7.4 1.2.9 1.6 1.6.4.7.7 1.5.8 2.5h-4.3c-.1-.9-.4-1.5-1-1.8-.6-.3-1.3-.5-2.1-.5h-.8c-.3 0-.6.1-.8.2-.2.1-.5.3-.6.5-.2.2-.3.5-.3.8 0 .4.1.7.4 1 .3.3.7.5 1.2.6.5.2 1 .3 1.6.4.6.1 1.2.3 1.9.4.7.1 1.3.3 1.9.5.6.2 1.2.5 1.7.8s.9.8 1.2 1.3c.3.5.4 1.2.4 1.9 0 1.1-.2 2-.7 2.7-.4.7-1 1.3-1.7 1.8-.7.4-1.5.8-2.4.9-.9.2-1.8.3-2.8.3-1 0-1.9-.1-2.8-.3-.9-.2-1.7-.5-2.4-1-.7-.4-1.3-1-1.8-1.8-.5-.7-.7-1.7-.8-2.8h4.3c.2.6.3 1 .5 1.3zm24.6 4.1v-2.3h-.1c-.6 1-1.3 1.7-2.2 2.1s-1.9.6-2.8.6c-1.2 0-2.2-.2-3-.5-.8-.3-1.4-.8-1.8-1.4-.4-.6-.8-1.3-.9-2.1-.2-.8-.3-1.8-.3-2.8V19.7h4.5V29c0 1.4.2 2.4.6 3.1.4.7 1.2 1 2.3 1 1.2 0 2.1-.4 2.7-1.1.6-.7.8-1.9.8-3.6v-8.7h4.5v16.5h-4.3zM164 19.7V22h.1c.6-.9 1.3-1.5 2.2-2 .8-.5 1.8-.7 2.9-.7 1 0 2 .2 2.9.6.9.4 1.5 1.1 2 2.1.5-.7 1.2-1.4 2-1.9.8-.6 1.8-.8 3-.8.9 0 1.7.1 2.4.3.7.2 1.4.6 1.9 1s.9 1.1 1.2 1.8c.3.8.4 1.7.4 2.7v11.1h-4.5v-9.4c0-.6 0-1.1-.1-1.6 0-.5-.2-.9-.4-1.3s-.5-.7-.8-.9c-.4-.2-.9-.3-1.5-.3s-1.2.1-1.5.4-.7.6-.9 1c-.2.4-.4.8-.4 1.3-.1.5-.1 1-.1 1.5v9.2h-4.5V25.5c0-.5-.1-.9-.3-1.3-.2-.4-.4-.7-.8-1s-.9-.4-1.6-.4c-.2 0-.5 0-.8.1-.4.1-.7.3-1 .5-.3.3-.6.7-.8 1.2-.2.5-.4 1.2-.4 2v9.6h-4.5V19.7h3.9zm29.4 12.6c.7.7 1.7 1 2.9 1 .9 0 1.7-.2 2.4-.7.7-.5 1.1-.9 1.2-1.5h4c-.6 2-1.6 3.4-2.9 4.2-1.3.9-2.9 1.3-4.8 1.3-1.3 0-2.5-.2-3.5-.6-1-.4-1.9-1-2.7-1.8-.7-.8-1.3-1.7-1.7-2.7-.4-1.1-.6-2.2-.6-3.5 0-1.2.2-2.4.6-3.4.4-1.1 1-2 1.7-2.8.7-.8 1.6-1.4 2.7-1.8 1-.4 2.2-.7 3.4-.7 1.4 0 2.6.3 3.7.8 1 .5 1.9 1.3 2.6 2.2s1.2 2 1.5 3.1c.3 1.2.4 2.4.3 3.7h-11.9c.1 1.5.4 2.5 1.1 3.2zm5.1-8.7c-.5-.6-1.4-.9-2.5-.9-.7 0-1.3.1-1.8.4-.5.2-.9.6-1.1.9-.3.4-.5.7-.6 1.1-.1.4-.2.8-.2 1.1h7.4c-.2-1.1-.6-2-1.2-2.6zm12.7-3.9v3.1h.1c.2-.5.5-1 .9-1.4.4-.4.8-.8 1.2-1.1.5-.3 1-.5 1.5-.7.5-.2 1.1-.3 1.7-.3.3 0 .6.1 1 .2v4.2c-.2 0-.5-.1-.8-.1h-.9c-.8 0-1.5.1-2.1.4-.6.3-1 .7-1.4 1.1-.3.5-.6 1-.8 1.7-.1.6-.2 1.3-.2 2.1v7.4h-4.5V19.7h4.3z"/>
  </g>
  <g class="st1">
    <path class="st2" d="M86.6 74.6l-3.9-15.5h-.1l-3.8 15.5h-5.1l-6-22.8h5l3.6 15.5h.1l4-15.5h4.7L89 67.5h.1l3.7-15.7h4.9l-6.1 22.8h-5z"/>
  </g>
  <g class="st1">
    <path class="st2" d="M102.6 70.6c.7.7 1.7 1 2.9 1 .9 0 1.7-.2 2.4-.7.7-.5 1.1-.9 1.2-1.5h4c-.6 2-1.6 3.4-2.9 4.2-1.3.9-2.9 1.3-4.8 1.3-1.3 0-2.5-.2-3.5-.6-1-.4-1.9-1-2.7-1.8-.7-.8-1.3-1.7-1.7-2.7-.4-1.1-.6-2.2-.6-3.5 0-1.2.2-2.4.6-3.4.4-1.1 1-2 1.7-2.8.7-.8 1.6-1.4 2.7-1.8 1-.4 2.2-.7 3.4-.7 1.4 0 2.6.3 3.7.8 1 .5 1.9 1.3 2.6 2.2s1.2 2 1.5 3.1c.3 1.2.4 2.4.3 3.7h-11.9c.1 1.5.4 2.6 1.1 3.2zm5.1-8.7c-.5-.6-1.4-.9-2.5-.9-.7 0-1.3.1-1.8.4-.5.2-.9.6-1.1.9-.3.4-.5.7-.6 1.1-.1.4-.2.8-.2 1.1h7.4c-.2-1.1-.6-2-1.2-2.6zm8.2 1.2c.1-1.1.3-1.9.8-2.7.5-.7 1.1-1.3 1.8-1.7.7-.4 1.5-.7 2.4-.9.9-.2 1.8-.3 2.7-.3.8 0 1.7.1 2.5.2.9.1 1.6.3 2.3.7.7.3 1.3.8 1.7 1.4.4.6.7 1.4.7 2.4v8.6c0 .7 0 1.5.1 2.1.1.7.2 1.2.4 1.5h-4.6c-.1-.3-.2-.5-.2-.8-.1-.3-.1-.5-.1-.8-.7.7-1.6 1.3-2.6 1.6-1 .3-2 .4-3 .4-.8 0-1.5-.1-2.2-.3s-1.3-.5-1.8-.9-.9-.9-1.2-1.5c-.3-.6-.4-1.4-.4-2.2 0-.9.2-1.7.5-2.3.3-.6.8-1.1 1.3-1.5.5-.4 1.1-.6 1.8-.8.7-.2 1.3-.3 2-.4.7-.1 1.4-.2 2-.3.7-.1 1.2-.2 1.8-.3.5-.1.9-.3 1.2-.6.3-.2.4-.6.4-1.1 0-.5-.1-.9-.2-1.2-.2-.3-.4-.5-.6-.7-.3-.2-.6-.3-.9-.3-.4-.1-.7-.1-1.1-.1-.9 0-1.6.2-2.1.6-.5.4-.8 1-.9 1.9h-4.5zm10.5 3.4c-.2.2-.4.3-.7.4-.3.1-.6.2-.9.2-.3.1-.7.1-1 .2-.4 0-.7.1-1.1.2-.3.1-.7.1-1 .3-.3.1-.6.2-.9.4-.2.2-.4.4-.6.7-.1.3-.2.6-.2 1.1 0 .4.1.7.2 1 .1.3.3.5.6.7.3.2.6.3.9.3.3.1.7.1 1.1.1.9 0 1.6-.1 2.1-.4s.9-.7 1.1-1.1c.2-.4.4-.8.4-1.3.1-.4.1-.8.1-1v-1.8zm12.3-8.4v3.1h.1c.2-.5.5-1 .9-1.4.4-.4.8-.8 1.2-1.1.5-.3 1-.5 1.5-.7.5-.2 1.1-.3 1.7-.3.3 0 .6.1 1 .2V62c-.2 0-.5-.1-.8-.1h-.9c-.8 0-1.5.1-2.1.4-.6.3-1 .7-1.4 1.1-.4.5-.6 1-.8 1.7-.1.6-.2 1.3-.2 2.1v7.4h-4.5V58.1h4.3zm8 5c.1-1.1.3-1.9.8-2.7.5-.7 1.1-1.3 1.8-1.7.7-.4 1.5-.7 2.4-.9.9-.2 1.8-.3 2.7-.3.8 0 1.7.1 2.5.2.9.1 1.6.3 2.3.7.7.3 1.3.8 1.7 1.4.4.6.7 1.4.7 2.4v8.6c0 .7 0 1.5.1 2.1.1.7.2 1.2.4 1.5h-4.6c-.1-.3-.2-.5-.2-.8-.1-.3-.1-.5-.1-.8-.7.7-1.6 1.3-2.6 1.6-1 .3-2 .4-3 .4-.8 0-1.5-.1-2.2-.3-.7-.2-1.3-.5-1.8-.9s-.9-.9-1.2-1.5c-.3-.6-.4-1.4-.4-2.2 0-.9.2-1.7.5-2.3.3-.6.8-1.1 1.3-1.5.5-.4 1.1-.6 1.8-.8.7-.2 1.3-.3 2-.4.7-.1 1.4-.2 2-.3.7-.1 1.2-.2 1.8-.3.5-.1.9-.3 1.2-.6.3-.2.4-.6.4-1.1 0-.5-.1-.9-.2-1.2s-.4-.5-.6-.7c-.3-.2-.6-.3-.9-.3-.4-.1-.7-.1-1.1-.1-.9 0-1.6.2-2.1.6-.5.4-.8 1-.9 1.9h-4.5zm10.4 3.4c-.2.2-.4.3-.7.4-.3.1-.6.2-.9.2-.3.1-.7.1-1 .2-.4 0-.7.1-1.1.2-.3.1-.7.1-1 .3-.3.1-.6.2-.9.4-.2.2-.4.4-.6.7-.1.3-.2.6-.2 1.1 0 .4.1.7.2 1 .1.3.4.5.6.7.3.2.6.3.9.3.3.1.7.1 1.1.1.9 0 1.6-.1 2.1-.4.5-.3.9-.7 1.1-1.1.2-.4.4-.8.4-1.3.1-.4.1-.8.1-1v-1.8zm12.6-14.7v8.3h.1c.6-.9 1.3-1.5 2.3-1.9.9-.4 1.9-.6 3-.6.8 0 1.6.2 2.5.5.8.3 1.5.9 2.2 1.6.7.7 1.2 1.6 1.6 2.7.4 1.1.6 2.4.6 3.9s-.2 2.8-.6 3.9c-.4 1.1-.9 2-1.6 2.7-.6.7-1.4 1.2-2.2 1.6-.8.3-1.6.5-2.5.5-1.2 0-2.3-.2-3.3-.6-1-.4-1.7-1-2.2-1.9h-.1v2.1h-4.3V51.8h4.5zm7.4 12.5c-.1-.6-.4-1.2-.7-1.7-.3-.5-.7-.9-1.2-1.2-.5-.3-1.1-.4-1.7-.4-.7 0-1.2.1-1.7.4-.5.3-.9.7-1.2 1.2-.3.5-.6 1.1-.7 1.7-.1.6-.2 1.3-.2 2s.1 1.3.2 2 .4 1.2.7 1.7c.3.5.7.9 1.2 1.2.5.3 1.1.4 1.7.4.7 0 1.3-.1 1.7-.4.5-.3.9-.7 1.2-1.2.3-.5.6-1.1.7-1.7s.2-1.3.2-2-.1-1.3-.2-2zm12.3-12.5v22.8h-4.5V51.8h4.5zm8.4 18.8c.7.7 1.7 1 2.9 1 .9 0 1.7-.2 2.4-.7.7-.5 1.1-.9 1.2-1.5h4c-.6 2-1.6 3.4-2.9 4.2-1.3.9-2.9 1.3-4.8 1.3-1.3 0-2.5-.2-3.5-.6-1-.4-1.9-1-2.7-1.8-.7-.8-1.3-1.7-1.7-2.7-.4-1.1-.6-2.2-.6-3.5 0-1.2.2-2.4.6-3.4.4-1.1 1-2 1.7-2.8.7-.8 1.6-1.4 2.7-1.8 1-.4 2.2-.7 3.4-.7 1.4 0 2.6.3 3.7.8 1 .5 1.9 1.3 2.6 2.2s1.2 2 1.5 3.1c.3 1.2.4 2.4.3 3.7h-11.9c.1 1.5.4 2.6 1.1 3.2zm5.1-8.7c-.5-.6-1.4-.9-2.5-.9-.7 0-1.3.1-1.8.4-.5.2-.9.6-1.1.9-.3.4-.5.7-.6 1.1-.1.4-.2.8-.2 1.1h7.4c-.2-1.1-.6-2-1.2-2.6z"/>
  </g>
  <g class="st1">
    <path class="st2" d="M62.8 90.1v22.8h-5V90.1h5zm8.2 6.3v2.3h.1c.6-1 1.3-1.7 2.2-2.1.9-.4 1.9-.7 2.8-.7 1.2 0 2.2.2 3 .5s1.4.8 1.8 1.4c.4.6.8 1.3.9 2.1.2.8.3 1.8.3 2.8v10.2h-4.5v-9.3c0-1.4-.2-2.4-.6-3.1-.4-.7-1.2-1-2.3-1-1.2 0-2.1.4-2.7 1.1-.6.7-.8 1.9-.8 3.6v8.7h-4.5V96.4H71zm23.7 0v3h-3.3v8.2c0 .8.1 1.3.4 1.5.3.3.8.4 1.5.4h.7c.2 0 .5-.1.7-.1v3.5c-.4.1-.8.1-1.3.1H92c-.7 0-1.4 0-2-.1-.6-.1-1.2-.3-1.7-.6s-.9-.7-1.1-1.2c-.3-.5-.4-1.2-.4-2v-9.7h-2.7v-3h2.7v-5h4.5v5h3.4zm7 12.6c.7.7 1.7 1 2.9 1 .9 0 1.7-.2 2.4-.7.7-.5 1.1-.9 1.2-1.5h4c-.6 2-1.6 3.4-2.9 4.2-1.3.9-2.9 1.3-4.8 1.3-1.3 0-2.5-.2-3.5-.6-1-.4-1.9-1-2.7-1.8-.7-.8-1.3-1.7-1.7-2.7-.4-1.1-.6-2.2-.6-3.5 0-1.2.2-2.4.6-3.4.4-1.1 1-2 1.7-2.8.7-.8 1.6-1.4 2.7-1.8 1-.4 2.2-.7 3.4-.7 1.4 0 2.6.3 3.7.8 1 .5 1.9 1.3 2.6 2.2.7.9 1.2 2 1.5 3.1.3 1.2.4 2.4.3 3.7h-11.9c.1 1.4.4 2.5 1.1 3.2zm5.2-8.7c-.5-.6-1.4-.9-2.5-.9-.7 0-1.3.1-1.8.4-.5.2-.9.6-1.1.9-.3.4-.5.7-.6 1.1-.1.4-.2.8-.2 1.1h7.4c-.3-1.2-.7-2-1.2-2.6zm23.9 13.8c-.2.9-.6 1.6-1.2 2.4-.6.7-1.5 1.4-2.6 1.9s-2.6.8-4.5.8c-.8 0-1.6-.1-2.5-.3-.8-.2-1.6-.5-2.3-.9-.7-.4-1.3-1-1.7-1.6-.5-.7-.7-1.5-.8-2.4h4.5c.2.9.6 1.4 1.2 1.8.6.3 1.3.5 2.1.5 1.3 0 2.2-.4 2.8-1.1.6-.8.9-1.7.8-2.9v-2.2h-.1c-.5.9-1.2 1.5-2.1 1.9-.9.4-1.9.6-2.9.6-1.2 0-2.3-.2-3.2-.7-.9-.4-1.6-1-2.2-1.8-.6-.8-1-1.6-1.3-2.7-.3-1-.4-2.1-.4-3.2s.2-2.1.5-3.1.8-1.9 1.4-2.6c.6-.8 1.3-1.4 2.2-1.8.9-.4 1.9-.7 3.1-.7 1.1 0 2 .2 2.9.6.8.4 1.5 1.1 2.1 2h.1v-2.2h4.3v15.5c.1.6 0 1.4-.2 2.2zm-6.2-5.5c.5-.3.9-.6 1.2-1 .3-.4.6-.9.7-1.5.2-.5.2-1.1.2-1.7 0-.7-.1-1.3-.2-1.9-.1-.6-.3-1.1-.6-1.6s-.7-.8-1.2-1.1c-.5-.3-1.1-.4-1.9-.4-.6 0-1.2.1-1.6.4-.5.3-.8.6-1.1 1-.3.4-.5.9-.7 1.5-.1.6-.2 1.2-.2 1.8 0 .6.1 1.2.2 1.8.1.6.3 1.1.6 1.6s.7.9 1.1 1.1c.5.3 1.1.4 1.8.4.6 0 1.2-.1 1.7-.4zM139 96.4v3.1h.1c.2-.5.5-1 .9-1.4.4-.4.8-.8 1.2-1.1.5-.3 1-.5 1.5-.7.5-.2 1.1-.3 1.7-.3.3 0 .6.1 1 .2v4.2c-.2 0-.5-.1-.8-.1h-.9c-.8 0-1.5.1-2.1.4-.6.3-1 .7-1.4 1.1-.3.5-.6 1-.8 1.7s-.2 1.3-.2 2.1v7.4h-4.5V96.4h4.3zm8 5.1c.1-1.1.3-1.9.8-2.7.5-.7 1.1-1.3 1.8-1.7.7-.4 1.5-.7 2.4-.9.9-.2 1.8-.3 2.7-.3.8 0 1.7.1 2.5.2.9.1 1.6.3 2.3.7.7.3 1.3.8 1.7 1.4.4.6.7 1.4.7 2.4v8.6c0 .7 0 1.5.1 2.1.1.7.2 1.2.4 1.5h-4.6c-.1-.3-.2-.5-.2-.8-.1-.3-.1-.5-.1-.8-.7.7-1.6 1.3-2.6 1.6-1 .3-2 .4-3 .4-.8 0-1.5-.1-2.2-.3-.7-.2-1.3-.5-1.8-.9s-.9-.9-1.2-1.5c-.3-.6-.4-1.4-.4-2.2 0-.9.2-1.7.5-2.3.3-.6.8-1.1 1.3-1.5.5-.4 1.1-.6 1.8-.8.7-.2 1.3-.3 2-.4.7-.1 1.4-.2 2-.3.7-.1 1.2-.2 1.8-.3.5-.1.9-.3 1.2-.6.3-.2.4-.6.4-1.1 0-.5-.1-.9-.2-1.2-.2-.3-.4-.5-.6-.7-.3-.2-.6-.3-.9-.3-.4-.1-.7-.1-1.1-.1-.9 0-1.6.2-2.1.6-.5.4-.8 1-.9 1.9H147zm10.4 3.3c-.2.2-.4.3-.7.4-.3.1-.6.2-.9.2-.3.1-.7.1-1 .2-.4 0-.7.1-1.1.2-.3.1-.7.1-1 .3-.3.1-.6.2-.9.4-.2.2-.4.4-.6.7-.1.3-.2.6-.2 1.1 0 .4.1.7.2 1 .1.3.4.5.6.7.3.2.6.3.9.3.3.1.7.1 1.1.1.9 0 1.6-.1 2.1-.4.5-.3.9-.7 1.1-1.1.2-.4.4-.8.4-1.3.1-.4.1-.8.1-1v-1.8zm17.2-8.4v3h-3.3v8.2c0 .8.1 1.3.4 1.5.3.3.8.4 1.5.4h.7c.2 0 .5-.1.7-.1v3.5c-.4.1-.8.1-1.3.1h-1.4c-.7 0-1.4 0-2-.1-.6-.1-1.2-.3-1.7-.6s-.9-.7-1.1-1.2c-.3-.5-.4-1.2-.4-2v-9.7H164v-3h2.7v-5h4.5v5h3.4zm2.3-2.6v-3.7h4.5v3.7h-4.5zm4.5 2.6v16.5h-4.5V96.4h4.5zm3.7 4.7c.4-1.1 1-2 1.7-2.7.7-.8 1.6-1.3 2.7-1.8 1-.4 2.2-.6 3.5-.6s2.5.2 3.5.6c1.1.4 2 1 2.7 1.8.7.8 1.3 1.7 1.7 2.7.4 1.1.6 2.3.6 3.6 0 1.3-.2 2.5-.6 3.6-.4 1.1-1 2-1.7 2.7-.7.8-1.6 1.3-2.7 1.7s-2.2.6-3.5.6-2.5-.2-3.5-.6c-1-.4-1.9-1-2.7-1.7-.7-.8-1.3-1.7-1.7-2.7-.4-1.1-.6-2.3-.6-3.6 0-1.3.2-2.5.6-3.6zm4.1 5.5c.1.6.3 1.2.7 1.7.3.5.7.9 1.2 1.2.5.3 1.1.4 1.9.4s1.4-.1 1.9-.4.9-.7 1.2-1.2c.3-.5.5-1.1.7-1.7.1-.6.2-1.3.2-1.9 0-.7-.1-1.3-.2-1.9-.1-.6-.3-1.2-.7-1.7-.3-.5-.7-.9-1.2-1.2-.5-.3-1.2-.5-1.9-.5s-1.4.2-1.9.5-.9.7-1.2 1.2c-.3.5-.5 1.1-.7 1.7-.1.6-.2 1.3-.2 1.9 0 .6.1 1.3.2 1.9zm19.6-10.2v2.3h.1c.6-1 1.3-1.7 2.2-2.1.9-.4 1.9-.7 2.8-.7 1.2 0 2.2.2 3 .5.8.3 1.4.8 1.8 1.4s.8 1.3.9 2.1c.2.8.3 1.8.3 2.8v10.2h-4.5v-9.3c0-1.4-.2-2.4-.6-3.1-.4-.7-1.2-1-2.3-1-1.2 0-2.1.4-2.7 1.1-.6.7-.8 1.9-.8 3.6v8.7h-4.5V96.4h4.3z"/>
  </g>
  <path class="st2" d="M174 180.4c0-10.8-5-21-13.5-27.6l-4.2-25.4H121l-4.2 25.4c-15.2 11.9-18 33.9-6.1 49.2 1.8 2.3 3.8 4.3 6.1 6.1l4.2 25.4h35.3l4.2-25.4c8.5-6.7 13.5-16.9 13.5-27.7zm-61.9 0c0-14.6 11.9-26.5 26.5-26.5s26.5 11.9 26.5 26.5-11.9 26.5-26.5 26.5c-14.6-.1-26.4-11.9-26.5-26.5z" id="Icon_2_"/>
</svg>
