<svg xmlns="http://www.w3.org/2000/svg" width="276.7" height="246.1">
  <path fill="#39b39d" stroke="#37b39d" stroke-width="5" stroke-miterlimit="10" d="M273.9 123l-58.8 120.6H61.5L2.8 123 61.5 2.5h153.6z"/>
  <path d="M56.6 76.8c-1.1.5-2.2.7-3.3.7-1.7 0-3.3-.3-4.7-.9-1.4-.6-2.6-1.5-3.6-2.5-1-1.1-1.7-2.3-2.2-3.8-.5-1.4-.8-3-.8-4.6 0-1.7.3-3.3.8-4.7.5-1.5 1.2-2.7 2.2-3.8 1-1.1 2.1-1.9 3.5-2.6 1.4-.6 3-.9 4.7-.9 1.2 0 2.3.2 3.4.5 1.1.4 2.1.9 3 1.5.9.7 1.6 1.5 2.2 2.5.6 1 .9 2.2 1.1 3.4h-4.8c-.3-1.3-.9-2.2-1.7-2.9-.9-.6-1.9-1-3.1-1-1.1 0-2.1.2-2.9.7-.8.4-1.4 1-1.9 1.8-.5.7-.8 1.6-1.1 2.5-.2.9-.3 1.9-.3 2.9s.1 1.9.3 2.8c.2.9.6 1.7 1.1 2.4.5.7 1.1 1.3 1.9 1.7.8.4 1.7.7 2.9.7 1.7 0 2.9-.4 3.8-1.3.9-.8 1.4-2.1 1.6-3.7h-5v-3.7h9.6V77h-3.2l-.5-2.6c-.9 1.1-1.9 1.9-3 2.4zm10-11.3c.1-1.1.3-1.9.8-2.7.5-.7 1.1-1.3 1.8-1.7.7-.4 1.5-.7 2.4-.9.9-.2 1.8-.3 2.7-.3.8 0 1.7.1 2.5.2.9.1 1.6.3 2.3.7.7.3 1.3.8 1.7 1.4.4.6.7 1.4.7 2.4v8.6c0 .7 0 1.5.1 2.1.1.7.2 1.2.4 1.5h-4.6c-.1-.3-.2-.5-.2-.8-.1-.3-.1-.5-.1-.8-.7.7-1.6 1.3-2.6 1.6-1 .3-2 .4-3 .4-.8 0-1.5-.1-2.2-.3-.7-.2-1.3-.5-1.8-.9s-.9-.9-1.2-1.5c-.3-.6-.4-1.4-.4-2.2 0-.9.2-1.7.5-2.3.3-.6.8-1.1 1.3-1.5.5-.4 1.1-.6 1.8-.8.7-.2 1.3-.3 2-.4.7-.1 1.4-.2 2-.3.7-.1 1.2-.2 1.8-.3.5-.1.9-.3 1.2-.6.3-.2.4-.6.4-1.1 0-.5-.1-.9-.2-1.2-.2-.3-.4-.5-.6-.7-.3-.2-.6-.3-.9-.3-.2.3-.6.2-1 .2-.9 0-1.6.2-2.1.6-.5.4-.8 1-.9 1.9h-4.6zm10.5 3.4c-.2.2-.4.3-.7.4-.3.1-.6.2-.9.2-.3.1-.7.1-1 .2-.4 0-.7.1-1.1.2-.3.1-.7.1-1 .3s-.6.2-.9.4c-.2.2-.4.4-.6.7-.1.3-.2.6-.2 1.1 0 .4.1.7.2 1 .1.3.4.5.6.7.3.2.6.3.9.3.3.1.7.1 1.1.1.9 0 1.6-.1 2.1-.4s.9-.7 1.1-1.1c.2-.4.4-.8.4-1.3.1-.4.1-.8.1-1v-1.8zm12.5-8.4v2.2h.1c.6-.9 1.3-1.5 2.2-2 .8-.5 1.8-.7 2.9-.7 1 0 2 .2 2.9.6.9.4 1.5 1.1 2 2.1.5-.7 1.2-1.4 2-1.9.8-.6 1.8-.8 3-.8.9 0 1.7.1 2.4.3.7.2 1.4.6 1.9 1 .5.5.9 1.1 1.2 1.8.3.8.4 1.7.4 2.7V77H106v-9.4c0-.6 0-1.1-.1-1.6 0-.5-.2-.9-.3-1.3-.2-.4-.5-.7-.8-.9-.4-.2-.9-.3-1.5-.3s-1.2.1-1.6.4c-.4.2-.7.6-.9 1-.2.4-.4.8-.4 1.3-.1.5-.1 1-.1 1.5V77h-4.5V66.2c0-.5-.1-.9-.3-1.3-.2-.4-.4-.7-.8-1-.4-.2-.9-.4-1.6-.4-.2 0-.5 0-.8.1-.3.1-.7.3-1 .5-.3.3-.6.7-.8 1.2-.2.5-.4 1.2-.4 2V77h-4.5V60.5h4zm24.6-2.6v-3.7h4.5v3.7h-4.5zm4.6 2.6V77h-4.5V60.5h4.5zm1.8 3v-3h2.7v-1.3c0-1.5.5-2.7 1.4-3.6.9-.9 2.3-1.4 4.2-1.4h1.2c.4 0 .8.1 1.2.1v3.4c-.5-.1-1.1-.1-1.7-.1-.6 0-1.1.1-1.3.4-.3.3-.4.8-.4 1.5v1h3.1v3h-3.1V77h-4.5V63.5h-2.8zm12.5-5.6v-3.7h4.5v3.7h-4.5zm4.6 2.6V77h-4.5V60.5h4.5zm11.4 2.9c-.7 0-1.3.2-1.8.5s-.9.8-1.2 1.3c-.3.5-.5 1.1-.7 1.7-.1.6-.2 1.3-.2 1.9 0 .6.1 1.2.2 1.8.1.6.3 1.2.6 1.7s.7.9 1.2 1.2c.5.3 1.1.5 1.8.5 1.1 0 1.9-.3 2.5-.9.6-.6 1-1.4 1.1-2.4h4.4c-.3 2.2-1.1 3.9-2.6 5-1.4 1.1-3.2 1.7-5.4 1.7-1.2 0-2.4-.2-3.4-.6-1-.4-1.9-1-2.6-1.7-.7-.7-1.3-1.6-1.7-2.7-.4-1-.6-2.2-.6-3.4 0-1.3.2-2.5.6-3.6.4-1.1.9-2 1.6-2.8.7-.8 1.6-1.4 2.7-1.9 1-.4 2.2-.7 3.6-.7 1 0 1.9.1 2.8.4.9.3 1.7.6 2.4 1.2.7.5 1.3 1.2 1.7 1.9.4.8.7 1.7.8 2.8h-4.4c-.3-1.9-1.4-2.9-3.4-2.9zm10.3 2.1c.1-1.1.3-1.9.8-2.7.5-.7 1.1-1.3 1.8-1.7.7-.4 1.5-.7 2.4-.9.9-.2 1.8-.3 2.7-.3.8 0 1.7.1 2.5.2.9.1 1.6.3 2.3.7.7.3 1.3.8 1.7 1.4.4.6.7 1.4.7 2.4v8.6c0 .7 0 1.5.1 2.1s.2 1.2.4 1.5h-4.6c-.1-.3-.2-.5-.2-.8-.1-.3-.1-.5-.1-.8-.7.7-1.6 1.3-2.6 1.6-1 .3-2 .4-3 .4-.8 0-1.5-.1-2.2-.3-.7-.2-1.3-.5-1.8-.9s-.9-.9-1.2-1.5c-.3-.6-.4-1.4-.4-2.2 0-.9.2-1.7.5-2.3.3-.6.8-1.1 1.3-1.5.5-.4 1.1-.6 1.8-.8.7-.2 1.3-.3 2-.4s1.4-.2 2-.3c.7-.1 1.2-.2 1.8-.3.5-.1.9-.3 1.2-.6.3-.2.4-.6.4-1.1 0-.5-.1-.9-.2-1.2-.2-.3-.4-.5-.6-.7-.3-.2-.6-.3-.9-.3-.4-.1-.7-.1-1.1-.1-.9 0-1.6.2-2.1.6s-.8 1-.9 1.9h-4.5zm10.5 3.4c-.2.2-.4.3-.7.4-.3.1-.6.2-.9.2-.3.1-.7.1-1 .2-.4 0-.7.1-1.1.2-.3.1-.7.1-1 .3-.3.1-.6.2-.9.4-.2.2-.4.4-.6.7-.1.3-.2.6-.2 1.1 0 .4.1.7.2 1 .1.3.3.5.6.7.3.2.6.3.9.3.3.1.7.1 1.1.1.9 0 1.6-.1 2.1-.4.5-.3.9-.7 1.1-1.1.2-.4.4-.8.4-1.3.1-.4.1-.8.1-1v-1.8zm17.1-8.4v3h-3.3v8.2c0 .8.1 1.3.4 1.5.3.3.8.4 1.5.4h.7c.2 0 .5-.1.7-.1V77c-.4.1-.8.1-1.3.1h-1.4c-.7 0-1.4 0-2-.1-.6-.1-1.2-.3-1.7-.6s-.9-.7-1.1-1.2c-.3-.5-.4-1.2-.4-2v-9.7h-2.7v-3h2.7v-5h4.5v5h3.4zm2.3-2.6v-3.7h4.5v3.7h-4.5zm4.5 2.6V77h-4.5V60.5h4.5zm3.7 4.6c.4-1.1 1-2 1.7-2.7.7-.8 1.6-1.3 2.7-1.8 1-.4 2.2-.6 3.5-.6 1.3 0 2.5.2 3.5.6 1.1.4 2 1 2.7 1.8.7.8 1.3 1.7 1.7 2.7.4 1.1.6 2.3.6 3.6 0 1.3-.2 2.5-.6 3.6-.4 1.1-1 2-1.7 2.7-.7.8-1.6 1.3-2.7 1.7s-2.2.6-3.5.6c-1.3 0-2.5-.2-3.5-.6-1-.4-1.9-1-2.7-1.7-.7-.8-1.3-1.7-1.7-2.7-.4-1.1-.6-2.3-.6-3.6 0-1.3.2-2.5.6-3.6zm4.1 5.6c.1.6.3 1.2.7 1.7.3.5.7.9 1.2 1.2.5.3 1.1.4 1.9.4s1.4-.1 1.9-.4.9-.7 1.2-1.2c.3-.5.5-1.1.7-1.7s.2-1.3.2-1.9c0-.7-.1-1.3-.2-1.9s-.3-1.2-.7-1.7c-.3-.5-.7-.9-1.2-1.2-.5-.3-1.2-.5-1.9-.5s-1.4.2-1.9.5-.9.7-1.2 1.2c-.3.5-.5 1.1-.7 1.7-.1.6-.2 1.3-.2 1.9 0 .6.1 1.2.2 1.9zm19.6-10.2v2.3h.1c.6-1 1.3-1.7 2.2-2.1.9-.4 1.9-.7 2.8-.7 1.2 0 2.2.2 3 .5.8.3 1.4.8 1.8 1.4.4.6.8 1.3.9 2.1.2.8.3 1.8.3 2.8V77h-4.5v-9.3c0-1.4-.2-2.4-.6-3.1-.4-.7-1.2-1-2.3-1-1.2 0-2.1.4-2.7 1.1-.6.7-.8 1.9-.8 3.6V77h-4.5V60.5h4.3zm-85.8 136.9l-2.6 26.8-14.2-14.3-16.2 4.4 7.1-25.1-1.6-4.6-10.1-2.6.3-10.4-8.5-6 4-9.6-5.7-8.7 7.2-7.5-2.3-10.2 9.4-4.4 1.6-10.3 10.4-.7 5.2-9 9.9 3.1 8.1-6.5 8.1 6.5 9.9-3.1 5.2 9 10.4.7 1.6 10.3 9.4 4.4-2 10.4 7.2 7.5-5.7 8.7 4 9.6-8.5 6 .3 10.4-10 2.4-1.6 4.6 7.1 25.1-16.2-4.4-14.2 14.3-2.6-26.8-2.3-1.2-2.3 1.2h.2zm2.3-82c20.2 0 36.6 16.4 36.6 36.6s-16.4 36.6-36.6 36.6c-20.2 0-36.6-16.4-36.6-36.6-.1-20.2 16.3-36.6 36.6-36.6zm0 6.8c16.4 0 29.7 13.3 29.7 29.7s-13.3 29.7-29.7 29.7-29.7-13.3-29.7-29.7 13.3-29.7 29.7-29.7z" fill="#fff"/>
</svg>
