<svg xmlns="http://www.w3.org/2000/svg" width="276.7" height="246.1">
  <path fill="#39b39d" stroke="#37b39d" stroke-width="5" stroke-miterlimit="10" d="M273.9 123l-58.8 120.6H61.5L2.8 123 61.5 2.5h153.6z"/>
  <path d="M51.6 63.5l9.5 15.3h.1V63.5h4.7v22.8h-5L51.4 71h-.1v15.3h-4.7V63.5h5zm18.3 11c.4-1.1 1-2 1.7-2.7.7-.8 1.6-1.3 2.7-1.8 1-.4 2.2-.6 3.5-.6s2.5.2 3.5.6c1.1.4 2 1 2.7 1.8.7.8 1.3 1.7 1.7 2.7.4 1.1.6 2.3.6 3.6 0 1.3-.2 2.5-.6 3.6-.4 1.1-1 2-1.7 2.7-.7.8-1.6 1.3-2.7 1.7-1.1.4-2.2.6-3.5.6s-2.5-.2-3.5-.6c-1-.4-1.9-1-2.7-1.7-.7-.8-1.3-1.7-1.7-2.7-.4-1.1-.6-2.3-.6-3.6 0-1.3.2-2.5.6-3.6zM74 80c.1.6.3 1.2.7 1.7.3.5.7.9 1.2 1.2.5.3 1.1.4 1.9.4.8 0 1.4-.1 1.9-.4s.9-.7 1.2-1.2c.3-.5.5-1.1.7-1.7.1-.6.2-1.3.2-1.9 0-.7-.1-1.3-.2-1.9-.1-.6-.3-1.2-.7-1.7-.3-.5-.7-.9-1.2-1.2-.5-.3-1.2-.5-1.9-.5-.8 0-1.4.2-1.9.5s-.9.7-1.2 1.2c-.3.5-.5 1.1-.7 1.7-.1.6-.2 1.3-.2 1.9 0 .7.1 1.3.2 1.9zm24.4-10.2v3h-3.3V81c0 .8.1 1.3.4 1.5.3.3.8.4 1.5.4h.7c.2 0 .5-.1.7-.1v3.5c-.4.1-.8.1-1.3.1h-1.4c-.7 0-1.4 0-2-.1-.6-.1-1.2-.3-1.7-.6s-.9-.7-1.1-1.2c-.3-.5-.4-1.2-.4-2v-9.7h-2.7v-3h2.7v-5H95v5h3.4zm2.3-2.5v-3.7h4.5v3.7h-4.5zm4.5 2.5v16.5h-4.5V69.8h4.5zm1.9 3.1v-3h2.7v-1.3c0-1.5.5-2.7 1.4-3.6.9-.9 2.3-1.4 4.2-1.4h1.2c.4 0 .8.1 1.2.1V67c-.5-.1-1.1-.1-1.7-.1-.6 0-1.1.1-1.3.4-.3.3-.4.8-.4 1.5v1h3.1v3h-3.1v13.5h-4.5V72.9h-2.8zm12.5-5.6v-3.7h4.5v3.7h-4.5zm4.5 2.5v16.5h-4.5V69.8h4.5zm11.5 3c-.7 0-1.3.2-1.8.5s-.9.8-1.2 1.3-.5 1.1-.7 1.7c-.1.6-.2 1.3-.2 1.9 0 .6.1 1.2.2 1.8.1.6.3 1.2.6 1.7s.7.9 1.2 1.2c.5.3 1.1.5 1.8.5 1.1 0 1.9-.3 2.5-.9.6-.6 1-1.4 1.1-2.4h4.4c-.3 2.2-1.1 3.9-2.6 5s-3.2 1.7-5.4 1.7c-1.2 0-2.4-.2-3.4-.6-1-.4-1.9-1-2.6-1.7-.7-.7-1.3-1.6-1.7-2.7-.4-1-.6-2.2-.6-3.4 0-1.3.2-2.5.6-3.6.4-1.1.9-2 1.6-2.8.7-.8 1.6-1.4 2.7-1.9 1-.4 2.2-.7 3.6-.7 1 0 1.9.1 2.8.4.9.3 1.7.6 2.4 1.2.7.5 1.3 1.2 1.7 1.9.4.8.7 1.7.8 2.8H139c-.4-2-1.5-2.9-3.4-2.9zm10.2 2.1c.1-1.1.3-1.9.8-2.7.5-.7 1.1-1.3 1.8-1.7.7-.4 1.5-.7 2.4-.9.9-.2 1.8-.3 2.7-.3.8 0 1.7.1 2.5.2.9.1 1.6.3 2.3.7.7.3 1.3.8 1.7 1.4.4.6.7 1.4.7 2.4v8.6c0 .7 0 1.5.1 2.1.1.7.2 1.2.4 1.5h-4.6c-.1-.3-.2-.5-.2-.8-.1-.3-.1-.5-.1-.8-.7.7-1.6 1.3-2.6 1.6-1 .3-2 .4-3 .4-.8 0-1.5-.1-2.2-.3s-1.3-.5-1.8-.9-.9-.9-1.2-1.5c-.3-.6-.4-1.4-.4-2.2 0-.9.2-1.7.5-2.3.3-.6.8-1.1 1.3-1.5.5-.4 1.1-.6 1.8-.8.7-.2 1.3-.3 2-.4s1.4-.2 2-.3c.7-.1 1.2-.2 1.8-.3.5-.1.9-.3 1.2-.6.3-.2.4-.6.4-1.1 0-.5-.1-.9-.2-1.2s-.4-.5-.6-.7c-.3-.2-.6-.3-.9-.3-.4-.1-.7-.1-1.1-.1-.9 0-1.6.2-2.1.6-.5.4-.8 1-.9 1.9h-4.5zm10.5 3.3c-.2.2-.4.3-.7.4-.3.1-.6.2-.9.2-.3.1-.7.1-1 .2-.4 0-.7.1-1.1.2-.3.1-.7.1-1 .3-.3.1-.6.2-.9.4-.2.2-.4.4-.6.7-.1.3-.2.6-.2 1.1 0 .4.1.7.2 1 .1.3.4.5.6.7.3.2.6.3.9.3.3.1.7.1 1.1.1.9 0 1.6-.1 2.1-.4.5-.3.9-.7 1.1-1.1.2-.4.4-.8.4-1.3.1-.4.1-.8.1-1v-1.8zm17.1-8.4v3h-3.3V81c0 .8.1 1.3.4 1.5.3.3.8.4 1.5.4h.7c.2 0 .5-.1.7-.1v3.5c-.4.1-.8.1-1.3.1h-1.4c-.7 0-1.4 0-2-.1-.6-.1-1.2-.3-1.7-.6s-.9-.7-1.1-1.2c-.3-.5-.4-1.2-.4-2v-9.7h-2.7v-3h2.7v-5h4.5v5h3.4zm2.3-2.5v-3.7h4.5v3.7h-4.5zm4.6 2.5v16.5h-4.5V69.8h4.5zm3.6 4.7c.4-1.1 1-2 1.7-2.7.7-.8 1.6-1.3 2.7-1.8 1-.4 2.2-.6 3.5-.6 1.3 0 2.5.2 3.5.6 1.1.4 2 1 2.7 1.8.7.8 1.3 1.7 1.7 2.7.4 1.1.6 2.3.6 3.6 0 1.3-.2 2.5-.6 3.6-.4 1.1-1 2-1.7 2.7-.7.8-1.6 1.3-2.7 1.7s-2.2.6-3.5.6c-1.3 0-2.5-.2-3.5-.6s-1.9-1-2.7-1.7c-.7-.8-1.3-1.7-1.7-2.7-.4-1.1-.6-2.3-.6-3.6 0-1.3.2-2.5.6-3.6zM188 80c.1.6.3 1.2.7 1.7.3.5.7.9 1.2 1.2s1.1.4 1.9.4c.8 0 1.4-.1 1.9-.4.5-.3.9-.7 1.2-1.2.3-.5.5-1.1.7-1.7.1-.6.2-1.3.2-1.9 0-.7-.1-1.3-.2-1.9-.1-.6-.3-1.2-.7-1.7-.3-.5-.7-.9-1.2-1.2-.5-.3-1.2-.5-1.9-.5-.8 0-1.4.2-1.9.5s-.9.7-1.2 1.2-.5 1.1-.7 1.7c-.1.6-.2 1.3-.2 1.9.1.7.1 1.3.2 1.9zm19.7-10.2v2.3h.1c.6-1 1.3-1.7 2.2-2.1.9-.4 1.9-.7 2.8-.7 1.2 0 2.2.2 3 .5.8.3 1.4.8 1.8 1.4s.8 1.3.9 2.1c.2.8.3 1.8.3 2.8v10.2h-4.5V77c0-1.4-.2-2.4-.6-3.1-.4-.7-1.2-1-2.3-1-1.2 0-2.1.4-2.7 1.1-.6.7-.8 1.9-.8 3.6v8.7h-4.5V69.8h4.3zm18.4 12.4c.2.4.5.6.8.9.3.2.7.4 1.1.5.4.1.8.2 1.3.2.3 0 .7 0 1-.1.4-.1.7-.2 1-.4.3-.2.5-.4.7-.6.2-.3.3-.6.3-1 0-.7-.5-1.2-1.4-1.5-.9-.3-2.2-.7-3.8-1-.7-.1-1.3-.3-1.9-.5s-1.2-.5-1.7-.8c-.5-.3-.9-.7-1.2-1.2-.3-.5-.4-1.1-.4-1.8 0-1.1.2-1.9.6-2.6s1-1.2 1.6-1.6c.7-.4 1.4-.7 2.3-.8.9-.2 1.7-.2 2.6-.2.9 0 1.8.1 2.6.3.8.2 1.6.5 2.3.9.7.4 1.2.9 1.6 1.6.4.7.7 1.5.8 2.5H232c-.1-.9-.4-1.5-1-1.8-.6-.3-1.3-.5-2.1-.5h-.8c-.3 0-.6.1-.8.2s-.5.3-.6.5c-.2.2-.3.5-.3.8 0 .4.1.7.4 1s.7.5 1.2.6c.5.2 1 .3 1.6.4.6.1 1.2.3 1.9.4.7.1 1.3.3 1.9.5.6.2 1.2.5 1.7.8.5.4.9.8 1.2 1.3.3.5.4 1.2.4 1.9 0 1.1-.2 2-.7 2.7-.4.7-1 1.3-1.7 1.8-.7.4-1.5.8-2.4.9-.9.2-1.8.3-2.8.3-1 0-1.9-.1-2.8-.3-.9-.2-1.7-.5-2.4-1-.7-.4-1.3-1-1.8-1.8-.5-.7-.7-1.7-.8-2.8h4.3c.2.6.3 1 .5 1.3zm-38.4 74.2c-2.2.4-4.4.6-6.6.6-7.8 0-17.4-2.9-24.3-16-7.6-14.5-18.9-17.9-27.8-17.9-2.2 0-4.5.2-6.7.6h-.3v-2.1c-.2-1.2-1.3-2-2.4-1.9h-4.9c-1.2-.1-2.2.7-2.4 1.9V222c.2 1.2 1.3 2 2.4 1.9h4.9c1.2.1 2.2-.7 2.4-1.9v-44.9c1.9-.4 3.7-.6 5.6-.6 4.6 0 10.7 1.4 20.8 6.2 3.5 1.7 7.2 2.6 11.1 2.6 14.2 0 26-12.7 31.1-22 1.2-2.6 1.9-5.5 2-8.4-1.5.6-3.2 1.1-4.9 1.5zm-14.3 15.1c-2.1 1.7-4.4 3.1-6.8 4.2-2.2 1-4.6 1.5-7 1.5-2.6 0-5.2-.6-7.6-1.8-10.1-4.8-17.6-7-24.4-7-1.6 0-3.3.1-4.9.4v-36.4c.3-.3.7-.5 1.1-.6 1.7-.3 3.4-.5 5.2-.5 3.6 0 7.3.8 10.5 2.5 4.4 2.6 7.9 6.4 10.1 11 3.3 6.8 8.5 12.4 15 16.2 4.6 2.5 9.8 3.9 15 4.1-1.9 2.3-3.9 4.5-6.2 6.4z" fill="#fff"/>
</svg>
