<?xml version="1.0" encoding="utf-8"?>
<!-- Generator: Adobe Illustrator 23.0.1, SVG Export Plug-In . SVG Version: 6.00 Build 0)  -->
<svg version="1.1" id="Layer_1" xmlns="http://www.w3.org/2000/svg" xmlns:xlink="http://www.w3.org/1999/xlink" x="0px" y="0px"
	 viewBox="0 0 276.7 246.1" style="enable-background:new 0 0 276.7 246.1;" xml:space="preserve">
<style type="text/css">
	.st0{fill:#39B39C;}
	.st1{fill:#FFFFFF;}
</style>
<polygon class="st0" points="276.7,123.1 216.8,246.1 59.9,246.1 0,123.1 59.9,0 216.8,0 "/>
<g>
	<path class="st1" d="M77.1,34.9c1.5,0,2.7,0.2,3.7,0.6c1,0.4,1.9,1,2.5,1.7s1.1,1.5,1.4,2.4c0.3,0.9,0.4,1.8,0.4,2.8
		c0,0.9-0.1,1.9-0.4,2.8c-0.3,0.9-0.8,1.7-1.4,2.4c-0.6,0.7-1.5,1.3-2.5,1.7c-1,0.4-2.3,0.6-3.7,0.6h-5.4v8.3h-5.1V34.9H77.1z
		 M75.7,45.9c0.6,0,1.2,0,1.7-0.1c0.5-0.1,1-0.3,1.4-0.5c0.4-0.2,0.7-0.6,1-1.1c0.2-0.5,0.4-1.1,0.4-1.8c0-0.7-0.1-1.3-0.4-1.8
		c-0.2-0.5-0.6-0.8-1-1.1c-0.4-0.2-0.9-0.4-1.4-0.5c-0.5-0.1-1.1-0.1-1.7-0.1h-4v7H75.7z"/>
	<path class="st1" d="M92.2,41.4v3.1h0.1c0.2-0.5,0.5-1,0.9-1.5c0.4-0.4,0.8-0.8,1.3-1.1c0.5-0.3,1-0.6,1.5-0.7
		c0.5-0.2,1.1-0.3,1.7-0.3c0.3,0,0.6,0.1,1,0.2v4.3c-0.2,0-0.5-0.1-0.8-0.1c-0.3,0-0.6,0-0.9,0c-0.8,0-1.6,0.1-2.2,0.4
		c-0.6,0.3-1.1,0.7-1.4,1.2c-0.4,0.5-0.6,1.1-0.8,1.7c-0.2,0.7-0.2,1.4-0.2,2.1v7.6h-4.6V41.4H92.2z"/>
	<path class="st1" d="M100,46.1c0.4-1.1,1-2,1.8-2.8c0.8-0.8,1.7-1.4,2.7-1.8c1.1-0.4,2.3-0.6,3.6-0.6c1.3,0,2.5,0.2,3.6,0.6
		s2,1,2.8,1.8c0.8,0.8,1.3,1.7,1.8,2.8c0.4,1.1,0.6,2.3,0.6,3.7c0,1.3-0.2,2.6-0.6,3.7c-0.4,1.1-1,2-1.8,2.8
		c-0.8,0.8-1.7,1.4-2.8,1.8c-1.1,0.4-2.3,0.6-3.6,0.6c-1.3,0-2.5-0.2-3.6-0.6c-1.1-0.4-2-1-2.7-1.8c-0.8-0.8-1.3-1.7-1.8-2.8
		c-0.4-1.1-0.6-2.3-0.6-3.7C99.4,48.5,99.6,47.2,100,46.1z M104.2,51.8c0.1,0.6,0.4,1.2,0.7,1.7c0.3,0.5,0.7,0.9,1.3,1.2
		c0.5,0.3,1.2,0.5,2,0.5s1.4-0.2,2-0.5c0.5-0.3,1-0.7,1.3-1.2c0.3-0.5,0.5-1.1,0.7-1.7c0.1-0.6,0.2-1.3,0.2-2s-0.1-1.3-0.2-2
		c-0.1-0.7-0.4-1.2-0.7-1.7c-0.3-0.5-0.7-0.9-1.3-1.2c-0.5-0.3-1.2-0.5-2-0.5s-1.4,0.2-2,0.5c-0.5,0.3-0.9,0.7-1.3,1.2
		c-0.3,0.5-0.5,1.1-0.7,1.7c-0.1,0.7-0.2,1.3-0.2,2S104.1,51.1,104.2,51.8z"/>
	<path class="st1" d="M119.7,46.5c0.1-1.1,0.3-2,0.8-2.7c0.5-0.7,1.1-1.3,1.8-1.7c0.7-0.4,1.6-0.7,2.5-0.9c0.9-0.2,1.9-0.3,2.8-0.3
		c0.8,0,1.7,0.1,2.6,0.2c0.9,0.1,1.7,0.4,2.4,0.7c0.7,0.3,1.3,0.8,1.8,1.5c0.5,0.6,0.7,1.4,0.7,2.5v8.8c0,0.8,0,1.5,0.1,2.2
		c0.1,0.7,0.2,1.2,0.5,1.6h-4.7c-0.1-0.3-0.2-0.5-0.2-0.8c-0.1-0.3-0.1-0.5-0.1-0.8c-0.7,0.8-1.6,1.3-2.6,1.6s-2,0.5-3.1,0.5
		c-0.8,0-1.6-0.1-2.2-0.3s-1.3-0.5-1.8-0.9c-0.5-0.4-0.9-0.9-1.2-1.6c-0.3-0.6-0.4-1.4-0.4-2.2c0-1,0.2-1.7,0.5-2.4
		c0.3-0.6,0.8-1.1,1.3-1.5c0.5-0.4,1.1-0.6,1.8-0.8c0.7-0.2,1.4-0.3,2.1-0.4s1.4-0.2,2.1-0.3c0.7-0.1,1.3-0.2,1.8-0.3
		c0.5-0.1,0.9-0.3,1.2-0.6c0.3-0.2,0.4-0.6,0.4-1.1c0-0.5-0.1-0.9-0.2-1.2s-0.4-0.5-0.7-0.7c-0.3-0.2-0.6-0.3-0.9-0.3
		c-0.4-0.1-0.7-0.1-1.2-0.1c-0.9,0-1.6,0.2-2.2,0.6s-0.8,1-0.9,2H119.7z M130.3,50c-0.2,0.2-0.4,0.3-0.7,0.4
		c-0.3,0.1-0.6,0.2-0.9,0.2c-0.3,0.1-0.7,0.1-1.1,0.2c-0.4,0-0.7,0.1-1.1,0.2c-0.3,0.1-0.7,0.2-1,0.3c-0.3,0.1-0.6,0.3-0.9,0.4
		c-0.3,0.2-0.5,0.4-0.6,0.7c-0.2,0.3-0.2,0.6-0.2,1.1c0,0.4,0.1,0.8,0.2,1c0.2,0.3,0.4,0.5,0.6,0.7s0.6,0.3,0.9,0.3
		c0.3,0.1,0.7,0.1,1.1,0.1c0.9,0,1.6-0.2,2.1-0.5c0.5-0.3,0.9-0.7,1.1-1.1c0.2-0.4,0.4-0.9,0.4-1.3c0.1-0.4,0.1-0.8,0.1-1V50z"/>
	<path class="st1" d="M146.6,44.4c-0.7,0-1.4,0.2-1.9,0.5c-0.5,0.3-0.9,0.8-1.2,1.3c-0.3,0.5-0.5,1.1-0.7,1.8
		c-0.1,0.6-0.2,1.3-0.2,1.9c0,0.6,0.1,1.2,0.2,1.9c0.1,0.6,0.3,1.2,0.6,1.7c0.3,0.5,0.7,0.9,1.2,1.3s1.1,0.5,1.8,0.5
		c1.1,0,2-0.3,2.6-0.9s1-1.5,1.1-2.5h4.5c-0.3,2.2-1.2,3.9-2.6,5.1c-1.4,1.2-3.3,1.8-5.5,1.8c-1.3,0-2.4-0.2-3.5-0.6
		c-1.1-0.4-2-1-2.7-1.8c-0.7-0.8-1.3-1.7-1.7-2.7c-0.4-1.1-0.6-2.2-0.6-3.5c0-1.3,0.2-2.5,0.6-3.6c0.4-1.1,0.9-2.1,1.7-2.9
		c0.7-0.8,1.6-1.5,2.7-1.9c1.1-0.5,2.3-0.7,3.7-0.7c1,0,2,0.1,2.9,0.4c0.9,0.3,1.7,0.7,2.5,1.2s1.3,1.2,1.8,2
		c0.5,0.8,0.7,1.7,0.8,2.8H150C149.7,45.4,148.6,44.4,146.6,44.4z"/>
	<path class="st1" d="M166.5,41.4v3.1h-3.4v8.3c0,0.8,0.1,1.3,0.4,1.6s0.8,0.4,1.6,0.4c0.3,0,0.5,0,0.8,0c0.2,0,0.5-0.1,0.7-0.1v3.6
		c-0.4,0.1-0.8,0.1-1.3,0.1c-0.5,0-0.9,0-1.4,0c-0.7,0-1.4,0-2-0.1c-0.6-0.1-1.2-0.3-1.7-0.6c-0.5-0.3-0.9-0.7-1.2-1.2
		c-0.3-0.5-0.4-1.2-0.4-2.1v-9.9h-2.8v-3.1h2.8v-5.1h4.6v5.1H166.5z"/>
	<path class="st1" d="M168.9,38.8v-3.8h4.6v3.8H168.9z M173.5,41.4v16.9h-4.6V41.4H173.5z"/>
	<path class="st1" d="M181.3,58.2l-5.8-16.9h4.9l3.6,11.5h0.1l3.6-11.5h4.6l-5.7,16.9H181.3z"/>
	<path class="st1" d="M199.1,54.2c0.7,0.7,1.7,1,3,1c0.9,0,1.7-0.2,2.4-0.7c0.7-0.5,1.1-1,1.2-1.5h4.1c-0.7,2-1.7,3.5-3,4.3
		c-1.3,0.9-3,1.3-4.9,1.3c-1.3,0-2.5-0.2-3.6-0.6s-2-1-2.7-1.8c-0.7-0.8-1.3-1.7-1.7-2.8s-0.6-2.3-0.6-3.6c0-1.3,0.2-2.4,0.6-3.5
		c0.4-1.1,1-2,1.8-2.8c0.8-0.8,1.7-1.4,2.7-1.9c1.1-0.5,2.2-0.7,3.5-0.7c1.4,0,2.7,0.3,3.8,0.8c1.1,0.6,1.9,1.3,2.6,2.2
		c0.7,0.9,1.2,2,1.5,3.2c0.3,1.2,0.4,2.4,0.3,3.7h-12.2C198,52.4,198.4,53.5,199.1,54.2z M204.3,45.3c-0.6-0.6-1.4-0.9-2.5-0.9
		c-0.7,0-1.4,0.1-1.8,0.4c-0.5,0.3-0.9,0.6-1.2,0.9c-0.3,0.4-0.5,0.8-0.6,1.2c-0.1,0.4-0.2,0.8-0.2,1.1h7.5
		C205.3,46.8,204.9,45.9,204.3,45.3z"/>
	<path class="st1" d="M90.9,74.1l8.7,23.3h-5.3l-1.8-5.2h-8.7L82,97.3h-5.2l8.8-23.3H90.9z M91.2,88.3l-2.9-8.5h-0.1l-3,8.5H91.2z"
		/>
	<path class="st1" d="M105.9,74.1v23.3h-4.6V74.1H105.9z"/>
	<path class="st1" d="M114.5,93.3c0.7,0.7,1.7,1,3,1c0.9,0,1.7-0.2,2.4-0.7c0.7-0.5,1.1-1,1.2-1.5h4.1c-0.7,2-1.7,3.5-3,4.3
		c-1.3,0.9-3,1.3-4.9,1.3c-1.3,0-2.5-0.2-3.6-0.6c-1.1-0.4-2-1-2.7-1.8c-0.7-0.8-1.3-1.7-1.7-2.8c-0.4-1.1-0.6-2.3-0.6-3.6
		c0-1.3,0.2-2.4,0.6-3.5s1-2,1.8-2.8c0.8-0.8,1.7-1.4,2.7-1.9c1.1-0.5,2.2-0.7,3.5-0.7c1.4,0,2.7,0.3,3.8,0.8
		c1.1,0.6,1.9,1.3,2.6,2.2c0.7,0.9,1.2,2,1.5,3.2c0.3,1.2,0.4,2.4,0.3,3.7h-12.2C113.4,91.5,113.8,92.6,114.5,93.3z M119.8,84.4
		c-0.6-0.6-1.4-0.9-2.5-0.9c-0.7,0-1.4,0.1-1.8,0.4c-0.5,0.3-0.9,0.6-1.2,0.9s-0.5,0.8-0.6,1.2s-0.2,0.8-0.2,1.1h7.5
		C120.7,85.9,120.3,85,119.8,84.4z"/>
	<path class="st1" d="M132.7,80.5v3.1h0.1c0.2-0.5,0.5-1,0.9-1.5c0.4-0.4,0.8-0.8,1.3-1.1c0.5-0.3,1-0.6,1.5-0.7
		c0.5-0.2,1.1-0.3,1.7-0.3c0.3,0,0.6,0.1,1,0.2v4.3c-0.2,0-0.5-0.1-0.8-0.1c-0.3,0-0.6,0-0.9,0c-0.8,0-1.6,0.1-2.2,0.4
		c-0.6,0.3-1.1,0.7-1.4,1.2c-0.4,0.5-0.6,1.1-0.8,1.7c-0.2,0.7-0.2,1.4-0.2,2.1v7.6h-4.6V80.5H132.7z"/>
	<path class="st1" d="M150.2,80.5v3.1h-3.4v8.3c0,0.8,0.1,1.3,0.4,1.6s0.8,0.4,1.6,0.4c0.3,0,0.5,0,0.8,0c0.2,0,0.5-0.1,0.7-0.1v3.6
		c-0.4,0.1-0.8,0.1-1.3,0.1c-0.5,0-0.9,0-1.4,0c-0.7,0-1.4,0-2-0.1c-0.6-0.1-1.2-0.3-1.7-0.6c-0.5-0.3-0.9-0.7-1.2-1.2
		c-0.3-0.5-0.4-1.2-0.4-2.1v-9.9h-2.8v-3.1h2.8v-5.1h4.6v5.1H150.2z"/>
	<path class="st1" d="M152.6,77.9v-3.8h4.6v3.8H152.6z M157.2,80.5v16.9h-4.6V80.5H157.2z"/>
	<path class="st1" d="M165.3,80.5v2.3h0.1c0.6-1,1.3-1.7,2.3-2.1c0.9-0.4,1.9-0.7,2.9-0.7c1.2,0,2.3,0.2,3,0.5
		c0.8,0.3,1.4,0.8,1.9,1.4c0.5,0.6,0.8,1.3,1,2.2c0.2,0.9,0.3,1.8,0.3,2.9v10.4H172v-9.5c0-1.4-0.2-2.4-0.7-3.1
		c-0.4-0.7-1.2-1-2.3-1c-1.3,0-2.2,0.4-2.7,1.1c-0.6,0.8-0.8,2-0.8,3.7v8.8h-4.6V80.5H165.3z"/>
	<path class="st1" d="M196.1,98.6c-0.2,0.9-0.6,1.7-1.2,2.4s-1.5,1.4-2.6,1.9c-1.2,0.5-2.7,0.8-4.6,0.8c-0.8,0-1.7-0.1-2.5-0.3
		c-0.9-0.2-1.6-0.5-2.3-1c-0.7-0.4-1.3-1-1.8-1.7c-0.5-0.7-0.7-1.5-0.8-2.5h4.6c0.2,0.9,0.6,1.5,1.3,1.8c0.6,0.3,1.4,0.5,2.2,0.5
		c1.3,0,2.3-0.4,2.9-1.2s0.9-1.8,0.9-3v-2.2h-0.1c-0.5,0.9-1.2,1.5-2.1,2s-1.9,0.6-2.9,0.6c-1.3,0-2.3-0.2-3.3-0.7
		c-0.9-0.4-1.7-1.1-2.2-1.8s-1-1.7-1.3-2.7c-0.3-1-0.4-2.1-0.4-3.3c0-1.1,0.2-2.1,0.5-3.1c0.3-1,0.8-1.9,1.4-2.7
		c0.6-0.8,1.4-1.4,2.3-1.8c0.9-0.5,1.9-0.7,3.1-0.7c1.1,0,2.1,0.2,2.9,0.6c0.8,0.4,1.5,1.1,2.1,2.1h0.1v-2.2h4.4v15.8
		C196.4,96.9,196.3,97.7,196.1,98.6z M189.8,93c0.5-0.3,0.9-0.6,1.2-1c0.3-0.4,0.6-0.9,0.7-1.5s0.2-1.1,0.2-1.7c0-0.7-0.1-1.4-0.2-2
		c-0.1-0.6-0.3-1.2-0.7-1.6c-0.3-0.5-0.7-0.9-1.2-1.1c-0.5-0.3-1.1-0.4-1.9-0.4c-0.7,0-1.2,0.1-1.7,0.4s-0.9,0.6-1.2,1.1
		c-0.3,0.4-0.5,1-0.7,1.5c-0.1,0.6-0.2,1.2-0.2,1.8c0,0.6,0.1,1.2,0.2,1.8c0.1,0.6,0.3,1.1,0.6,1.6c0.3,0.5,0.7,0.9,1.2,1.2
		c0.5,0.3,1.1,0.5,1.8,0.5C188.7,93.4,189.3,93.2,189.8,93z"/>
</g>
<g>
	<g>
		<path class="st1" d="M179.6,223.4H97.1c-1.7,0-3.2-0.8-4.1-2.3c-0.9-1.4-1-3.2-0.3-4.7l41.2-89.9v0c0.8-1.7,2.5-2.9,4.4-2.9
			c1.9,0,3.7,1.1,4.4,2.9l41.2,89.9c0.7,1.5,0.6,3.3-0.3,4.7C182.8,222.5,181.3,223.4,179.6,223.4z M102,215.4h72.7l-36.4-79.3
			L102,215.4z M141.2,129.9L141.2,129.9C141.2,129.9,141.2,129.9,141.2,129.9z"/>
	</g>
	<g>
		<circle class="st1" cx="138.3" cy="199.5" r="4.7"/>
	</g>
</g>
<rect x="134.1" y="162.9" class="st1" width="8.5" height="28.2"/>
</svg>
