<svg xmlns="http://www.w3.org/2000/svg" width="276.7" height="246.1">
  <style>
    .st1{enable-background:new}.st2{fill:#fff}
  </style>
  <path fill="#39b39d" stroke="#37b39d" stroke-width="5" stroke-miterlimit="10" d="M273.9 123l-58.8 120.6H61.5L2.8 123 61.5 2.5h153.6z"/>
  <g class="st1">
    <path class="st2" d="M67.8 44.5c1.4 0 2.6.2 3.6.6 1 .4 1.8 1 2.4 1.6.6.7 1.1 1.5 1.4 2.3.3.9.4 1.8.4 2.7 0 .9-.1 1.8-.4 2.7-.3.9-.7 1.7-1.4 2.3-.6.7-1.4 1.2-2.4 1.6-1 .4-2.2.6-3.6.6h-5.3v8.2h-5V44.5h10.3zm-1.4 10.8c.6 0 1.1 0 1.7-.1.5-.1 1-.3 1.4-.5.4-.2.7-.6 1-1 .2-.4.4-1 .4-1.8s-.1-1.3-.4-1.8c-.2-.4-.6-.8-1-1-.4-.2-.9-.4-1.4-.5-.5-.1-1.1-.1-1.7-.1h-3.9v6.8h3.9zm11.7.6c.1-1.1.3-1.9.8-2.7.5-.7 1.1-1.3 1.8-1.7.7-.4 1.5-.7 2.4-.9.9-.2 1.8-.3 2.7-.3.8 0 1.7.1 2.5.2.9.1 1.6.3 2.3.7.7.3 1.3.8 1.7 1.4.4.6.7 1.4.7 2.4v8.6c0 .7 0 1.5.1 2.1.1.7.2 1.2.4 1.5h-4.6c-.1-.3-.2-.5-.2-.8-.1-.3-.1-.5-.1-.8-.7.7-1.6 1.3-2.6 1.6-1 .3-2 .4-3 .4-.8 0-1.5-.1-2.2-.3-.7-.2-1.3-.5-1.8-.9s-.9-.9-1.2-1.5c-.3-.6-.4-1.4-.4-2.2 0-.9.2-1.7.5-2.3.3-.6.8-1.1 1.3-1.5.5-.4 1.1-.6 1.8-.8.7-.2 1.3-.3 2-.4s1.4-.2 2-.3c.7-.1 1.2-.2 1.8-.3.5-.1.9-.3 1.2-.6.3-.2.4-.6.4-1.1 0-.5-.1-.9-.2-1.2-.2-.3-.4-.5-.6-.7-.3-.2-.6-.3-.9-.3-.4-.1-.7-.1-1.1-.1-.9 0-1.6.2-2.1.6-.5.4-.8 1-.9 1.9h-4.5zm10.5 3.4c-.2.2-.4.3-.7.4-.3.1-.6.2-.9.2-.3.1-.7.1-1 .2-.4 0-.7.1-1.1.2-.3.1-.7.1-1 .3-.3.1-.6.2-.9.4-.2.2-.4.4-.6.7-.1.3-.2.6-.2 1.1 0 .4.1.7.2 1 .1.3.4.5.6.7.3.2.6.3.9.3.3.1.7.1 1.1.1.9 0 1.6-.1 2.1-.4s.9-.7 1.1-1.1c.2-.4.4-.8.4-1.3.1-.4.1-.8.1-1v-1.8zm12.3-8.5v3.1h.1c.2-.5.5-1 .9-1.4.4-.4.8-.8 1.2-1.1.5-.3 1-.5 1.5-.7.5-.2 1.1-.3 1.7-.3.3 0 .6.1 1 .2v4.2c-.2 0-.5-.1-.8-.1h-.9c-.8 0-1.5.1-2.1.4-.6.3-1 .7-1.4 1.1-.4.5-.6 1-.8 1.7s-.2 1.3-.2 2.1v7.4h-4.5V50.8h4.3zm17.2 0v3h-3.3V62c0 .8.1 1.3.4 1.5.3.3.8.4 1.5.4h.7c.2 0 .5-.1.7-.1v3.5c-.4.1-.8.1-1.3.1h-1.4c-.7 0-1.4 0-2-.1-.6-.1-1.2-.3-1.7-.6s-.9-.7-1.1-1.2c-.3-.5-.4-1.2-.4-2v-9.7h-2.7v-3h2.7v-5h4.5v5h3.4zm2.3-2.5v-3.7h4.5v3.7h-4.5zm4.6 2.5v16.5h-4.5V50.8h4.5zm11.4 3c-.7 0-1.3.2-1.8.5s-.9.8-1.2 1.3c-.3.5-.5 1.1-.7 1.7-.1.6-.2 1.3-.2 1.9 0 .6.1 1.2.2 1.8.1.6.3 1.2.6 1.7s.7.9 1.2 1.2c.5.3 1.1.5 1.8.5 1.1 0 1.9-.3 2.5-.9.6-.6 1-1.4 1.1-2.4h4.4c-.3 2.2-1.1 3.9-2.6 5-1.4 1.1-3.2 1.7-5.4 1.7-1.2 0-2.4-.2-3.4-.6-1-.4-1.9-1-2.6-1.7-.7-.7-1.3-1.6-1.7-2.7-.4-1-.6-2.2-.6-3.4 0-1.3.2-2.5.6-3.6.4-1.1.9-2 1.6-2.8.7-.8 1.6-1.4 2.7-1.9 1-.4 2.2-.7 3.6-.7 1 0 1.9.1 2.8.4.9.3 1.7.6 2.4 1.2.7.5 1.3 1.2 1.7 1.9.4.8.7 1.7.8 2.8h-4.4c-.3-2-1.4-2.9-3.4-2.9zm10.6-5.5v-3.7h4.5v3.7H147zm4.5 2.5v16.5H147V50.8h4.5zm7.9 0v2.1h.1c.6-.9 1.3-1.5 2.1-1.9.9-.4 1.8-.6 2.8-.6 1.3 0 2.4.2 3.4.7.9.5 1.7 1.1 2.3 1.9.6.8 1.1 1.8 1.4 2.8.3 1.1.4 2.2.4 3.4 0 1.1-.1 2.2-.4 3.2-.3 1-.8 1.9-1.4 2.7-.6.8-1.4 1.4-2.3 1.9-.9.5-2 .7-3.2.7-1 0-2-.2-2.8-.6-.9-.4-1.6-1-2.1-1.8h-.1v7.8h-4.5V50.8h4.3zm5.9 13.1c.5-.3.9-.7 1.2-1.2.3-.5.5-1 .7-1.7.1-.6.2-1.3.2-1.9 0-.7-.1-1.3-.2-1.9-.1-.6-.4-1.2-.7-1.7-.3-.5-.7-.9-1.2-1.2-.5-.3-1.1-.5-1.8-.5s-1.4.2-1.9.5-.9.7-1.2 1.2c-.3.5-.5 1.1-.7 1.7-.1.6-.2 1.3-.2 2s.1 1.3.2 1.9c.1.6.4 1.2.7 1.7.3.5.7.9 1.2 1.2s1.1.4 1.9.4c.7 0 1.3-.2 1.8-.5zm9.1-8c.1-1.1.3-1.9.8-2.7.5-.7 1.1-1.3 1.8-1.7.7-.4 1.5-.7 2.4-.9.9-.2 1.8-.3 2.7-.3.8 0 1.7.1 2.5.2.9.1 1.6.3 2.3.7.7.3 1.3.8 1.7 1.4.4.6.7 1.4.7 2.4v8.6c0 .7 0 1.5.1 2.1.1.7.2 1.2.4 1.5h-4.6c-.1-.3-.2-.5-.2-.8-.1-.3-.1-.5-.1-.8-.7.7-1.6 1.3-2.6 1.6-1 .3-2 .4-3 .4-.8 0-1.5-.1-2.2-.3s-1.3-.5-1.8-.9-.9-.9-1.2-1.5-.4-1.4-.4-2.2c0-.9.2-1.7.5-2.3.3-.6.8-1.1 1.3-1.5.5-.4 1.1-.6 1.8-.8.7-.2 1.3-.3 2-.4s1.4-.2 2-.3c.7-.1 1.2-.2 1.8-.3.5-.1.9-.3 1.2-.6.3-.2.4-.6.4-1.1 0-.5-.1-.9-.2-1.2-.2-.3-.4-.5-.6-.7-.3-.2-.6-.3-.9-.3-.4-.1-.7-.1-1.1-.1-.9 0-1.6.2-2.1.6-.5.4-.8 1-.9 1.9h-4.5zm10.5 3.4c-.2.2-.4.3-.7.4-.3.1-.6.2-.9.2-.3.1-.7.1-1 .2-.4 0-.7.1-1.1.2-.3.1-.7.1-1 .3-.3.1-.6.2-.9.4-.2.2-.4.4-.6.7-.1.3-.2.6-.2 1.1 0 .4.1.7.2 1 .1.3.3.5.6.7.3.2.6.3.9.3.3.1.7.1 1.1.1.9 0 1.6-.1 2.1-.4.5-.3.9-.7 1.1-1.1.2-.4.4-.8.4-1.3.1-.4.1-.8.1-1v-1.8zm12.4-8.5v2.3h.1c.6-1 1.3-1.7 2.2-2.1.9-.4 1.9-.7 2.8-.7 1.2 0 2.2.2 3 .5.8.3 1.4.8 1.8 1.4.4.6.8 1.3.9 2.1.2.8.3 1.8.3 2.8v10.2h-4.5V58c0-1.4-.2-2.4-.6-3.1-.4-.7-1.2-1-2.3-1-1.2 0-2.1.4-2.7 1.1-.6.7-.8 1.9-.8 3.6v8.7H193V50.8h4.3zm23.7 0v3h-3.3V62c0 .8.1 1.3.4 1.5.3.3.8.4 1.5.4h.7c.2 0 .5-.1.7-.1v3.5c-.4.1-.8.1-1.3.1h-1.4c-.7 0-1.4 0-2-.1s-1.2-.3-1.7-.6-.9-.7-1.1-1.2c-.3-.5-.4-1.2-.4-2v-9.7h-2.7v-3h2.7v-5h4.5v5h3.4z"/>
  </g>
  <g class="st1">
    <path class="st2" d="M67 82.9c1.5 0 2.8.2 4.1.7 1.3.5 2.4 1.2 3.3 2.1.9.9 1.7 2.1 2.2 3.5.5 1.4.8 3.1.8 5 0 1.7-.2 3.2-.6 4.6-.4 1.4-1.1 2.6-1.9 3.6-.9 1-1.9 1.8-3.2 2.4-1.3.6-2.8.9-4.6.9h-9.8V82.9H67zm-.4 18.6c.7 0 1.4-.1 2.1-.4.7-.2 1.3-.6 1.8-1.2.5-.5 1-1.3 1.3-2.1.3-.9.5-1.9.5-3.2 0-1.1-.1-2.2-.3-3.1s-.6-1.7-1.1-2.4c-.5-.7-1.2-1.2-2-1.5-.8-.4-1.9-.5-3.1-.5h-3.6v14.4h4.4zm13.5-7.3c.1-1.1.3-1.9.8-2.7.5-.7 1.1-1.3 1.8-1.7.7-.4 1.5-.7 2.4-.9.9-.2 1.8-.3 2.7-.3.8 0 1.7.1 2.5.2.9.1 1.6.3 2.3.7.7.3 1.3.8 1.7 1.4.4.6.7 1.4.7 2.4v8.6c0 .7 0 1.5.1 2.1.1.7.2 1.2.4 1.5h-4.6c-.1-.3-.2-.5-.2-.8-.1-.3-.1-.5-.1-.8-.7.7-1.6 1.3-2.6 1.6-1 .3-2 .4-3 .4-.8 0-1.5-.1-2.2-.3s-1.3-.5-1.8-.9-.9-.9-1.2-1.5-.4-1.4-.4-2.2c0-.9.2-1.7.5-2.3.3-.6.8-1.1 1.3-1.5.5-.4 1.1-.6 1.8-.8.7-.2 1.3-.3 2-.4.7-.1 1.4-.2 2-.3.7-.1 1.2-.2 1.8-.3.5-.1.9-.3 1.2-.6.3-.2.4-.6.4-1.1 0-.5-.1-.9-.2-1.2-.2-.3-.4-.5-.6-.7-.3-.2-.6-.3-.9-.3-.4-.1-.7-.1-1.1-.1-.9 0-1.6.2-2.1.6-.5.4-.8 1-.9 1.9h-4.5zm10.5 3.4c-.2.2-.4.3-.7.4-.3.1-.6.2-.9.2-.3.1-.7.1-1 .2-.4 0-.7.1-1.1.2-.3.1-.7.1-1 .3-.3.1-.6.2-.9.4-.2.2-.4.4-.6.7-.1.3-.2.6-.2 1.1 0 .4.1.7.2 1 .1.3.3.5.6.7.3.2.6.3.9.3.3.1.7.1 1.1.1.9 0 1.6-.1 2.1-.4s.9-.7 1.1-1.1c.2-.4.4-.8.4-1.3.1-.4.1-.8.1-1v-1.8zm11.9 4c.2.4.5.6.8.9.3.2.7.4 1.1.5.4.1.8.2 1.3.2.3 0 .7 0 1-.1.3-.1.7-.2 1-.4.3-.2.5-.4.7-.6.2-.3.3-.6.3-1 0-.7-.5-1.2-1.4-1.5-.9-.3-2.2-.7-3.8-1-.7-.1-1.3-.3-1.9-.5-.6-.2-1.2-.5-1.7-.8s-.9-.7-1.2-1.2c-.3-.5-.4-1.1-.4-1.8 0-1.1.2-1.9.6-2.6.4-.7 1-1.2 1.6-1.6.7-.4 1.4-.7 2.3-.8.9-.2 1.7-.2 2.6-.2.9 0 1.8.1 2.6.3.8.2 1.6.5 2.3.9.7.4 1.2.9 1.6 1.6s.7 1.5.8 2.5h-4.3c-.1-.9-.4-1.5-1-1.8-.6-.3-1.3-.5-2.1-.5h-.8c-.3 0-.6.1-.8.2-.2.1-.5.3-.6.5-.2.2-.3.5-.3.8 0 .4.1.7.4 1s.7.5 1.2.6c.5.2 1 .3 1.6.4.6.1 1.2.3 1.9.4.7.1 1.3.3 1.9.5.6.2 1.2.5 1.7.8.5.4.9.8 1.2 1.3s.4 1.2.4 1.9c0 1.1-.2 2-.7 2.7-.4.7-1 1.3-1.7 1.8-.7.4-1.5.8-2.4.9-.9.2-1.8.3-2.8.3-1 0-1.9-.1-2.8-.3-.9-.2-1.7-.5-2.4-1-.7-.4-1.3-1-1.8-1.8-.5-.7-.7-1.7-.8-2.8h4.3c.2.5.3.9.5 1.3zm17.8-18.7v8.6h.1c.6-1 1.3-1.7 2.2-2.1.9-.4 1.8-.7 2.6-.7 1.2 0 2.2.2 3 .5.8.3 1.4.8 1.8 1.4.4.6.8 1.3.9 2.1.2.8.3 1.8.3 2.8v10.2h-4.5v-9.3c0-1.4-.2-2.4-.6-3.1-.4-.7-1.2-1-2.3-1-1.2 0-2.1.4-2.7 1.1-.6.7-.8 1.9-.8 3.6v8.7h-4.5V82.9h4.5zm19 0v8.3h.1c.6-.9 1.3-1.5 2.3-1.9s1.9-.6 3-.6c.8 0 1.7.2 2.5.5s1.5.9 2.2 1.6c.6.7 1.2 1.6 1.6 2.7.4 1.1.6 2.4.6 3.9s-.2 2.8-.6 3.9c-.4 1.1-.9 2-1.6 2.7-.7.7-1.4 1.2-2.2 1.6-.8.3-1.6.5-2.5.5-1.2 0-2.3-.2-3.3-.6-1-.4-1.7-1-2.2-1.9h-.1v2.1h-4.3V82.9h4.5zm7.3 12.5c-.1-.6-.4-1.2-.7-1.7-.3-.5-.7-.9-1.2-1.2-.5-.3-1.1-.4-1.7-.4-.7 0-1.2.1-1.7.4-.5.3-.9.7-1.2 1.2-.3.5-.6 1.1-.7 1.7s-.2 1.3-.2 2 .1 1.3.2 2 .4 1.2.7 1.7c.3.5.7.9 1.2 1.2.5.3 1.1.4 1.7.4.7 0 1.3-.1 1.7-.4.5-.3.9-.7 1.2-1.2.3-.5.6-1.1.7-1.7s.2-1.3.2-2c.1-.7 0-1.3-.2-2zm7.8-1.6c.4-1.1 1-2 1.7-2.7.7-.8 1.6-1.3 2.7-1.8 1-.4 2.2-.6 3.5-.6s2.5.2 3.5.6c1.1.4 2 1 2.7 1.8.7.8 1.3 1.7 1.7 2.7.4 1.1.6 2.3.6 3.6 0 1.3-.2 2.5-.6 3.6-.4 1.1-1 2-1.7 2.7-.7.8-1.6 1.3-2.7 1.7-1.1.4-2.2.6-3.5.6s-2.5-.2-3.5-.6c-1-.4-1.9-1-2.7-1.7-.7-.8-1.3-1.7-1.7-2.7-.4-1.1-.6-2.3-.6-3.6 0-1.3.2-2.5.6-3.6zm4.1 5.6c.1.6.3 1.2.7 1.7.3.5.7.9 1.2 1.2s1.1.4 1.9.4 1.4-.1 1.9-.4c.5-.3.9-.7 1.2-1.2.3-.5.5-1.1.7-1.7.1-.6.2-1.3.2-1.9 0-.7-.1-1.3-.2-1.9-.1-.6-.3-1.2-.7-1.7-.3-.5-.7-.9-1.2-1.2-.5-.3-1.2-.5-1.9-.5s-1.4.2-1.9.5-.9.7-1.2 1.2-.5 1.1-.7 1.7c-.1.6-.2 1.3-.2 1.9 0 .6.1 1.2.2 1.9zm15.1-5.2c.1-1.1.3-1.9.8-2.7.5-.7 1.1-1.3 1.8-1.7.7-.4 1.5-.7 2.4-.9.9-.2 1.8-.3 2.7-.3.8 0 1.7.1 2.5.2.9.1 1.6.3 2.3.7.7.3 1.3.8 1.7 1.4.4.6.7 1.4.7 2.4v8.6c0 .7 0 1.5.1 2.1.1.7.2 1.2.4 1.5h-4.6c-.1-.3-.2-.5-.2-.8-.1-.3-.1-.5-.1-.8-.7.7-1.6 1.3-2.6 1.6-1 .3-2 .4-3 .4-.8 0-1.5-.1-2.2-.3-.7-.2-1.3-.5-1.8-.9s-.9-.9-1.2-1.5c-.3-.6-.4-1.4-.4-2.2 0-.9.2-1.7.5-2.3.3-.6.8-1.1 1.3-1.5.5-.4 1.1-.6 1.8-.8.7-.2 1.3-.3 2-.4.7-.1 1.4-.2 2-.3.7-.1 1.2-.2 1.8-.3.5-.1.9-.3 1.2-.6.3-.2.4-.6.4-1.1 0-.5-.1-.9-.2-1.2-.2-.3-.4-.5-.6-.7-.3-.2-.6-.3-.9-.3-.4-.1-.7-.1-1.1-.1-.9 0-1.6.2-2.1.6-.5.4-.8 1-.9 1.9h-4.5zm10.5 3.4c-.2.2-.4.3-.7.4-.3.1-.6.2-.9.2-.3.1-.7.1-1 .2-.4 0-.7.1-1.1.2-.3.1-.7.1-1 .3-.3.1-.6.2-.9.4-.2.2-.4.4-.6.7-.1.3-.2.6-.2 1.1 0 .4.1.7.2 1 .1.3.4.5.6.7.3.2.6.3.9.3.3.1.7.1 1.1.1.9 0 1.6-.1 2.1-.4.5-.3.9-.7 1.1-1.1.2-.4.4-.8.4-1.3.1-.4.1-.8.1-1v-1.8z"/>
  </g>
  <g class="st1">
    <path class="st2" d="M196.4 89.2v3.1h.1c.2-.5.5-1 .9-1.4.4-.4.8-.8 1.2-1.1.5-.3 1-.5 1.5-.7.5-.2 1.1-.3 1.7-.3.3 0 .6.1 1 .2v4.2c-.2 0-.5-.1-.8-.1h-.9c-.8 0-1.5.1-2.1.4-.6.3-1 .7-1.4 1.1-.4.5-.6 1-.8 1.7-.1.6-.2 1.3-.2 2.1v7.4h-4.5V89.2h4.3z"/>
  </g>
  <g class="st1">
    <path class="st2" d="M215.7 103.6c-.5.9-1.2 1.5-2.1 1.9-.9.4-1.8.6-2.9.6-1.2 0-2.3-.2-3.3-.7-.9-.5-1.7-1.1-2.3-1.9-.6-.8-1.1-1.8-1.4-2.8-.3-1.1-.5-2.2-.5-3.3 0-1.1.2-2.2.5-3.2s.8-1.9 1.4-2.7c.6-.8 1.4-1.4 2.3-1.9.9-.5 2-.7 3.2-.7 1 0 1.9.2 2.8.6.9.4 1.6 1 2.1 1.8h.1V83h4.5v22.8h-4.3l-.1-2.2zm-.2-8.2c-.1-.6-.3-1.2-.7-1.7-.3-.5-.7-.9-1.2-1.2-.5-.3-1.1-.4-1.9-.4-.7 0-1.4.1-1.9.4-.5.3-.9.7-1.2 1.2-.3.5-.5 1-.7 1.7-.1.6-.2 1.3-.2 2 0 .6.1 1.3.2 1.9s.4 1.2.7 1.7c.3.5.7.9 1.2 1.2.5.3 1.1.5 1.8.5s1.4-.1 1.9-.4c.5-.3.9-.7 1.2-1.2.3-.5.5-1.1.6-1.7.1-.6.2-1.3.2-2s.1-1.4 0-2z"/>
  </g>
  <path class="st2" d="M106.5 171.7h16.8v36.8h-16.8z"/>
  <path class="st2" d="M121.7 173.2v33.7H108v-33.7h13.7m3.2-3.1H105V210h19.9v-39.9zm4.9-12.8h16.8v51.2h-16.8z"/>
  <path class="st2" d="M145 158.8v48.1h-13.7v-48.1H145m3.1-3.1h-19.9V210h19.9v-54.3zm10.7 17.2l-3.8 7.9 12.4 13.4-2.3-21.3 3.4-34m3.1-3.1h-19.9V210h19.9v-74.2z"/>
  <path class="st2" d="M97.9 214.2v-78.4h-6.2v84.6h89.2v-6.2z"/>
</svg>
