<svg xmlns="http://www.w3.org/2000/svg" width="276.7" height="246.1">
  <style>
    .st1{enable-background:new}.st2{fill:#fff}.st3{fill:none}
  </style>
  <path fill="#39b39d" stroke="#37b39d" stroke-width="5" stroke-miterlimit="10" d="M273.9 123.1l-58.8 120.5H61.5L2.8 123.1 61.5 2.5h153.6z"/>
  <g class="st1">
    <path class="st2" d="M68.9 45.7c1.4 0 2.6.2 3.6.6 1 .4 1.8 1 2.4 1.6.6.7 1.1 1.5 1.4 2.3.3.9.4 1.8.4 2.7 0 .9-.1 1.8-.4 2.7-.3.9-.7 1.7-1.4 2.3-.6.7-1.4 1.2-2.4 1.6-1 .4-2.2.6-3.6.6h-5.3v8.2h-5V45.7h10.3zm-1.4 10.7c.6 0 1.1 0 1.7-.1.5-.1 1-.3 1.4-.5.4-.2.7-.6 1-1 .2-.4.4-1 .4-1.8s-.1-1.3-.4-1.8c-.2-.4-.6-.8-1-1-.4-.2-.9-.4-1.4-.5-.5-.1-1.1-.1-1.7-.1h-3.9v6.8h3.9zm12.1.3c.4-1.1 1-2 1.7-2.7.7-.8 1.6-1.3 2.7-1.8 1-.4 2.2-.6 3.5-.6s2.5.2 3.5.6c1.1.4 2 1 2.7 1.8.7.8 1.3 1.7 1.7 2.7.4 1.1.6 2.3.6 3.6 0 1.3-.2 2.5-.6 3.6-.4 1.1-1 2-1.7 2.7-.7.8-1.6 1.3-2.7 1.7s-2.2.6-3.5.6-2.5-.2-3.5-.6-1.9-1-2.7-1.7c-.7-.8-1.3-1.7-1.7-2.7-.4-1.1-.6-2.3-.6-3.6-.1-1.4.1-2.6.6-3.6zm4.1 5.5c.1.6.3 1.2.7 1.7.3.5.7.9 1.2 1.2s1.1.4 1.9.4c.8 0 1.4-.1 1.9-.4.5-.3.9-.7 1.2-1.2.3-.5.5-1.1.7-1.7.1-.6.2-1.3.2-1.9 0-.7-.1-1.3-.2-1.9-.1-.6-.3-1.2-.7-1.7-.3-.5-.7-.9-1.2-1.2-.5-.3-1.2-.5-1.9-.5-.8 0-1.4.2-1.9.5s-.9.7-1.2 1.2-.5 1.1-.7 1.7c-.1.6-.2 1.3-.2 1.9 0 .6 0 1.3.2 1.9zM103.3 52v2.1h.1c.6-.9 1.3-1.5 2.1-1.9.9-.4 1.8-.6 2.8-.6 1.3 0 2.4.2 3.4.7.9.5 1.7 1.1 2.3 1.9.6.8 1.1 1.8 1.4 2.8.3 1.1.4 2.2.4 3.4 0 1.1-.1 2.2-.4 3.2-.3 1-.8 1.9-1.4 2.7-.6.8-1.4 1.4-2.3 1.9-.9.5-2 .7-3.2.7-1 0-2-.2-2.8-.6-.9-.4-1.6-1-2.1-1.8h-.1v7.8H99V52h4.3zm5.9 13.1c.5-.3.9-.7 1.2-1.2.3-.5.5-1 .7-1.7.1-.6.2-1.3.2-1.9s-.1-1.3-.2-1.9c-.1-.6-.4-1.2-.7-1.7-.3-.5-.7-.9-1.2-1.2-.5-.3-1.1-.5-1.8-.5s-1.4.2-1.9.5-.9.7-1.2 1.2c-.3.5-.5 1.1-.7 1.7-.1.6-.2 1.3-.2 2s.1 1.3.2 1.9c.1.6.4 1.2.7 1.7.3.5.7.9 1.2 1.2s1.1.4 1.9.4c.7-.1 1.3-.2 1.8-.5zm20.5 3.4v-2.3h-.1c-.6 1-1.3 1.7-2.2 2.1-.9.4-1.9.6-2.8.6-1.2 0-2.2-.2-3-.5-.8-.3-1.4-.8-1.8-1.4s-.8-1.3-.9-2.1c-.2-.8-.3-1.8-.3-2.8V52h4.5v9.3c0 1.4.2 2.4.6 3.1.4.7 1.2 1 2.3 1 1.2 0 2.1-.4 2.7-1.1.6-.7.8-1.9.8-3.6V52h4.5v16.5h-4.3zm12.4-22.8v22.8h-4.5V45.7h4.5zm3.4 11.4c.1-1.1.3-1.9.8-2.7.5-.7 1.1-1.3 1.8-1.7.7-.4 1.5-.7 2.4-.9.9-.2 1.8-.3 2.7-.3.8 0 1.7.1 2.5.2.9.1 1.6.3 2.3.7.7.3 1.3.8 1.7 1.4.4.6.7 1.4.7 2.4v8.6c0 .7 0 1.5.1 2.1.1.7.2 1.2.4 1.5h-4.6c-.1-.3-.2-.5-.2-.8-.1-.3-.1-.5-.1-.8-.7.7-1.6 1.3-2.6 1.6-1 .3-2 .4-3 .4-.8 0-1.5-.1-2.2-.3-.7-.2-1.3-.5-1.8-.9s-.9-.9-1.2-1.5c-.3-.6-.4-1.4-.4-2.2 0-.9.2-1.7.5-2.3.3-.6.8-1.1 1.3-1.5.5-.4 1.1-.6 1.8-.8.7-.2 1.3-.3 2-.4s1.4-.2 2-.3c.7-.1 1.2-.2 1.8-.3.5-.1.9-.3 1.2-.6.3-.2.4-.6.4-1.1 0-.5-.1-.9-.2-1.2-.2-.3-.4-.5-.6-.7-.3-.2-.6-.3-.9-.3-.4-.1-.7-.1-1.1-.1-.9 0-1.6.2-2.1.6-.5.4-.8 1-.9 1.9h-4.5zm10.5 3.3c-.2.2-.4.3-.7.4-.3.1-.6.2-.9.2-.3.1-.7.1-1 .2-.4 0-.7.1-1.1.2-.3.1-.7.1-1 .3s-.6.2-.9.4c-.2.2-.4.4-.6.7-.1.3-.2.6-.2 1.1 0 .4.1.7.2 1 .1.3.3.5.6.7.3.2.6.3.9.3.3.1.7.1 1.1.1.9 0 1.6-.1 2.1-.4.5-.3.9-.7 1.1-1.1.2-.4.4-.8.4-1.3.1-.4.1-.8.1-1v-1.8zm17.1-8.4v3h-3.3v8.2c0 .8.1 1.3.4 1.5.3.3.8.4 1.5.4h.7c.2 0 .5-.1.7-.1v3.5c-.4.1-.8.1-1.3.1h-1.4c-.7 0-1.4 0-2-.1-.6-.1-1.2-.3-1.7-.6s-.9-.7-1.1-1.2c-.3-.5-.4-1.2-.4-2V55h-2.7v-3h2.7v-5h4.5v5h3.4zm2.3-2.6v-3.7h4.5v3.7h-4.5zm4.5 2.6v16.5h-4.5V52h4.5zm3.7 4.7c.4-1.1 1-2 1.7-2.7.7-.8 1.6-1.3 2.7-1.8 1-.4 2.2-.6 3.5-.6 1.3 0 2.5.2 3.5.6 1.1.4 2 1 2.7 1.8.7.8 1.3 1.7 1.7 2.7.4 1.1.6 2.3.6 3.6 0 1.3-.2 2.5-.6 3.6-.4 1.1-1 2-1.7 2.7-.7.8-1.6 1.3-2.7 1.7-1.1.4-2.2.6-3.5.6-1.3 0-2.5-.2-3.5-.6-1-.4-1.9-1-2.7-1.7-.7-.8-1.3-1.7-1.7-2.7-.4-1.1-.6-2.3-.6-3.6 0-1.4.2-2.6.6-3.6zm4.1 5.5c.1.6.3 1.2.7 1.7.3.5.7.9 1.2 1.2.5.3 1.1.4 1.9.4.8 0 1.4-.1 1.9-.4s.9-.7 1.2-1.2c.3-.5.5-1.1.7-1.7.1-.6.2-1.3.2-1.9 0-.7-.1-1.3-.2-1.9-.1-.6-.3-1.2-.7-1.7-.3-.5-.7-.9-1.2-1.2-.5-.3-1.2-.5-1.9-.5-.8 0-1.4.2-1.9.5s-.9.7-1.2 1.2c-.3.5-.5 1.1-.7 1.7-.1.6-.2 1.3-.2 1.9 0 .6.1 1.3.2 1.9zM207.3 52v2.3h.1c.6-1 1.3-1.7 2.2-2.1.9-.4 1.9-.7 2.8-.7 1.2 0 2.2.2 3 .5.8.3 1.4.8 1.8 1.4.4.6.8 1.3.9 2.1.2.8.3 1.8.3 2.8v10.2H214v-9.3c0-1.4-.2-2.4-.6-3.1-.4-.7-1.2-1-2.3-1-1.2 0-2.1.4-2.7 1.1-.6.7-.8 1.9-.8 3.6v8.7H203V52h4.3z"/>
  </g>
  <g class="st1">
    <path class="st2" d="M66.9 84c1.5 0 2.8.2 4.1.7 1.3.5 2.4 1.2 3.3 2.1.9.9 1.6 2.1 2.2 3.5.5 1.4.8 3.1.8 5 0 1.7-.2 3.2-.6 4.6-.4 1.4-1.1 2.6-1.9 3.6-.9 1-1.9 1.8-3.2 2.4-1.3.6-2.8.9-4.6.9h-9.8V84h9.7zm-.3 18.6c.7 0 1.4-.1 2.1-.4.7-.2 1.3-.6 1.8-1.2.5-.5 1-1.3 1.3-2.1.3-.9.5-1.9.5-3.2 0-1.1-.1-2.2-.3-3.1-.2-.9-.6-1.7-1.1-2.4-.5-.7-1.2-1.2-2-1.5-.8-.4-1.9-.5-3.1-.5h-3.6v14.4h4.4zm13.5-7.2c.1-1.1.3-1.9.8-2.7.5-.7 1.1-1.3 1.8-1.7.7-.4 1.5-.7 2.4-.9.9-.2 1.8-.3 2.7-.3.8 0 1.7.1 2.5.2.9.1 1.6.3 2.3.7.7.3 1.3.8 1.7 1.4.4.6.7 1.4.7 2.4v8.6c0 .7 0 1.5.1 2.1.1.7.2 1.2.4 1.5h-4.6c-.1-.3-.2-.5-.2-.8-.1-.3-.1-.5-.1-.8-.7.7-1.6 1.3-2.6 1.6-1 .3-2 .4-3 .4-.8 0-1.5-.1-2.2-.3-.7-.2-1.3-.5-1.8-.9s-.9-.9-1.2-1.5c-.3-.6-.4-1.4-.4-2.2 0-.9.2-1.7.5-2.3.3-.6.8-1.1 1.3-1.5.5-.4 1.1-.6 1.8-.8.7-.2 1.3-.3 2-.4s1.4-.2 2-.3c.7-.1 1.2-.2 1.8-.3.5-.1.9-.3 1.2-.6.3-.2.4-.6.4-1.1 0-.5-.1-.9-.2-1.2-.2-.3-.4-.5-.6-.7-.3-.2-.6-.3-.9-.3-.4-.1-.7-.1-1.1-.1-.9 0-1.6.2-2.1.6-.5.4-.8 1-.9 1.9h-4.5zm10.5 3.3c-.2.2-.4.3-.7.4-.3.1-.6.2-.9.2-.3.1-.7.1-1 .2-.4 0-.7.1-1.1.2-.3.1-.7.1-1 .3-.3.1-.6.2-.9.4-.2.2-.4.4-.6.7-.1.3-.2.6-.2 1.1 0 .4.1.7.2 1 .1.3.4.5.6.7.3.2.6.3.9.3.3.1.7.1 1.1.1.9 0 1.6-.1 2.1-.4s.9-.7 1.1-1.1c.2-.4.4-.8.4-1.3.1-.4.1-.8.1-1v-1.8zm11.8 4c.2.4.5.6.8.9.3.2.7.4 1.1.5.4.1.8.2 1.3.2.3 0 .7 0 1-.1.3-.1.7-.2 1-.4.3-.2.5-.4.7-.6.2-.3.3-.6.3-1 0-.7-.5-1.2-1.4-1.5-.9-.3-2.2-.7-3.8-1-.7-.1-1.3-.3-1.9-.5-.6-.2-1.2-.5-1.7-.8-.5-.3-.9-.7-1.2-1.2-.3-.5-.4-1.1-.4-1.8 0-1.1.2-1.9.6-2.6.4-.7 1-1.2 1.6-1.6.7-.4 1.4-.7 2.3-.8.9-.2 1.7-.2 2.6-.2.9 0 1.8.1 2.6.3.8.2 1.6.5 2.3.9.7.4 1.2.9 1.6 1.6.4.7.7 1.5.8 2.5h-4.3c-.1-.9-.4-1.5-1-1.8-.6-.3-1.3-.5-2.1-.5h-.8c-.3 0-.6.1-.8.2-.2.1-.5.3-.6.5-.2.2-.3.5-.3.8 0 .4.1.7.4 1 .3.3.7.5 1.2.6.5.2 1 .3 1.6.4.6.1 1.2.3 1.9.4.7.1 1.3.3 1.9.5.6.2 1.2.5 1.7.8s.9.8 1.2 1.3.4 1.2.4 1.9c0 1.1-.2 2-.7 2.7-.4.7-1 1.3-1.7 1.8-.7.4-1.5.8-2.4.9-.9.2-1.8.3-2.8.3-1 0-1.9-.1-2.8-.3-.9-.2-1.7-.5-2.4-1-.7-.4-1.3-1-1.8-1.8-.5-.7-.7-1.7-.7-2.8h4.3c.1.5.2 1 .4 1.3zM120.3 84v8.6h.1c.6-1 1.3-1.7 2.2-2.1.9-.4 1.8-.7 2.6-.7 1.2 0 2.2.2 3 .5.8.3 1.4.8 1.8 1.4.4.6.8 1.3.9 2.1.2.8.3 1.8.3 2.8v10.2h-4.5v-9.3c0-1.4-.2-2.4-.6-3.1s-1.2-1-2.3-1c-1.2 0-2.1.4-2.7 1.1-.6.7-.8 1.9-.8 3.6v8.7h-4.5V84h4.5zm19 0v8.3h.1c.6-.9 1.3-1.5 2.3-1.9.9-.4 1.9-.6 3-.6.8 0 1.7.2 2.5.5s1.5.9 2.2 1.6c.7.7 1.2 1.6 1.6 2.7.4 1.1.6 2.4.6 3.9s-.2 2.8-.6 3.9c-.4 1.1-.9 2-1.6 2.7-.6.7-1.4 1.2-2.2 1.6-.8.3-1.6.5-2.5.5-1.2 0-2.3-.2-3.3-.6-1-.4-1.7-1-2.2-1.9h-.2v2.1h-4.3V84h4.6zm7.3 12.6c-.1-.6-.4-1.2-.7-1.7-.3-.5-.7-.9-1.2-1.2-.5-.3-1.1-.4-1.7-.4-.7 0-1.2.1-1.7.4-.5.3-.9.7-1.2 1.2-.3.5-.6 1.1-.7 1.7s-.2 1.3-.2 2 .1 1.3.2 2 .4 1.2.7 1.7c.3.5.7.9 1.2 1.2.5.3 1.1.4 1.7.4.7 0 1.3-.1 1.7-.4.5-.3.9-.7 1.2-1.2.3-.5.6-1.1.7-1.7.2-.6.2-1.3.2-2s0-1.4-.2-2zm7.7-1.6c.4-1.1 1-2 1.7-2.7.7-.8 1.6-1.3 2.7-1.8 1-.4 2.2-.6 3.5-.6 1.3 0 2.5.2 3.5.6 1.1.4 2 1 2.7 1.8.7.8 1.3 1.7 1.7 2.7.4 1.1.6 2.3.6 3.6 0 1.3-.2 2.5-.6 3.6-.4 1.1-1 2-1.7 2.7-.7.8-1.6 1.3-2.7 1.7s-2.2.6-3.5.6c-1.3 0-2.5-.2-3.5-.6s-1.9-1-2.7-1.7c-.7-.8-1.3-1.7-1.7-2.7-.4-1.1-.6-2.3-.6-3.6 0-1.3.2-2.5.6-3.6zm4.2 5.5c.1.6.3 1.2.7 1.7.3.5.7.9 1.2 1.2s1.1.4 1.9.4c.8 0 1.4-.1 1.9-.4s.9-.7 1.2-1.2c.3-.5.5-1.1.7-1.7.1-.6.2-1.3.2-1.9 0-.7-.1-1.3-.2-1.9-.1-.6-.3-1.2-.7-1.7-.3-.5-.7-.9-1.2-1.2-.5-.3-1.2-.5-1.9-.5-.8 0-1.4.2-1.9.5s-.9.7-1.2 1.2c-.3.5-.5 1.1-.7 1.7-.1.6-.2 1.3-.2 1.9 0 .6 0 1.3.2 1.9zm15.1-5.1c.1-1.1.3-1.9.8-2.7.5-.7 1.1-1.3 1.8-1.7.7-.4 1.5-.7 2.4-.9.9-.2 1.8-.3 2.7-.3.8 0 1.7.1 2.5.2.9.1 1.6.3 2.3.7.7.3 1.3.8 1.7 1.4.4.6.7 1.4.7 2.4v8.6c0 .7 0 1.5.1 2.1.1.7.2 1.2.4 1.5h-4.6c-.1-.3-.2-.5-.2-.8-.1-.3-.1-.5-.1-.8-.7.7-1.6 1.3-2.6 1.6-1 .3-2 .4-3 .4-.8 0-1.5-.1-2.2-.3s-1.3-.5-1.8-.9-.9-.9-1.2-1.5c-.3-.6-.4-1.4-.4-2.2 0-.9.2-1.7.5-2.3.3-.6.8-1.1 1.3-1.5.5-.4 1.1-.6 1.8-.8.7-.2 1.3-.3 2-.4s1.4-.2 2-.3c.7-.1 1.2-.2 1.8-.3.5-.1.9-.3 1.2-.6.3-.2.4-.6.4-1.1 0-.5-.1-.9-.2-1.2-.2-.3-.4-.5-.6-.7-.3-.2-.6-.3-.9-.3-.4-.1-.7-.1-1.1-.1-.9 0-1.6.2-2.1.6-.5.4-.8 1-.9 1.9h-4.5zm10.4 3.3c-.2.2-.4.3-.7.4-.3.1-.6.2-.9.2-.3.1-.7.1-1 .2-.4 0-.7.1-1.1.2-.3.1-.7.1-1 .3-.3.1-.6.2-.9.4-.2.2-.4.4-.6.7-.1.3-.2.6-.2 1.1 0 .4.1.7.2 1 .1.3.3.5.6.7.3.2.6.3.9.3.3.1.7.1 1.1.1.9 0 1.6-.1 2.1-.4.5-.3.9-.7 1.1-1.1.2-.4.4-.8.4-1.3.1-.4.1-.8.1-1v-1.8z"/>
  </g>
  <g class="st1">
    <path class="st2" d="M196.4 90.3v3.1h.1c.2-.5.5-1 .9-1.4.4-.4.8-.8 1.2-1.1.5-.3 1-.5 1.5-.7.5-.2 1.1-.3 1.7-.3.3 0 .6.1 1 .2v4.2c-.2 0-.5-.1-.8-.1h-.9c-.8 0-1.5.1-2.1.4-.6.3-1 .7-1.4 1.1s-.6 1-.8 1.7-.2 1.3-.2 2.1v7.4h-4.5V90.3h4.3z"/>
  </g>
  <g class="st1">
    <path class="st2" d="M215.7 104.7c-.5.9-1.2 1.5-2.1 1.9-.9.4-1.8.6-2.9.6-1.2 0-2.3-.2-3.3-.7-.9-.5-1.7-1.1-2.3-1.9-.6-.8-1.1-1.8-1.4-2.8-.3-1.1-.5-2.2-.5-3.3 0-1.1.2-2.2.5-3.2s.8-1.9 1.4-2.7c.6-.8 1.4-1.4 2.3-1.9.9-.5 2-.7 3.2-.7 1 0 1.9.2 2.8.6.9.4 1.6 1 2.1 1.8h.1V84h4.5v22.8h-4.3l-.1-2.1zm-.2-8.1c-.1-.6-.3-1.2-.7-1.7-.3-.5-.7-.9-1.2-1.2-.5-.3-1.1-.4-1.9-.4-.7 0-1.4.1-1.9.4-.5.3-.9.7-1.2 1.2-.3.5-.5 1-.7 1.7-.1.6-.2 1.3-.2 2 0 .6.1 1.3.2 1.9.1.6.4 1.2.7 1.7.3.5.7.9 1.2 1.2.5.3 1.1.5 1.8.5s1.4-.1 1.9-.4c.5-.3.9-.7 1.2-1.2.3-.5.5-1.1.6-1.7.1-.6.2-1.3.2-2 .2-.8.1-1.4 0-2z"/>
  </g>
  <path class="st2" d="M160.5 207.4l-3.7-.1c-.4 0-.7-.2-.9-.5-.2-.3-.4-.6-.3-1 .1-.8.2-1.5.4-2.3.4.2.8.5 1.2.8.8.5 1.5 1.1 2.1 1.7.4.5.8.9 1.2 1.4zm8.2-29v.7c-.1.7-.3 1.3-.4 1.8-.3 1.1-.6 1.8-1 2v-.9c-.4-1.1-.6-2.2-.6-3.4.1-.4.2-.7.5-1 0-2.5.5-4.9 1.5-7.1v-.3c.1-.3.2-.5.3-.8 0 1-.1 1.9-.3 2.9l-.1.2c.2.1.3.3.4.5v.9c-.1 1.6-.1 3-.3 4.5zm14.5 29.5v.3l-19.3-.7c-.3-.5-.7-.9-1-1.4-1.5-1.8-3.2-3.3-5.1-4.6l-1.1-.7c.2-.3.3-.6.5-.9 1.3-2.4 3.5-4.1 6-5 .3.4.6.8.9 1.1.4.5.9.9 1.4 1.3l1.2.2h.2c7.7 0 14.2 3.9 16 9.3.1.4.2.8.3 1.1z"/>
  <path class="st2" d="M197.5 207.4l-11.7-.4c-1.5-6.3-8-11.1-16-11.9-.9-.1-1.8-.1-2.6-.1h-.2c-.2-.2-.4-.4-.6-.7.8-.1 1.7-.2 2.6-.2 1.4-.4 2.4-1.5 2.7-2.9-1-1.4-1.8-3-2.5-4.6-.3-.1-.5-.3-.7-.5.1-.4.3-.8.4-1.1l.3-.3c1.2-1.5 2-3.3 2.2-5.2v-.5c.4-1.7.6-3.4.7-5.1v-1.2c-.1-.3-.1-.6-.3-.9.2-1.2.2-2.5.2-3.8.9-.8 1.9-1.3 3-1.6h-.9c1.3-.5 2.6-.8 3.9-.8 1.3 0 2.7.3 3.9.8 1.5.3 2.8.9 4.2 1.6h-.6c-.1 0 1.3.4 2.7 2.9-.2-.1-.4-.1-.6-.1 1 2.6 1.2 5.3.7 8v.1c.2 0 .3.2.3.5v.5c-.1 1.1-.3 2.1-.5 3.1v.3c-.5 1.9-.8 2.6-1.3 2.6h-.2c-.5 1.8-1.4 3.4-2.7 4.7l-.5.5c-.1 1.8.7 3.5 2.2 4.6l.8.2h.2c5.6.2 10.1 3.4 10.8 7.4-.1 1.3.1 2.7.1 4.1z"/>
  <path class="st3" d="M168.7 178.4v.1-.1zm0 0v.1-.1zm14.6 30v-.3c-.1-.3-.2-.7-.3-1-1.7-5.4-8.2-9.3-16-9.3h-.4l-1.2-.2c-.5-.4-1-.9-1.4-1.3-.3-.4-.6-.7-.9-1.1-.3-.4-.5-.8-.7-1.2-2.8 1-5.1 2.9-6.5 5.5-.2.3-.4.7-.6 1l1.2.6 1.1.7c1.9 1.3 3.6 2.8 5.1 4.6.4.4.7.9 1 1.4.3.5.6.9.8 1.3l18.9.7c.1-.6 0-1-.1-1.4zm13.6-4.9c-.7-4-5.2-7.2-10.8-7.4h-.1l-.8-.2c-1.4-1.1-2.3-2.8-2.2-4.6l.5-.5c1.2-1.3 2.2-3 2.7-4.7h.2c.5 0 .8-.7 1.3-2.6v-.3c.3-1 .5-2.1.5-3.1v-.5c0-.3-.1-.4-.3-.5v-.1c.5-2.7.3-5.5-.7-8 .2 0 .4.1.6.1-1.3-2.5-2.7-2.9-2.7-2.9h.6c-1.3-.7-2.7-1.3-4.2-1.6-1.2-.5-2.6-.8-3.9-.8-1.4 0-2.7.3-3.9.8h.9c-1.1.3-2.1.9-3 1.6.1 1.3 0 2.5-.2 3.8l.3.9v1.2c-.1 1.7-.3 3.4-.7 5.1v.5c-.2 1.9-.9 3.7-2.2 5.2l-.3.3c-.1.4-.3.7-.4 1.1.2.2.5.4.7.5.7 1.6 1.5 3.1 2.5 4.6-.3 1.4-1.3 2.5-2.7 2.9-.9 0-1.7.1-2.6.2.2.2.4.5.6.7h.2c.9 0 1.8 0 2.6.1 8.1.8 14.6 5.6 16 11.9l11.7.4c0-1.4-.1-2.9-.5-4.3l.3.2zm-28.4-25.2c-.1-1.7.2-3.5.6-5.1 0-.2-.2-.4-.4-.5l.1-.2c.2-1 .3-1.9.3-2.9v-2.3c-.7.8-1.2 1.8-1.5 2.8v.2c-1 2.2-1.6 4.6-1.6 7.1-.2.4-.4.7-.5 1.2-.2 1.3-.1 2.7.3 3.9v.5l.1.6v.1c0 .3 0 .5.1.7.2-.5.3-.9.4-1.4h.4c.4-.2.7-.8 1-2-.1-.6-.1-1.3 0-1.9 0-.2.2-.4.4-.5h.2v-.5l.1.2zm.2.1v.1-.1zm-8.2 29.1c-.4-.5-.9-.9-1.3-1.4-.7-.6-1.4-1.2-2.1-1.7-.4-.3-.8-.5-1.2-.8-.4-.3-.8-.5-1.2-.7-.2.9-.4 1.9-.5 2.9-.1 1.5 1 2.8 2.4 2.9h.1l4.9.2c-.3-.5-.7-1-1.1-1.4zm8.2-29.1v.1-.1zm0 0v.1-.1zm28.2 25.1c-.7-4-5.2-7.2-10.8-7.4h-.1l-.8-.2c-1.4-1.1-2.3-2.8-2.2-4.6l.5-.5c1.2-1.3 2.2-3 2.7-4.7h.2c.5 0 .8-.7 1.3-2.6v-.3c.3-1 .5-2.1.5-3.1v-.5c0-.3-.1-.4-.3-.5v-.1c.5-2.7.3-5.5-.7-8 .2 0 .4.1.6.1-1.3-2.5-2.7-2.9-2.7-2.9h.6c-1.3-.7-2.7-1.3-4.2-1.6-1.2-.5-2.6-.8-3.9-.8-1.4 0-2.7.3-3.9.8h.9c-1.1.3-2.1.9-3 1.6.1 1.3 0 2.5-.2 3.8l.3.9v1.2c-.1 1.7-.3 3.4-.7 5.1v.5c-.2 1.9-.9 3.7-2.2 5.2l-.3.3c-.1.4-.3.7-.4 1.1.2.2.5.4.7.5.7 1.6 1.5 3.1 2.5 4.6-.3 1.4-1.3 2.5-2.7 2.9-.9 0-1.7.1-2.6.2.2.2.4.5.6.7h.2c.9 0 1.8 0 2.6.1 8.1.8 14.6 5.6 16 11.9l11.7.4c0-1.4-.1-2.9-.5-4.3l.3.2zm-29.9-5.8h-.4l-1.2-.2c-.5-.4-1-.9-1.4-1.3-2.4.7-4.5 2.3-5.7 4.6-.2.3-.4.6-.5.9 1.9 1.3 3.6 2.8 5.1 4.6l20 .7c-1.6-5.5-8.1-9.4-15.9-9.4v.1zm-9.9 6.7c0 .5-.2 1.1-.2 1.6h2.3c-.7-.6-1.3-1.2-2.1-1.8v.2zm5.9 1.9l20 .7h2.8l11.7.4c0-1.4-.2-2.7-.6-4-.7-4-5.2-7.2-10.8-7.4h-.1l-.8-.2c-1.4-1.1-2.3-2.8-2.2-4.6l.5-.5c1.2-1.3 2.2-3 2.7-4.7h.2c.5 0 .8-.7 1.3-2.6v-.3c.3-1 .5-2.1.5-3.1v-.5c0-.3-.1-.4-.3-.5v-.1c.5-2.7.3-5.5-.7-8 .2 0 .4.1.6.1-1.3-2.5-2.7-2.9-2.7-2.9h.6c-1.3-.7-2.7-1.3-4.2-1.6-1.2-.5-2.6-.8-3.9-.8-1.4 0-2.7.3-3.9.8h.9c-1.1.3-2.1.9-3 1.6m-1.8 17.4c.7 1.8 1.7 3.5 2.8 5.2v.4c-.2 1.8-1.5 3.4-3.2 4.1m-11.9 7.7c.1-.4.3-.9.5-1.3.1-.3.3-.6.5-.9 1.2-2.2 3.3-3.9 5.7-4.6"/>
  <path class="st2" d="M144.2 166c-.1 2.2-.4 4.4-.9 6.5l-.1.6c-.9 4.1-1.5 5.5-2.6 5.5h-.3c-.2.8-.5 1.6-.8 2.4 0-.4-.2-.8-.3-1.2l-.3-1.3c0-.3-.1-.5-.1-.6-.5-1.6-.7-3.2-.6-4.8.1-.5.3-1 .7-1.3-.2-3.7.4-7.3 1.9-10.7v-.4c.5-1.8 1.5-3.5 3-4.7 0 .6 0 1.2.1 1.8.1 2 0 3.9-.5 5.9h.1c-.1.1-.1.2-.2.3h.1c.3 0 .5.5.6 1 .1.3.2.6.2 1zm20.2 49.2h-39.8c-.4 0-.7-.2-1-.4-.3-.3-.4-.6-.4-1 0-2.9.8-5.8 2.3-8.4 2.3-4.3 6.4-7.4 11.2-8.4.3.4.7.8 1 1.1s.9.8 1.3 1.2l1.6.3h.3c4.8 0 9.5 1.1 13.7 3.3.4.2.8.5 1.2.7.4.3.8.5 1.2.8.8.5 1.5 1.1 2.1 1.7.5.4.9.9 1.3 1.4.4.4.8.9 1.1 1.4 1.1 1.5 1.9 3.2 2.3 5v.4c.3.2.4.5.6.9z"/>
  <path class="st2" d="M184.3 213.8h-17.6v-.3c-.3-1.6-.9-3.1-1.7-4.6-.3-.5-.5-.9-.8-1.3-.3-.4-.7-.9-1-1.4-1.5-1.8-3.2-3.3-5.1-4.6l-1.1-.7-1.2-.6c-3.9-2-8.2-3.1-12.5-3.3 2.3-1.1 3.9-3.4 4.1-6v-.4l-.2-.2c-1.8-2.3-3.2-4.8-4.4-7.4h-.4c-.1 0-.3-.1-.4-.2.3-.6.5-1.3.7-1.9 2.1-1.1 2.7-4.3 3.4-7.2v-.7c.6-2.3.9-4.7 1-7.1v-1.5c-.1-.5-.2-.9-.5-1.3.4-2.4.4-4.9.1-7.3.7-.4 1.5-.8 2.3-1-.3-.1-.6-.1-.8-.1h-.5c2-.9 4.1-1.3 6.3-1.3 1.8 0 3.6.3 5.2 1 2.2.4 4.2 1.1 6.2 2.1h-.4c-.2 0-.5 0-.7.2s2 .5 4 4.1c-.3-.1-.6-.1-.8-.1.9 2.1 1.4 4.3 1.7 6.5v2.3c0 1-.1 1.9-.3 2.9l-.1.2c.2.1.3.3.4.5v.9c-.1 1.5-.3 2.9-.6 4.4v.7c-.1.7-.3 1.3-.4 1.8-.3 1.1-.6 1.8-1 2h-.6c-.1.4-.3.9-.4 1.4-.7 2.1-1.8 4-3.3 5.7-.2.2-.4.5-.6.7-.1 1 .1 2.1.5 3.1.2.4.4.8.7 1.2.3.4.6.8.9 1.1.4.5.9.9 1.4 1.3l1.2.2h.2c7.7 0 14.2 3.9 16 9.3.1.3.2.7.3 1v.3c.1.4.3.9.4 1.3.1 1.3.3 2.8.4 4.3z"/>
  <path class="st3" d="M142 161c.3-1.2 1-2.3 1.8-3.2 0-.6 0-1.2-.1-1.8-.1-.6-.1-1-.2-1.5-2 1.5-3.4 3.6-4.1 6v.4c-1.4 3.3-2 6.9-1.9 10.5-.3.5-.6 1-.7 1.6-.1 1.8.1 3.6.6 5.3 0 .1 0 .3.2.6l.2.9v.3c.2 1 .4 1.9.8 2.8.3-.6.6-1.2.8-1.9.3-.8.5-1.7.8-2.4l-.2-.9c-.4-1.4-.6-2.9-.6-4.4 0-.3.2-.6.5-.7h.1c.2 0 .3.1.4.2-.1-.2-.2-.4-.4-.5 0 0-.7-8.3 3-12.6-.3.3-.7.8-1 1.3zm20.2 29.4zM144.1 165c0-.5-.3-.9-.6-1h-.1c.1-.1.1-.2.2-.3h-.1c.4-1.9.6-3.9.5-5.9 0-.6 0-1.2-.1-1.8-.1-.6-.1-1-.2-1.5-2 1.5-3.4 3.6-4.1 6v.4c-1.4 3.3-2 6.9-1.9 10.5-.3.5-.6 1-.7 1.6-.1 1.8.1 3.6.6 5.3 0 .1 0 .3.2.6l.2.9v.3c.2 1 .4 1.9.8 2.8.3-.6.6-1.2.8-1.9.3-.8.5-1.7.8-2.4h.3c1.1 0 1.7-1.4 2.6-5.5l.1-.6c.5-2.1.8-4.3.9-6.5-.2-.3-.2-.7-.2-1zm18.1 25.5zm2.2 24.7c0-.3-.2-.7-.3-1v-.4c-.4-1.8-1.2-3.5-2.3-5-.3-.5-.7-.9-1.1-1.4-.4-.5-.9-.9-1.3-1.4-.7-.6-1.4-1.2-2.1-1.7-.4-.3-.8-.5-1.2-.8-.4-.3-.8-.5-1.2-.7-4.2-2.2-8.9-3.4-13.7-3.3h-.3l-1.6-.3c-.4-.3-.9-.8-1.3-1.2-.4-.4-.7-.7-1-1.1-.3-.4-.6-.7-.9-1.1-4.9 1.2-9 4.4-11.4 8.8-1.5 2.7-2.4 5.8-2.4 9-.1 1.5 1.1 2.7 2.5 2.8H165c-.5-.4-.6-.9-.6-1.2zm4.3-36.8v.1-.1zm-1.6 36.8h-1.4c.1.4.2.9.3 1.3h1.3c0-.5-.1-1-.2-1.3zm-2.7 0c0-.3-.2-.7-.3-1v-.4c-.4-1.8-1.2-3.5-2.3-5-.3-.5-.7-.9-1.1-1.4-.4-.5-.9-.9-1.3-1.4-.7-.6-1.4-1.2-2.1-1.7-.4-.3-.8-.5-1.2-.8-.4-.3-.8-.5-1.2-.7-4.2-2.2-8.9-3.4-13.7-3.3h-.3l-1.6-.3c-.4-.3-.9-.8-1.3-1.2-.4-.4-.7-.7-1-1.1-.3-.4-.6-.7-.9-1.1-4.9 1.2-9 4.4-11.4 8.8-1.5 2.7-2.4 5.8-2.4 9-.1 1.5 1.1 2.7 2.5 2.8H165c-.5-.4-.6-.9-.6-1.2zM144.2 165c0-.5-.3-.9-.6-1h-.1c.1-.1.1-.2.2-.3h-.1c.4-1.9.6-3.9.5-5.9 0-.6 0-1.2-.1-1.8s-.1-1-.2-1.5c-2 1.5-3.4 3.6-4.1 6v.4c-1.4 3.3-2 6.9-1.9 10.5-.3.5-.6 1-.7 1.6-.1 1.8.1 3.6.6 5.3 0 .1 0 .3.2.6l.2.9v.3c.2 1 .4 1.9.8 2.8.3-.6.6-1.2.8-1.9.3-.8.5-1.7.8-2.4h.3c1.1 0 1.7-1.4 2.6-5.5l.1-.6c.5-2.1.8-4.3.9-6.5-.2-.3-.2-.7-.2-1zm18.1 25.5zm0 0zm-21.3-9.2c-.1-.4-.3-.9-.4-1.5v-.4c0-.1 0-.3-.1-.5l-.2-.9c-.4-1.4-.6-2.9-.6-4.4 0-.3.2-.6.5-.7h.1c.2 0 .3.1.4.2-.1-.2-.2-.4-.4-.5 0 0-.7-8.3 3-12.6-.5.3-.9.8-1.2 1.3.3-1.2 1-2.3 1.8-3.2.4-.4.8-.8 1.3-1.2.4-.3.8-.6 1.3-.8.7-.4 1.5-.8 2.3-1-.3-.1-.6-.1-.8-.1h-.5m-5.5 27.9c.1.1.3.1.4.2h.4c1.2 2.6 2.7 5.1 4.4 7.4l.2.2v.4c-.3 2.6-1.9 4.8-4.2 5.8m20.7 16.9h-39.4c0-2.7.7-5.4 2.1-7.8 2.3-4.2 6.3-7.1 11.1-7.9.5-.1 1.1-.2 1.6-.3m8-43.2c2-.9 4.1-1.3 6.3-1.3 1.8 0 3.6.3 5.2 1 2.2.4 4.2 1.1 6.2 2.1h-.3c-.2 0-.5 0-.7.2s2 .5 4 4.1c-.3-.1-.6-.1-.8-.1.9 2.1 1.4 4.3 1.7 6.5v2.3c0 1-.1 1.9-.3 2.9l-.1.2c.2.1.3.3.4.5v.9c-.1 1.5-.3 2.9-.6 4.4v.6c-.1.7-.3 1.3-.4 1.8-.3 1.1-.6 1.8-1 2h-.6c-.1.4-.3.9-.4 1.4-.7 2.1-1.8 4-3.3 5.7-.2.2-.4.5-.6.7-.1 1 .1 2.1.5 3.1.2.4.4.8.7 1.2.3.4.6.8.9 1.1.4.5.9.9 1.4 1.3l1.2.2h.2c7.7 0 14.2 3.9 16 9.3.1.3.2.7.3 1v.3c.1.4.3.9.4 1.3.3 1.4.5 2.8.6 4.2h-17.3"/>
  <path class="st2" d="M165.5 222.5H80.7c0-3.9 1-7.7 2.9-11.1 3-6.8 11.4-11.7 21.5-11.9l.6-.3c5.8-2.7 6.8-6.8 7-9.1v-.6l-.2-.3c-2.5-3.3-4.6-6.8-6.3-10.6h-.5c-.4 0-.8-.3-1.2-1-.5-1.2-.9-2.4-1.1-3.6v-.6c-.2-.8-.5-1.9-.5-2-.6-2-.9-4.2-.8-6.3 0-.5.3-.9.8-1h-.2c.2 0 .4.1.6.2-.1-.3-.3-.6-.5-.8 0 0-1-11.7 4.3-17.8-.7.5-1.3 1.1-1.7 1.8 0 0 1.2-6 9.3-8.9-.4-.1-.8-.2-1.2-.2h-.7c2.8-1.2 5.9-1.9 9-1.9 2.5 0 5.1.5 7.4 1.4 3.1.6 6 1.6 8.8 3h-.4c-.3 0-.8 0-.9.2-.1.2 2.8.8 5.7 5.8-.4-.1-.8-.2-1.2-.2 1 2.4 1.7 5 2.1 7.6 0 .5.1 1 .2 1.5s0 1.2.1 1.8c.1 2 0 3.9-.5 5.9h.1c-.1.1-.1.2-.2.3h.1c.3 0 .5.5.6 1v1c-.1 2.2-.4 4.4-.9 6.5l.2.7c-.9 4.1-1.5 5.5-2.6 5.5h-.3c-.2.8-.5 1.6-.8 2.4-.2.6-.5 1.3-.8 1.9-1 2.1-2.2 4-3.7 5.7l-.9 1c-.2 2.1.4 4.3 1.6 6 .3.4.6.8.9 1.1.3.4.7.8 1 1.1.3.3.9.8 1.3 1.2l1.6.3h.3c4.8 0 9.5 1.1 13.7 3.3.4.2.8.5 1.2.7.4.3.8.5 1.2.8.8.5 1.5 1.1 2.1 1.7.5.4.9.9 1.3 1.4.4.4.8.9 1.1 1.4 1.1 1.5 1.9 3.2 2.3 5v.4c0 .3.2.6.3 1 .1.3.2.9.3 1.3.9 2.1 1.2 4.2 1.4 6.3z"/>
  <path class="st3" d="M167.1 215.2h-1.4c.1.4.2.9.3 1.3h1.3c0-.5-.1-1-.2-1.3zm-32.9-25.8zm0 0zm0 0zm4.6-6.3c-1 2.1-2.2 4-3.7 5.7l-.9 1c-.2 2.1.4 4.3 1.6 6 .3.4.6.8.9 1.1.3.4.7.8 1 1.1s.9.8 1.3 1.2l1.6.3h.3c4.8 0 9.5 1.1 13.7 3.3.4.2.8.5 1.2.7.4.3.8.5 1.2.8.8.5 1.5 1.1 2.1 1.7.5.4.9.9 1.3 1.4.4.4.8.9 1.1 1.4 1.1 1.5 1.9 3.2 2.3 5v.4c0 .3.2.6.3 1 .1.3.2.9.3 1.3.5 2 .7 4 .8 6H80.7c0-3.9 1-7.7 2.9-11.1 3-6.8 11.4-11.7 21.5-11.9l.6-.3c5.8-2.7 6.8-6.8 7-9.1v-.6l-.2-.3c-2.5-3.3-4.6-6.8-6.3-10.6h-.5c-.4 0-.8-.3-1.2-1-.5-1.2-.9-2.4-1.1-3.6v-.6c-.2-.8-.5-1.9-.5-2-.6-2-.9-4.2-.8-6.3 0-.5.3-.9.8-1h-.2c.2 0 .4.1.6.2-.1-.3-.3-.6-.5-.8 0 0-1-11.7 4.3-17.8-.7.5-1.3 1.1-1.7 1.8 0 0 1.2-6 9.3-8.9-.4-.1-.8-.2-1.2-.2h-.7c2.8-1.2 5.9-1.9 9-1.9 2.5 0 5.1.5 7.4 1.4 3.1.6 6 1.6 8.8 3h-.4c-.3 0-.8 0-.9.2-.1.2 2.8.8 5.7 5.8-.4-.1-.8-.2-1.2-.2 1 2.4 1.7 5 2.1 7.6 0 .5.1 1 .2 1.5s0 1.2.1 1.8c.1 2 0 3.9-.5 5.9h.1c-.1.1-.1.2-.2.3h.1c.3 0 .5.5.6 1v1c-.1 2.2-.4 4.4-.9 6.5l.2.7c-.9 4.1-1.5 5.5-2.6 5.5h-.3c-.2.8-.5 1.6-.8 2.4-.2.6-.5 1.3-.8 1.9"/>
</svg>
