<?xml version="1.0" encoding="utf-8"?>
<!-- Generator: Adobe Illustrator 21.1.0, SVG Export Plug-In . SVG Version: 6.00 Build 0)  -->
<svg version="1.1" id="Layer_1" xmlns="http://www.w3.org/2000/svg" xmlns:xlink="http://www.w3.org/1999/xlink" x="0px" y="0px"
	 viewBox="0 0 277 246" style="enable-background:new 0 0 277 246;" xml:space="preserve">
<style type="text/css">
	.st0{fill:#39B39D;stroke:#37B39D;stroke-width:5;stroke-miterlimit:10;}
	.st1{fill:#FFFFFF;}
	.st2{fill:#3486B0;}
	.st3{fill:#F89823;}
	.st4{fill:#39B39D;}
	.st5{fill:#A5A4A4;}
	.st6{fill:#3486B0;stroke:#3586B0;stroke-width:5;stroke-miterlimit:10;}
	.st7{fill-rule:evenodd;clip-rule:evenodd;fill:#FFFFFF;}
	.st8{fill:#F89823;stroke:#F89824;stroke-width:5;stroke-miterlimit:10;}
	.st9{fill:#676868;}
	.st10{opacity:0.25;clip-path:url(#SVGID_2_);}
	.st11{clip-path:url(#SVGID_4_);}
	.st12{fill:#F8C990;}
	.st13{clip-path:url(#SVGID_6_);fill:#F8C990;}
	.st14{clip-path:url(#SVGID_6_);fill:#FFFFFF;}
	.st15{clip-path:url(#SVGID_6_);}
	.st16{clip-path:url(#SVGID_6_);fill:none;stroke:#FFFFFF;stroke-width:9;stroke-miterlimit:10;}
	.st17{fill:none;}
	.st18{clip-path:url(#SVGID_8_);}
	.st19{clip-path:url(#SVGID_10_);fill:#F8C990;}
	.st20{clip-path:url(#SVGID_10_);fill:#FFFFFF;}
	.st21{clip-path:url(#SVGID_10_);}
	.st22{clip-path:url(#SVGID_10_);fill:none;stroke:#FFFFFF;stroke-width:9;stroke-miterlimit:10;}
	.st23{opacity:0.25;clip-path:url(#SVGID_12_);}
	.st24{clip-path:url(#SVGID_14_);}
</style>
<g>
	<polygon class="st0" points="273.2,123.5 214.7,243.7 61.4,243.7 2.9,123.5 61.4,3.3 214.7,3.3 	"/>
</g>
<g>
	<g>
		<path class="st1" d="M76.8,37.3c1,0,1.9,0.2,2.7,0.5s1.5,0.8,2.1,1.3c0.6,0.6,1,1.2,1.3,2c0.3,0.8,0.5,1.6,0.5,2.4
			c0,1.3-0.3,2.5-0.8,3.5c-0.6,1-1.5,1.7-2.7,2.2v0.1c0.6,0.2,1.1,0.4,1.5,0.8s0.7,0.8,1,1.2c0.3,0.5,0.4,1,0.6,1.6
			c0.1,0.6,0.2,1.1,0.2,1.7c0,0.4,0,0.8,0.1,1.3c0,0.5,0.1,1,0.1,1.5c0.1,0.5,0.1,1,0.3,1.4s0.3,0.8,0.5,1.2h-5
			c-0.3-0.7-0.4-1.6-0.5-2.6c-0.1-1-0.2-1.9-0.3-2.9c-0.2-1.2-0.5-2.1-1.1-2.6c-0.6-0.6-1.5-0.8-2.7-0.8h-5V60h-5V37.3H76.8z
			 M75,47.6c1.1,0,2-0.3,2.6-0.8c0.6-0.5,0.9-1.3,0.9-2.5c0-1.1-0.3-1.9-0.9-2.4c-0.6-0.5-1.4-0.7-2.6-0.7h-5.5v6.4H75z"/>
		<path class="st1" d="M91.8,56c0.7,0.7,1.7,1,2.9,1c0.9,0,1.7-0.2,2.4-0.7s1.1-0.9,1.2-1.4h4c-0.6,2-1.6,3.4-2.9,4.2
			c-1.3,0.8-2.9,1.3-4.8,1.3c-1.3,0-2.5-0.2-3.5-0.6c-1-0.4-1.9-1-2.6-1.8c-0.7-0.8-1.3-1.7-1.7-2.7c-0.4-1.1-0.6-2.2-0.6-3.5
			c0-1.2,0.2-2.4,0.6-3.4c0.4-1.1,1-2,1.7-2.7c0.7-0.8,1.6-1.4,2.7-1.8c1-0.4,2.2-0.7,3.4-0.7c1.4,0,2.6,0.3,3.7,0.8
			c1,0.5,1.9,1.3,2.6,2.2c0.7,0.9,1.1,1.9,1.4,3.1c0.3,1.2,0.4,2.4,0.3,3.7H90.7C90.8,54.3,91.1,55.4,91.8,56z M96.9,47.4
			c-0.5-0.6-1.4-0.9-2.5-0.9c-0.7,0-1.3,0.1-1.8,0.4c-0.5,0.2-0.9,0.5-1.1,0.9c-0.3,0.4-0.5,0.7-0.6,1.1c-0.1,0.4-0.2,0.8-0.2,1.1
			H98C97.8,48.9,97.5,48,96.9,47.4z"/>
		<path class="st1" d="M109.5,43.5v2.1h0.1c0.5-0.9,1.2-1.5,2.1-1.9c0.8-0.4,1.8-0.6,2.8-0.6c1.3,0,2.4,0.2,3.3,0.7
			c0.9,0.5,1.7,1.1,2.3,1.9c0.6,0.8,1.1,1.7,1.4,2.8c0.3,1.1,0.4,2.2,0.4,3.4c0,1.1-0.1,2.2-0.4,3.2c-0.3,1-0.7,1.9-1.3,2.7
			c-0.6,0.8-1.4,1.4-2.3,1.9c-0.9,0.5-2,0.7-3.2,0.7c-1,0-2-0.2-2.8-0.6c-0.9-0.4-1.6-1-2.1-1.8h-0.1v7.8h-4.5V43.5H109.5z
			 M115.4,56.6c0.5-0.3,0.9-0.7,1.2-1.2c0.3-0.5,0.5-1,0.7-1.7c0.1-0.6,0.2-1.3,0.2-1.9c0-0.7-0.1-1.3-0.2-1.9
			c-0.1-0.6-0.4-1.2-0.7-1.7c-0.3-0.5-0.7-0.9-1.2-1.2c-0.5-0.3-1.1-0.5-1.8-0.5c-0.7,0-1.4,0.2-1.9,0.5c-0.5,0.3-0.9,0.7-1.2,1.2
			c-0.3,0.5-0.5,1-0.7,1.7c-0.1,0.6-0.2,1.3-0.2,2c0,0.7,0.1,1.3,0.2,1.9c0.1,0.6,0.4,1.2,0.7,1.7s0.7,0.9,1.2,1.2
			c0.5,0.3,1.1,0.4,1.8,0.4C114.3,57,114.9,56.9,115.4,56.6z"/>
		<path class="st1" d="M124.7,48.2c0.4-1.1,1-2,1.7-2.7c0.7-0.8,1.6-1.3,2.7-1.7c1-0.4,2.2-0.6,3.5-0.6c1.3,0,2.5,0.2,3.5,0.6
			c1,0.4,1.9,1,2.7,1.7c0.7,0.8,1.3,1.7,1.7,2.7s0.6,2.3,0.6,3.6c0,1.3-0.2,2.5-0.6,3.6c-0.4,1.1-1,2-1.7,2.7
			c-0.7,0.8-1.6,1.3-2.7,1.7c-1,0.4-2.2,0.6-3.5,0.6c-1.3,0-2.5-0.2-3.5-0.6c-1-0.4-1.9-1-2.7-1.7c-0.7-0.8-1.3-1.7-1.7-2.7
			c-0.4-1.1-0.6-2.2-0.6-3.6C124.1,50.5,124.3,49.3,124.7,48.2z M128.8,53.7c0.1,0.6,0.3,1.2,0.7,1.7c0.3,0.5,0.7,0.9,1.2,1.2
			c0.5,0.3,1.1,0.4,1.9,0.4s1.4-0.1,1.9-0.4c0.5-0.3,0.9-0.7,1.2-1.2c0.3-0.5,0.5-1.1,0.7-1.7s0.2-1.3,0.2-1.9s-0.1-1.3-0.2-1.9
			c-0.1-0.6-0.3-1.2-0.7-1.7s-0.7-0.9-1.2-1.2c-0.5-0.3-1.2-0.5-1.9-0.5s-1.4,0.2-1.9,0.5c-0.5,0.3-0.9,0.7-1.2,1.2
			c-0.3,0.5-0.5,1-0.7,1.7c-0.1,0.6-0.2,1.3-0.2,1.9S128.7,53.1,128.8,53.7z"/>
		<path class="st1" d="M148.3,43.5v3h0.1c0.2-0.5,0.5-1,0.9-1.4c0.4-0.4,0.8-0.8,1.2-1.1c0.5-0.3,1-0.5,1.5-0.7
			c0.5-0.2,1.1-0.3,1.7-0.3c0.3,0,0.6,0.1,1,0.2v4.2c-0.2,0-0.5-0.1-0.8-0.1c-0.3,0-0.6,0-0.9,0c-0.8,0-1.5,0.1-2.1,0.4
			c-0.6,0.3-1,0.7-1.4,1.1c-0.3,0.5-0.6,1-0.7,1.7c-0.1,0.6-0.2,1.3-0.2,2.1V60H144V43.5H148.3z"/>
		<path class="st1" d="M165.4,43.5v3h-3.3v8.1c0,0.8,0.1,1.3,0.4,1.5s0.8,0.4,1.5,0.4c0.3,0,0.5,0,0.7,0c0.2,0,0.5-0.1,0.7-0.1V60
			c-0.4,0.1-0.8,0.1-1.3,0.1c-0.5,0-0.9,0-1.4,0c-0.7,0-1.4,0-2-0.1c-0.6-0.1-1.2-0.3-1.7-0.6s-0.9-0.7-1.1-1.2
			c-0.3-0.5-0.4-1.2-0.4-2v-9.7h-2.7v-3h2.7v-4.9h4.5v4.9H165.4z"/>
		<path class="st1" d="M167.7,41v-3.7h4.5V41H167.7z M172.2,43.5V60h-4.5V43.5H172.2z"/>
		<path class="st1" d="M180.1,43.5v2.3h0.1c0.6-1,1.3-1.6,2.2-2.1s1.8-0.7,2.8-0.7c1.2,0,2.2,0.2,3,0.5c0.8,0.3,1.4,0.8,1.8,1.4
			c0.4,0.6,0.8,1.3,0.9,2.1c0.2,0.8,0.3,1.8,0.3,2.8V60h-4.5v-9.3c0-1.4-0.2-2.4-0.6-3c-0.4-0.7-1.2-1-2.3-1c-1.2,0-2.1,0.4-2.7,1.1
			s-0.8,1.9-0.8,3.6V60h-4.5V43.5H180.1z"/>
		<path class="st1" d="M210.1,61.2c-0.2,0.8-0.6,1.6-1.2,2.4s-1.5,1.4-2.6,1.9c-1.1,0.5-2.6,0.8-4.5,0.8c-0.8,0-1.6-0.1-2.5-0.3
			c-0.8-0.2-1.6-0.5-2.3-0.9s-1.3-1-1.7-1.6c-0.5-0.7-0.7-1.5-0.8-2.4h4.5c0.2,0.8,0.6,1.4,1.2,1.8c0.6,0.3,1.3,0.5,2.1,0.5
			c1.3,0,2.2-0.4,2.8-1.1c0.6-0.8,0.9-1.7,0.8-2.9V57H206c-0.5,0.9-1.2,1.5-2.1,1.9c-0.9,0.4-1.8,0.6-2.8,0.6
			c-1.2,0-2.3-0.2-3.2-0.7c-0.9-0.4-1.6-1-2.2-1.8c-0.6-0.8-1-1.6-1.3-2.6c-0.3-1-0.4-2.1-0.4-3.2c0-1.1,0.2-2.1,0.5-3.1
			c0.3-1,0.8-1.9,1.3-2.6s1.3-1.4,2.2-1.8c0.9-0.4,1.9-0.7,3-0.7c1.1,0,2,0.2,2.8,0.6s1.5,1.1,2,2h0.1v-2.2h4.3v15.4
			C210.4,59.6,210.3,60.3,210.1,61.2z M203.9,55.7c0.5-0.3,0.9-0.6,1.2-1c0.3-0.4,0.6-0.9,0.7-1.4c0.2-0.5,0.2-1.1,0.2-1.7
			c0-0.7-0.1-1.3-0.2-1.9s-0.3-1.1-0.6-1.6c-0.3-0.5-0.7-0.8-1.2-1.1c-0.5-0.3-1.1-0.4-1.8-0.4c-0.6,0-1.2,0.1-1.6,0.4
			s-0.8,0.6-1.1,1c-0.3,0.4-0.5,0.9-0.7,1.5c-0.1,0.6-0.2,1.1-0.2,1.8c0,0.6,0.1,1.2,0.2,1.8c0.1,0.6,0.3,1.1,0.6,1.6
			c0.3,0.5,0.7,0.8,1.1,1.1c0.5,0.3,1,0.4,1.7,0.4C202.9,56.1,203.5,56,203.9,55.7z"/>
		<path class="st1" d="M64.8,97.8c-1,0.4-2.2,0.7-3.5,0.7c-1,0-2-0.1-2.9-0.4c-0.9-0.3-1.7-0.7-2.3-1.3c-0.7-0.6-1.2-1.3-1.6-2.1
			c-0.4-0.8-0.6-1.8-0.6-2.9c0-0.8,0.1-1.5,0.4-2.2c0.3-0.7,0.7-1.3,1.1-1.8c0.5-0.5,1-1,1.6-1.4c0.6-0.4,1.2-0.8,1.9-1.1
			c-0.6-0.7-1.1-1.5-1.5-2.2c-0.4-0.7-0.6-1.6-0.6-2.6c0-0.8,0.2-1.5,0.5-2.1c0.3-0.6,0.8-1.2,1.3-1.6s1.2-0.8,1.9-1
			c0.7-0.2,1.4-0.4,2.2-0.4c0.9,0,1.7,0.1,2.4,0.3c0.8,0.2,1.4,0.6,2,1c0.6,0.5,1,1,1.3,1.7c0.3,0.7,0.5,1.5,0.5,2.4
			c0,1.3-0.4,2.5-1.2,3.4c-0.8,0.9-1.7,1.7-2.9,2.3l2.9,3.6c0.2-0.4,0.4-0.9,0.5-1.3c0.1-0.5,0.2-0.9,0.3-1.4h3.9
			c-0.1,1-0.3,2-0.7,3s-0.9,1.8-1.5,2.6l4.6,5.4h-5.5l-1.8-2.3C66.8,96.7,65.8,97.4,64.8,97.8z M60.2,88.7c-0.4,0.2-0.7,0.5-1,0.8
			c-0.3,0.3-0.5,0.7-0.7,1c-0.2,0.4-0.3,0.8-0.3,1.3c0,0.4,0.1,0.8,0.3,1.2c0.2,0.4,0.4,0.7,0.7,1c0.3,0.3,0.6,0.5,1,0.6
			c0.4,0.2,0.8,0.2,1.2,0.2c0.8,0,1.5-0.2,2.1-0.6c0.6-0.4,1.2-0.9,1.7-1.4l-3.9-4.7C61,88.3,60.6,88.5,60.2,88.7z M64.5,78.8
			c-0.4-0.4-0.9-0.6-1.4-0.6s-1,0.2-1.4,0.6c-0.4,0.4-0.6,0.9-0.6,1.4c0,0.7,0.2,1.3,0.6,1.8c0.4,0.5,0.8,1,1.2,1.6
			c0.6-0.4,1.2-0.8,1.6-1.3c0.5-0.5,0.7-1.1,0.7-1.9C65.1,79.7,64.9,79.2,64.5,78.8z"/>
		<path class="st1" d="M97,75.4l8.5,22.7h-5.2L98.6,93h-8.5l-1.8,5.1h-5l8.6-22.7H97z M97.3,89.3L94.5,81h-0.1l-3,8.3H97.3z"/>
		<path class="st1" d="M111.3,81.7V84h0.1c0.6-1,1.3-1.6,2.2-2.1s1.8-0.7,2.8-0.7c1.2,0,2.2,0.2,3,0.5c0.8,0.3,1.4,0.8,1.8,1.4
			c0.4,0.6,0.8,1.3,0.9,2.1c0.2,0.8,0.3,1.8,0.3,2.8v10.1h-4.5v-9.3c0-1.4-0.2-2.4-0.6-3c-0.4-0.7-1.2-1-2.3-1
			c-1.2,0-2.1,0.4-2.7,1.1s-0.8,1.9-0.8,3.6v8.6H107V81.7H111.3z"/>
		<path class="st1" d="M125.6,86.7c0.1-1.1,0.3-1.9,0.8-2.6c0.5-0.7,1.1-1.3,1.8-1.7c0.7-0.4,1.5-0.7,2.4-0.9
			c0.9-0.2,1.8-0.3,2.7-0.3c0.8,0,1.7,0.1,2.5,0.2s1.6,0.3,2.3,0.7c0.7,0.3,1.3,0.8,1.7,1.4s0.7,1.4,0.7,2.4v8.5
			c0,0.7,0,1.5,0.1,2.1s0.2,1.2,0.4,1.5h-4.6c-0.1-0.3-0.2-0.5-0.2-0.8s-0.1-0.5-0.1-0.8c-0.7,0.7-1.6,1.3-2.5,1.6
			c-1,0.3-2,0.4-3,0.4c-0.8,0-1.5-0.1-2.2-0.3c-0.7-0.2-1.3-0.5-1.8-0.9c-0.5-0.4-0.9-0.9-1.2-1.5s-0.4-1.3-0.4-2.2
			c0-0.9,0.2-1.7,0.5-2.3s0.8-1.1,1.3-1.4c0.5-0.4,1.1-0.6,1.8-0.8s1.3-0.3,2-0.4c0.7-0.1,1.3-0.2,2-0.3s1.2-0.2,1.7-0.3
			c0.5-0.1,0.9-0.3,1.2-0.6c0.3-0.2,0.4-0.6,0.4-1.1c0-0.5-0.1-0.9-0.2-1.2c-0.2-0.3-0.4-0.5-0.6-0.7c-0.3-0.2-0.6-0.3-0.9-0.3
			c-0.3-0.1-0.7-0.1-1.1-0.1c-0.9,0-1.6,0.2-2.1,0.6c-0.5,0.4-0.8,1-0.9,1.9H125.6z M136.1,90.1c-0.2,0.2-0.4,0.3-0.7,0.4
			c-0.3,0.1-0.6,0.2-0.9,0.2s-0.7,0.1-1,0.2c-0.4,0-0.7,0.1-1.1,0.2c-0.3,0.1-0.7,0.1-1,0.3c-0.3,0.1-0.6,0.2-0.9,0.4
			s-0.4,0.4-0.6,0.7c-0.1,0.3-0.2,0.6-0.2,1c0,0.4,0.1,0.7,0.2,1c0.1,0.3,0.3,0.5,0.6,0.7c0.3,0.2,0.6,0.3,0.9,0.3s0.7,0.1,1,0.1
			c0.9,0,1.6-0.1,2.1-0.4s0.8-0.7,1.1-1.1c0.2-0.4,0.4-0.8,0.4-1.3c0.1-0.4,0.1-0.8,0.1-1V90.1z"/>
		<path class="st1" d="M148.7,75.4v22.7h-4.5V75.4H148.7z"/>
		<path class="st1" d="M158.3,103c-0.9,0.6-2.1,0.9-3.6,0.9c-0.5,0-0.9,0-1.4,0c-0.5,0-0.9-0.1-1.4-0.1V100c0.4,0,0.9,0.1,1.3,0.1
			c0.4,0,0.9,0.1,1.3,0c0.6-0.1,1-0.3,1.3-0.7s0.4-0.8,0.4-1.3c0-0.4-0.1-0.7-0.2-1l-5.8-15.4h4.8l3.7,11.2h0.1l3.6-11.2h4.7
			l-6.9,18.5C159.9,101.5,159.2,102.4,158.3,103z"/>
		<path class="st1" d="M177.8,81.7v3h-3.3v8.1c0,0.8,0.1,1.3,0.4,1.5s0.8,0.4,1.5,0.4c0.3,0,0.5,0,0.7,0c0.2,0,0.5-0.1,0.7-0.1v3.5
			c-0.4,0.1-0.8,0.1-1.3,0.1c-0.5,0-0.9,0-1.4,0c-0.7,0-1.4,0-2-0.1c-0.6-0.1-1.2-0.3-1.7-0.6s-0.9-0.7-1.1-1.2
			c-0.3-0.5-0.4-1.2-0.4-2v-9.7h-2.7v-3h2.7v-4.9h4.5v4.9H177.8z"/>
		<path class="st1" d="M180.1,79.1v-3.7h4.5v3.7H180.1z M184.6,81.7v16.4h-4.5V81.7H184.6z"/>
		<path class="st1" d="M196,84.6c-0.7,0-1.3,0.2-1.8,0.5c-0.5,0.3-0.9,0.8-1.2,1.3c-0.3,0.5-0.5,1.1-0.7,1.7
			c-0.1,0.6-0.2,1.2-0.2,1.9c0,0.6,0.1,1.2,0.2,1.8s0.3,1.2,0.6,1.7c0.3,0.5,0.7,0.9,1.2,1.2c0.5,0.3,1.1,0.5,1.8,0.5
			c1.1,0,1.9-0.3,2.5-0.9c0.6-0.6,0.9-1.4,1.1-2.4h4.4c-0.3,2.2-1.1,3.8-2.5,5s-3.2,1.7-5.4,1.7c-1.2,0-2.4-0.2-3.4-0.6
			c-1-0.4-1.9-1-2.6-1.7s-1.3-1.6-1.7-2.7s-0.6-2.2-0.6-3.4c0-1.3,0.2-2.5,0.6-3.5s0.9-2,1.6-2.8s1.6-1.4,2.6-1.9
			c1-0.4,2.2-0.7,3.6-0.7c1,0,1.9,0.1,2.8,0.4c0.9,0.3,1.7,0.6,2.4,1.2c0.7,0.5,1.3,1.2,1.7,1.9c0.4,0.8,0.7,1.7,0.8,2.7h-4.4
			C199,85.6,197.9,84.6,196,84.6z"/>
		<path class="st1" d="M210.2,94c0.2,0.3,0.5,0.6,0.8,0.9c0.3,0.2,0.7,0.4,1.1,0.5c0.4,0.1,0.8,0.2,1.3,0.2c0.3,0,0.7,0,1-0.1
			c0.3-0.1,0.7-0.2,1-0.3c0.3-0.2,0.5-0.4,0.7-0.6s0.3-0.6,0.3-1c0-0.7-0.5-1.2-1.3-1.5c-0.9-0.3-2.2-0.7-3.8-1
			c-0.7-0.1-1.3-0.3-1.9-0.5s-1.2-0.5-1.7-0.8c-0.5-0.3-0.9-0.7-1.2-1.2c-0.3-0.5-0.4-1.1-0.4-1.8c0-1.1,0.2-1.9,0.6-2.6
			c0.4-0.7,1-1.2,1.6-1.6s1.4-0.7,2.3-0.8c0.8-0.2,1.7-0.2,2.6-0.2c0.9,0,1.8,0.1,2.6,0.3c0.8,0.2,1.6,0.5,2.2,0.9
			c0.7,0.4,1.2,0.9,1.6,1.6c0.4,0.7,0.7,1.5,0.8,2.5h-4.3c-0.1-0.9-0.4-1.5-1-1.8s-1.3-0.5-2.1-0.5c-0.3,0-0.5,0-0.8,0
			c-0.3,0-0.6,0.1-0.8,0.2c-0.2,0.1-0.5,0.3-0.6,0.5c-0.2,0.2-0.3,0.5-0.3,0.8c0,0.4,0.1,0.7,0.4,1c0.3,0.3,0.7,0.5,1.2,0.6
			s1,0.3,1.6,0.4s1.2,0.3,1.9,0.4c0.7,0.1,1.3,0.3,1.9,0.5s1.2,0.5,1.7,0.8s0.9,0.8,1.2,1.3c0.3,0.5,0.4,1.2,0.4,1.9
			c0,1.1-0.2,2-0.7,2.7c-0.4,0.7-1,1.3-1.7,1.8c-0.7,0.4-1.5,0.8-2.4,0.9c-0.9,0.2-1.8,0.3-2.7,0.3c-1,0-1.9-0.1-2.8-0.3
			c-0.9-0.2-1.7-0.5-2.4-1c-0.7-0.4-1.3-1-1.7-1.8c-0.5-0.7-0.7-1.6-0.7-2.7h4.3C209.9,93.2,210,93.7,210.2,94z"/>
	</g>
	<g>
		<path class="st1" d="M131.9,125.7c2.1-0.2,3.9,1.5,3.9,3.6v46l-0.3,0.7l-17,42c-0.8,2-3.1,2.8-5,1.8
			c-16.6-8.9-26.5-26.1-26.5-44.2c0-6.3,1.2-12.6,3.7-18.8C97.9,139.1,113.5,127.6,131.9,125.7z"/>
		<polygon class="st1" points="133,190.3 135.8,183.2 135.8,183.2 		"/>
		<path class="st1" d="M169,209.3c1.5,1.5,1.4,4-0.3,5.3c-9.1,7.4-19.8,11.3-30.9,11.3c-4.7,0-9.5-0.7-14.3-2.1
			c-2-0.6-3.1-2.8-2.3-4.8l11.6-28.8l2.9-7.1v0c1-2.4,4-3,5.8-1.2L169,209.3z"/>
		<path class="st1" d="M187.5,175.5c0,6.3-1.2,12.6-3.7,18.8c-1.9,4.7-4.3,8.8-7.4,12.6c-1.3,1.6-3.8,1.7-5.3,0.2l-30.4-30.4
			c-1-1-1.3-2.5-0.8-3.9l16.1-39.8c0.8-2,3.1-2.8,5-1.8C177.6,140.2,187.5,157.4,187.5,175.5z"/>
		<path class="st1" d="M138.8,149.5v-20.3c0-2.1,1.8-3.8,3.9-3.6c2.9,0.3,5.6,0.8,8.4,1.6c2,0.6,3,2.8,2.2,4.7l-7.6,18.9
			C144.2,154.5,138.8,153.4,138.8,149.5z"/>
		<polygon class="st1" points="135.8,183.2 137.9,178.2 135.8,183.2 		"/>
	</g>
</g>
</svg>
