<?xml version="1.0" encoding="utf-8"?>
<!-- Generator: Adobe Illustrator 21.1.0, SVG Export Plug-In . SVG Version: 6.00 Build 0)  -->
<svg version="1.1" id="Layer_1" xmlns="http://www.w3.org/2000/svg" xmlns:xlink="http://www.w3.org/1999/xlink" x="0px" y="0px"
	 viewBox="0 0 276.7 246.1" style="enable-background:new 0 0 276.7 246.1;" xml:space="preserve">
<style type="text/css">
	.st0{fill:#39B39D;stroke:#37B39D;stroke-width:5;stroke-miterlimit:10;}
	.st1{enable-background:new    ;}
	.st2{fill:#FFFFFF;}
</style>
<path class="st0" d="M273.9,123l-58.8,120.6H61.5L2.8,123L61.5,2.5h153.6L273.9,123z"/>
<g class="st1">
	<path class="st2" d="M89.9,59.6L86,44.1l-3.8,15.5h-5.1l-6-22.8h5l3.6,15.5h0.1l4-15.5h4.7l3.9,15.7h0.1l3.7-15.7h4.9L95,59.6H89.9
		z"/>
</g>
<path class="st2" d="M105.9,55.6c0.7,0.7,1.7,1,2.9,1c0.9,0,1.7-0.2,2.4-0.7c0.7-0.5,1.1-0.9,1.2-1.5h4c-0.6,2-1.6,3.4-2.9,4.2
	c-1.3,0.9-2.9,1.3-4.8,1.3c-1.3,0-2.5-0.2-3.5-0.6c-1-0.4-1.9-1-2.7-1.8c-0.7-0.8-1.3-1.7-1.7-2.7c-0.4-1.1-0.6-2.2-0.6-3.5
	c0-1.2,0.2-2.4,0.6-3.4c0.4-1.1,1-2,1.7-2.8s1.6-1.4,2.7-1.8c1-0.4,2.2-0.7,3.4-0.7c1.4,0,2.6,0.3,3.7,0.8c1,0.5,1.9,1.3,2.6,2.2
	s1.2,2,1.5,3.1c0.3,1.2,0.4,2.4,0.3,3.7h-11.9C104.8,53.9,105.2,55,105.9,55.6z M111,47c-0.5-0.6-1.4-0.9-2.5-0.9
	c-0.7,0-1.3,0.1-1.8,0.4c-0.5,0.2-0.9,0.6-1.1,0.9c-0.3,0.4-0.5,0.7-0.6,1.1c-0.1,0.4-0.2,0.8-0.2,1.1h7.4
	C111.9,48.4,111.5,47.6,111,47z M124,36.8v22.8h-4.5V36.8H124z M132.3,36.8v22.8h-4.5V36.8H132.3z M140.2,43.1v2.3h0.1
	c0.6-1,1.3-1.7,2.2-2.1c0.9-0.4,1.9-0.7,2.8-0.7c1.2,0,2.2,0.2,3,0.5s1.4,0.8,1.8,1.4s0.8,1.3,0.9,2.1c0.2,0.8,0.3,1.8,0.3,2.8v10.2
	h-4.5v-9.3c0-1.4-0.2-2.4-0.6-3.1c-0.4-0.7-1.2-1-2.3-1c-1.2,0-2.1,0.4-2.7,1.1c-0.6,0.7-0.8,1.9-0.8,3.6v8.7h-4.5V43.1H140.2z
	 M159.6,55.6c0.7,0.7,1.7,1,2.9,1c0.9,0,1.7-0.2,2.4-0.7s1.1-0.9,1.2-1.5h4c-0.6,2-1.6,3.4-2.9,4.2c-1.3,0.9-2.9,1.3-4.8,1.3
	c-1.3,0-2.5-0.2-3.5-0.6c-1-0.4-1.9-1-2.7-1.8c-0.7-0.8-1.3-1.7-1.7-2.7c-0.4-1.1-0.6-2.2-0.6-3.5c0-1.2,0.2-2.4,0.6-3.4
	c0.4-1.1,1-2,1.7-2.8s1.6-1.4,2.7-1.8c1-0.4,2.2-0.7,3.4-0.7c1.4,0,2.6,0.3,3.7,0.8c1,0.5,1.9,1.3,2.6,2.2s1.2,2,1.5,3.1
	c0.3,1.2,0.4,2.4,0.3,3.7h-11.9C158.6,53.9,159,55,159.6,55.6z M164.8,47c-0.5-0.6-1.4-0.9-2.5-0.9c-0.7,0-1.3,0.1-1.8,0.4
	c-0.5,0.2-0.9,0.6-1.1,0.9c-0.3,0.4-0.5,0.7-0.6,1.1c-0.1,0.4-0.2,0.8-0.2,1.1h7.4C165.7,48.4,165.3,47.6,164.8,47L164.8,47z
	 M176.9,55.5c0.2,0.4,0.5,0.6,0.8,0.9c0.3,0.2,0.7,0.4,1.1,0.5c0.4,0.1,0.8,0.2,1.3,0.2c0.3,0,0.7,0,1-0.1c0.4-0.1,0.7-0.2,1-0.4
	s0.5-0.4,0.7-0.6c0.2-0.3,0.3-0.6,0.3-1c0-0.7-0.5-1.2-1.4-1.5s-2.2-0.7-3.8-1c-0.7-0.1-1.3-0.3-1.9-0.5c-0.6-0.2-1.2-0.5-1.7-0.8
	s-0.9-0.7-1.2-1.2s-0.4-1.1-0.4-1.8c0-1.1,0.2-1.9,0.6-2.6c0.4-0.7,1-1.2,1.6-1.6s1.4-0.7,2.3-0.8c0.9-0.2,1.7-0.2,2.6-0.2
	c0.9,0,1.8,0.1,2.6,0.3s1.6,0.5,2.3,0.9s1.2,0.9,1.6,1.6c0.4,0.7,0.7,1.5,0.8,2.5h-4.3c-0.1-0.9-0.4-1.5-1-1.8s-1.3-0.5-2.1-0.5
	h-0.8c-0.3,0-0.6,0.1-0.8,0.2s-0.5,0.3-0.6,0.5c-0.2,0.2-0.3,0.5-0.3,0.8c0,0.4,0.1,0.7,0.4,1c0.3,0.3,0.7,0.5,1.2,0.6
	c0.5,0.2,1,0.3,1.6,0.4c0.6,0.1,1.2,0.3,1.9,0.4c0.7,0.1,1.3,0.3,1.9,0.5c0.6,0.2,1.2,0.5,1.7,0.8c0.5,0.4,0.9,0.8,1.2,1.3
	s0.4,1.2,0.4,1.9c0,1.1-0.2,2-0.7,2.7c-0.4,0.7-1,1.3-1.7,1.8c-0.7,0.4-1.5,0.8-2.4,0.9c-0.9,0.2-1.8,0.3-2.8,0.3s-1.9-0.1-2.8-0.3
	c-0.9-0.2-1.7-0.5-2.4-1c-0.7-0.4-1.3-1-1.8-1.8c-0.5-0.7-0.7-1.7-0.8-2.8h4.3C176.6,54.7,176.7,55.2,176.9,55.5L176.9,55.5z
	 M194.1,55.5c0.2,0.4,0.5,0.6,0.8,0.9c0.3,0.2,0.7,0.4,1.1,0.5c0.4,0.1,0.8,0.2,1.3,0.2c0.3,0,0.7,0,1-0.1c0.4-0.1,0.7-0.2,1-0.4
	s0.5-0.4,0.7-0.6c0.2-0.3,0.3-0.6,0.3-1c0-0.7-0.5-1.2-1.4-1.5s-2.2-0.7-3.8-1c-0.7-0.1-1.3-0.3-1.9-0.5c-0.6-0.2-1.2-0.5-1.7-0.8
	s-0.9-0.7-1.2-1.2s-0.4-1.1-0.4-1.8c0-1.1,0.2-1.9,0.6-2.6c0.4-0.7,1-1.2,1.6-1.6c0.7-0.4,1.4-0.7,2.3-0.8c0.9-0.2,1.7-0.2,2.6-0.2
	c0.9,0,1.8,0.1,2.6,0.3s1.6,0.5,2.3,0.9s1.2,0.9,1.6,1.6c0.4,0.7,0.7,1.5,0.8,2.5H200c-0.1-0.9-0.4-1.5-1-1.8s-1.3-0.5-2.1-0.5h-0.8
	c-0.3,0-0.6,0.1-0.8,0.2c-0.2,0.1-0.5,0.3-0.6,0.5c-0.2,0.2-0.3,0.5-0.3,0.8c0,0.4,0.1,0.7,0.4,1c0.3,0.3,0.7,0.5,1.2,0.6
	c0.5,0.2,1,0.3,1.6,0.4c0.6,0.1,1.2,0.3,1.9,0.4c0.7,0.1,1.3,0.3,1.9,0.5c0.6,0.2,1.2,0.5,1.7,0.8c0.5,0.4,0.9,0.8,1.2,1.3
	s0.4,1.2,0.4,1.9c0,1.1-0.2,2-0.7,2.7c-0.4,0.7-1,1.3-1.7,1.8c-0.7,0.4-1.5,0.8-2.4,0.9c-0.9,0.2-1.8,0.3-2.8,0.3s-1.9-0.1-2.8-0.3
	c-0.9-0.2-1.7-0.5-2.4-1c-0.7-0.4-1.3-1-1.8-1.8c-0.5-0.7-0.7-1.7-0.8-2.8h4.3C193.8,54.7,193.9,55.2,194.1,55.5L194.1,55.5z
	 M192.8,93.4c0.2,0.4,0.5,0.6,0.8,0.9c0.3,0.2,0.7,0.4,1.1,0.5c0.4,0.1,0.8,0.2,1.3,0.2c0.3,0,0.7,0,1-0.1c0.4-0.1,0.7-0.2,1-0.4
	s0.5-0.4,0.7-0.6c0.2-0.3,0.3-0.6,0.3-1c0-0.7-0.5-1.2-1.4-1.5s-2.2-0.7-3.8-1c-0.7-0.1-1.3-0.3-1.9-0.5c-0.6-0.2-1.2-0.5-1.7-0.8
	c-0.5-0.3-0.9-0.7-1.2-1.2s-0.4-1.1-0.4-1.8c0-1.1,0.2-1.9,0.6-2.6c0.4-0.7,1-1.2,1.6-1.6c0.7-0.4,1.4-0.7,2.3-0.8
	c0.9-0.2,1.7-0.2,2.6-0.2c0.9,0,1.8,0.1,2.6,0.3s1.6,0.5,2.3,0.9s1.2,0.9,1.6,1.6c0.4,0.7,0.7,1.5,0.8,2.5h-4.3
	c-0.1-0.9-0.4-1.5-1-1.8c-0.6-0.3-1.3-0.5-2.1-0.5h-0.8c-0.3,0-0.6,0.1-0.8,0.2s-0.5,0.3-0.6,0.5c-0.2,0.2-0.3,0.5-0.3,0.8
	c0,0.4,0.1,0.7,0.4,1c0.3,0.3,0.7,0.5,1.2,0.6c0.5,0.2,1,0.3,1.6,0.4c0.6,0.1,1.2,0.3,1.9,0.4c0.7,0.1,1.3,0.3,1.9,0.5
	c0.6,0.2,1.2,0.5,1.7,0.8c0.5,0.4,0.9,0.8,1.2,1.3s0.4,1.2,0.4,1.9c0,1.1-0.2,2-0.7,2.7c-0.4,0.7-1,1.3-1.7,1.8
	c-0.7,0.4-1.5,0.8-2.4,0.9c-0.9,0.2-1.8,0.3-2.8,0.3s-1.9-0.1-2.8-0.3c-0.9-0.2-1.7-0.5-2.4-1c-0.7-0.4-1.3-1-1.8-1.8
	c-0.5-0.7-0.7-1.7-0.8-2.8h4.3C192.5,92.6,192.6,93.1,192.8,93.4L192.8,93.4z"/>
<g class="st1">
	<path class="st2" d="M72.1,79.4v-4.2h18.7v4.2H84V98h-5V79.4H72.1z"/>
</g>
<g class="st1">
	<path class="st2" d="M94.3,81.4v3.1h0.1c0.2-0.5,0.5-1,0.9-1.4s0.8-0.8,1.2-1.1c0.5-0.3,1-0.5,1.5-0.7s1.1-0.3,1.7-0.3
		c0.3,0,0.6,0.1,1,0.2v4.2c-0.2,0-0.5-0.1-0.8-0.1H99c-0.8,0-1.5,0.1-2.1,0.4s-1,0.7-1.4,1.1c-0.4,0.5-0.6,1-0.8,1.7
		s-0.2,1.3-0.2,2.1V98H90V81.4C90,81.4,94.3,81.4,94.3,81.4z M102.2,86.5c0.1-1.1,0.3-1.9,0.8-2.7c0.5-0.7,1.1-1.3,1.8-1.7
		c0.7-0.4,1.5-0.7,2.4-0.9c0.9-0.2,1.8-0.3,2.7-0.3c0.8,0,1.7,0.1,2.5,0.2c0.9,0.1,1.6,0.3,2.3,0.7c0.7,0.3,1.3,0.8,1.7,1.4
		c0.4,0.6,0.7,1.4,0.7,2.4v8.6c0,0.7,0,1.5,0.1,2.1c0.1,0.7,0.2,1.2,0.4,1.5H113c-0.1-0.3-0.2-0.5-0.2-0.8c-0.1-0.3-0.1-0.5-0.1-0.8
		c-0.7,0.7-1.6,1.3-2.6,1.6c-1,0.3-2,0.4-3,0.4c-0.8,0-1.5-0.1-2.2-0.3c-0.7-0.2-1.3-0.5-1.8-0.9s-0.9-0.9-1.2-1.5
		c-0.3-0.6-0.4-1.4-0.4-2.2c0-0.9,0.2-1.7,0.5-2.3c0.3-0.6,0.8-1.1,1.3-1.5s1.1-0.6,1.8-0.8c0.7-0.2,1.3-0.3,2-0.4s1.4-0.2,2-0.3
		c0.7-0.1,1.2-0.2,1.8-0.3c0.5-0.1,0.9-0.3,1.2-0.6c0.3-0.2,0.4-0.6,0.4-1.1s-0.1-0.9-0.2-1.2c-0.2-0.3-0.4-0.5-0.6-0.7
		c-0.3-0.2-0.6-0.3-0.9-0.3c-0.4-0.1-0.7-0.1-1.1-0.1c-0.9,0-1.6,0.2-2.1,0.6s-0.8,1-0.9,1.9h-4.5L102.2,86.5z M112.7,89.9
		c-0.2,0.2-0.4,0.3-0.7,0.4c-0.3,0.1-0.6,0.2-0.9,0.2c-0.3,0.1-0.7,0.1-1,0.2c-0.4,0-0.7,0.1-1.1,0.2c-0.3,0.1-0.7,0.1-1,0.3
		s-0.6,0.2-0.9,0.4c-0.2,0.2-0.4,0.4-0.6,0.7c-0.1,0.3-0.2,0.6-0.2,1.1c0,0.4,0.1,0.7,0.2,1s0.4,0.5,0.6,0.7
		c0.3,0.2,0.6,0.3,0.9,0.3c0.3,0.1,0.7,0.1,1.1,0.1c0.9,0,1.6-0.1,2.1-0.4s0.9-0.7,1.1-1.1s0.4-0.8,0.4-1.3c0.1-0.4,0.1-0.8,0.1-1
		L112.7,89.9L112.7,89.9z M128.6,84.4c-0.7,0-1.3,0.2-1.8,0.5s-0.9,0.8-1.2,1.3s-0.5,1.1-0.7,1.7c-0.1,0.6-0.2,1.3-0.2,1.9
		s0.1,1.2,0.2,1.8c0.1,0.6,0.3,1.2,0.6,1.7s0.7,0.9,1.2,1.2c0.5,0.3,1.1,0.5,1.8,0.5c1.1,0,1.9-0.3,2.5-0.9s1-1.4,1.1-2.4h4.4
		c-0.3,2.2-1.1,3.9-2.6,5c-1.4,1.1-3.2,1.7-5.4,1.7c-1.2,0-2.4-0.2-3.4-0.6s-1.9-1-2.6-1.7c-0.7-0.7-1.3-1.6-1.7-2.7
		c-0.4-1-0.6-2.2-0.6-3.4c0-1.3,0.2-2.5,0.6-3.6c0.4-1.1,0.9-2,1.6-2.8c0.7-0.8,1.6-1.4,2.7-1.9c1-0.4,2.2-0.7,3.6-0.7
		c1,0,1.9,0.1,2.8,0.4c0.9,0.3,1.7,0.6,2.4,1.2c0.7,0.5,1.3,1.2,1.7,1.9c0.4,0.8,0.7,1.7,0.8,2.8H132
		C131.7,85.3,130.5,84.4,128.6,84.4L128.6,84.4z M144,75.1v12.2l5.7-5.9h5.4l-6.2,6.1l6.9,10.4h-5.5l-4.5-7.4l-1.8,1.7v5.7h-4.5
		V75.1H144L144,75.1z M162.2,94c0.7,0.7,1.7,1,2.9,1c0.9,0,1.7-0.2,2.4-0.7s1.1-0.9,1.2-1.5h4c-0.6,2-1.6,3.4-2.9,4.2
		c-1.3,0.9-2.9,1.3-4.8,1.3c-1.3,0-2.5-0.2-3.5-0.6s-1.9-1-2.7-1.8c-0.7-0.8-1.3-1.7-1.7-2.7c-0.4-1.1-0.6-2.2-0.6-3.5
		c0-1.2,0.2-2.4,0.6-3.4c0.4-1.1,1-2,1.7-2.8s1.6-1.4,2.7-1.8c1-0.4,2.2-0.7,3.4-0.7c1.4,0,2.6,0.3,3.7,0.8c1,0.5,1.9,1.3,2.6,2.2
		c0.7,0.9,1.2,2,1.5,3.1c0.3,1.2,0.4,2.4,0.3,3.7h-11.9C161.2,92.3,161.5,93.3,162.2,94z M167.4,85.3c-0.5-0.6-1.4-0.9-2.5-0.9
		c-0.7,0-1.3,0.1-1.8,0.4c-0.5,0.2-0.9,0.6-1.1,0.9c-0.3,0.4-0.5,0.7-0.6,1.1s-0.2,0.8-0.2,1.1h7.4
		C168.3,86.8,167.9,85.9,167.4,85.3L167.4,85.3z M180,81.4v3.1h0.1c0.2-0.5,0.5-1,0.9-1.4s0.8-0.8,1.2-1.1c0.5-0.3,1-0.5,1.5-0.7
		s1.1-0.3,1.7-0.3c0.3,0,0.6,0.1,1,0.2v4.2c-0.2,0-0.5-0.1-0.8-0.1h-0.9c-0.8,0-1.5,0.1-2.1,0.4s-1,0.7-1.4,1.1
		c-0.3,0.5-0.6,1-0.8,1.7s-0.2,1.3-0.2,2.1V98h-4.5V81.4H180z"/>
</g>
<path class="st2" d="M186,140.2l12.5-13.7l-14.2,11c-0.3-0.5-0.7-1-1.1-1.4c-5.7-7.4-14.4-11.8-23.8-12.1
	c-8.1,0.1-15.8,3.7-21.1,9.8c-5.3-6.2-13-9.7-21.1-9.8c-4.8,0-9.4,1.2-13.7,3.3c-4.3,2.2-8.1,5.3-11,9.1c-5.1,6.4-6.9,14.9-4.7,22.8
	c2.2,7.4,5.6,14.5,10,20.9c4.7,7.1,9.8,14,15.3,20.5c10.4,12.7,19.9,22.5,20.3,22.8l6,6.2l5.6-6.6c0.4-0.5,9.9-11.8,20-25.1
	c6-7.9,10.9-14.9,14.7-20.7c5.2-8.1,8.1-13.9,9.1-18.3c1-4.1,0.9-8.4-0.3-12.5C188,144.2,187.1,142.1,186,140.2z M181.2,157.2
	c-3.6,15.2-42.1,60.9-42.1,60.9s-38.4-39.5-43.6-60.9c-3.8-14.2,9.8-25.4,21.8-25.4c10.1,0,18.6,7.9,21.1,18.8
	c2.5-10.8,11-18.8,21.1-18.8c7.6,0.4,14.5,4.3,18.7,10.6L143,169.6l-7.3-12.1l-13.3,9.4l13.4,16.2l5.1,6.2l4.7-5.1l34.7-37.7
	C181.7,149.8,182,153.6,181.2,157.2L181.2,157.2z"/>
</svg>
